%TF.GenerationSoftware,KiCad,Pcbnew,7.0.6*%
%TF.CreationDate,2023-08-21T19:58:40-03:00*%
%TF.ProjectId,satelite,73617465-6c69-4746-952e-6b696361645f,rev?*%
%TF.SameCoordinates,Original*%
%TF.FileFunction,Copper,L2,Bot*%
%TF.FilePolarity,Positive*%
%FSLAX46Y46*%
G04 Gerber Fmt 4.6, Leading zero omitted, Abs format (unit mm)*
G04 Created by KiCad (PCBNEW 7.0.6) date 2023-08-21 19:58:40*
%MOMM*%
%LPD*%
G01*
G04 APERTURE LIST*
G04 Aperture macros list*
%AMRoundRect*
0 Rectangle with rounded corners*
0 $1 Rounding radius*
0 $2 $3 $4 $5 $6 $7 $8 $9 X,Y pos of 4 corners*
0 Add a 4 corners polygon primitive as box body*
4,1,4,$2,$3,$4,$5,$6,$7,$8,$9,$2,$3,0*
0 Add four circle primitives for the rounded corners*
1,1,$1+$1,$2,$3*
1,1,$1+$1,$4,$5*
1,1,$1+$1,$6,$7*
1,1,$1+$1,$8,$9*
0 Add four rect primitives between the rounded corners*
20,1,$1+$1,$2,$3,$4,$5,0*
20,1,$1+$1,$4,$5,$6,$7,0*
20,1,$1+$1,$6,$7,$8,$9,0*
20,1,$1+$1,$8,$9,$2,$3,0*%
G04 Aperture macros list end*
%TA.AperFunction,ComponentPad*%
%ADD10O,0.850000X0.850000*%
%TD*%
%TA.AperFunction,ComponentPad*%
%ADD11R,0.850000X0.850000*%
%TD*%
%TA.AperFunction,ComponentPad*%
%ADD12C,0.700000*%
%TD*%
%TA.AperFunction,ComponentPad*%
%ADD13O,0.900000X2.400000*%
%TD*%
%TA.AperFunction,ComponentPad*%
%ADD14O,0.900000X1.700000*%
%TD*%
%TA.AperFunction,SMDPad,CuDef*%
%ADD15RoundRect,0.225000X0.225000X0.250000X-0.225000X0.250000X-0.225000X-0.250000X0.225000X-0.250000X0*%
%TD*%
%TA.AperFunction,SMDPad,CuDef*%
%ADD16RoundRect,0.250000X0.262500X0.450000X-0.262500X0.450000X-0.262500X-0.450000X0.262500X-0.450000X0*%
%TD*%
%TA.AperFunction,HeatsinkPad*%
%ADD17C,0.600000*%
%TD*%
%TA.AperFunction,SMDPad,CuDef*%
%ADD18RoundRect,0.100000X0.130000X0.100000X-0.130000X0.100000X-0.130000X-0.100000X0.130000X-0.100000X0*%
%TD*%
%TA.AperFunction,ComponentPad*%
%ADD19R,3.500000X3.500000*%
%TD*%
%TA.AperFunction,ComponentPad*%
%ADD20RoundRect,0.750000X1.000000X-0.750000X1.000000X0.750000X-1.000000X0.750000X-1.000000X-0.750000X0*%
%TD*%
%TA.AperFunction,ComponentPad*%
%ADD21RoundRect,0.875000X0.875000X-0.875000X0.875000X0.875000X-0.875000X0.875000X-0.875000X-0.875000X0*%
%TD*%
%TA.AperFunction,SMDPad,CuDef*%
%ADD22RoundRect,0.250000X0.250000X0.475000X-0.250000X0.475000X-0.250000X-0.475000X0.250000X-0.475000X0*%
%TD*%
%TA.AperFunction,SMDPad,CuDef*%
%ADD23RoundRect,0.250000X-0.262500X-0.450000X0.262500X-0.450000X0.262500X0.450000X-0.262500X0.450000X0*%
%TD*%
%TA.AperFunction,SMDPad,CuDef*%
%ADD24R,2.000000X1.200000*%
%TD*%
%TA.AperFunction,SMDPad,CuDef*%
%ADD25R,1.200000X2.000000*%
%TD*%
%TA.AperFunction,SMDPad,CuDef*%
%ADD26R,2.200000X1.050000*%
%TD*%
%TA.AperFunction,SMDPad,CuDef*%
%ADD27R,1.050000X1.000000*%
%TD*%
%TA.AperFunction,SMDPad,CuDef*%
%ADD28RoundRect,0.175000X-0.175000X0.725000X-0.175000X-0.725000X0.175000X-0.725000X0.175000X0.725000X0*%
%TD*%
%TA.AperFunction,SMDPad,CuDef*%
%ADD29RoundRect,0.200000X-0.200000X0.700000X-0.200000X-0.700000X0.200000X-0.700000X0.200000X0.700000X0*%
%TD*%
%TA.AperFunction,SMDPad,CuDef*%
%ADD30R,1.750000X0.700000*%
%TD*%
%TA.AperFunction,SMDPad,CuDef*%
%ADD31R,1.000000X1.450000*%
%TD*%
%TA.AperFunction,SMDPad,CuDef*%
%ADD32R,1.550000X1.000000*%
%TD*%
%TA.AperFunction,SMDPad,CuDef*%
%ADD33R,1.500000X0.800000*%
%TD*%
%TA.AperFunction,SMDPad,CuDef*%
%ADD34R,1.500000X1.300000*%
%TD*%
%TA.AperFunction,SMDPad,CuDef*%
%ADD35R,1.500000X1.500000*%
%TD*%
%TA.AperFunction,SMDPad,CuDef*%
%ADD36R,1.400000X0.800000*%
%TD*%
%TA.AperFunction,ViaPad*%
%ADD37C,0.600000*%
%TD*%
%TA.AperFunction,Conductor*%
%ADD38C,0.200000*%
%TD*%
G04 APERTURE END LIST*
D10*
%TO.P,REF\u002A\u002A,4*%
%TO.N,N/C*%
X137000000Y-64750000D03*
%TO.P,REF\u002A\u002A,3*%
X136000000Y-64750000D03*
%TO.P,REF\u002A\u002A,2*%
X135000000Y-64750000D03*
D11*
%TO.P,REF\u002A\u002A,1*%
X134000000Y-64750000D03*
%TD*%
D12*
%TO.P,J2,A1,GND*%
%TO.N,GND*%
X159025000Y-126650000D03*
%TO.P,J2,A4,VBUS*%
%TO.N,Net-(U7-IN)*%
X159875000Y-126650000D03*
%TO.P,J2,A5,CC1*%
%TO.N,unconnected-(J2-CC1-PadA5)*%
X160725000Y-126650000D03*
%TO.P,J2,A6,D+*%
%TO.N,Net-(U6-USBD+)*%
X161575000Y-126650000D03*
%TO.P,J2,A7,D-*%
%TO.N,unconnected-(J2-D--PadA7)*%
X162425000Y-126650000D03*
%TO.P,J2,A8,SBU1*%
%TO.N,unconnected-(J2-SBU1-PadA8)*%
X163275000Y-126650000D03*
%TO.P,J2,A9,VBUS*%
%TO.N,Net-(U7-IN)*%
X164125000Y-126650000D03*
%TO.P,J2,A12,GND*%
%TO.N,GND*%
X164975000Y-126650000D03*
%TO.P,J2,B1,GND*%
X164975000Y-128000000D03*
%TO.P,J2,B4,VBUS*%
%TO.N,Net-(U7-IN)*%
X164125000Y-128000000D03*
%TO.P,J2,B5,CC2*%
%TO.N,unconnected-(J2-CC2-PadB5)*%
X163275000Y-128000000D03*
%TO.P,J2,B6,D+*%
%TO.N,unconnected-(J2-D+-PadB6)*%
X162425000Y-128000000D03*
%TO.P,J2,B7,D-*%
%TO.N,Net-(U6-USBD-)*%
X161575000Y-128000000D03*
%TO.P,J2,B8,SBU2*%
%TO.N,unconnected-(J2-SBU2-PadB8)*%
X160725000Y-128000000D03*
%TO.P,J2,B9,VBUS*%
%TO.N,Net-(U7-IN)*%
X159875000Y-128000000D03*
%TO.P,J2,B12,GND*%
%TO.N,GND*%
X159025000Y-128000000D03*
D13*
%TO.P,J2,S1,SHIELD*%
%TO.N,unconnected-(J2-SHIELD-PadS1)*%
X157675000Y-127630000D03*
D14*
X157675000Y-131010000D03*
D13*
X166325000Y-127630000D03*
D14*
X166325000Y-131010000D03*
%TD*%
D15*
%TO.P,C9,1*%
%TO.N,Net-(U3-V_BCKP)*%
X172000000Y-79000000D03*
%TO.P,C9,2*%
%TO.N,GND*%
X170450000Y-79000000D03*
%TD*%
D16*
%TO.P,R8,1*%
%TO.N,Net-(J1-VDD)*%
X135412500Y-83000000D03*
%TO.P,R8,2*%
%TO.N,GND*%
X133587500Y-83000000D03*
%TD*%
D17*
%TO.P,U4,39,GND*%
%TO.N,GND*%
X151000000Y-72287500D03*
X151000000Y-70762500D03*
X150237500Y-73050000D03*
X150237500Y-71525000D03*
X150237500Y-70000000D03*
X149475000Y-72287500D03*
X149475000Y-70762500D03*
X148712500Y-73050000D03*
X148712500Y-71525000D03*
X148712500Y-70000000D03*
X147950000Y-72287500D03*
X147950000Y-70762500D03*
%TD*%
D16*
%TO.P,R6,1*%
%TO.N,Net-(J1-VDD)*%
X165912500Y-67000000D03*
%TO.P,R6,2*%
%TO.N,Net-(U1-SCL)*%
X164087500Y-67000000D03*
%TD*%
D18*
%TO.P,C12,1*%
%TO.N,Net-(J1-VDD)*%
X134975000Y-125000000D03*
%TO.P,C12,2*%
%TO.N,GND*%
X134335000Y-125000000D03*
%TD*%
D19*
%TO.P,J4,1*%
%TO.N,Net-(U7-IN)*%
X146042500Y-125000000D03*
D20*
%TO.P,J4,2*%
%TO.N,GND*%
X146042500Y-131000000D03*
D21*
%TO.P,J4,3*%
X150742500Y-128000000D03*
%TD*%
D22*
%TO.P,C10,1*%
%TO.N,Net-(J1-VDD)*%
X155000000Y-88000000D03*
%TO.P,C10,2*%
%TO.N,Net-(U5-VCC)*%
X153100000Y-88000000D03*
%TD*%
D15*
%TO.P,C8,1*%
%TO.N,Net-(J1-VDD)*%
X172000000Y-75000000D03*
%TO.P,C8,2*%
%TO.N,GND*%
X170450000Y-75000000D03*
%TD*%
D18*
%TO.P,C14,1*%
%TO.N,Net-(J1-VDD)*%
X171975000Y-84750000D03*
%TO.P,C14,2*%
%TO.N,Net-(C13-Pad1)*%
X171335000Y-84750000D03*
%TD*%
D16*
%TO.P,R7,1*%
%TO.N,Net-(J1-VDD)*%
X166000000Y-71000000D03*
%TO.P,R7,2*%
%TO.N,Net-(U1-SDA)*%
X164175000Y-71000000D03*
%TD*%
D23*
%TO.P,R9,1*%
%TO.N,Net-(J1-VDD)*%
X133587500Y-87750000D03*
%TO.P,R9,2*%
%TO.N,Net-(U4-IO17)*%
X135412500Y-87750000D03*
%TD*%
D18*
%TO.P,C13,1*%
%TO.N,Net-(C13-Pad1)*%
X171975000Y-83000000D03*
%TO.P,C13,2*%
%TO.N,Net-(U5-VCC)*%
X171335000Y-83000000D03*
%TD*%
D24*
%TO.P,U5,34,GND*%
%TO.N,GND*%
X150150000Y-105500000D03*
%TO.P,U5,33,RF_OUT*%
%TO.N,Net-(J3-In)*%
X150150000Y-107300000D03*
%TO.P,U5,32,GND*%
%TO.N,GND*%
X150150000Y-109100000D03*
%TO.P,U5,31,GND*%
X150150000Y-110900000D03*
%TO.P,U5,30,GND*%
X150150000Y-112700000D03*
%TO.P,U5,29,GND*%
X150150000Y-114500000D03*
D25*
%TO.P,U5,28,GND*%
X151900000Y-116750000D03*
%TO.P,U5,27,PB2*%
%TO.N,unconnected-(U5-PB2-Pad27)*%
X153700000Y-116750000D03*
%TO.P,U5,26,PB11*%
%TO.N,unconnected-(U5-PB11-Pad26)*%
X155500000Y-116750000D03*
%TO.P,U5,25,PB10*%
%TO.N,unconnected-(U5-PB10-Pad25)*%
X157300000Y-116750000D03*
%TO.P,U5,24,~{RST}*%
%TO.N,unconnected-(U5-~{RST}-Pad24)*%
X159100000Y-116750000D03*
%TO.P,U5,23,PA0*%
%TO.N,unconnected-(U5-PA0-Pad23)*%
X160900000Y-116750000D03*
%TO.P,U5,22,PA1*%
%TO.N,unconnected-(U5-PA1-Pad22)*%
X162700000Y-116750000D03*
%TO.P,U5,21,GND*%
%TO.N,GND*%
X164500000Y-116750000D03*
%TO.P,U5,20,PA2*%
%TO.N,unconnected-(U5-PA2-Pad20)*%
X166300000Y-116750000D03*
%TO.P,U5,19,PB9*%
%TO.N,unconnected-(U5-PB9-Pad19)*%
X168100000Y-116750000D03*
%TO.P,U5,18,PB8*%
%TO.N,unconnected-(U5-PB8-Pad18)*%
X169900000Y-116750000D03*
D24*
%TO.P,U5,17,BOOT0*%
%TO.N,unconnected-(U5-BOOT0-Pad17)*%
X171650000Y-114500000D03*
%TO.P,U5,16,PB5*%
%TO.N,unconnected-(U5-PB5-Pad16)*%
X171650000Y-112700000D03*
%TO.P,U5,15,PB3*%
%TO.N,unconnected-(U5-PB3-Pad15)*%
X171650000Y-110900000D03*
%TO.P,U5,14,PA15*%
%TO.N,unconnected-(U5-PA15-Pad14)*%
X171650000Y-109100000D03*
%TO.P,U5,13,PA14*%
%TO.N,unconnected-(U5-PA14-Pad13)*%
X171650000Y-107300000D03*
%TO.P,U5,12,GND*%
%TO.N,GND*%
X171650000Y-105500000D03*
D25*
%TO.P,U5,11,VCC*%
%TO.N,Net-(U5-VCC)*%
X169900000Y-103250000D03*
%TO.P,U5,10,PA13*%
%TO.N,unconnected-(U5-PA13-Pad10)*%
X168100000Y-103250000D03*
%TO.P,U5,9,PB4*%
%TO.N,unconnected-(U5-PB4-Pad9)*%
X166300000Y-103250000D03*
%TO.P,U5,8,PA12*%
%TO.N,unconnected-(U5-PA12-Pad8)*%
X164500000Y-103250000D03*
%TO.P,U5,7,PA10/USART1_RX*%
%TO.N,GND*%
X162700000Y-103250000D03*
%TO.P,U5,6,PA9/USART1_TX*%
%TO.N,Net-(U4-IO17)*%
X160900000Y-103250000D03*
%TO.P,U5,5,PA8*%
%TO.N,unconnected-(U5-PA8-Pad5)*%
X159100000Y-103250000D03*
%TO.P,U5,4,PB15*%
%TO.N,unconnected-(U5-PB15-Pad4)*%
X157300000Y-103250000D03*
%TO.P,U5,3,PB14*%
%TO.N,unconnected-(U5-PB14-Pad3)*%
X155500000Y-103250000D03*
%TO.P,U5,2,PB12*%
%TO.N,unconnected-(U5-PB12-Pad2)*%
X153700000Y-103250000D03*
%TO.P,U5,1,GND*%
%TO.N,GND*%
X151900000Y-103250000D03*
%TD*%
D26*
%TO.P,J5,2,Ext*%
%TO.N,GND*%
X166775000Y-75525000D03*
X166775000Y-78475000D03*
D27*
%TO.P,J5,1,In*%
%TO.N,Net-(J5-In)*%
X168300000Y-77000000D03*
%TD*%
D28*
%TO.P,U3,1,GND*%
%TO.N,GND*%
X162600000Y-89500000D03*
D29*
%TO.P,U3,2,TXD*%
%TO.N,unconnected-(U3-TXD-Pad2)*%
X163700000Y-89500000D03*
%TO.P,U3,3,RXD*%
%TO.N,unconnected-(U3-RXD-Pad3)*%
X164800000Y-89500000D03*
%TO.P,U3,4,TIMEPULSE*%
%TO.N,unconnected-(U3-TIMEPULSE-Pad4)*%
X165900000Y-89500000D03*
%TO.P,U3,5,EXTINT*%
%TO.N,unconnected-(U3-EXTINT-Pad5)*%
X167000000Y-89500000D03*
%TO.P,U3,6,V_BCKP*%
%TO.N,Net-(U3-V_BCKP)*%
X168100000Y-89500000D03*
%TO.P,U3,7,VCC_IO*%
%TO.N,unconnected-(U3-VCC_IO-Pad7)*%
X169200000Y-89500000D03*
%TO.P,U3,8,VCC*%
%TO.N,Net-(J1-VDD)*%
X170300000Y-89500000D03*
D28*
%TO.P,U3,9,~{RESET}*%
%TO.N,unconnected-(U3-~{RESET}-Pad9)*%
X171400000Y-89500000D03*
%TO.P,U3,10,GND*%
%TO.N,GND*%
X171400000Y-99000000D03*
D29*
%TO.P,U3,11,RF_IN*%
%TO.N,Net-(J5-In)*%
X170300000Y-99000000D03*
%TO.P,U3,12,GND*%
%TO.N,GND*%
X169200000Y-99000000D03*
%TO.P,U3,13,LNA_EN*%
%TO.N,unconnected-(U3-LNA_EN-Pad13)*%
X168100000Y-99000000D03*
%TO.P,U3,14,VCC_RF*%
%TO.N,unconnected-(U3-VCC_RF-Pad14)*%
X167000000Y-99000000D03*
%TO.P,U3,15,Reserved*%
%TO.N,unconnected-(U3-Reserved-Pad15)*%
X165900000Y-99000000D03*
%TO.P,U3,16,SDA*%
%TO.N,Net-(U1-SDA)*%
X164800000Y-99000000D03*
%TO.P,U3,17,SCL*%
%TO.N,Net-(U1-SCL)*%
X163700000Y-99000000D03*
D28*
%TO.P,U3,18,~{SAFEBOOT}*%
%TO.N,unconnected-(U3-~{SAFEBOOT}-Pad18)*%
X162600000Y-99000000D03*
%TD*%
D30*
%TO.P,J1,1,CD/DAT3*%
%TO.N,Net-(J1-CD{slash}DAT3)*%
X127650000Y-112825000D03*
%TO.P,J1,2,CMD*%
%TO.N,Net-(J1-CMD)*%
X127650000Y-113925000D03*
%TO.P,J1,3,VSS*%
%TO.N,GND*%
X127650000Y-115025000D03*
%TO.P,J1,4,VDD*%
%TO.N,Net-(J1-VDD)*%
X127650000Y-116125000D03*
%TO.P,J1,5,CLK*%
%TO.N,Net-(J1-CLK)*%
X127650000Y-117225000D03*
%TO.P,J1,6,VSS*%
%TO.N,unconnected-(J1-VSS-Pad6)*%
X127650000Y-118325000D03*
%TO.P,J1,7,DAT0*%
%TO.N,Net-(J1-DAT0)*%
X127650000Y-119425000D03*
%TO.P,J1,8,DAT1*%
%TO.N,Net-(J1-DAT1)*%
X127650000Y-120525000D03*
D31*
%TO.P,J1,9,DAT2*%
%TO.N,Net-(J1-DAT2)*%
X136875000Y-121650000D03*
D32*
%TO.P,J1,10,CARD_DETECT*%
%TO.N,unconnected-(J1-CARD_DETECT-Pad10)*%
X138450000Y-110425000D03*
D33*
%TO.P,J1,11,WRITE_PROTECT*%
%TO.N,unconnected-(J1-WRITE_PROTECT-Pad11)*%
X135375000Y-121975000D03*
D34*
X127775000Y-121725000D03*
D35*
X127775000Y-110375000D03*
D36*
X136025000Y-110025000D03*
%TD*%
D27*
%TO.P,J3,1,In*%
%TO.N,Net-(J3-In)*%
X128700000Y-74250000D03*
D26*
%TO.P,J3,2,Ext*%
%TO.N,GND*%
X130225000Y-72775000D03*
X130225000Y-75725000D03*
%TD*%
D37*
%TO.N,Net-(U1-SCL)*%
X161250000Y-67000000D03*
%TO.N,Net-(J1-VDD)*%
X144750000Y-76900000D03*
X137750000Y-124750000D03*
%TO.N,Net-(J1-DAT1)*%
X155750000Y-75750000D03*
X134000000Y-79750000D03*
X130298911Y-122451089D03*
%TO.N,Net-(J1-DAT0)*%
X152750000Y-76000000D03*
X138000000Y-79750000D03*
X131000000Y-124000000D03*
%TO.N,Net-(J1-CLK)*%
X143000000Y-79500000D03*
X139250000Y-83000000D03*
X139250000Y-83000000D03*
X132000000Y-124000000D03*
%TO.N,Net-(J1-CMD)*%
X129500000Y-88000000D03*
%TO.N,Net-(J1-CD{slash}DAT3)*%
X134250000Y-78250000D03*
%TO.N,Net-(J5-In)*%
X174000000Y-80750000D03*
X170250000Y-80750000D03*
%TO.N,Net-(U5-VCC)*%
X172000000Y-81500000D03*
X165500000Y-83000000D03*
%TO.N,Net-(U1-SDA)*%
X161500000Y-74500000D03*
%TO.N,Net-(U3-V_BCKP)*%
X167750000Y-84750000D03*
X168750000Y-83500000D03*
%TO.N,Net-(U4-IO17)*%
X156000000Y-77500000D03*
%TO.N,Net-(U1-SDA)*%
X161500000Y-78000000D03*
X150500000Y-87499502D03*
%TO.N,Net-(U1-AUX_DA)*%
X149000000Y-91000000D03*
X149000000Y-91000000D03*
X145000000Y-91000000D03*
%TD*%
D38*
%TO.N,Net-(U1-SCL)*%
X136000000Y-66250000D02*
X136000000Y-64750000D01*
X137250000Y-67500000D02*
X136000000Y-66250000D01*
X160750000Y-67500000D02*
X137250000Y-67500000D01*
X161250000Y-67000000D02*
X160750000Y-67500000D01*
%TO.N,Net-(U1-SDA)*%
X137000000Y-68250000D02*
X135000000Y-66250000D01*
X135000000Y-66250000D02*
X135000000Y-64750000D01*
X155250000Y-68250000D02*
X137000000Y-68250000D01*
X161500000Y-74500000D02*
X155250000Y-68250000D01*
%TO.N,Net-(U1-SCL)*%
X164087500Y-67000000D02*
X161250000Y-67000000D01*
%TO.N,Net-(J1-DAT1)*%
X134000000Y-79750000D02*
X140100000Y-73650000D01*
X140100000Y-73650000D02*
X153650000Y-73650000D01*
X153650000Y-73650000D02*
X155750000Y-75750000D01*
%TO.N,*%
X155965686Y-78100000D02*
X153157842Y-80907844D01*
X155965686Y-78100000D02*
X156234314Y-78100000D01*
X146750000Y-87315686D02*
X155965686Y-78100000D01*
X146750000Y-87500000D02*
X146750000Y-87315686D01*
%TO.N,GND*%
X162700000Y-103250000D02*
X162700000Y-105450000D01*
X162700000Y-105450000D02*
X162750000Y-105500000D01*
X162750000Y-105500000D02*
X162250000Y-105500000D01*
X171650000Y-105500000D02*
X162750000Y-105500000D01*
X150150000Y-115000000D02*
X151900000Y-116750000D01*
X150150000Y-112700000D02*
X150150000Y-115000000D01*
X150150000Y-110900000D02*
X150150000Y-112700000D01*
X146042500Y-131000000D02*
X147742500Y-131000000D01*
X147742500Y-131000000D02*
X150742500Y-128000000D01*
X169200000Y-99772792D02*
X169200000Y-99000000D01*
X171650000Y-102222792D02*
X169200000Y-99772792D01*
X171650000Y-105500000D02*
X171650000Y-102222792D01*
%TO.N,Net-(C13-Pad1)*%
X171975000Y-83155685D02*
X171975000Y-83000000D01*
X171335000Y-83795685D02*
X171975000Y-83155685D01*
X171335000Y-84750000D02*
X171335000Y-83795685D01*
%TO.N,Net-(J1-VDD)*%
X171975000Y-84750000D02*
X171975000Y-84905685D01*
X169900000Y-86750000D02*
X169900000Y-89250000D01*
X170130685Y-86750000D02*
X169900000Y-86750000D01*
X169900000Y-85551471D02*
X169900000Y-86750000D01*
X171975000Y-84905685D02*
X170130685Y-86750000D01*
X166000000Y-71000000D02*
X168000000Y-71000000D01*
X168000000Y-71000000D02*
X172000000Y-75000000D01*
X166000000Y-72148529D02*
X161248529Y-76900000D01*
X166000000Y-71000000D02*
X166000000Y-72148529D01*
X144750000Y-76900000D02*
X158000000Y-76900000D01*
X144437500Y-76900000D02*
X144750000Y-76900000D01*
X137500000Y-125000000D02*
X137750000Y-124750000D01*
X134975000Y-125000000D02*
X137500000Y-125000000D01*
X134975000Y-124500000D02*
X134975000Y-125000000D01*
X132425000Y-119825000D02*
X132425000Y-121950000D01*
X132425000Y-121950000D02*
X134975000Y-124500000D01*
X128725000Y-116125000D02*
X132425000Y-119825000D01*
X127650000Y-116125000D02*
X128725000Y-116125000D01*
%TO.N,GND*%
X139848529Y-131000000D02*
X146042500Y-131000000D01*
X134335000Y-125000000D02*
X134335000Y-125486471D01*
X134335000Y-125486471D02*
X139848529Y-131000000D01*
%TO.N,Net-(J1-DAT1)*%
X130250000Y-122500000D02*
X130298911Y-122451089D01*
X130250000Y-122050000D02*
X130250000Y-122500000D01*
X128725000Y-120525000D02*
X130250000Y-122050000D01*
X127650000Y-120525000D02*
X128725000Y-120525000D01*
%TO.N,Net-(J1-DAT0)*%
X141750000Y-76000000D02*
X152750000Y-76000000D01*
X138000000Y-79750000D02*
X141750000Y-76000000D01*
X131000000Y-121700000D02*
X131000000Y-124000000D01*
X128725000Y-119425000D02*
X131000000Y-121700000D01*
X127650000Y-119425000D02*
X128725000Y-119425000D01*
%TO.N,Net-(J1-CLK)*%
X142750000Y-79500000D02*
X143000000Y-79500000D01*
X139250000Y-83000000D02*
X142750000Y-79500000D01*
X132000000Y-120500000D02*
X132000000Y-124000000D01*
X128725000Y-117225000D02*
X132000000Y-120500000D01*
X127650000Y-117225000D02*
X128725000Y-117225000D01*
%TO.N,Net-(J1-CMD)*%
X129500000Y-113150000D02*
X129500000Y-88000000D01*
X128725000Y-113925000D02*
X129500000Y-113150000D01*
X127650000Y-113925000D02*
X128725000Y-113925000D01*
%TO.N,Net-(J1-CD{slash}DAT3)*%
X134250000Y-78500000D02*
X134250000Y-78250000D01*
X129025000Y-71750000D02*
X131425000Y-71750000D01*
X134250000Y-74575000D02*
X134250000Y-78250000D01*
X127750000Y-85865686D02*
X127750000Y-73025000D01*
X131425000Y-71750000D02*
X134250000Y-74575000D01*
X127750000Y-73025000D02*
X129025000Y-71750000D01*
X128825000Y-86940686D02*
X127750000Y-85865686D01*
X128825000Y-111650000D02*
X128825000Y-86940686D01*
X127650000Y-112825000D02*
X128825000Y-111650000D01*
%TO.N,GND*%
X149775000Y-112325000D02*
X150150000Y-112700000D01*
X132483578Y-112325000D02*
X149775000Y-112325000D01*
X129783578Y-115025000D02*
X132483578Y-112325000D01*
X127650000Y-115025000D02*
X129783578Y-115025000D01*
%TO.N,Net-(U1-SDA)*%
X159100000Y-82400000D02*
X158250000Y-83250000D01*
X165748529Y-82400000D02*
X159100000Y-82400000D01*
X166100000Y-82751471D02*
X165748529Y-82400000D01*
X166100000Y-83715686D02*
X166100000Y-82751471D01*
X160500000Y-89315686D02*
X166100000Y-83715686D01*
X164800000Y-93615686D02*
X160500000Y-89315686D01*
X164800000Y-99000000D02*
X164800000Y-93615686D01*
X158250000Y-83250000D02*
X158250000Y-81250000D01*
X158250000Y-87750000D02*
X158250000Y-83250000D01*
%TO.N,GND*%
X164500000Y-114450000D02*
X159150000Y-109100000D01*
X164500000Y-116750000D02*
X164500000Y-114450000D01*
X159000000Y-109250000D02*
X159000000Y-109100000D01*
X151900000Y-116350000D02*
X159000000Y-109250000D01*
X159000000Y-109100000D02*
X159150000Y-109100000D01*
X151900000Y-116750000D02*
X151900000Y-116350000D01*
X150150000Y-109100000D02*
X159000000Y-109100000D01*
X157350000Y-110900000D02*
X159150000Y-109100000D01*
X150150000Y-110900000D02*
X157350000Y-110900000D01*
X162250000Y-106000000D02*
X162250000Y-105500000D01*
X162250000Y-105500000D02*
X153750000Y-105500000D01*
X159150000Y-109100000D02*
X162250000Y-106000000D01*
X151900000Y-103750000D02*
X150150000Y-105500000D01*
X151900000Y-103250000D02*
X151900000Y-103750000D01*
X151900000Y-103650000D02*
X151900000Y-103250000D01*
X153750000Y-105500000D02*
X151900000Y-103650000D01*
X162700000Y-103650000D02*
X164550000Y-105500000D01*
X162700000Y-103250000D02*
X162700000Y-103650000D01*
X164550000Y-105500000D02*
X171650000Y-105500000D01*
%TO.N,Net-(U5-VCC)*%
X156000000Y-94000000D02*
X156000000Y-92250000D01*
X167250000Y-100200000D02*
X162200000Y-100200000D01*
X162200000Y-100200000D02*
X156000000Y-94000000D01*
X169900000Y-102850000D02*
X167250000Y-100200000D01*
X169900000Y-103250000D02*
X169900000Y-102850000D01*
%TO.N,unconnected-(U5-PA0-Pad23)*%
X160900000Y-117150000D02*
X161000000Y-117250000D01*
X160900000Y-116750000D02*
X160900000Y-117150000D01*
%TO.N,Net-(J5-In)*%
X169900000Y-99907107D02*
X169900000Y-99400000D01*
X170192893Y-100200000D02*
X169900000Y-99907107D01*
X171771751Y-100200000D02*
X170192893Y-100200000D01*
X174000000Y-97610875D02*
X173750000Y-97860875D01*
X174000000Y-80750000D02*
X174000000Y-97610875D01*
X173750000Y-97860875D02*
X173750000Y-98221751D01*
X173750000Y-98221751D02*
X171771751Y-100200000D01*
X169900000Y-99400000D02*
X170300000Y-99000000D01*
X166825000Y-80750000D02*
X170250000Y-80750000D01*
X165250000Y-79175000D02*
X166825000Y-80750000D01*
X165250000Y-77775000D02*
X165250000Y-79175000D01*
X166025000Y-77000000D02*
X165250000Y-77775000D01*
X168300000Y-77000000D02*
X166025000Y-77000000D01*
%TO.N,GND*%
X169925000Y-78475000D02*
X170450000Y-79000000D01*
X166775000Y-78475000D02*
X169925000Y-78475000D01*
X169925000Y-75525000D02*
X170450000Y-75000000D01*
X166775000Y-75525000D02*
X169925000Y-75525000D01*
%TO.N,Net-(J3-In)*%
X128350000Y-85900000D02*
X149750000Y-107300000D01*
X128825000Y-74125000D02*
X128350000Y-74600000D01*
X128350000Y-74600000D02*
X128350000Y-85900000D01*
X149750000Y-107300000D02*
X150150000Y-107300000D01*
%TO.N,GND*%
X130950000Y-80362500D02*
X133587500Y-83000000D01*
X130950000Y-73500000D02*
X130950000Y-80362500D01*
X130225000Y-72775000D02*
X130950000Y-73500000D01*
%TO.N,Net-(U5-VCC)*%
X171335000Y-82165000D02*
X171335000Y-83000000D01*
X172000000Y-81500000D02*
X171335000Y-82165000D01*
X165250000Y-83000000D02*
X165500000Y-83000000D01*
X156000000Y-92250000D02*
X165250000Y-83000000D01*
X150750000Y-92250000D02*
X156000000Y-92250000D01*
X149600000Y-91100000D02*
X150750000Y-92250000D01*
X149600000Y-90100000D02*
X149600000Y-91100000D01*
X149500000Y-87650973D02*
X149500000Y-90000000D01*
X151400973Y-85750000D02*
X149500000Y-87650973D01*
X151500000Y-85750000D02*
X151400973Y-85750000D01*
X153100000Y-87350000D02*
X151500000Y-85750000D01*
X153100000Y-88000000D02*
X153100000Y-87350000D01*
X149500000Y-90000000D02*
X149600000Y-90100000D01*
%TO.N,Net-(J1-VDD)*%
X155000000Y-88000000D02*
X155000000Y-79900000D01*
X155000000Y-79900000D02*
X158000000Y-76900000D01*
X158000000Y-76900000D02*
X161248529Y-76900000D01*
%TO.N,Net-(U1-SDA)*%
X162250000Y-74000000D02*
X162000000Y-74000000D01*
X163250000Y-73000000D02*
X162250000Y-74000000D01*
X163250000Y-72598529D02*
X163250000Y-73000000D01*
X162000000Y-74000000D02*
X161500000Y-74500000D01*
X164175000Y-71673529D02*
X163250000Y-72598529D01*
X164175000Y-71000000D02*
X164175000Y-71673529D01*
%TO.N,Net-(U3-V_BCKP)*%
X167750000Y-89150000D02*
X168100000Y-89500000D01*
X167750000Y-84750000D02*
X167750000Y-89150000D01*
X169250000Y-83000000D02*
X168750000Y-83500000D01*
X172000000Y-80250000D02*
X169250000Y-83000000D01*
X172000000Y-79000000D02*
X172000000Y-80250000D01*
%TO.N,Net-(J1-VDD)*%
X166000000Y-71000000D02*
X166250000Y-71250000D01*
X165912500Y-70912500D02*
X165912500Y-67000000D01*
X166000000Y-71000000D02*
X165912500Y-70912500D01*
%TO.N,GND*%
X170450000Y-75000000D02*
X170450000Y-79000000D01*
%TO.N,Net-(J1-VDD)*%
X135412500Y-85925000D02*
X133587500Y-87750000D01*
X135412500Y-83000000D02*
X135412500Y-85925000D01*
X169900000Y-89250000D02*
X170050000Y-89250000D01*
X161248529Y-76900000D02*
X169900000Y-85551471D01*
X170050000Y-89250000D02*
X170300000Y-89500000D01*
X133587500Y-87750000D02*
X144437500Y-76900000D01*
%TO.N,GND*%
X147597183Y-103250000D02*
X151900000Y-103250000D01*
X128750000Y-84402817D02*
X147597183Y-103250000D01*
X128750000Y-83250000D02*
X128750000Y-84402817D01*
X129000000Y-83000000D02*
X128750000Y-83250000D01*
X133587500Y-83000000D02*
X129000000Y-83000000D01*
%TO.N,Net-(U4-IO17)*%
X145750000Y-87750000D02*
X156000000Y-77500000D01*
X135412500Y-87750000D02*
X145750000Y-87750000D01*
X154800000Y-96750000D02*
X160900000Y-102850000D01*
X144412500Y-96750000D02*
X154800000Y-96750000D01*
X160900000Y-102850000D02*
X160900000Y-103250000D01*
X135412500Y-87750000D02*
X144412500Y-96750000D01*
%TO.N,GND*%
X150150000Y-127407500D02*
X150742500Y-128000000D01*
X150150000Y-114500000D02*
X150150000Y-127407500D01*
%TO.N,Net-(U1-SDA)*%
X154500000Y-91500000D02*
X158250000Y-87750000D01*
X150500000Y-91250000D02*
X150750000Y-91500000D01*
X150750000Y-91500000D02*
X154500000Y-91500000D01*
X158250000Y-81250000D02*
X161500000Y-78000000D01*
X150500000Y-87499502D02*
X150500000Y-91250000D01*
%TO.N,Net-(U1-AUX_DA)*%
X145000000Y-91000000D02*
X149000000Y-91000000D01*
%TD*%
%TA.AperFunction,Conductor*%
%TO.N,GND*%
G36*
X171561628Y-63520185D02*
G01*
X171607383Y-63572989D01*
X171617327Y-63642147D01*
X171588302Y-63705703D01*
X171585212Y-63709137D01*
X171433875Y-63871178D01*
X171261918Y-64114786D01*
X171261914Y-64114792D01*
X171124723Y-64379560D01*
X171024865Y-64660532D01*
X171024860Y-64660548D01*
X170964194Y-64952495D01*
X170964193Y-64952497D01*
X170943844Y-65250000D01*
X170964193Y-65547502D01*
X170964194Y-65547504D01*
X171024860Y-65839451D01*
X171024865Y-65839467D01*
X171124723Y-66120439D01*
X171261914Y-66385207D01*
X171261918Y-66385213D01*
X171433875Y-66628821D01*
X171637416Y-66846760D01*
X171868721Y-67034940D01*
X171868725Y-67034943D01*
X171868727Y-67034944D01*
X171868728Y-67034945D01*
X172123513Y-67189884D01*
X172123515Y-67189885D01*
X172123517Y-67189886D01*
X172305853Y-67269085D01*
X172397023Y-67308686D01*
X172684162Y-67389138D01*
X172943882Y-67424836D01*
X172979581Y-67429743D01*
X172979582Y-67429743D01*
X173277779Y-67429743D01*
X173309628Y-67425365D01*
X173573198Y-67389138D01*
X173860337Y-67308686D01*
X174133847Y-67189884D01*
X174388632Y-67034945D01*
X174619947Y-66846757D01*
X174823482Y-66628824D01*
X174995446Y-66385206D01*
X175132636Y-66120441D01*
X175232496Y-65839462D01*
X175232496Y-65839457D01*
X175232499Y-65839451D01*
X175254094Y-65735530D01*
X175287006Y-65673897D01*
X175348014Y-65639843D01*
X175417749Y-65644178D01*
X175474071Y-65685526D01*
X175499096Y-65750760D01*
X175499500Y-65760758D01*
X175499500Y-129412142D01*
X175479815Y-129479181D01*
X175427011Y-129524936D01*
X175357853Y-129534880D01*
X175294297Y-129505855D01*
X175274196Y-129483650D01*
X175194804Y-129371178D01*
X175105849Y-129275931D01*
X174991267Y-129153243D01*
X174991265Y-129153242D01*
X174991263Y-129153239D01*
X174759958Y-128965059D01*
X174759954Y-128965056D01*
X174532607Y-128826803D01*
X174505167Y-128810116D01*
X174505166Y-128810115D01*
X174505162Y-128810113D01*
X174231658Y-128691314D01*
X173944524Y-128610863D01*
X173944519Y-128610862D01*
X173944518Y-128610862D01*
X173796808Y-128590559D01*
X173649099Y-128570257D01*
X173649098Y-128570257D01*
X173350902Y-128570257D01*
X173350901Y-128570257D01*
X173055482Y-128610862D01*
X173055475Y-128610863D01*
X172768341Y-128691314D01*
X172494837Y-128810113D01*
X172240045Y-128965056D01*
X172240041Y-128965059D01*
X172008736Y-129153239D01*
X171805195Y-129371178D01*
X171633238Y-129614786D01*
X171633234Y-129614792D01*
X171496043Y-129879560D01*
X171396185Y-130160532D01*
X171396180Y-130160548D01*
X171335514Y-130452495D01*
X171335513Y-130452497D01*
X171315164Y-130750000D01*
X171335513Y-131047502D01*
X171335514Y-131047504D01*
X171396180Y-131339451D01*
X171396185Y-131339467D01*
X171496043Y-131620439D01*
X171633234Y-131885207D01*
X171633238Y-131885213D01*
X171805195Y-132128821D01*
X171805198Y-132128824D01*
X171937297Y-132270268D01*
X171956532Y-132290863D01*
X171987904Y-132353294D01*
X171980544Y-132422775D01*
X171936787Y-132477246D01*
X171870527Y-132499414D01*
X171865909Y-132499500D01*
X166807327Y-132499500D01*
X166740288Y-132479815D01*
X166694533Y-132427011D01*
X166684589Y-132357853D01*
X166713614Y-132294297D01*
X166741736Y-132270268D01*
X166909803Y-132165512D01*
X166909803Y-132165511D01*
X166909807Y-132165509D01*
X167049919Y-132032323D01*
X167160353Y-131873658D01*
X167236587Y-131696012D01*
X167275500Y-131506656D01*
X167275500Y-130561794D01*
X167272614Y-130533407D01*
X167260845Y-130417677D01*
X167202977Y-130233240D01*
X167202975Y-130233236D01*
X167202974Y-130233232D01*
X167109159Y-130064209D01*
X167109158Y-130064208D01*
X167109157Y-130064206D01*
X166983241Y-129917533D01*
X166983240Y-129917531D01*
X166830375Y-129799205D01*
X166830371Y-129799203D01*
X166823396Y-129795781D01*
X166656816Y-129714070D01*
X166656814Y-129714069D01*
X166656811Y-129714068D01*
X166656813Y-129714068D01*
X166469682Y-129665616D01*
X166469676Y-129665615D01*
X166340964Y-129659087D01*
X166276610Y-129655824D01*
X166276609Y-129655824D01*
X166276607Y-129655824D01*
X166085533Y-129685095D01*
X166085521Y-129685098D01*
X165904251Y-129752234D01*
X165904242Y-129752238D01*
X165740196Y-129854488D01*
X165600080Y-129987677D01*
X165489646Y-130146342D01*
X165413413Y-130323987D01*
X165374500Y-130513343D01*
X165374500Y-131458207D01*
X165389154Y-131602322D01*
X165447022Y-131786759D01*
X165447029Y-131786774D01*
X165540839Y-131955788D01*
X165540842Y-131955793D01*
X165666758Y-132102466D01*
X165666759Y-132102468D01*
X165819624Y-132220794D01*
X165819627Y-132220796D01*
X165908057Y-132264173D01*
X165959575Y-132311369D01*
X165977400Y-132378927D01*
X165955870Y-132445397D01*
X165901822Y-132489675D01*
X165853447Y-132499500D01*
X158157327Y-132499500D01*
X158090288Y-132479815D01*
X158044533Y-132427011D01*
X158034589Y-132357853D01*
X158063614Y-132294297D01*
X158091736Y-132270268D01*
X158259803Y-132165512D01*
X158259803Y-132165511D01*
X158259807Y-132165509D01*
X158399919Y-132032323D01*
X158510353Y-131873658D01*
X158586587Y-131696012D01*
X158625500Y-131506656D01*
X158625500Y-130561794D01*
X158622614Y-130533407D01*
X158610845Y-130417677D01*
X158552977Y-130233240D01*
X158552975Y-130233236D01*
X158552974Y-130233232D01*
X158459159Y-130064209D01*
X158459158Y-130064208D01*
X158459157Y-130064206D01*
X158333241Y-129917533D01*
X158333240Y-129917531D01*
X158180375Y-129799205D01*
X158180371Y-129799203D01*
X158173396Y-129795781D01*
X158006816Y-129714070D01*
X158006814Y-129714069D01*
X158006811Y-129714068D01*
X158006813Y-129714068D01*
X157819682Y-129665616D01*
X157819676Y-129665615D01*
X157690964Y-129659087D01*
X157626610Y-129655824D01*
X157626609Y-129655824D01*
X157626607Y-129655824D01*
X157435533Y-129685095D01*
X157435521Y-129685098D01*
X157254251Y-129752234D01*
X157254242Y-129752238D01*
X157090196Y-129854488D01*
X156950080Y-129987677D01*
X156839646Y-130146342D01*
X156763413Y-130323987D01*
X156724500Y-130513343D01*
X156724500Y-131458207D01*
X156739154Y-131602322D01*
X156797022Y-131786759D01*
X156797029Y-131786774D01*
X156890839Y-131955788D01*
X156890842Y-131955793D01*
X157016758Y-132102466D01*
X157016759Y-132102468D01*
X157169624Y-132220794D01*
X157169627Y-132220796D01*
X157258057Y-132264173D01*
X157309575Y-132311369D01*
X157327400Y-132378927D01*
X157305870Y-132445397D01*
X157251822Y-132489675D01*
X157203447Y-132499500D01*
X148267482Y-132499500D01*
X148200443Y-132479815D01*
X148154688Y-132427011D01*
X148144744Y-132357853D01*
X148154583Y-132324219D01*
X148227122Y-132164519D01*
X148282099Y-131946332D01*
X148292500Y-131814194D01*
X148292500Y-131250000D01*
X147476186Y-131250000D01*
X147501993Y-131209844D01*
X147542500Y-131071889D01*
X147542500Y-130928111D01*
X147501993Y-130790156D01*
X147476186Y-130750000D01*
X148292499Y-130750000D01*
X148292499Y-130185808D01*
X148282099Y-130053667D01*
X148227122Y-129835480D01*
X148134071Y-129630625D01*
X148134068Y-129630619D01*
X148005940Y-129445676D01*
X148005930Y-129445664D01*
X147846835Y-129286569D01*
X147846823Y-129286559D01*
X147661880Y-129158431D01*
X147661874Y-129158428D01*
X147457019Y-129065377D01*
X147238832Y-129010400D01*
X147106694Y-129000000D01*
X146292500Y-129000000D01*
X146292500Y-130500000D01*
X145792500Y-130500000D01*
X145792500Y-129000000D01*
X145792499Y-129000000D01*
X144978308Y-129000001D01*
X144846167Y-129010400D01*
X144627980Y-129065377D01*
X144423125Y-129158428D01*
X144423119Y-129158431D01*
X144238176Y-129286559D01*
X144238164Y-129286569D01*
X144079069Y-129445664D01*
X144079059Y-129445676D01*
X143950931Y-129630619D01*
X143950928Y-129630625D01*
X143857877Y-129835480D01*
X143802900Y-130053667D01*
X143792500Y-130185806D01*
X143792500Y-130750000D01*
X144608814Y-130750000D01*
X144583007Y-130790156D01*
X144542500Y-130928111D01*
X144542500Y-131071889D01*
X144583007Y-131209844D01*
X144608814Y-131250000D01*
X143792501Y-131250000D01*
X143792501Y-131814192D01*
X143802900Y-131946332D01*
X143857877Y-132164519D01*
X143930417Y-132324219D01*
X143940220Y-132393397D01*
X143911065Y-132456894D01*
X143852210Y-132494548D01*
X143817518Y-132499500D01*
X129884091Y-132499500D01*
X129817052Y-132479815D01*
X129771297Y-132427011D01*
X129761353Y-132357853D01*
X129790378Y-132294297D01*
X129793468Y-132290863D01*
X129944802Y-132128824D01*
X130116766Y-131885206D01*
X130253956Y-131620441D01*
X130353816Y-131339462D01*
X130353816Y-131339457D01*
X130353819Y-131339451D01*
X130409418Y-131071889D01*
X130414486Y-131047502D01*
X130434836Y-130750000D01*
X130414486Y-130452498D01*
X130387823Y-130324189D01*
X130353819Y-130160548D01*
X130353814Y-130160532D01*
X130292381Y-129987677D01*
X130253956Y-129879559D01*
X130116766Y-129614794D01*
X130116765Y-129614792D01*
X130116761Y-129614786D01*
X129944804Y-129371178D01*
X129855849Y-129275931D01*
X129741267Y-129153243D01*
X129741265Y-129153242D01*
X129741263Y-129153239D01*
X129509958Y-128965059D01*
X129509954Y-128965056D01*
X129282607Y-128826803D01*
X129255167Y-128810116D01*
X129255166Y-128810115D01*
X129255162Y-128810113D01*
X128981658Y-128691314D01*
X128694524Y-128610863D01*
X128694519Y-128610862D01*
X128694518Y-128610862D01*
X128546808Y-128590559D01*
X128399099Y-128570257D01*
X128399098Y-128570257D01*
X128100902Y-128570257D01*
X128100901Y-128570257D01*
X127805482Y-128610862D01*
X127805475Y-128610863D01*
X127518341Y-128691314D01*
X127244837Y-128810113D01*
X126990045Y-128965056D01*
X126990041Y-128965059D01*
X126758736Y-129153240D01*
X126715123Y-129199938D01*
X126654979Y-129235497D01*
X126585158Y-129232894D01*
X126527827Y-129192957D01*
X126501190Y-129128364D01*
X126500500Y-129115301D01*
X126500500Y-126797870D01*
X143792000Y-126797870D01*
X143792001Y-126797876D01*
X143798408Y-126857483D01*
X143848702Y-126992328D01*
X143848706Y-126992335D01*
X143934952Y-127107544D01*
X143934955Y-127107547D01*
X144050164Y-127193793D01*
X144050171Y-127193797D01*
X144185017Y-127244091D01*
X144185016Y-127244091D01*
X144191944Y-127244835D01*
X144244627Y-127250500D01*
X147840372Y-127250499D01*
X147899983Y-127244091D01*
X148034831Y-127193796D01*
X148150046Y-127107546D01*
X148236296Y-126992331D01*
X148254512Y-126943491D01*
X148296380Y-126887560D01*
X148361844Y-126863141D01*
X148430117Y-126877991D01*
X148479524Y-126927396D01*
X148494518Y-126993401D01*
X148492500Y-127031407D01*
X148492500Y-127750000D01*
X150242500Y-127750000D01*
X150242500Y-128250000D01*
X148492501Y-128250000D01*
X148492501Y-128968591D01*
X148495294Y-129021190D01*
X148539737Y-129250987D01*
X148622379Y-129469975D01*
X148740839Y-129671841D01*
X148740844Y-129671848D01*
X148891711Y-129850786D01*
X148891713Y-129850788D01*
X149070651Y-130001655D01*
X149070658Y-130001660D01*
X149272524Y-130120120D01*
X149491512Y-130202762D01*
X149721308Y-130247205D01*
X149773908Y-130249999D01*
X150492499Y-130249999D01*
X150492500Y-130249998D01*
X150492500Y-129433686D01*
X150532656Y-129459493D01*
X150670611Y-129500000D01*
X150814389Y-129500000D01*
X150952344Y-129459493D01*
X150992500Y-129433686D01*
X150992500Y-130249999D01*
X151711091Y-130249999D01*
X151763690Y-130247205D01*
X151993487Y-130202762D01*
X152212475Y-130120120D01*
X152414341Y-130001660D01*
X152414348Y-130001655D01*
X152593286Y-129850788D01*
X152593288Y-129850786D01*
X152744155Y-129671848D01*
X152744160Y-129671841D01*
X152862620Y-129469975D01*
X152945262Y-129250987D01*
X152989705Y-129021191D01*
X152989705Y-129021190D01*
X152992500Y-128968591D01*
X152992500Y-128428207D01*
X156724500Y-128428207D01*
X156739154Y-128572322D01*
X156797022Y-128756759D01*
X156797029Y-128756774D01*
X156890839Y-128925788D01*
X156890842Y-128925793D01*
X157016758Y-129072466D01*
X157016759Y-129072468D01*
X157169624Y-129190794D01*
X157169627Y-129190796D01*
X157343184Y-129275930D01*
X157343188Y-129275931D01*
X157343186Y-129275931D01*
X157530317Y-129324383D01*
X157530320Y-129324383D01*
X157530326Y-129324385D01*
X157723390Y-129334176D01*
X157914474Y-129304903D01*
X158095753Y-129237764D01*
X158259807Y-129135509D01*
X158399919Y-129002323D01*
X158510353Y-128843658D01*
X158512073Y-128839647D01*
X158556596Y-128785802D01*
X158623163Y-128764574D01*
X158676463Y-128775262D01*
X158760884Y-128812849D01*
X158760889Y-128812851D01*
X158935661Y-128850000D01*
X159114339Y-128850000D01*
X159289110Y-128812851D01*
X159289111Y-128812851D01*
X159398946Y-128763948D01*
X159468196Y-128754662D01*
X159499818Y-128763947D01*
X159548906Y-128785802D01*
X159610733Y-128813329D01*
X159785609Y-128850500D01*
X159785610Y-128850500D01*
X159964389Y-128850500D01*
X159964391Y-128850500D01*
X160139267Y-128813329D01*
X160201093Y-128785802D01*
X160249563Y-128764222D01*
X160318813Y-128754937D01*
X160350434Y-128764221D01*
X160460733Y-128813329D01*
X160635609Y-128850500D01*
X160635610Y-128850500D01*
X160814389Y-128850500D01*
X160814391Y-128850500D01*
X160989267Y-128813329D01*
X161051093Y-128785802D01*
X161099563Y-128764222D01*
X161168813Y-128754937D01*
X161200434Y-128764221D01*
X161310733Y-128813329D01*
X161485609Y-128850500D01*
X161485610Y-128850500D01*
X161664389Y-128850500D01*
X161664391Y-128850500D01*
X161839267Y-128813329D01*
X161901093Y-128785802D01*
X161949563Y-128764222D01*
X162018813Y-128754937D01*
X162050434Y-128764221D01*
X162160733Y-128813329D01*
X162335609Y-128850500D01*
X162335610Y-128850500D01*
X162514389Y-128850500D01*
X162514391Y-128850500D01*
X162689267Y-128813329D01*
X162751093Y-128785802D01*
X162799563Y-128764222D01*
X162868813Y-128754937D01*
X162900434Y-128764221D01*
X163010733Y-128813329D01*
X163185609Y-128850500D01*
X163185610Y-128850500D01*
X163364389Y-128850500D01*
X163364391Y-128850500D01*
X163539267Y-128813329D01*
X163601093Y-128785802D01*
X163649563Y-128764222D01*
X163718813Y-128754937D01*
X163750434Y-128764221D01*
X163860733Y-128813329D01*
X164035609Y-128850500D01*
X164035610Y-128850500D01*
X164214389Y-128850500D01*
X164214391Y-128850500D01*
X164389267Y-128813329D01*
X164500179Y-128763947D01*
X164569428Y-128754663D01*
X164601050Y-128763947D01*
X164710891Y-128812851D01*
X164885661Y-128850000D01*
X165064339Y-128850000D01*
X165239110Y-128812851D01*
X165239115Y-128812849D01*
X165327043Y-128773701D01*
X165396293Y-128764416D01*
X165459569Y-128794044D01*
X165485898Y-128826803D01*
X165540839Y-128925788D01*
X165540842Y-128925793D01*
X165666758Y-129072466D01*
X165666759Y-129072468D01*
X165819624Y-129190794D01*
X165819627Y-129190796D01*
X165993184Y-129275930D01*
X165993188Y-129275931D01*
X165993186Y-129275931D01*
X166180317Y-129324383D01*
X166180320Y-129324383D01*
X166180326Y-129324385D01*
X166373390Y-129334176D01*
X166564474Y-129304903D01*
X166745753Y-129237764D01*
X166909807Y-129135509D01*
X167049919Y-129002323D01*
X167160353Y-128843658D01*
X167236587Y-128666012D01*
X167275500Y-128476656D01*
X167275500Y-126831794D01*
X167273919Y-126816240D01*
X167260845Y-126687677D01*
X167202977Y-126503240D01*
X167202975Y-126503236D01*
X167202974Y-126503232D01*
X167109159Y-126334209D01*
X167109158Y-126334208D01*
X167109157Y-126334206D01*
X166983241Y-126187533D01*
X166983240Y-126187531D01*
X166830375Y-126069205D01*
X166830371Y-126069203D01*
X166823396Y-126065781D01*
X166656816Y-125984070D01*
X166656814Y-125984069D01*
X166656811Y-125984068D01*
X166656813Y-125984068D01*
X166469682Y-125935616D01*
X166469676Y-125935615D01*
X166340964Y-125929087D01*
X166276610Y-125925824D01*
X166276609Y-125925824D01*
X166276607Y-125925824D01*
X166085533Y-125955095D01*
X166085521Y-125955098D01*
X165904251Y-126022234D01*
X165904242Y-126022238D01*
X165740196Y-126124488D01*
X165600080Y-126257677D01*
X165489645Y-126416344D01*
X165489644Y-126416345D01*
X165444501Y-126521540D01*
X165418232Y-126560320D01*
X165186873Y-126791679D01*
X165125550Y-126825164D01*
X165080192Y-126821920D01*
X165135387Y-126777905D01*
X165175000Y-126695649D01*
X165175000Y-126604351D01*
X165135387Y-126522095D01*
X165064008Y-126465173D01*
X164997532Y-126450000D01*
X164954285Y-126450000D01*
X164945187Y-126422003D01*
X164943192Y-126352165D01*
X164975438Y-126296006D01*
X165374166Y-125897279D01*
X165374166Y-125897278D01*
X165239108Y-125837148D01*
X165239109Y-125837148D01*
X165064339Y-125800000D01*
X164885661Y-125800000D01*
X164710890Y-125837148D01*
X164710887Y-125837149D01*
X164601048Y-125886052D01*
X164531798Y-125895336D01*
X164500179Y-125886052D01*
X164389265Y-125836670D01*
X164261594Y-125809533D01*
X164214391Y-125799500D01*
X164035609Y-125799500D01*
X163998438Y-125807400D01*
X163860734Y-125836670D01*
X163860729Y-125836672D01*
X163750433Y-125885778D01*
X163681183Y-125895062D01*
X163649565Y-125885778D01*
X163540341Y-125837149D01*
X163539265Y-125836670D01*
X163411594Y-125809533D01*
X163364391Y-125799500D01*
X163185609Y-125799500D01*
X163148439Y-125807400D01*
X163010734Y-125836670D01*
X163010729Y-125836672D01*
X162900433Y-125885778D01*
X162831183Y-125895062D01*
X162799565Y-125885778D01*
X162690341Y-125837149D01*
X162689265Y-125836670D01*
X162561594Y-125809533D01*
X162514391Y-125799500D01*
X162335609Y-125799500D01*
X162298438Y-125807400D01*
X162160734Y-125836670D01*
X162160729Y-125836672D01*
X162050434Y-125885778D01*
X161981184Y-125895062D01*
X161949566Y-125885778D01*
X161839270Y-125836672D01*
X161839265Y-125836670D01*
X161711594Y-125809533D01*
X161664391Y-125799500D01*
X161485609Y-125799500D01*
X161448438Y-125807400D01*
X161310734Y-125836670D01*
X161310729Y-125836672D01*
X161200434Y-125885778D01*
X161131184Y-125895062D01*
X161099566Y-125885778D01*
X160989270Y-125836672D01*
X160989265Y-125836670D01*
X160861594Y-125809533D01*
X160814391Y-125799500D01*
X160635609Y-125799500D01*
X160598439Y-125807400D01*
X160460734Y-125836670D01*
X160460729Y-125836672D01*
X160350434Y-125885778D01*
X160281184Y-125895062D01*
X160249566Y-125885778D01*
X160139270Y-125836672D01*
X160139265Y-125836670D01*
X160011594Y-125809533D01*
X159964391Y-125799500D01*
X159785609Y-125799500D01*
X159748438Y-125807400D01*
X159610734Y-125836670D01*
X159610729Y-125836672D01*
X159499818Y-125886052D01*
X159430568Y-125895336D01*
X159398949Y-125886052D01*
X159289110Y-125837148D01*
X159114339Y-125800000D01*
X158935661Y-125800000D01*
X158760890Y-125837148D01*
X158760889Y-125837148D01*
X158625832Y-125897279D01*
X159024561Y-126296007D01*
X159058046Y-126357330D01*
X159054811Y-126422005D01*
X159045715Y-126450000D01*
X159002468Y-126450000D01*
X158935992Y-126465173D01*
X158864613Y-126522095D01*
X158825000Y-126604351D01*
X158825000Y-126695649D01*
X158864613Y-126777905D01*
X158919801Y-126821916D01*
X158896085Y-126827909D01*
X158829844Y-126805686D01*
X158813126Y-126791680D01*
X158587431Y-126565985D01*
X158556799Y-126515423D01*
X158552974Y-126503232D01*
X158535744Y-126472190D01*
X158459160Y-126334211D01*
X158459157Y-126334206D01*
X158333241Y-126187533D01*
X158333240Y-126187531D01*
X158180375Y-126069205D01*
X158180371Y-126069203D01*
X158173396Y-126065781D01*
X158006816Y-125984070D01*
X158006814Y-125984069D01*
X158006811Y-125984068D01*
X158006813Y-125984068D01*
X157819682Y-125935616D01*
X157819676Y-125935615D01*
X157690964Y-125929087D01*
X157626610Y-125925824D01*
X157626609Y-125925824D01*
X157626607Y-125925824D01*
X157435533Y-125955095D01*
X157435521Y-125955098D01*
X157254251Y-126022234D01*
X157254242Y-126022238D01*
X157090196Y-126124488D01*
X156950080Y-126257677D01*
X156839646Y-126416342D01*
X156763413Y-126593987D01*
X156724500Y-126783343D01*
X156724500Y-128428207D01*
X152992500Y-128428207D01*
X152992500Y-128250000D01*
X151242500Y-128250000D01*
X151242500Y-127750000D01*
X152992499Y-127750000D01*
X152992499Y-127031409D01*
X152989705Y-126978809D01*
X152945262Y-126749012D01*
X152862620Y-126530024D01*
X152744160Y-126328158D01*
X152744155Y-126328151D01*
X152593288Y-126149213D01*
X152593286Y-126149211D01*
X152414348Y-125998344D01*
X152414341Y-125998339D01*
X152212475Y-125879879D01*
X151993487Y-125797237D01*
X151763691Y-125752794D01*
X151711091Y-125750000D01*
X150992500Y-125750000D01*
X150992500Y-126566313D01*
X150952344Y-126540507D01*
X150814389Y-126500000D01*
X150670611Y-126500000D01*
X150532656Y-126540507D01*
X150492500Y-126566313D01*
X150492500Y-125750000D01*
X150492499Y-125750000D01*
X149773909Y-125750001D01*
X149721309Y-125752794D01*
X149491512Y-125797237D01*
X149272524Y-125879879D01*
X149070658Y-125998339D01*
X149070651Y-125998344D01*
X148891713Y-126149211D01*
X148891711Y-126149213D01*
X148740844Y-126328151D01*
X148740839Y-126328158D01*
X148622379Y-126530024D01*
X148539736Y-126749014D01*
X148538741Y-126754161D01*
X148506679Y-126816240D01*
X148446144Y-126851130D01*
X148376356Y-126847754D01*
X148319472Y-126807184D01*
X148293552Y-126742300D01*
X148292999Y-126730624D01*
X148292999Y-123202128D01*
X148287799Y-123153757D01*
X148286591Y-123142516D01*
X148236297Y-123007671D01*
X148236293Y-123007664D01*
X148150047Y-122892455D01*
X148150044Y-122892452D01*
X148034835Y-122806206D01*
X148034828Y-122806202D01*
X147899982Y-122755908D01*
X147899983Y-122755908D01*
X147840383Y-122749501D01*
X147840381Y-122749500D01*
X147840373Y-122749500D01*
X147840364Y-122749500D01*
X144244629Y-122749500D01*
X144244623Y-122749501D01*
X144185016Y-122755908D01*
X144050171Y-122806202D01*
X144050164Y-122806206D01*
X143934955Y-122892452D01*
X143934952Y-122892455D01*
X143848706Y-123007664D01*
X143848702Y-123007671D01*
X143798408Y-123142517D01*
X143793689Y-123186416D01*
X143792001Y-123202123D01*
X143792000Y-123202135D01*
X143792000Y-126797870D01*
X126500500Y-126797870D01*
X126500500Y-122855286D01*
X126520185Y-122788247D01*
X126572989Y-122742492D01*
X126642147Y-122732548D01*
X126698810Y-122756019D01*
X126765851Y-122806206D01*
X126782668Y-122818795D01*
X126782671Y-122818797D01*
X126917517Y-122869091D01*
X126917516Y-122869091D01*
X126924444Y-122869835D01*
X126977127Y-122875500D01*
X128572872Y-122875499D01*
X128632483Y-122869091D01*
X128767331Y-122818796D01*
X128882546Y-122732546D01*
X128968796Y-122617331D01*
X129019091Y-122482483D01*
X129025500Y-122422873D01*
X129025499Y-121974094D01*
X129045183Y-121907057D01*
X129097987Y-121861302D01*
X129167146Y-121851358D01*
X129230702Y-121880383D01*
X129237180Y-121886415D01*
X129486717Y-122135952D01*
X129520202Y-122197275D01*
X129516080Y-122264581D01*
X129513542Y-122271833D01*
X129513542Y-122271835D01*
X129493346Y-122451085D01*
X129493346Y-122451092D01*
X129513541Y-122630338D01*
X129513542Y-122630343D01*
X129573122Y-122800612D01*
X129630831Y-122892454D01*
X129669095Y-122953351D01*
X129796649Y-123080905D01*
X129886991Y-123137670D01*
X129924601Y-123161303D01*
X129949389Y-123176878D01*
X130119656Y-123236457D01*
X130119660Y-123236458D01*
X130211828Y-123246842D01*
X130289384Y-123255580D01*
X130353797Y-123282646D01*
X130393352Y-123340241D01*
X130399500Y-123378800D01*
X130399500Y-123417587D01*
X130379815Y-123484626D01*
X130372450Y-123494896D01*
X130370186Y-123497734D01*
X130274211Y-123650476D01*
X130214631Y-123820745D01*
X130214630Y-123820750D01*
X130194435Y-123999996D01*
X130194435Y-124000003D01*
X130214630Y-124179249D01*
X130214631Y-124179254D01*
X130274211Y-124349523D01*
X130317793Y-124418883D01*
X130370184Y-124502262D01*
X130497738Y-124629816D01*
X130650478Y-124725789D01*
X130719678Y-124750003D01*
X130820745Y-124785368D01*
X130820750Y-124785369D01*
X130999996Y-124805565D01*
X131000000Y-124805565D01*
X131000004Y-124805565D01*
X131179249Y-124785369D01*
X131179252Y-124785368D01*
X131179255Y-124785368D01*
X131349522Y-124725789D01*
X131434026Y-124672691D01*
X131501264Y-124653690D01*
X131565973Y-124672691D01*
X131650475Y-124725788D01*
X131820745Y-124785368D01*
X131820750Y-124785369D01*
X131999996Y-124805565D01*
X132000000Y-124805565D01*
X132000004Y-124805565D01*
X132179249Y-124785369D01*
X132179252Y-124785368D01*
X132179255Y-124785368D01*
X132349522Y-124725789D01*
X132502262Y-124629816D01*
X132629816Y-124502262D01*
X132725789Y-124349522D01*
X132785368Y-124179255D01*
X132785369Y-124179249D01*
X132805565Y-124000003D01*
X132805565Y-123999996D01*
X132785369Y-123820750D01*
X132785368Y-123820745D01*
X132725788Y-123650476D01*
X132629813Y-123497734D01*
X132627550Y-123494896D01*
X132626659Y-123492715D01*
X132626111Y-123491842D01*
X132626264Y-123491745D01*
X132601144Y-123430209D01*
X132600500Y-123417587D01*
X132600500Y-123274097D01*
X132620185Y-123207058D01*
X132672989Y-123161303D01*
X132742147Y-123151359D01*
X132805703Y-123180384D01*
X132812181Y-123186416D01*
X133858591Y-124232826D01*
X133892076Y-124294149D01*
X133887092Y-124363841D01*
X133846397Y-124418883D01*
X133777075Y-124472075D01*
X133680899Y-124597413D01*
X133620444Y-124743368D01*
X133612987Y-124800000D01*
X134120500Y-124800000D01*
X134187539Y-124819685D01*
X134233294Y-124872489D01*
X134244500Y-124923999D01*
X134244501Y-125075999D01*
X134224817Y-125143039D01*
X134172013Y-125188794D01*
X134120501Y-125200000D01*
X133612990Y-125200000D01*
X133612988Y-125200001D01*
X133620442Y-125256627D01*
X133620444Y-125256633D01*
X133680899Y-125402585D01*
X133777075Y-125527924D01*
X133902413Y-125624100D01*
X134048365Y-125684554D01*
X134048369Y-125684555D01*
X134135000Y-125695961D01*
X134135000Y-125526431D01*
X134154685Y-125459392D01*
X134207489Y-125413637D01*
X134276647Y-125403693D01*
X134340203Y-125432718D01*
X134357372Y-125450941D01*
X134416718Y-125528282D01*
X134486487Y-125581817D01*
X134527689Y-125638243D01*
X134535000Y-125680192D01*
X134535000Y-125695959D01*
X134535001Y-125695960D01*
X134621622Y-125684558D01*
X134621917Y-125684479D01*
X134622222Y-125684478D01*
X134629690Y-125683496D01*
X134629819Y-125684478D01*
X134680115Y-125684476D01*
X134680180Y-125683983D01*
X134683925Y-125684476D01*
X134686121Y-125684476D01*
X134688230Y-125685040D01*
X134688238Y-125685044D01*
X134805639Y-125700500D01*
X135144360Y-125700499D01*
X135144363Y-125700499D01*
X135261753Y-125685046D01*
X135261757Y-125685044D01*
X135261762Y-125685044D01*
X135407841Y-125624536D01*
X135407845Y-125624532D01*
X135414876Y-125620474D01*
X135415882Y-125622216D01*
X135470932Y-125600931D01*
X135481257Y-125600500D01*
X137456572Y-125600500D01*
X137464670Y-125601030D01*
X137500000Y-125605682D01*
X137500001Y-125605682D01*
X137516337Y-125603531D01*
X137656762Y-125585044D01*
X137705142Y-125565003D01*
X137743203Y-125557433D01*
X137743081Y-125556345D01*
X137929249Y-125535369D01*
X137929252Y-125535368D01*
X137929255Y-125535368D01*
X138099522Y-125475789D01*
X138252262Y-125379816D01*
X138379816Y-125252262D01*
X138475789Y-125099522D01*
X138535368Y-124929255D01*
X138535369Y-124929249D01*
X138555565Y-124750003D01*
X138555565Y-124749996D01*
X138535369Y-124570750D01*
X138535368Y-124570745D01*
X138475788Y-124400476D01*
X138379815Y-124247737D01*
X138252262Y-124120184D01*
X138099523Y-124024211D01*
X137929254Y-123964631D01*
X137929249Y-123964630D01*
X137750004Y-123944435D01*
X137749996Y-123944435D01*
X137570750Y-123964630D01*
X137570745Y-123964631D01*
X137400476Y-124024211D01*
X137247737Y-124120184D01*
X137120184Y-124247737D01*
X137061287Y-124341472D01*
X137008952Y-124387763D01*
X136956293Y-124399500D01*
X135666202Y-124399500D01*
X135599163Y-124379815D01*
X135553408Y-124327011D01*
X135551641Y-124322952D01*
X135539710Y-124294149D01*
X135499536Y-124197159D01*
X135458990Y-124144318D01*
X135403282Y-124071718D01*
X135375005Y-124050020D01*
X135368904Y-124044669D01*
X134401796Y-123077561D01*
X134368311Y-123016238D01*
X134373295Y-122946546D01*
X134415167Y-122890613D01*
X134480631Y-122866196D01*
X134509773Y-122868541D01*
X134509804Y-122868262D01*
X134526387Y-122870044D01*
X134577127Y-122875500D01*
X136172872Y-122875499D01*
X136232483Y-122869091D01*
X136232487Y-122869089D01*
X136236743Y-122868632D01*
X136263253Y-122868632D01*
X136267514Y-122869090D01*
X136267517Y-122869091D01*
X136327127Y-122875500D01*
X137422872Y-122875499D01*
X137482483Y-122869091D01*
X137617331Y-122818796D01*
X137732546Y-122732546D01*
X137818796Y-122617331D01*
X137869091Y-122482483D01*
X137875500Y-122422873D01*
X137875499Y-120877128D01*
X137869091Y-120817517D01*
X137862593Y-120800096D01*
X137818797Y-120682671D01*
X137818793Y-120682664D01*
X137732547Y-120567455D01*
X137732544Y-120567452D01*
X137617335Y-120481206D01*
X137617328Y-120481202D01*
X137482482Y-120430908D01*
X137482483Y-120430908D01*
X137422883Y-120424501D01*
X137422881Y-120424500D01*
X137422873Y-120424500D01*
X137422864Y-120424500D01*
X136327129Y-120424500D01*
X136327123Y-120424501D01*
X136267516Y-120430908D01*
X136132671Y-120481202D01*
X136132664Y-120481206D01*
X136017455Y-120567452D01*
X136017452Y-120567455D01*
X135931206Y-120682664D01*
X135931202Y-120682671D01*
X135880908Y-120817517D01*
X135874501Y-120877116D01*
X135874501Y-120877123D01*
X135874500Y-120877135D01*
X135874500Y-120950500D01*
X135854815Y-121017539D01*
X135802011Y-121063294D01*
X135750500Y-121074500D01*
X134649000Y-121074500D01*
X134581961Y-121054815D01*
X134536206Y-121002011D01*
X134525000Y-120950500D01*
X134525000Y-115475000D01*
X136875000Y-115475000D01*
X136875000Y-117975000D01*
X138725000Y-117975000D01*
X138725000Y-117000000D01*
X150800000Y-117000000D01*
X150800000Y-117797844D01*
X150806401Y-117857372D01*
X150806403Y-117857379D01*
X150856645Y-117992086D01*
X150856649Y-117992093D01*
X150942809Y-118107187D01*
X150942812Y-118107190D01*
X151057906Y-118193350D01*
X151057913Y-118193354D01*
X151192620Y-118243596D01*
X151192627Y-118243598D01*
X151252155Y-118249999D01*
X151252172Y-118250000D01*
X151650000Y-118250000D01*
X152150000Y-118250000D01*
X152547828Y-118250000D01*
X152547844Y-118249999D01*
X152607372Y-118243598D01*
X152607376Y-118243597D01*
X152750398Y-118190253D01*
X152751076Y-118192070D01*
X152808306Y-118179615D01*
X152849032Y-118191572D01*
X152849359Y-118190697D01*
X152992517Y-118244091D01*
X152992516Y-118244091D01*
X152999444Y-118244835D01*
X153052127Y-118250500D01*
X154347872Y-118250499D01*
X154407483Y-118244091D01*
X154542331Y-118193796D01*
X154542333Y-118193794D01*
X154550640Y-118190696D01*
X154551285Y-118192426D01*
X154608837Y-118179902D01*
X154648988Y-118191691D01*
X154649360Y-118190696D01*
X154657666Y-118193794D01*
X154657669Y-118193796D01*
X154792517Y-118244091D01*
X154852127Y-118250500D01*
X156147872Y-118250499D01*
X156207483Y-118244091D01*
X156342331Y-118193796D01*
X156342333Y-118193794D01*
X156350640Y-118190696D01*
X156351285Y-118192426D01*
X156408837Y-118179902D01*
X156448988Y-118191691D01*
X156449360Y-118190696D01*
X156457666Y-118193794D01*
X156457669Y-118193796D01*
X156592517Y-118244091D01*
X156652127Y-118250500D01*
X157947872Y-118250499D01*
X158007483Y-118244091D01*
X158142331Y-118193796D01*
X158142333Y-118193794D01*
X158150640Y-118190696D01*
X158151285Y-118192426D01*
X158208837Y-118179902D01*
X158248988Y-118191691D01*
X158249360Y-118190696D01*
X158257666Y-118193794D01*
X158257669Y-118193796D01*
X158392517Y-118244091D01*
X158452127Y-118250500D01*
X159747872Y-118250499D01*
X159807483Y-118244091D01*
X159942331Y-118193796D01*
X159942333Y-118193794D01*
X159950640Y-118190696D01*
X159951285Y-118192426D01*
X160008837Y-118179902D01*
X160048988Y-118191691D01*
X160049360Y-118190696D01*
X160057666Y-118193794D01*
X160057669Y-118193796D01*
X160192517Y-118244091D01*
X160252127Y-118250500D01*
X161547872Y-118250499D01*
X161607483Y-118244091D01*
X161742331Y-118193796D01*
X161742333Y-118193794D01*
X161750640Y-118190696D01*
X161751285Y-118192426D01*
X161808837Y-118179902D01*
X161848988Y-118191691D01*
X161849360Y-118190696D01*
X161857666Y-118193794D01*
X161857669Y-118193796D01*
X161992517Y-118244091D01*
X162052127Y-118250500D01*
X163347872Y-118250499D01*
X163407483Y-118244091D01*
X163542331Y-118193796D01*
X163542333Y-118193794D01*
X163550640Y-118190696D01*
X163551225Y-118192265D01*
X163609367Y-118179616D01*
X163649207Y-118191312D01*
X163649602Y-118190253D01*
X163792623Y-118243597D01*
X163792627Y-118243598D01*
X163852155Y-118249999D01*
X163852172Y-118250000D01*
X164250000Y-118250000D01*
X164750000Y-118250000D01*
X165147828Y-118250000D01*
X165147844Y-118249999D01*
X165207372Y-118243598D01*
X165207376Y-118243597D01*
X165350398Y-118190253D01*
X165351076Y-118192070D01*
X165408306Y-118179615D01*
X165449032Y-118191572D01*
X165449359Y-118190697D01*
X165592517Y-118244091D01*
X165592516Y-118244091D01*
X165599444Y-118244835D01*
X165652127Y-118250500D01*
X166947872Y-118250499D01*
X167007483Y-118244091D01*
X167142331Y-118193796D01*
X167142333Y-118193794D01*
X167150640Y-118190696D01*
X167151285Y-118192426D01*
X167208837Y-118179902D01*
X167248988Y-118191691D01*
X167249360Y-118190696D01*
X167257666Y-118193794D01*
X167257669Y-118193796D01*
X167392517Y-118244091D01*
X167452127Y-118250500D01*
X168747872Y-118250499D01*
X168807483Y-118244091D01*
X168942331Y-118193796D01*
X168942333Y-118193794D01*
X168950640Y-118190696D01*
X168951285Y-118192426D01*
X169008837Y-118179902D01*
X169048988Y-118191691D01*
X169049360Y-118190696D01*
X169057666Y-118193794D01*
X169057669Y-118193796D01*
X169192517Y-118244091D01*
X169252127Y-118250500D01*
X170547872Y-118250499D01*
X170607483Y-118244091D01*
X170742331Y-118193796D01*
X170857546Y-118107546D01*
X170943796Y-117992331D01*
X170994091Y-117857483D01*
X171000500Y-117797873D01*
X171000499Y-115724498D01*
X171020184Y-115657460D01*
X171072987Y-115611705D01*
X171124499Y-115600499D01*
X172697871Y-115600499D01*
X172697872Y-115600499D01*
X172757483Y-115594091D01*
X172892331Y-115543796D01*
X173007546Y-115457546D01*
X173093796Y-115342331D01*
X173144091Y-115207483D01*
X173150500Y-115147873D01*
X173150499Y-113852128D01*
X173144091Y-113792517D01*
X173093796Y-113657669D01*
X173093794Y-113657666D01*
X173090696Y-113649360D01*
X173092426Y-113648714D01*
X173079902Y-113591163D01*
X173091691Y-113551011D01*
X173090696Y-113550640D01*
X173093794Y-113542333D01*
X173093796Y-113542331D01*
X173144091Y-113407483D01*
X173150500Y-113347873D01*
X173150499Y-112052128D01*
X173144091Y-111992517D01*
X173093796Y-111857669D01*
X173093794Y-111857666D01*
X173090696Y-111849360D01*
X173092426Y-111848714D01*
X173079902Y-111791163D01*
X173091691Y-111751011D01*
X173090696Y-111750640D01*
X173093794Y-111742333D01*
X173093796Y-111742331D01*
X173144091Y-111607483D01*
X173150500Y-111547873D01*
X173150499Y-110252128D01*
X173144091Y-110192517D01*
X173093796Y-110057669D01*
X173093794Y-110057666D01*
X173090696Y-110049360D01*
X173092426Y-110048714D01*
X173079902Y-109991163D01*
X173091691Y-109951011D01*
X173090696Y-109950640D01*
X173093794Y-109942333D01*
X173093796Y-109942331D01*
X173144091Y-109807483D01*
X173150500Y-109747873D01*
X173150499Y-108452128D01*
X173144103Y-108392627D01*
X173144091Y-108392516D01*
X173090697Y-108249359D01*
X173092425Y-108248714D01*
X173079904Y-108191153D01*
X173091691Y-108151011D01*
X173090696Y-108150640D01*
X173093794Y-108142333D01*
X173093796Y-108142331D01*
X173144091Y-108007483D01*
X173150500Y-107947873D01*
X173150499Y-106652128D01*
X173144091Y-106592517D01*
X173093796Y-106457669D01*
X173090697Y-106449359D01*
X173092266Y-106448773D01*
X173079616Y-106390630D01*
X173091314Y-106350793D01*
X173090253Y-106350398D01*
X173143597Y-106207376D01*
X173143598Y-106207372D01*
X173149999Y-106147844D01*
X173150000Y-106147827D01*
X173150000Y-105750000D01*
X170150000Y-105750000D01*
X170150000Y-106147844D01*
X170156401Y-106207372D01*
X170156403Y-106207379D01*
X170209746Y-106350399D01*
X170207930Y-106351076D01*
X170220383Y-106408316D01*
X170208428Y-106449033D01*
X170209303Y-106449359D01*
X170155908Y-106592517D01*
X170149501Y-106652116D01*
X170149501Y-106652123D01*
X170149500Y-106652135D01*
X170149500Y-107947870D01*
X170149501Y-107947876D01*
X170155908Y-108007483D01*
X170209303Y-108150641D01*
X170207575Y-108151285D01*
X170220095Y-108208853D01*
X170208310Y-108248988D01*
X170209303Y-108249359D01*
X170155908Y-108392517D01*
X170149501Y-108452116D01*
X170149501Y-108452123D01*
X170149500Y-108452135D01*
X170149500Y-109747870D01*
X170149501Y-109747876D01*
X170155908Y-109807483D01*
X170209303Y-109950641D01*
X170207575Y-109951285D01*
X170220095Y-110008853D01*
X170208310Y-110048988D01*
X170209303Y-110049359D01*
X170155908Y-110192517D01*
X170149501Y-110252116D01*
X170149501Y-110252123D01*
X170149500Y-110252135D01*
X170149500Y-111547870D01*
X170149501Y-111547876D01*
X170155908Y-111607483D01*
X170209303Y-111750641D01*
X170207575Y-111751285D01*
X170220095Y-111808853D01*
X170208310Y-111848988D01*
X170209303Y-111849359D01*
X170155908Y-111992517D01*
X170149501Y-112052116D01*
X170149501Y-112052123D01*
X170149500Y-112052135D01*
X170149500Y-113347870D01*
X170149501Y-113347876D01*
X170155908Y-113407483D01*
X170209303Y-113550641D01*
X170207575Y-113551285D01*
X170220095Y-113608853D01*
X170208310Y-113648988D01*
X170209303Y-113649359D01*
X170155908Y-113792517D01*
X170149501Y-113852116D01*
X170149501Y-113852123D01*
X170149500Y-113852135D01*
X170149500Y-115125500D01*
X170129815Y-115192539D01*
X170077011Y-115238294D01*
X170025500Y-115249500D01*
X169252129Y-115249500D01*
X169252123Y-115249501D01*
X169192516Y-115255908D01*
X169049359Y-115309303D01*
X169048714Y-115307575D01*
X168991147Y-115320095D01*
X168951011Y-115308310D01*
X168950641Y-115309303D01*
X168807482Y-115255908D01*
X168807483Y-115255908D01*
X168747883Y-115249501D01*
X168747881Y-115249500D01*
X168747873Y-115249500D01*
X168747864Y-115249500D01*
X167452129Y-115249500D01*
X167452123Y-115249501D01*
X167392516Y-115255908D01*
X167249359Y-115309303D01*
X167248714Y-115307575D01*
X167191147Y-115320095D01*
X167151011Y-115308310D01*
X167150641Y-115309303D01*
X167007482Y-115255908D01*
X167007483Y-115255908D01*
X166947883Y-115249501D01*
X166947881Y-115249500D01*
X166947873Y-115249500D01*
X166947864Y-115249500D01*
X165652129Y-115249500D01*
X165652123Y-115249501D01*
X165592516Y-115255908D01*
X165449359Y-115309303D01*
X165448774Y-115307734D01*
X165390624Y-115320383D01*
X165350794Y-115308686D01*
X165350399Y-115309746D01*
X165207379Y-115256403D01*
X165207372Y-115256401D01*
X165147844Y-115250000D01*
X164750000Y-115250000D01*
X164750000Y-118250000D01*
X164250000Y-118250000D01*
X164250000Y-115250000D01*
X163852155Y-115250000D01*
X163792627Y-115256401D01*
X163792620Y-115256403D01*
X163649601Y-115309746D01*
X163648924Y-115307931D01*
X163591674Y-115320383D01*
X163550967Y-115308428D01*
X163550641Y-115309303D01*
X163407482Y-115255908D01*
X163407483Y-115255908D01*
X163347883Y-115249501D01*
X163347881Y-115249500D01*
X163347873Y-115249500D01*
X163347864Y-115249500D01*
X162052129Y-115249500D01*
X162052123Y-115249501D01*
X161992516Y-115255908D01*
X161849359Y-115309303D01*
X161848714Y-115307575D01*
X161791147Y-115320095D01*
X161751011Y-115308310D01*
X161750641Y-115309303D01*
X161607482Y-115255908D01*
X161607483Y-115255908D01*
X161547883Y-115249501D01*
X161547881Y-115249500D01*
X161547873Y-115249500D01*
X161547864Y-115249500D01*
X160252129Y-115249500D01*
X160252123Y-115249501D01*
X160192516Y-115255908D01*
X160049359Y-115309303D01*
X160048714Y-115307575D01*
X159991147Y-115320095D01*
X159951011Y-115308310D01*
X159950641Y-115309303D01*
X159807482Y-115255908D01*
X159807483Y-115255908D01*
X159747883Y-115249501D01*
X159747881Y-115249500D01*
X159747873Y-115249500D01*
X159747864Y-115249500D01*
X158452129Y-115249500D01*
X158452123Y-115249501D01*
X158392516Y-115255908D01*
X158249359Y-115309303D01*
X158248714Y-115307575D01*
X158191147Y-115320095D01*
X158151011Y-115308310D01*
X158150641Y-115309303D01*
X158007482Y-115255908D01*
X158007483Y-115255908D01*
X157947883Y-115249501D01*
X157947881Y-115249500D01*
X157947873Y-115249500D01*
X157947864Y-115249500D01*
X156652129Y-115249500D01*
X156652123Y-115249501D01*
X156592516Y-115255908D01*
X156449359Y-115309303D01*
X156448714Y-115307575D01*
X156391147Y-115320095D01*
X156351011Y-115308310D01*
X156350641Y-115309303D01*
X156207482Y-115255908D01*
X156207483Y-115255908D01*
X156147883Y-115249501D01*
X156147881Y-115249500D01*
X156147873Y-115249500D01*
X156147864Y-115249500D01*
X154852129Y-115249500D01*
X154852123Y-115249501D01*
X154792516Y-115255908D01*
X154649359Y-115309303D01*
X154648714Y-115307575D01*
X154591147Y-115320095D01*
X154551011Y-115308310D01*
X154550641Y-115309303D01*
X154407482Y-115255908D01*
X154407483Y-115255908D01*
X154347883Y-115249501D01*
X154347881Y-115249500D01*
X154347873Y-115249500D01*
X154347864Y-115249500D01*
X153052129Y-115249500D01*
X153052123Y-115249501D01*
X152992516Y-115255908D01*
X152849359Y-115309303D01*
X152848774Y-115307734D01*
X152790624Y-115320383D01*
X152750794Y-115308686D01*
X152750399Y-115309746D01*
X152607379Y-115256403D01*
X152607372Y-115256401D01*
X152547844Y-115250000D01*
X152150000Y-115250000D01*
X152150000Y-118250000D01*
X151650000Y-118250000D01*
X151650000Y-117000000D01*
X150800000Y-117000000D01*
X138725000Y-117000000D01*
X138725000Y-115475000D01*
X136875000Y-115475000D01*
X134525000Y-115475000D01*
X134525000Y-114750000D01*
X148650000Y-114750000D01*
X148650000Y-115147844D01*
X148656401Y-115207372D01*
X148656403Y-115207379D01*
X148706645Y-115342086D01*
X148706649Y-115342093D01*
X148792809Y-115457187D01*
X148792812Y-115457190D01*
X148907906Y-115543350D01*
X148907913Y-115543354D01*
X149042620Y-115593596D01*
X149042627Y-115593598D01*
X149102155Y-115599999D01*
X149102172Y-115600000D01*
X149900000Y-115600000D01*
X149900000Y-114750000D01*
X150400000Y-114750000D01*
X150400000Y-115600000D01*
X150676000Y-115600000D01*
X150743039Y-115619685D01*
X150788794Y-115672489D01*
X150800000Y-115724000D01*
X150800000Y-116500000D01*
X151650000Y-116500000D01*
X151650000Y-115223370D01*
X151648546Y-115220708D01*
X151646423Y-115181090D01*
X151649999Y-115147834D01*
X151650000Y-115147827D01*
X151650000Y-114750000D01*
X150400000Y-114750000D01*
X149900000Y-114750000D01*
X148650000Y-114750000D01*
X134525000Y-114750000D01*
X134525000Y-112950000D01*
X148650000Y-112950000D01*
X148650000Y-113347844D01*
X148656401Y-113407372D01*
X148656402Y-113407376D01*
X148709747Y-113550398D01*
X148708090Y-113551015D01*
X148720671Y-113608846D01*
X148708807Y-113649250D01*
X148709746Y-113649601D01*
X148656403Y-113792620D01*
X148656401Y-113792627D01*
X148650000Y-113852155D01*
X148650000Y-114250000D01*
X149900000Y-114250000D01*
X149900000Y-112950000D01*
X150400000Y-112950000D01*
X150400000Y-114250000D01*
X151650000Y-114250000D01*
X151650000Y-113852172D01*
X151649999Y-113852155D01*
X151643598Y-113792627D01*
X151643597Y-113792623D01*
X151590253Y-113649602D01*
X151591909Y-113648984D01*
X151579327Y-113591160D01*
X151591193Y-113550748D01*
X151590253Y-113550398D01*
X151643597Y-113407376D01*
X151643598Y-113407372D01*
X151649999Y-113347844D01*
X151650000Y-113347827D01*
X151650000Y-112950000D01*
X150400000Y-112950000D01*
X149900000Y-112950000D01*
X148650000Y-112950000D01*
X134525000Y-112950000D01*
X134525000Y-112425000D01*
X132525000Y-112425000D01*
X132525000Y-118776403D01*
X132505315Y-118843442D01*
X132452511Y-118889197D01*
X132383353Y-118899141D01*
X132319797Y-118870116D01*
X132313319Y-118864084D01*
X131247079Y-117797844D01*
X129180320Y-115731085D01*
X129174980Y-115724995D01*
X129153282Y-115696718D01*
X129059143Y-115624483D01*
X129017941Y-115568056D01*
X129013786Y-115498310D01*
X129018452Y-115482765D01*
X129018598Y-115482371D01*
X129024999Y-115422844D01*
X129025000Y-115422827D01*
X129025000Y-115275000D01*
X128580845Y-115275000D01*
X128574213Y-115274644D01*
X128573798Y-115274599D01*
X128572876Y-115274500D01*
X127524000Y-115274500D01*
X127456961Y-115254815D01*
X127411206Y-115202011D01*
X127400000Y-115150500D01*
X127400000Y-114899499D01*
X127419685Y-114832460D01*
X127472489Y-114786705D01*
X127523997Y-114775499D01*
X128572872Y-114775499D01*
X128572877Y-114775498D01*
X128572882Y-114775498D01*
X128574207Y-114775356D01*
X128580841Y-114775000D01*
X129025000Y-114775000D01*
X129025000Y-114627172D01*
X129024999Y-114627155D01*
X129018598Y-114567627D01*
X129018450Y-114567229D01*
X129018426Y-114566898D01*
X129016814Y-114560076D01*
X129017919Y-114559814D01*
X129013463Y-114497538D01*
X129046945Y-114436213D01*
X129059130Y-114425526D01*
X129115226Y-114382483D01*
X129153282Y-114353282D01*
X129174983Y-114324999D01*
X129180311Y-114318922D01*
X129893922Y-113605311D01*
X129899999Y-113599983D01*
X129928282Y-113578282D01*
X130024536Y-113452841D01*
X130085044Y-113306762D01*
X130085044Y-113306761D01*
X130085044Y-113306754D01*
X130085441Y-113304761D01*
X130085575Y-113302727D01*
X130105683Y-113150000D01*
X130101031Y-113114665D01*
X130100500Y-113106563D01*
X130100500Y-110472870D01*
X134824500Y-110472870D01*
X134824501Y-110472876D01*
X134830908Y-110532483D01*
X134881202Y-110667328D01*
X134881206Y-110667335D01*
X134967452Y-110782544D01*
X134967455Y-110782547D01*
X135082664Y-110868793D01*
X135082671Y-110868797D01*
X135217517Y-110919091D01*
X135217516Y-110919091D01*
X135224444Y-110919835D01*
X135277127Y-110925500D01*
X136772872Y-110925499D01*
X136832483Y-110919091D01*
X136967331Y-110868796D01*
X136976186Y-110862166D01*
X137041649Y-110837747D01*
X137109923Y-110852596D01*
X137159330Y-110902000D01*
X137174500Y-110961423D01*
X137174500Y-110972865D01*
X137174501Y-110972876D01*
X137180908Y-111032483D01*
X137231202Y-111167328D01*
X137231206Y-111167335D01*
X137317452Y-111282544D01*
X137317455Y-111282547D01*
X137432664Y-111368793D01*
X137432671Y-111368797D01*
X137567517Y-111419091D01*
X137567516Y-111419091D01*
X137574444Y-111419835D01*
X137627127Y-111425500D01*
X139272872Y-111425499D01*
X139332483Y-111419091D01*
X139467331Y-111368796D01*
X139582546Y-111282546D01*
X139668796Y-111167331D01*
X139675260Y-111150000D01*
X148650000Y-111150000D01*
X148650000Y-111547844D01*
X148656401Y-111607372D01*
X148656402Y-111607376D01*
X148709747Y-111750398D01*
X148708090Y-111751015D01*
X148720671Y-111808846D01*
X148708807Y-111849250D01*
X148709746Y-111849601D01*
X148656403Y-111992620D01*
X148656401Y-111992627D01*
X148650000Y-112052155D01*
X148650000Y-112450000D01*
X149900000Y-112450000D01*
X149900000Y-111150000D01*
X150400000Y-111150000D01*
X150400000Y-112450000D01*
X151650000Y-112450000D01*
X151650000Y-112052172D01*
X151649999Y-112052155D01*
X151643598Y-111992627D01*
X151643597Y-111992623D01*
X151590253Y-111849602D01*
X151591909Y-111848984D01*
X151579327Y-111791160D01*
X151591193Y-111750748D01*
X151590253Y-111750398D01*
X151643597Y-111607376D01*
X151643598Y-111607372D01*
X151649999Y-111547844D01*
X151650000Y-111547827D01*
X151650000Y-111150000D01*
X150400000Y-111150000D01*
X149900000Y-111150000D01*
X148650000Y-111150000D01*
X139675260Y-111150000D01*
X139719091Y-111032483D01*
X139725500Y-110972873D01*
X139725499Y-109877128D01*
X139719091Y-109817517D01*
X139715307Y-109807372D01*
X139668797Y-109682671D01*
X139668793Y-109682664D01*
X139582547Y-109567455D01*
X139582544Y-109567452D01*
X139467335Y-109481206D01*
X139467328Y-109481202D01*
X139332482Y-109430908D01*
X139332483Y-109430908D01*
X139272883Y-109424501D01*
X139272881Y-109424500D01*
X139272873Y-109424500D01*
X139272864Y-109424500D01*
X137627129Y-109424500D01*
X137627123Y-109424501D01*
X137567516Y-109430908D01*
X137432671Y-109481202D01*
X137432668Y-109481204D01*
X137387726Y-109514848D01*
X137322261Y-109539265D01*
X137253988Y-109524413D01*
X137204583Y-109475008D01*
X137197233Y-109458913D01*
X137168798Y-109382673D01*
X137168793Y-109382664D01*
X137144341Y-109350000D01*
X148650000Y-109350000D01*
X148650000Y-109747844D01*
X148656401Y-109807372D01*
X148656402Y-109807376D01*
X148709747Y-109950398D01*
X148708090Y-109951015D01*
X148720671Y-110008846D01*
X148708807Y-110049250D01*
X148709746Y-110049601D01*
X148656403Y-110192620D01*
X148656401Y-110192627D01*
X148650000Y-110252155D01*
X148650000Y-110650000D01*
X149900000Y-110650000D01*
X149900000Y-109350000D01*
X150400000Y-109350000D01*
X150400000Y-110650000D01*
X151650000Y-110650000D01*
X151650000Y-110252172D01*
X151649999Y-110252155D01*
X151643598Y-110192627D01*
X151643597Y-110192623D01*
X151590253Y-110049602D01*
X151591909Y-110048984D01*
X151579327Y-109991160D01*
X151591193Y-109950748D01*
X151590253Y-109950398D01*
X151643597Y-109807376D01*
X151643598Y-109807372D01*
X151649999Y-109747844D01*
X151650000Y-109747827D01*
X151650000Y-109350000D01*
X150400000Y-109350000D01*
X149900000Y-109350000D01*
X148650000Y-109350000D01*
X137144341Y-109350000D01*
X137082547Y-109267455D01*
X137082544Y-109267452D01*
X136967335Y-109181206D01*
X136967328Y-109181202D01*
X136832482Y-109130908D01*
X136832483Y-109130908D01*
X136772883Y-109124501D01*
X136772881Y-109124500D01*
X136772873Y-109124500D01*
X136772864Y-109124500D01*
X135277129Y-109124500D01*
X135277123Y-109124501D01*
X135217516Y-109130908D01*
X135082671Y-109181202D01*
X135082664Y-109181206D01*
X134967455Y-109267452D01*
X134967452Y-109267455D01*
X134881206Y-109382664D01*
X134881202Y-109382671D01*
X134830908Y-109517517D01*
X134824501Y-109577116D01*
X134824500Y-109577135D01*
X134824500Y-110472870D01*
X130100500Y-110472870D01*
X130100500Y-88799097D01*
X130120185Y-88732058D01*
X130172989Y-88686303D01*
X130242147Y-88676359D01*
X130305703Y-88705384D01*
X130312181Y-88711416D01*
X148613181Y-107012416D01*
X148646666Y-107073739D01*
X148649500Y-107100097D01*
X148649500Y-107947870D01*
X148649501Y-107947876D01*
X148655908Y-108007483D01*
X148709303Y-108150641D01*
X148707733Y-108151226D01*
X148720383Y-108209367D01*
X148708687Y-108249206D01*
X148709746Y-108249601D01*
X148656403Y-108392620D01*
X148656401Y-108392627D01*
X148650000Y-108452155D01*
X148650000Y-108850000D01*
X151650000Y-108850000D01*
X151650000Y-108452172D01*
X151649999Y-108452155D01*
X151643598Y-108392627D01*
X151643597Y-108392623D01*
X151590253Y-108249602D01*
X151592067Y-108248925D01*
X151579616Y-108191674D01*
X151591570Y-108150966D01*
X151590696Y-108150640D01*
X151593794Y-108142333D01*
X151593796Y-108142331D01*
X151644091Y-108007483D01*
X151650500Y-107947873D01*
X151650499Y-106652128D01*
X151644091Y-106592517D01*
X151593796Y-106457669D01*
X151590697Y-106449359D01*
X151592266Y-106448773D01*
X151579616Y-106390630D01*
X151591314Y-106350793D01*
X151590253Y-106350398D01*
X151643597Y-106207376D01*
X151643598Y-106207372D01*
X151649999Y-106147844D01*
X151650000Y-106147827D01*
X151650000Y-105750000D01*
X150024000Y-105750000D01*
X149956961Y-105730315D01*
X149911206Y-105677511D01*
X149900000Y-105626000D01*
X149900000Y-105250000D01*
X150400000Y-105250000D01*
X151650000Y-105250000D01*
X151650000Y-104852172D01*
X151649999Y-104852163D01*
X151646423Y-104818908D01*
X151650000Y-104799077D01*
X151650000Y-103500000D01*
X150800000Y-103500000D01*
X150800000Y-104276000D01*
X150780315Y-104343039D01*
X150727511Y-104388794D01*
X150676000Y-104400000D01*
X150400000Y-104400000D01*
X150400000Y-105250000D01*
X149900000Y-105250000D01*
X149900000Y-104400000D01*
X149102155Y-104400000D01*
X149042627Y-104406401D01*
X149042620Y-104406403D01*
X148907913Y-104456645D01*
X148907906Y-104456649D01*
X148792812Y-104542809D01*
X148792809Y-104542812D01*
X148706649Y-104657906D01*
X148706645Y-104657913D01*
X148656403Y-104792620D01*
X148656401Y-104792627D01*
X148650000Y-104852155D01*
X148650000Y-105051403D01*
X148630315Y-105118442D01*
X148577511Y-105164197D01*
X148508353Y-105174141D01*
X148444797Y-105145116D01*
X148438319Y-105139084D01*
X146299235Y-103000000D01*
X150800000Y-103000000D01*
X151650000Y-103000000D01*
X151650000Y-101750000D01*
X151252155Y-101750000D01*
X151192627Y-101756401D01*
X151192620Y-101756403D01*
X151057913Y-101806645D01*
X151057906Y-101806649D01*
X150942812Y-101892809D01*
X150942809Y-101892812D01*
X150856649Y-102007906D01*
X150856645Y-102007913D01*
X150806403Y-102142620D01*
X150806401Y-102142627D01*
X150800000Y-102202155D01*
X150800000Y-103000000D01*
X146299235Y-103000000D01*
X128986818Y-85687583D01*
X128953333Y-85626260D01*
X128950500Y-85599911D01*
X128950500Y-83250000D01*
X132575001Y-83250000D01*
X132575001Y-83499986D01*
X132585494Y-83602697D01*
X132640641Y-83769119D01*
X132640643Y-83769124D01*
X132732684Y-83918345D01*
X132856654Y-84042315D01*
X133005875Y-84134356D01*
X133005880Y-84134358D01*
X133172302Y-84189505D01*
X133172309Y-84189506D01*
X133275019Y-84199999D01*
X133337499Y-84199998D01*
X133337500Y-83250000D01*
X132575001Y-83250000D01*
X128950500Y-83250000D01*
X128950500Y-82750000D01*
X132575000Y-82750000D01*
X133337499Y-82750000D01*
X133337500Y-81800000D01*
X133337499Y-81799999D01*
X133275028Y-81800000D01*
X133275011Y-81800001D01*
X133172302Y-81810494D01*
X133005880Y-81865641D01*
X133005875Y-81865643D01*
X132856654Y-81957684D01*
X132732684Y-82081654D01*
X132640643Y-82230875D01*
X132640641Y-82230880D01*
X132585494Y-82397302D01*
X132585493Y-82397309D01*
X132575000Y-82500013D01*
X132575000Y-82750000D01*
X128950500Y-82750000D01*
X128950500Y-76873996D01*
X128970184Y-76806961D01*
X129022988Y-76761206D01*
X129074499Y-76750000D01*
X129974999Y-76750000D01*
X129974999Y-75975000D01*
X130475000Y-75975000D01*
X130475000Y-76750000D01*
X131372828Y-76750000D01*
X131372844Y-76749999D01*
X131432372Y-76743598D01*
X131432379Y-76743596D01*
X131567086Y-76693354D01*
X131567093Y-76693350D01*
X131682187Y-76607190D01*
X131682190Y-76607187D01*
X131768350Y-76492093D01*
X131768354Y-76492086D01*
X131818596Y-76357379D01*
X131818598Y-76357372D01*
X131824999Y-76297844D01*
X131825000Y-76297827D01*
X131825000Y-75975000D01*
X130475000Y-75975000D01*
X129974999Y-75975000D01*
X129975000Y-74700000D01*
X130475000Y-74700000D01*
X130475000Y-75475000D01*
X131825000Y-75475000D01*
X131825000Y-75152172D01*
X131824999Y-75152155D01*
X131818598Y-75092627D01*
X131818596Y-75092620D01*
X131768354Y-74957913D01*
X131768350Y-74957906D01*
X131682190Y-74842812D01*
X131682187Y-74842809D01*
X131567093Y-74756649D01*
X131567086Y-74756645D01*
X131432379Y-74706403D01*
X131432372Y-74706401D01*
X131372844Y-74700000D01*
X130475000Y-74700000D01*
X129975000Y-74700000D01*
X129849500Y-74700000D01*
X129782461Y-74680315D01*
X129736706Y-74627511D01*
X129725500Y-74576000D01*
X129725499Y-73924000D01*
X129745183Y-73856961D01*
X129797987Y-73811206D01*
X129849499Y-73800000D01*
X129975000Y-73800000D01*
X129975000Y-72649000D01*
X129994685Y-72581961D01*
X130047489Y-72536206D01*
X130099000Y-72525000D01*
X130351000Y-72525000D01*
X130418039Y-72544685D01*
X130463794Y-72597489D01*
X130475000Y-72649000D01*
X130475000Y-73800000D01*
X131372828Y-73800000D01*
X131372844Y-73799999D01*
X131432372Y-73793598D01*
X131432379Y-73793596D01*
X131567086Y-73743354D01*
X131567093Y-73743350D01*
X131682187Y-73657190D01*
X131682190Y-73657187D01*
X131768350Y-73542093D01*
X131768354Y-73542086D01*
X131818596Y-73407379D01*
X131818598Y-73407372D01*
X131824999Y-73347844D01*
X131824999Y-73298598D01*
X131844682Y-73231559D01*
X131897485Y-73185803D01*
X131966644Y-73175858D01*
X132030200Y-73204882D01*
X132036680Y-73210915D01*
X133613180Y-74787415D01*
X133646665Y-74848738D01*
X133649499Y-74875096D01*
X133649499Y-77667587D01*
X133629814Y-77734626D01*
X133622455Y-77744889D01*
X133620187Y-77747733D01*
X133524211Y-77900476D01*
X133464631Y-78070745D01*
X133464630Y-78070750D01*
X133444435Y-78249996D01*
X133444435Y-78250003D01*
X133464630Y-78429249D01*
X133464631Y-78429254D01*
X133524211Y-78599523D01*
X133620184Y-78752262D01*
X133690009Y-78822087D01*
X133723494Y-78883410D01*
X133718510Y-78953102D01*
X133676638Y-79009035D01*
X133656135Y-79021485D01*
X133650485Y-79024205D01*
X133497737Y-79120184D01*
X133370184Y-79247737D01*
X133274211Y-79400476D01*
X133214631Y-79570745D01*
X133214630Y-79570750D01*
X133194435Y-79749996D01*
X133194435Y-79750003D01*
X133214630Y-79929249D01*
X133214631Y-79929254D01*
X133274211Y-80099523D01*
X133344030Y-80210638D01*
X133370184Y-80252262D01*
X133497738Y-80379816D01*
X133650478Y-80475789D01*
X133763737Y-80515420D01*
X133820745Y-80535368D01*
X133820750Y-80535369D01*
X133999996Y-80555565D01*
X134000000Y-80555565D01*
X134000004Y-80555565D01*
X134179249Y-80535369D01*
X134179252Y-80535368D01*
X134179255Y-80535368D01*
X134349522Y-80475789D01*
X134502262Y-80379816D01*
X134629816Y-80252262D01*
X134725789Y-80099522D01*
X134785368Y-79929255D01*
X134795161Y-79842329D01*
X134822226Y-79777918D01*
X134830690Y-79768543D01*
X140312415Y-74286819D01*
X140373739Y-74253334D01*
X140400097Y-74250500D01*
X153349903Y-74250500D01*
X153416942Y-74270185D01*
X153437584Y-74286819D01*
X154919298Y-75768534D01*
X154952783Y-75829857D01*
X154954837Y-75842331D01*
X154964630Y-75929249D01*
X155024211Y-76099523D01*
X155030497Y-76109527D01*
X155049498Y-76176764D01*
X155029131Y-76243599D01*
X154975863Y-76288814D01*
X154925504Y-76299500D01*
X153660576Y-76299500D01*
X153593537Y-76279815D01*
X153547782Y-76227011D01*
X153537356Y-76161617D01*
X153555565Y-76000003D01*
X153555565Y-75999996D01*
X153535369Y-75820750D01*
X153535368Y-75820745D01*
X153527835Y-75799216D01*
X153475789Y-75650478D01*
X153379816Y-75497738D01*
X153252262Y-75370184D01*
X153099523Y-75274211D01*
X152929254Y-75214631D01*
X152929249Y-75214630D01*
X152750004Y-75194435D01*
X152749996Y-75194435D01*
X152570750Y-75214630D01*
X152570745Y-75214631D01*
X152400476Y-75274211D01*
X152247736Y-75370185D01*
X152244903Y-75372445D01*
X152242724Y-75373334D01*
X152241842Y-75373889D01*
X152241744Y-75373734D01*
X152180217Y-75398855D01*
X152167588Y-75399500D01*
X141793428Y-75399500D01*
X141785329Y-75398969D01*
X141750000Y-75394318D01*
X141710639Y-75399500D01*
X141593239Y-75414955D01*
X141593237Y-75414956D01*
X141447157Y-75475464D01*
X141321719Y-75571716D01*
X141300019Y-75599994D01*
X141294668Y-75606096D01*
X137981465Y-78919298D01*
X137920142Y-78952783D01*
X137907668Y-78954837D01*
X137820750Y-78964630D01*
X137650478Y-79024210D01*
X137497737Y-79120184D01*
X137370184Y-79247737D01*
X137274211Y-79400476D01*
X137214631Y-79570745D01*
X137214630Y-79570750D01*
X137194435Y-79749996D01*
X137194435Y-79750003D01*
X137214630Y-79929249D01*
X137214631Y-79929254D01*
X137274211Y-80099523D01*
X137344030Y-80210638D01*
X137370184Y-80252262D01*
X137497738Y-80379816D01*
X137650478Y-80475789D01*
X137763737Y-80515420D01*
X137820745Y-80535368D01*
X137820750Y-80535369D01*
X137999996Y-80555565D01*
X138000000Y-80555565D01*
X138000004Y-80555565D01*
X138179249Y-80535369D01*
X138179252Y-80535368D01*
X138179255Y-80535368D01*
X138349522Y-80475789D01*
X138502262Y-80379816D01*
X138629816Y-80252262D01*
X138725789Y-80099522D01*
X138785368Y-79929255D01*
X138795161Y-79842329D01*
X138822226Y-79777918D01*
X138830690Y-79768543D01*
X141962415Y-76636819D01*
X142023739Y-76603334D01*
X142050097Y-76600500D01*
X143588403Y-76600500D01*
X143655442Y-76620185D01*
X143701197Y-76672989D01*
X143711141Y-76742147D01*
X143682116Y-76805703D01*
X143676084Y-76812181D01*
X136531917Y-83956346D01*
X136470594Y-83989831D01*
X136400902Y-83984847D01*
X136344969Y-83942975D01*
X136320552Y-83877511D01*
X136335404Y-83809238D01*
X136338681Y-83803595D01*
X136359814Y-83769334D01*
X136414999Y-83602797D01*
X136425500Y-83500009D01*
X136425499Y-82499992D01*
X136414999Y-82397203D01*
X136359814Y-82230666D01*
X136267712Y-82081344D01*
X136143656Y-81957288D01*
X135994334Y-81865186D01*
X135827797Y-81810001D01*
X135827795Y-81810000D01*
X135725010Y-81799500D01*
X135099998Y-81799500D01*
X135099980Y-81799501D01*
X134997203Y-81810000D01*
X134997200Y-81810001D01*
X134830668Y-81865185D01*
X134830663Y-81865187D01*
X134681345Y-81957287D01*
X134587327Y-82051305D01*
X134526003Y-82084789D01*
X134456312Y-82079805D01*
X134411965Y-82051304D01*
X134318345Y-81957684D01*
X134169124Y-81865643D01*
X134169119Y-81865641D01*
X134002697Y-81810494D01*
X134002690Y-81810493D01*
X133899986Y-81800000D01*
X133837500Y-81800000D01*
X133837500Y-84199999D01*
X133899972Y-84199999D01*
X133899986Y-84199998D01*
X134002697Y-84189505D01*
X134169119Y-84134358D01*
X134169124Y-84134356D01*
X134318342Y-84042317D01*
X134411964Y-83948695D01*
X134473287Y-83915210D01*
X134542979Y-83920194D01*
X134587327Y-83948695D01*
X134681344Y-84042712D01*
X134753096Y-84086968D01*
X134799821Y-84138915D01*
X134812000Y-84192507D01*
X134812000Y-85624902D01*
X134792315Y-85691941D01*
X134775681Y-85712583D01*
X133975083Y-86513181D01*
X133913760Y-86546666D01*
X133887402Y-86549500D01*
X133274998Y-86549500D01*
X133274980Y-86549501D01*
X133172203Y-86560000D01*
X133172200Y-86560001D01*
X133005668Y-86615185D01*
X133005663Y-86615187D01*
X132856342Y-86707289D01*
X132732289Y-86831342D01*
X132640187Y-86980663D01*
X132640185Y-86980666D01*
X132640186Y-86980666D01*
X132585001Y-87147203D01*
X132585001Y-87147204D01*
X132585000Y-87147204D01*
X132574500Y-87249983D01*
X132574500Y-88250001D01*
X132574501Y-88250009D01*
X132585000Y-88352796D01*
X132585001Y-88352799D01*
X132640185Y-88519331D01*
X132640187Y-88519336D01*
X132647737Y-88531577D01*
X132732288Y-88668656D01*
X132856344Y-88792712D01*
X133005666Y-88884814D01*
X133172203Y-88939999D01*
X133274991Y-88950500D01*
X133900008Y-88950499D01*
X133900016Y-88950498D01*
X133900019Y-88950498D01*
X133967056Y-88943650D01*
X134002797Y-88939999D01*
X134169334Y-88884814D01*
X134318656Y-88792712D01*
X134412319Y-88699048D01*
X134473642Y-88665564D01*
X134543334Y-88670548D01*
X134587681Y-88699048D01*
X134681344Y-88792712D01*
X134830666Y-88884814D01*
X134997203Y-88939999D01*
X135099991Y-88950500D01*
X135712402Y-88950499D01*
X135779441Y-88970183D01*
X135800083Y-88986818D01*
X143957169Y-97143904D01*
X143962520Y-97150005D01*
X143984218Y-97178282D01*
X144050001Y-97228759D01*
X144084450Y-97255193D01*
X144109659Y-97274536D01*
X144109663Y-97274538D01*
X144182698Y-97304789D01*
X144255738Y-97335044D01*
X144334119Y-97345362D01*
X144412499Y-97355682D01*
X144412500Y-97355682D01*
X144447829Y-97351030D01*
X144455928Y-97350500D01*
X154499903Y-97350500D01*
X154566942Y-97370185D01*
X154587584Y-97386819D01*
X158738584Y-101537819D01*
X158772069Y-101599142D01*
X158767085Y-101668834D01*
X158725213Y-101724767D01*
X158659749Y-101749184D01*
X158650904Y-101749500D01*
X158452130Y-101749500D01*
X158452123Y-101749501D01*
X158392516Y-101755908D01*
X158249359Y-101809303D01*
X158248714Y-101807575D01*
X158191147Y-101820095D01*
X158151011Y-101808310D01*
X158150641Y-101809303D01*
X158007482Y-101755908D01*
X158007483Y-101755908D01*
X157947883Y-101749501D01*
X157947881Y-101749500D01*
X157947873Y-101749500D01*
X157947864Y-101749500D01*
X156652129Y-101749500D01*
X156652123Y-101749501D01*
X156592516Y-101755908D01*
X156449359Y-101809303D01*
X156448714Y-101807575D01*
X156391147Y-101820095D01*
X156351011Y-101808310D01*
X156350641Y-101809303D01*
X156207482Y-101755908D01*
X156207483Y-101755908D01*
X156147883Y-101749501D01*
X156147881Y-101749500D01*
X156147873Y-101749500D01*
X156147864Y-101749500D01*
X154852129Y-101749500D01*
X154852123Y-101749501D01*
X154792516Y-101755908D01*
X154649359Y-101809303D01*
X154648714Y-101807575D01*
X154591147Y-101820095D01*
X154551011Y-101808310D01*
X154550641Y-101809303D01*
X154407482Y-101755908D01*
X154407483Y-101755908D01*
X154347883Y-101749501D01*
X154347881Y-101749500D01*
X154347873Y-101749500D01*
X154347864Y-101749500D01*
X153052129Y-101749500D01*
X153052123Y-101749501D01*
X152992516Y-101755908D01*
X152849359Y-101809303D01*
X152848774Y-101807734D01*
X152790624Y-101820383D01*
X152750794Y-101808686D01*
X152750399Y-101809746D01*
X152607379Y-101756403D01*
X152607372Y-101756401D01*
X152547844Y-101750000D01*
X152150000Y-101750000D01*
X152150000Y-104750000D01*
X152547828Y-104750000D01*
X152547844Y-104749999D01*
X152607372Y-104743598D01*
X152607376Y-104743597D01*
X152750398Y-104690253D01*
X152751076Y-104692070D01*
X152808306Y-104679615D01*
X152849032Y-104691572D01*
X152849359Y-104690697D01*
X152992517Y-104744091D01*
X152992516Y-104744091D01*
X152999444Y-104744835D01*
X153052127Y-104750500D01*
X154347872Y-104750499D01*
X154407483Y-104744091D01*
X154542331Y-104693796D01*
X154542333Y-104693794D01*
X154550640Y-104690696D01*
X154551285Y-104692426D01*
X154608837Y-104679902D01*
X154648988Y-104691691D01*
X154649360Y-104690696D01*
X154657666Y-104693794D01*
X154657669Y-104693796D01*
X154792517Y-104744091D01*
X154852127Y-104750500D01*
X156147872Y-104750499D01*
X156207483Y-104744091D01*
X156342331Y-104693796D01*
X156342333Y-104693794D01*
X156350640Y-104690696D01*
X156351285Y-104692426D01*
X156408837Y-104679902D01*
X156448988Y-104691691D01*
X156449360Y-104690696D01*
X156457666Y-104693794D01*
X156457669Y-104693796D01*
X156592517Y-104744091D01*
X156652127Y-104750500D01*
X157947872Y-104750499D01*
X158007483Y-104744091D01*
X158142331Y-104693796D01*
X158142333Y-104693794D01*
X158150640Y-104690696D01*
X158151285Y-104692426D01*
X158208837Y-104679902D01*
X158248988Y-104691691D01*
X158249360Y-104690696D01*
X158257666Y-104693794D01*
X158257669Y-104693796D01*
X158392517Y-104744091D01*
X158452127Y-104750500D01*
X159747872Y-104750499D01*
X159807483Y-104744091D01*
X159942331Y-104693796D01*
X159942333Y-104693794D01*
X159950640Y-104690696D01*
X159951285Y-104692426D01*
X160008837Y-104679902D01*
X160048988Y-104691691D01*
X160049360Y-104690696D01*
X160057666Y-104693794D01*
X160057669Y-104693796D01*
X160192517Y-104744091D01*
X160252127Y-104750500D01*
X161547872Y-104750499D01*
X161607483Y-104744091D01*
X161742331Y-104693796D01*
X161742333Y-104693794D01*
X161750640Y-104690696D01*
X161751225Y-104692265D01*
X161809367Y-104679616D01*
X161849207Y-104691312D01*
X161849602Y-104690253D01*
X161992623Y-104743597D01*
X161992627Y-104743598D01*
X162052155Y-104749999D01*
X162052172Y-104750000D01*
X162450000Y-104750000D01*
X162450000Y-101750000D01*
X162052155Y-101750000D01*
X161992627Y-101756401D01*
X161992620Y-101756403D01*
X161849601Y-101809746D01*
X161848924Y-101807931D01*
X161791674Y-101820383D01*
X161750967Y-101808428D01*
X161750641Y-101809303D01*
X161607482Y-101755908D01*
X161607483Y-101755908D01*
X161547883Y-101749501D01*
X161547881Y-101749500D01*
X161547873Y-101749500D01*
X161547865Y-101749500D01*
X160700097Y-101749500D01*
X160633058Y-101729815D01*
X160612416Y-101713181D01*
X155255328Y-96356093D01*
X155249974Y-96349988D01*
X155228286Y-96321722D01*
X155228283Y-96321720D01*
X155228282Y-96321718D01*
X155102841Y-96225464D01*
X154956762Y-96164956D01*
X154956760Y-96164955D01*
X154839361Y-96149500D01*
X154800000Y-96144318D01*
X154764670Y-96148969D01*
X154756572Y-96149500D01*
X144712597Y-96149500D01*
X144645558Y-96129815D01*
X144624916Y-96113181D01*
X137073916Y-88562181D01*
X137040431Y-88500858D01*
X137045415Y-88431166D01*
X137087287Y-88375233D01*
X137152751Y-88350816D01*
X137161597Y-88350500D01*
X145706572Y-88350500D01*
X145714670Y-88351030D01*
X145750000Y-88355682D01*
X145750001Y-88355682D01*
X145802254Y-88348802D01*
X145906762Y-88335044D01*
X146052841Y-88274536D01*
X146084805Y-88250009D01*
X146178282Y-88178282D01*
X146199983Y-88149999D01*
X146205311Y-88143922D01*
X146302243Y-88046990D01*
X146363564Y-88013507D01*
X146433256Y-88018491D01*
X146439623Y-88021491D01*
X146439651Y-88021426D01*
X146447158Y-88024535D01*
X146447159Y-88024536D01*
X146593238Y-88085044D01*
X146671619Y-88095363D01*
X146749999Y-88105682D01*
X146750000Y-88105682D01*
X146750001Y-88105682D01*
X146802253Y-88098802D01*
X146906762Y-88085044D01*
X147052841Y-88024536D01*
X147178282Y-87928282D01*
X147274536Y-87802841D01*
X147335044Y-87656762D01*
X147341206Y-87609951D01*
X147369472Y-87546055D01*
X147376452Y-87538467D01*
X154187821Y-80727098D01*
X154249142Y-80693615D01*
X154318834Y-80698599D01*
X154374767Y-80740471D01*
X154399184Y-80805935D01*
X154399500Y-80814781D01*
X154399500Y-86790201D01*
X154379815Y-86857240D01*
X154340598Y-86895739D01*
X154281344Y-86932287D01*
X154157285Y-87056346D01*
X154155537Y-87059182D01*
X154153829Y-87060717D01*
X154152807Y-87062011D01*
X154152585Y-87061836D01*
X154103589Y-87105905D01*
X154034626Y-87117126D01*
X153970544Y-87089282D01*
X153944463Y-87059182D01*
X153942714Y-87056346D01*
X153818657Y-86932289D01*
X153818656Y-86932288D01*
X153696983Y-86857240D01*
X153669336Y-86840187D01*
X153669331Y-86840185D01*
X153667862Y-86839698D01*
X153502797Y-86785001D01*
X153502794Y-86785000D01*
X153414629Y-86775993D01*
X153349937Y-86749596D01*
X153339551Y-86740316D01*
X152767760Y-86168525D01*
X151955320Y-85356085D01*
X151949979Y-85349994D01*
X151928282Y-85321718D01*
X151802841Y-85225464D01*
X151656762Y-85164956D01*
X151656760Y-85164955D01*
X151539361Y-85149500D01*
X151500000Y-85144318D01*
X151464670Y-85148969D01*
X151456572Y-85149500D01*
X151444401Y-85149500D01*
X151436302Y-85148969D01*
X151400973Y-85144318D01*
X151361612Y-85149500D01*
X151244212Y-85164955D01*
X151244210Y-85164956D01*
X151098130Y-85225464D01*
X150972692Y-85321716D01*
X150950992Y-85349994D01*
X150945641Y-85356096D01*
X149106096Y-87195641D01*
X149099994Y-87200992D01*
X149071716Y-87222691D01*
X149014277Y-87297550D01*
X148975462Y-87348135D01*
X148975461Y-87348136D01*
X148914957Y-87494207D01*
X148914955Y-87494212D01*
X148894318Y-87650971D01*
X148894318Y-87650972D01*
X148898969Y-87686299D01*
X148899500Y-87694401D01*
X148899500Y-89956571D01*
X148898969Y-89964673D01*
X148894318Y-89999999D01*
X148894318Y-90000000D01*
X148899500Y-90039361D01*
X148904933Y-90080636D01*
X148894167Y-90149671D01*
X148847786Y-90201926D01*
X148822948Y-90213861D01*
X148650478Y-90274210D01*
X148497736Y-90370185D01*
X148494903Y-90372445D01*
X148492724Y-90373334D01*
X148491842Y-90373889D01*
X148491744Y-90373734D01*
X148430217Y-90398855D01*
X148417588Y-90399500D01*
X145582412Y-90399500D01*
X145515373Y-90379815D01*
X145505097Y-90372445D01*
X145502263Y-90370185D01*
X145502263Y-90370184D01*
X145502262Y-90370184D01*
X145433847Y-90327196D01*
X145349523Y-90274211D01*
X145179254Y-90214631D01*
X145179249Y-90214630D01*
X145000004Y-90194435D01*
X144999996Y-90194435D01*
X144820750Y-90214630D01*
X144820745Y-90214631D01*
X144650476Y-90274211D01*
X144497737Y-90370184D01*
X144370184Y-90497737D01*
X144274211Y-90650476D01*
X144214631Y-90820745D01*
X144214630Y-90820750D01*
X144194435Y-90999996D01*
X144194435Y-91000003D01*
X144214630Y-91179249D01*
X144214631Y-91179254D01*
X144274211Y-91349523D01*
X144333762Y-91444297D01*
X144370184Y-91502262D01*
X144497738Y-91629816D01*
X144524555Y-91646666D01*
X144633875Y-91715357D01*
X144650478Y-91725789D01*
X144703994Y-91744515D01*
X144820745Y-91785368D01*
X144820750Y-91785369D01*
X144999996Y-91805565D01*
X145000000Y-91805565D01*
X145000004Y-91805565D01*
X145179249Y-91785369D01*
X145179252Y-91785368D01*
X145179255Y-91785368D01*
X145349522Y-91725789D01*
X145502262Y-91629816D01*
X145502267Y-91629810D01*
X145505097Y-91627555D01*
X145507275Y-91626665D01*
X145508158Y-91626111D01*
X145508255Y-91626265D01*
X145569783Y-91601145D01*
X145582412Y-91600500D01*
X148417588Y-91600500D01*
X148484627Y-91620185D01*
X148494903Y-91627555D01*
X148497736Y-91629814D01*
X148497738Y-91629816D01*
X148611270Y-91701152D01*
X148633875Y-91715357D01*
X148650478Y-91725789D01*
X148703994Y-91744515D01*
X148820745Y-91785368D01*
X148820750Y-91785369D01*
X148999996Y-91805565D01*
X149000000Y-91805565D01*
X149000004Y-91805565D01*
X149179249Y-91785369D01*
X149179252Y-91785368D01*
X149179255Y-91785368D01*
X149179256Y-91785367D01*
X149179259Y-91785367D01*
X149212100Y-91773875D01*
X149296006Y-91744514D01*
X149365782Y-91740952D01*
X149424640Y-91773875D01*
X150294669Y-92643904D01*
X150300020Y-92650005D01*
X150321718Y-92678282D01*
X150443937Y-92772063D01*
X150445466Y-92773405D01*
X150447158Y-92774535D01*
X150447159Y-92774536D01*
X150593238Y-92835044D01*
X150671619Y-92845363D01*
X150749999Y-92855682D01*
X150750000Y-92855682D01*
X150785329Y-92851030D01*
X150793428Y-92850500D01*
X155275500Y-92850500D01*
X155342539Y-92870185D01*
X155388294Y-92922989D01*
X155399500Y-92974500D01*
X155399500Y-93956571D01*
X155398969Y-93964669D01*
X155394318Y-94000000D01*
X155403288Y-94068136D01*
X155414956Y-94156762D01*
X155475464Y-94302841D01*
X155571718Y-94428282D01*
X155599995Y-94449980D01*
X155606085Y-94455320D01*
X158708799Y-97558034D01*
X161744669Y-100593904D01*
X161750020Y-100600005D01*
X161771718Y-100628282D01*
X161893937Y-100722063D01*
X161895466Y-100723405D01*
X161897158Y-100724535D01*
X161897159Y-100724536D01*
X162043238Y-100785044D01*
X162121619Y-100795363D01*
X162199999Y-100805682D01*
X162200000Y-100805682D01*
X162235329Y-100801030D01*
X162243428Y-100800500D01*
X166949903Y-100800500D01*
X167016942Y-100820185D01*
X167037584Y-100836819D01*
X167738584Y-101537819D01*
X167772069Y-101599142D01*
X167767085Y-101668834D01*
X167725213Y-101724767D01*
X167659749Y-101749184D01*
X167650904Y-101749500D01*
X167452130Y-101749500D01*
X167452123Y-101749501D01*
X167392516Y-101755908D01*
X167249359Y-101809303D01*
X167248714Y-101807575D01*
X167191147Y-101820095D01*
X167151011Y-101808310D01*
X167150641Y-101809303D01*
X167007482Y-101755908D01*
X167007483Y-101755908D01*
X166947883Y-101749501D01*
X166947881Y-101749500D01*
X166947873Y-101749500D01*
X166947864Y-101749500D01*
X165652129Y-101749500D01*
X165652123Y-101749501D01*
X165592516Y-101755908D01*
X165449359Y-101809303D01*
X165448714Y-101807575D01*
X165391147Y-101820095D01*
X165351011Y-101808310D01*
X165350641Y-101809303D01*
X165207482Y-101755908D01*
X165207483Y-101755908D01*
X165147883Y-101749501D01*
X165147881Y-101749500D01*
X165147873Y-101749500D01*
X165147864Y-101749500D01*
X163852129Y-101749500D01*
X163852123Y-101749501D01*
X163792516Y-101755908D01*
X163649359Y-101809303D01*
X163648774Y-101807734D01*
X163590624Y-101820383D01*
X163550794Y-101808686D01*
X163550399Y-101809746D01*
X163407379Y-101756403D01*
X163407372Y-101756401D01*
X163347844Y-101750000D01*
X162950000Y-101750000D01*
X162950000Y-104750000D01*
X163347828Y-104750000D01*
X163347844Y-104749999D01*
X163407372Y-104743598D01*
X163407376Y-104743597D01*
X163550398Y-104690253D01*
X163551076Y-104692070D01*
X163608306Y-104679615D01*
X163649032Y-104691572D01*
X163649359Y-104690697D01*
X163792517Y-104744091D01*
X163792516Y-104744091D01*
X163799444Y-104744835D01*
X163852127Y-104750500D01*
X165147872Y-104750499D01*
X165207483Y-104744091D01*
X165342331Y-104693796D01*
X165342333Y-104693794D01*
X165350640Y-104690696D01*
X165351285Y-104692426D01*
X165408837Y-104679902D01*
X165448988Y-104691691D01*
X165449360Y-104690696D01*
X165457666Y-104693794D01*
X165457669Y-104693796D01*
X165592517Y-104744091D01*
X165652127Y-104750500D01*
X166947872Y-104750499D01*
X167007483Y-104744091D01*
X167142331Y-104693796D01*
X167142333Y-104693794D01*
X167150640Y-104690696D01*
X167151285Y-104692426D01*
X167208837Y-104679902D01*
X167248988Y-104691691D01*
X167249360Y-104690696D01*
X167257666Y-104693794D01*
X167257669Y-104693796D01*
X167392517Y-104744091D01*
X167452127Y-104750500D01*
X168747872Y-104750499D01*
X168807483Y-104744091D01*
X168942331Y-104693796D01*
X168942333Y-104693794D01*
X168950640Y-104690696D01*
X168951285Y-104692426D01*
X169008837Y-104679902D01*
X169048988Y-104691691D01*
X169049360Y-104690696D01*
X169057666Y-104693794D01*
X169057669Y-104693796D01*
X169192517Y-104744091D01*
X169252127Y-104750500D01*
X170026001Y-104750499D01*
X170093039Y-104770183D01*
X170138794Y-104822987D01*
X170150000Y-104874499D01*
X170150000Y-105250000D01*
X171400000Y-105250000D01*
X171400000Y-104400000D01*
X171900000Y-104400000D01*
X171900000Y-105250000D01*
X173150000Y-105250000D01*
X173150000Y-104852172D01*
X173149999Y-104852155D01*
X173143598Y-104792627D01*
X173143596Y-104792620D01*
X173093354Y-104657913D01*
X173093350Y-104657906D01*
X173007190Y-104542812D01*
X173007187Y-104542809D01*
X172892093Y-104456649D01*
X172892086Y-104456645D01*
X172757379Y-104406403D01*
X172757372Y-104406401D01*
X172697844Y-104400000D01*
X171900000Y-104400000D01*
X171400000Y-104400000D01*
X171124500Y-104400000D01*
X171057461Y-104380315D01*
X171011706Y-104327511D01*
X171000500Y-104276000D01*
X171000499Y-102202129D01*
X171000498Y-102202123D01*
X170994091Y-102142516D01*
X170943797Y-102007671D01*
X170943793Y-102007664D01*
X170857547Y-101892455D01*
X170857544Y-101892452D01*
X170742335Y-101806206D01*
X170742328Y-101806202D01*
X170607482Y-101755908D01*
X170607483Y-101755908D01*
X170547883Y-101749501D01*
X170547881Y-101749500D01*
X170547873Y-101749500D01*
X170547865Y-101749500D01*
X169700097Y-101749500D01*
X169633058Y-101729815D01*
X169612416Y-101713181D01*
X168470169Y-100570934D01*
X168436684Y-100509611D01*
X168441668Y-100439919D01*
X168483540Y-100383986D01*
X168520957Y-100364869D01*
X168589606Y-100343478D01*
X168589614Y-100343472D01*
X168596449Y-100340398D01*
X168597411Y-100342537D01*
X168653855Y-100327618D01*
X168702838Y-100341998D01*
X168703765Y-100339941D01*
X168710606Y-100343020D01*
X168872894Y-100393590D01*
X168872893Y-100393590D01*
X168943408Y-100399998D01*
X168943426Y-100399999D01*
X168949999Y-100399998D01*
X168950000Y-100399998D01*
X168950000Y-99987548D01*
X168955614Y-99950659D01*
X168969185Y-99907107D01*
X169294318Y-99907107D01*
X169299500Y-99946467D01*
X169314955Y-100063867D01*
X169314957Y-100063872D01*
X169375461Y-100209943D01*
X169375461Y-100209944D01*
X169375463Y-100209947D01*
X169375464Y-100209948D01*
X169424377Y-100273693D01*
X169449570Y-100338859D01*
X169450000Y-100349177D01*
X169450000Y-100399999D01*
X169456580Y-100399999D01*
X169478566Y-100398001D01*
X169547111Y-100411537D01*
X169577469Y-100433811D01*
X169737562Y-100593904D01*
X169742913Y-100600005D01*
X169764611Y-100628282D01*
X169886830Y-100722063D01*
X169888359Y-100723405D01*
X169890051Y-100724535D01*
X169890052Y-100724536D01*
X170036131Y-100785044D01*
X170114512Y-100795362D01*
X170192892Y-100805682D01*
X170192893Y-100805682D01*
X170228222Y-100801030D01*
X170236321Y-100800500D01*
X171728323Y-100800500D01*
X171736421Y-100801030D01*
X171771751Y-100805682D01*
X171771752Y-100805682D01*
X171824004Y-100798802D01*
X171928513Y-100785044D01*
X172074592Y-100724536D01*
X172074591Y-100724535D01*
X172093532Y-100716690D01*
X172097868Y-100708401D01*
X172111610Y-100696129D01*
X172200033Y-100628282D01*
X172221734Y-100599999D01*
X172227062Y-100593922D01*
X174143922Y-98677062D01*
X174149999Y-98671734D01*
X174178282Y-98650033D01*
X174274536Y-98524592D01*
X174335044Y-98378513D01*
X174335044Y-98378512D01*
X174335044Y-98378505D01*
X174335441Y-98376512D01*
X174335575Y-98374478D01*
X174355683Y-98221751D01*
X174355683Y-98221750D01*
X174351031Y-98186416D01*
X174350500Y-98178314D01*
X174350500Y-98160971D01*
X174370185Y-98093932D01*
X174386802Y-98073306D01*
X174393915Y-98066193D01*
X174399992Y-98060863D01*
X174428282Y-98039157D01*
X174524536Y-97913716D01*
X174585044Y-97767637D01*
X174600500Y-97650236D01*
X174605682Y-97610875D01*
X174605648Y-97610620D01*
X174601031Y-97575548D01*
X174600500Y-97567446D01*
X174600500Y-81332412D01*
X174620185Y-81265373D01*
X174627555Y-81255097D01*
X174629810Y-81252267D01*
X174629816Y-81252262D01*
X174725789Y-81099522D01*
X174785368Y-80929255D01*
X174792024Y-80870182D01*
X174805565Y-80750003D01*
X174805565Y-80749996D01*
X174785369Y-80570750D01*
X174785368Y-80570745D01*
X174727988Y-80406762D01*
X174725789Y-80400478D01*
X174629816Y-80247738D01*
X174502262Y-80120184D01*
X174489899Y-80112416D01*
X174349523Y-80024211D01*
X174179254Y-79964631D01*
X174179249Y-79964630D01*
X174000004Y-79944435D01*
X173999996Y-79944435D01*
X173820750Y-79964630D01*
X173820745Y-79964631D01*
X173650476Y-80024211D01*
X173497737Y-80120184D01*
X173370184Y-80247737D01*
X173274211Y-80400476D01*
X173214631Y-80570745D01*
X173214630Y-80570750D01*
X173194435Y-80749996D01*
X173194435Y-80750003D01*
X173214630Y-80929249D01*
X173214631Y-80929254D01*
X173274211Y-81099523D01*
X173370180Y-81252256D01*
X173370184Y-81252262D01*
X173370187Y-81252265D01*
X173372441Y-81255091D01*
X173373331Y-81257271D01*
X173373889Y-81258159D01*
X173373733Y-81258256D01*
X173398854Y-81319776D01*
X173399500Y-81332412D01*
X173399500Y-97310777D01*
X173379815Y-97377816D01*
X173363174Y-97398464D01*
X173360161Y-97401477D01*
X173356089Y-97405549D01*
X173349992Y-97410896D01*
X173321719Y-97432591D01*
X173297550Y-97464090D01*
X173225461Y-97558037D01*
X173225461Y-97558038D01*
X173164957Y-97704109D01*
X173164955Y-97704114D01*
X173144318Y-97860873D01*
X173144318Y-97860878D01*
X173148968Y-97896202D01*
X173149499Y-97904302D01*
X173149499Y-97921653D01*
X173129814Y-97988692D01*
X173113180Y-98009334D01*
X172461680Y-98660834D01*
X172400357Y-98694319D01*
X172330665Y-98689335D01*
X172274732Y-98647463D01*
X172250315Y-98581999D01*
X172249999Y-98573153D01*
X172249999Y-98220433D01*
X172243821Y-98152438D01*
X172243818Y-98152427D01*
X172195055Y-97995939D01*
X172195053Y-97995935D01*
X172110256Y-97855662D01*
X172110252Y-97855657D01*
X171994342Y-97739747D01*
X171994337Y-97739743D01*
X171854065Y-97654947D01*
X171697562Y-97606179D01*
X171650000Y-97601856D01*
X171650000Y-99126000D01*
X171630315Y-99193039D01*
X171577511Y-99238794D01*
X171526000Y-99250000D01*
X171324500Y-99250000D01*
X171257461Y-99230315D01*
X171211706Y-99177511D01*
X171200500Y-99126000D01*
X171200500Y-98243386D01*
X171198412Y-98220408D01*
X171194086Y-98172804D01*
X171155614Y-98049339D01*
X171150000Y-98012450D01*
X171150000Y-97601857D01*
X171149999Y-97601857D01*
X171102441Y-97606178D01*
X170945933Y-97654947D01*
X170930612Y-97664209D01*
X170863057Y-97682042D01*
X170802319Y-97664207D01*
X170795460Y-97660061D01*
X170789606Y-97656522D01*
X170627196Y-97605914D01*
X170627194Y-97605913D01*
X170627192Y-97605913D01*
X170577778Y-97601423D01*
X170556616Y-97599500D01*
X170043384Y-97599500D01*
X170024145Y-97601248D01*
X169972807Y-97605913D01*
X169971215Y-97606409D01*
X169810394Y-97656522D01*
X169810392Y-97656522D01*
X169810389Y-97656524D01*
X169803555Y-97659600D01*
X169802595Y-97657468D01*
X169746099Y-97672380D01*
X169697160Y-97658011D01*
X169696238Y-97660060D01*
X169689396Y-97656980D01*
X169527105Y-97606409D01*
X169527106Y-97606409D01*
X169456572Y-97600000D01*
X169450000Y-97600000D01*
X169450000Y-98012450D01*
X169444386Y-98049339D01*
X169405914Y-98172805D01*
X169399500Y-98243386D01*
X169399500Y-99023742D01*
X169379815Y-99090781D01*
X169376073Y-99096103D01*
X169375465Y-99097156D01*
X169314956Y-99243237D01*
X169314955Y-99243239D01*
X169294318Y-99399998D01*
X169294318Y-99400000D01*
X169298969Y-99435326D01*
X169299500Y-99443427D01*
X169299500Y-99863678D01*
X169298969Y-99871780D01*
X169294318Y-99907106D01*
X169294318Y-99907107D01*
X168969185Y-99907107D01*
X168994086Y-99827196D01*
X169000500Y-99756616D01*
X169000500Y-98243384D01*
X168994086Y-98172804D01*
X168955614Y-98049339D01*
X168950000Y-98012450D01*
X168950000Y-97600000D01*
X168949999Y-97599999D01*
X168943436Y-97600000D01*
X168943417Y-97600001D01*
X168872897Y-97606408D01*
X168872892Y-97606409D01*
X168710601Y-97656981D01*
X168703759Y-97660061D01*
X168702696Y-97657700D01*
X168647056Y-97672380D01*
X168597274Y-97657756D01*
X168596445Y-97659600D01*
X168589610Y-97656524D01*
X168589608Y-97656523D01*
X168589606Y-97656522D01*
X168427196Y-97605914D01*
X168427194Y-97605913D01*
X168427192Y-97605913D01*
X168377778Y-97601423D01*
X168356616Y-97599500D01*
X167843384Y-97599500D01*
X167824145Y-97601248D01*
X167772807Y-97605913D01*
X167756886Y-97610874D01*
X167615449Y-97654947D01*
X167610388Y-97656524D01*
X167603552Y-97659601D01*
X167602526Y-97657322D01*
X167546580Y-97672087D01*
X167497336Y-97657627D01*
X167496448Y-97659601D01*
X167489611Y-97656524D01*
X167489607Y-97656522D01*
X167489606Y-97656522D01*
X167327196Y-97605914D01*
X167327194Y-97605913D01*
X167327192Y-97605913D01*
X167277778Y-97601423D01*
X167256616Y-97599500D01*
X166743384Y-97599500D01*
X166724145Y-97601248D01*
X166672807Y-97605913D01*
X166656886Y-97610874D01*
X166515449Y-97654947D01*
X166510388Y-97656524D01*
X166503552Y-97659601D01*
X166502526Y-97657322D01*
X166446580Y-97672087D01*
X166397336Y-97657627D01*
X166396448Y-97659601D01*
X166389611Y-97656524D01*
X166389607Y-97656522D01*
X166389606Y-97656522D01*
X166227196Y-97605914D01*
X166227194Y-97605913D01*
X166227192Y-97605913D01*
X166177778Y-97601423D01*
X166156616Y-97599500D01*
X165643384Y-97599500D01*
X165572804Y-97605914D01*
X165561386Y-97609472D01*
X165491526Y-97610620D01*
X165432135Y-97573817D01*
X165402069Y-97510748D01*
X165400500Y-97491085D01*
X165400500Y-93659114D01*
X165401031Y-93651012D01*
X165405682Y-93615685D01*
X165405682Y-93615684D01*
X165385044Y-93458925D01*
X165385042Y-93458920D01*
X165324538Y-93312849D01*
X165324538Y-93312848D01*
X165324536Y-93312845D01*
X165252450Y-93218901D01*
X165240365Y-93203152D01*
X165228283Y-93187404D01*
X165200009Y-93165709D01*
X165193912Y-93160363D01*
X163081857Y-91048307D01*
X163048372Y-90986985D01*
X163053356Y-90917293D01*
X163095228Y-90861360D01*
X163160692Y-90836943D01*
X163206428Y-90842241D01*
X163210390Y-90843475D01*
X163210394Y-90843478D01*
X163372804Y-90894086D01*
X163443384Y-90900500D01*
X163443387Y-90900500D01*
X163956613Y-90900500D01*
X163956616Y-90900500D01*
X164027196Y-90894086D01*
X164189606Y-90843478D01*
X164189613Y-90843473D01*
X164196445Y-90840400D01*
X164197471Y-90842680D01*
X164253399Y-90827912D01*
X164302665Y-90842377D01*
X164303555Y-90840400D01*
X164310389Y-90843475D01*
X164310394Y-90843478D01*
X164472804Y-90894086D01*
X164543384Y-90900500D01*
X164543387Y-90900500D01*
X165056613Y-90900500D01*
X165056616Y-90900500D01*
X165127196Y-90894086D01*
X165289606Y-90843478D01*
X165289616Y-90843471D01*
X165296449Y-90840398D01*
X165297477Y-90842683D01*
X165353379Y-90827911D01*
X165402664Y-90842378D01*
X165403555Y-90840400D01*
X165410389Y-90843475D01*
X165410394Y-90843478D01*
X165572804Y-90894086D01*
X165643384Y-90900500D01*
X165643387Y-90900500D01*
X166156613Y-90900500D01*
X166156616Y-90900500D01*
X166227196Y-90894086D01*
X166389606Y-90843478D01*
X166389613Y-90843473D01*
X166396445Y-90840400D01*
X166397471Y-90842680D01*
X166453399Y-90827912D01*
X166502665Y-90842377D01*
X166503555Y-90840400D01*
X166510389Y-90843475D01*
X166510394Y-90843478D01*
X166672804Y-90894086D01*
X166743384Y-90900500D01*
X166743387Y-90900500D01*
X167256613Y-90900500D01*
X167256616Y-90900500D01*
X167327196Y-90894086D01*
X167489606Y-90843478D01*
X167489613Y-90843473D01*
X167496445Y-90840400D01*
X167497471Y-90842680D01*
X167553399Y-90827912D01*
X167602665Y-90842377D01*
X167603555Y-90840400D01*
X167610389Y-90843475D01*
X167610394Y-90843478D01*
X167772804Y-90894086D01*
X167843384Y-90900500D01*
X167843387Y-90900500D01*
X168356613Y-90900500D01*
X168356616Y-90900500D01*
X168427196Y-90894086D01*
X168589606Y-90843478D01*
X168589613Y-90843473D01*
X168596445Y-90840400D01*
X168597471Y-90842680D01*
X168653399Y-90827912D01*
X168702665Y-90842377D01*
X168703555Y-90840400D01*
X168710389Y-90843475D01*
X168710394Y-90843478D01*
X168872804Y-90894086D01*
X168943384Y-90900500D01*
X168943387Y-90900500D01*
X169456613Y-90900500D01*
X169456616Y-90900500D01*
X169527196Y-90894086D01*
X169689606Y-90843478D01*
X169689613Y-90843473D01*
X169696445Y-90840400D01*
X169697471Y-90842680D01*
X169753399Y-90827912D01*
X169802665Y-90842377D01*
X169803555Y-90840400D01*
X169810389Y-90843475D01*
X169810394Y-90843478D01*
X169972804Y-90894086D01*
X170043384Y-90900500D01*
X170043387Y-90900500D01*
X170556613Y-90900500D01*
X170556616Y-90900500D01*
X170627196Y-90894086D01*
X170789606Y-90843478D01*
X170801831Y-90836087D01*
X170869383Y-90818248D01*
X170930133Y-90836083D01*
X170945730Y-90845512D01*
X171102343Y-90894315D01*
X171170406Y-90900500D01*
X171170409Y-90900500D01*
X171629591Y-90900500D01*
X171629594Y-90900500D01*
X171697657Y-90894315D01*
X171854270Y-90845512D01*
X171859455Y-90842378D01*
X171994648Y-90760651D01*
X171994647Y-90760651D01*
X171994653Y-90760648D01*
X172110648Y-90644653D01*
X172195512Y-90504270D01*
X172244315Y-90347657D01*
X172250500Y-90279594D01*
X172250500Y-88720406D01*
X172244315Y-88652343D01*
X172195512Y-88495730D01*
X172195511Y-88495727D01*
X172110651Y-88355351D01*
X172110648Y-88355347D01*
X171994652Y-88239351D01*
X171994648Y-88239348D01*
X171854272Y-88154488D01*
X171854263Y-88154485D01*
X171697664Y-88105687D01*
X171697662Y-88105686D01*
X171697657Y-88105685D01*
X171629594Y-88099500D01*
X171170406Y-88099500D01*
X171102343Y-88105685D01*
X171102341Y-88105685D01*
X171102338Y-88105686D01*
X170945731Y-88154487D01*
X170930132Y-88163917D01*
X170862576Y-88181751D01*
X170801836Y-88163915D01*
X170789608Y-88156523D01*
X170789607Y-88156522D01*
X170789606Y-88156522D01*
X170627196Y-88105914D01*
X170613274Y-88104648D01*
X170548293Y-88078977D01*
X170507506Y-88022248D01*
X170500500Y-87981158D01*
X170500500Y-87284295D01*
X170520185Y-87217256D01*
X170549013Y-87185919D01*
X170558967Y-87178282D01*
X170580668Y-87149999D01*
X170585996Y-87143922D01*
X172300852Y-85429066D01*
X172341074Y-85402190D01*
X172407841Y-85374536D01*
X172533282Y-85278282D01*
X172629536Y-85152841D01*
X172690044Y-85006762D01*
X172705500Y-84889361D01*
X172705499Y-84610640D01*
X172705499Y-84610638D01*
X172705499Y-84610636D01*
X172690046Y-84493246D01*
X172690044Y-84493239D01*
X172690044Y-84493238D01*
X172629536Y-84347159D01*
X172533282Y-84221718D01*
X172407841Y-84125464D01*
X172261762Y-84064956D01*
X172204602Y-84057430D01*
X172140707Y-84029164D01*
X172102236Y-83970840D01*
X172101405Y-83900975D01*
X172133104Y-83846814D01*
X172300854Y-83679064D01*
X172341074Y-83652190D01*
X172407841Y-83624536D01*
X172533282Y-83528282D01*
X172629536Y-83402841D01*
X172690044Y-83256762D01*
X172705500Y-83139361D01*
X172705499Y-82860640D01*
X172705499Y-82860639D01*
X172705499Y-82860636D01*
X172690046Y-82743246D01*
X172690044Y-82743241D01*
X172690044Y-82743238D01*
X172629536Y-82597159D01*
X172533282Y-82471718D01*
X172415772Y-82381549D01*
X172374571Y-82325123D01*
X172370416Y-82255377D01*
X172404628Y-82194456D01*
X172425286Y-82178182D01*
X172502262Y-82129816D01*
X172629816Y-82002262D01*
X172725789Y-81849522D01*
X172785368Y-81679255D01*
X172794840Y-81595190D01*
X172805565Y-81500003D01*
X172805565Y-81499996D01*
X172785369Y-81320750D01*
X172785368Y-81320745D01*
X172771663Y-81281578D01*
X172725789Y-81150478D01*
X172723467Y-81146783D01*
X172629815Y-80997737D01*
X172502262Y-80870184D01*
X172502259Y-80870182D01*
X172468296Y-80848841D01*
X172422005Y-80796506D01*
X172411358Y-80727452D01*
X172435893Y-80668362D01*
X172524536Y-80552841D01*
X172585044Y-80406762D01*
X172600500Y-80289361D01*
X172605682Y-80250001D01*
X172601030Y-80214670D01*
X172600499Y-80206568D01*
X172600499Y-80042793D01*
X172600499Y-79940001D01*
X172620184Y-79872965D01*
X172659400Y-79834467D01*
X172678044Y-79822968D01*
X172797968Y-79703044D01*
X172887003Y-79558697D01*
X172940349Y-79397708D01*
X172950500Y-79298345D01*
X172950499Y-78701656D01*
X172940349Y-78602292D01*
X172887003Y-78441303D01*
X172886999Y-78441297D01*
X172886998Y-78441294D01*
X172797970Y-78296959D01*
X172797967Y-78296955D01*
X172678044Y-78177032D01*
X172678040Y-78177029D01*
X172533705Y-78088001D01*
X172533699Y-78087998D01*
X172533697Y-78087997D01*
X172481649Y-78070750D01*
X172372709Y-78034651D01*
X172273346Y-78024500D01*
X171726662Y-78024500D01*
X171726644Y-78024501D01*
X171627292Y-78034650D01*
X171627289Y-78034651D01*
X171466305Y-78087996D01*
X171466294Y-78088001D01*
X171321959Y-78177029D01*
X171321953Y-78177033D01*
X171312324Y-78186663D01*
X171251000Y-78220146D01*
X171181308Y-78215159D01*
X171136965Y-78186660D01*
X171127732Y-78177427D01*
X171127728Y-78177424D01*
X170983492Y-78088457D01*
X170983481Y-78088452D01*
X170822606Y-78035144D01*
X170723322Y-78025000D01*
X170700000Y-78025000D01*
X170700000Y-79126000D01*
X170680315Y-79193039D01*
X170627511Y-79238794D01*
X170576000Y-79250000D01*
X169500001Y-79250000D01*
X169500001Y-79298322D01*
X169510144Y-79397607D01*
X169563452Y-79558481D01*
X169563457Y-79558492D01*
X169652424Y-79702728D01*
X169652427Y-79702732D01*
X169772266Y-79822571D01*
X169829381Y-79857800D01*
X169876105Y-79909748D01*
X169887328Y-79978711D01*
X169859484Y-80042793D01*
X169830258Y-80068332D01*
X169747735Y-80120185D01*
X169744903Y-80122445D01*
X169742725Y-80123333D01*
X169741844Y-80123888D01*
X169741746Y-80123733D01*
X169680217Y-80148855D01*
X169667588Y-80149500D01*
X167125097Y-80149500D01*
X167058058Y-80129815D01*
X167037416Y-80113181D01*
X166561319Y-79637084D01*
X166527834Y-79575761D01*
X166525000Y-79549403D01*
X166525000Y-78725000D01*
X167025000Y-78725000D01*
X167025000Y-79500000D01*
X167922828Y-79500000D01*
X167922844Y-79499999D01*
X167982372Y-79493598D01*
X167982379Y-79493596D01*
X168117086Y-79443354D01*
X168117093Y-79443350D01*
X168232187Y-79357190D01*
X168232190Y-79357187D01*
X168318350Y-79242093D01*
X168318354Y-79242086D01*
X168368596Y-79107379D01*
X168368598Y-79107372D01*
X168374999Y-79047844D01*
X168375000Y-79047827D01*
X168375000Y-78749999D01*
X169499999Y-78749999D01*
X169500000Y-78750000D01*
X170200000Y-78750000D01*
X170200000Y-78024999D01*
X170176693Y-78025000D01*
X170176674Y-78025001D01*
X170077392Y-78035144D01*
X169916518Y-78088452D01*
X169916507Y-78088457D01*
X169772271Y-78177424D01*
X169772267Y-78177427D01*
X169652427Y-78297267D01*
X169652424Y-78297271D01*
X169563457Y-78441507D01*
X169563452Y-78441518D01*
X169510144Y-78602393D01*
X169500000Y-78701677D01*
X169500000Y-78701690D01*
X169499999Y-78749999D01*
X168375000Y-78749999D01*
X168375000Y-78725000D01*
X167025000Y-78725000D01*
X166525000Y-78725000D01*
X166525000Y-78349000D01*
X166544685Y-78281961D01*
X166597489Y-78236206D01*
X166649000Y-78225000D01*
X168375000Y-78225000D01*
X168375000Y-78124499D01*
X168394685Y-78057460D01*
X168447489Y-78011705D01*
X168498998Y-78000499D01*
X168872872Y-78000499D01*
X168932483Y-77994091D01*
X169067331Y-77943796D01*
X169182546Y-77857546D01*
X169268796Y-77742331D01*
X169319091Y-77607483D01*
X169325500Y-77547873D01*
X169325499Y-76452128D01*
X169319842Y-76399500D01*
X169319091Y-76392516D01*
X169268797Y-76257671D01*
X169268793Y-76257664D01*
X169182547Y-76142455D01*
X169182544Y-76142452D01*
X169067335Y-76056206D01*
X169067328Y-76056202D01*
X168932482Y-76005908D01*
X168932483Y-76005908D01*
X168872883Y-75999501D01*
X168872881Y-75999500D01*
X168872873Y-75999500D01*
X168872865Y-75999500D01*
X168499000Y-75999500D01*
X168431961Y-75979815D01*
X168386206Y-75927011D01*
X168375000Y-75875500D01*
X168375000Y-75775000D01*
X165175000Y-75775000D01*
X165175000Y-76097844D01*
X165181401Y-76157372D01*
X165181403Y-76157379D01*
X165231645Y-76292086D01*
X165231649Y-76292093D01*
X165317809Y-76407187D01*
X165317812Y-76407190D01*
X165432906Y-76493350D01*
X165432912Y-76493354D01*
X165433846Y-76493702D01*
X165434643Y-76494299D01*
X165440696Y-76497604D01*
X165440220Y-76498473D01*
X165489781Y-76535572D01*
X165514200Y-76601035D01*
X165499350Y-76669309D01*
X165478197Y-76697566D01*
X164856096Y-77319668D01*
X164849994Y-77325019D01*
X164821716Y-77346718D01*
X164759132Y-77428282D01*
X164725464Y-77472158D01*
X164725461Y-77472163D01*
X164664957Y-77618234D01*
X164664955Y-77618239D01*
X164644318Y-77774998D01*
X164644318Y-77775000D01*
X164648969Y-77810326D01*
X164649500Y-77818427D01*
X164649500Y-79131572D01*
X164648969Y-79139666D01*
X164646666Y-79157164D01*
X164645546Y-79165670D01*
X164617277Y-79229566D01*
X164558951Y-79268035D01*
X164489087Y-79268864D01*
X164434926Y-79237162D01*
X162185444Y-76987680D01*
X162151959Y-76926357D01*
X162156943Y-76856665D01*
X162185440Y-76812323D01*
X163722763Y-75275000D01*
X165175000Y-75275000D01*
X166525000Y-75275000D01*
X166525000Y-74500000D01*
X167025000Y-74500000D01*
X167025000Y-75275000D01*
X168375000Y-75275000D01*
X168375000Y-75250000D01*
X169500001Y-75250000D01*
X169500001Y-75298322D01*
X169510144Y-75397607D01*
X169563452Y-75558481D01*
X169563457Y-75558492D01*
X169652424Y-75702728D01*
X169652427Y-75702732D01*
X169772267Y-75822572D01*
X169772271Y-75822575D01*
X169916507Y-75911542D01*
X169916518Y-75911547D01*
X170077393Y-75964855D01*
X170176683Y-75974999D01*
X170200000Y-75974998D01*
X170200000Y-75250000D01*
X169500001Y-75250000D01*
X168375000Y-75250000D01*
X168375000Y-74952172D01*
X168374999Y-74952155D01*
X168368598Y-74892627D01*
X168368596Y-74892620D01*
X168318354Y-74757913D01*
X168318350Y-74757906D01*
X168232190Y-74642812D01*
X168232187Y-74642809D01*
X168117093Y-74556649D01*
X168117086Y-74556645D01*
X167982379Y-74506403D01*
X167982372Y-74506401D01*
X167922844Y-74500000D01*
X167025000Y-74500000D01*
X166525000Y-74500000D01*
X165627155Y-74500000D01*
X165567627Y-74506401D01*
X165567620Y-74506403D01*
X165432913Y-74556645D01*
X165432906Y-74556649D01*
X165317812Y-74642809D01*
X165317809Y-74642812D01*
X165231649Y-74757906D01*
X165231645Y-74757913D01*
X165181403Y-74892620D01*
X165181401Y-74892627D01*
X165175000Y-74952155D01*
X165175000Y-75275000D01*
X163722763Y-75275000D01*
X166393923Y-72603839D01*
X166399998Y-72598513D01*
X166428282Y-72576811D01*
X166524536Y-72451370D01*
X166585044Y-72305291D01*
X166589093Y-72274536D01*
X166602063Y-72176010D01*
X166630329Y-72112116D01*
X166659902Y-72086660D01*
X166731156Y-72042712D01*
X166855212Y-71918656D01*
X166947314Y-71769334D01*
X166975095Y-71685495D01*
X167014868Y-71628051D01*
X167079384Y-71601228D01*
X167092801Y-71600500D01*
X167699903Y-71600500D01*
X167766942Y-71620185D01*
X167787584Y-71636819D01*
X170016747Y-73865982D01*
X170050232Y-73927305D01*
X170045248Y-73996997D01*
X170003376Y-74052930D01*
X169968072Y-74071368D01*
X169916522Y-74088450D01*
X169916507Y-74088457D01*
X169772271Y-74177424D01*
X169772267Y-74177427D01*
X169652427Y-74297267D01*
X169652424Y-74297271D01*
X169563457Y-74441507D01*
X169563452Y-74441518D01*
X169510144Y-74602393D01*
X169500000Y-74701677D01*
X169500000Y-74701690D01*
X169499999Y-74749999D01*
X169500000Y-74750000D01*
X170576000Y-74750000D01*
X170643039Y-74769685D01*
X170688794Y-74822489D01*
X170700000Y-74874000D01*
X170700000Y-75974999D01*
X170723308Y-75974999D01*
X170723322Y-75974998D01*
X170822607Y-75964855D01*
X170983481Y-75911547D01*
X170983492Y-75911542D01*
X171127731Y-75822573D01*
X171136959Y-75813345D01*
X171198279Y-75779856D01*
X171267971Y-75784835D01*
X171312327Y-75813339D01*
X171321955Y-75822967D01*
X171321959Y-75822970D01*
X171466294Y-75911998D01*
X171466297Y-75911999D01*
X171466303Y-75912003D01*
X171627292Y-75965349D01*
X171726655Y-75975500D01*
X172273344Y-75975499D01*
X172273352Y-75975498D01*
X172273355Y-75975498D01*
X172327760Y-75969940D01*
X172372708Y-75965349D01*
X172533697Y-75912003D01*
X172678044Y-75822968D01*
X172797968Y-75703044D01*
X172887003Y-75558697D01*
X172940349Y-75397708D01*
X172950500Y-75298345D01*
X172950499Y-74701656D01*
X172940349Y-74602292D01*
X172887003Y-74441303D01*
X172886999Y-74441297D01*
X172886998Y-74441294D01*
X172797970Y-74296959D01*
X172797967Y-74296955D01*
X172678044Y-74177032D01*
X172678040Y-74177029D01*
X172533705Y-74088001D01*
X172533699Y-74087998D01*
X172533697Y-74087997D01*
X172483514Y-74071368D01*
X172372709Y-74034651D01*
X172273352Y-74024500D01*
X172273345Y-74024500D01*
X171925097Y-74024500D01*
X171858058Y-74004815D01*
X171837416Y-73988181D01*
X168455328Y-70606093D01*
X168449974Y-70599988D01*
X168428286Y-70571722D01*
X168428283Y-70571720D01*
X168428282Y-70571718D01*
X168302841Y-70475464D01*
X168156762Y-70414956D01*
X168156760Y-70414955D01*
X168039361Y-70399500D01*
X168000000Y-70394318D01*
X167964670Y-70398969D01*
X167956572Y-70399500D01*
X167092801Y-70399500D01*
X167025762Y-70379815D01*
X166980007Y-70327011D01*
X166975095Y-70314504D01*
X166947314Y-70230666D01*
X166855212Y-70081344D01*
X166731156Y-69957288D01*
X166581834Y-69865186D01*
X166581832Y-69865185D01*
X166575687Y-69861395D01*
X166576790Y-69859605D01*
X166532149Y-69820290D01*
X166513000Y-69754091D01*
X166513000Y-68192507D01*
X166532685Y-68125468D01*
X166571903Y-68086968D01*
X166643656Y-68042712D01*
X166767712Y-67918656D01*
X166859814Y-67769334D01*
X166914999Y-67602797D01*
X166925500Y-67500009D01*
X166925499Y-66499992D01*
X166914999Y-66397203D01*
X166859814Y-66230666D01*
X166767712Y-66081344D01*
X166643656Y-65957288D01*
X166494334Y-65865186D01*
X166327797Y-65810001D01*
X166327795Y-65810000D01*
X166225010Y-65799500D01*
X165599998Y-65799500D01*
X165599980Y-65799501D01*
X165497203Y-65810000D01*
X165497200Y-65810001D01*
X165330668Y-65865185D01*
X165330663Y-65865187D01*
X165181342Y-65957289D01*
X165087681Y-66050951D01*
X165026358Y-66084436D01*
X164956666Y-66079452D01*
X164912319Y-66050951D01*
X164818657Y-65957289D01*
X164818656Y-65957289D01*
X164818656Y-65957288D01*
X164669334Y-65865186D01*
X164502797Y-65810001D01*
X164502795Y-65810000D01*
X164400010Y-65799500D01*
X163774998Y-65799500D01*
X163774980Y-65799501D01*
X163672203Y-65810000D01*
X163672200Y-65810001D01*
X163505668Y-65865185D01*
X163505663Y-65865187D01*
X163356342Y-65957289D01*
X163232289Y-66081342D01*
X163140187Y-66230663D01*
X163140185Y-66230668D01*
X163112405Y-66314504D01*
X163072632Y-66371949D01*
X163008116Y-66398772D01*
X162994699Y-66399500D01*
X161832412Y-66399500D01*
X161765373Y-66379815D01*
X161755097Y-66372445D01*
X161752263Y-66370185D01*
X161752263Y-66370184D01*
X161752262Y-66370184D01*
X161663648Y-66314504D01*
X161599523Y-66274211D01*
X161429254Y-66214631D01*
X161429249Y-66214630D01*
X161250004Y-66194435D01*
X161249996Y-66194435D01*
X161070750Y-66214630D01*
X161070745Y-66214631D01*
X160900476Y-66274211D01*
X160747737Y-66370184D01*
X160620184Y-66497737D01*
X160524211Y-66650477D01*
X160466133Y-66816455D01*
X160425411Y-66873231D01*
X160360458Y-66898978D01*
X160349091Y-66899500D01*
X138109153Y-66899500D01*
X138042114Y-66879815D01*
X137996359Y-66827011D01*
X137985153Y-66775500D01*
X137985153Y-65094590D01*
X137965982Y-65075419D01*
X137964231Y-65074905D01*
X137956201Y-65065638D01*
X137948834Y-65058271D01*
X137949360Y-65057744D01*
X137918476Y-65022101D01*
X137908532Y-64952943D01*
X137909979Y-64944813D01*
X137910260Y-64943488D01*
X137910259Y-64943488D01*
X137910262Y-64943482D01*
X137930598Y-64750000D01*
X137910262Y-64556518D01*
X137850144Y-64371492D01*
X137850143Y-64371491D01*
X137850143Y-64371489D01*
X137850142Y-64371488D01*
X137795667Y-64277135D01*
X137752870Y-64203008D01*
X137679187Y-64121175D01*
X137622697Y-64058435D01*
X137622694Y-64058433D01*
X137622693Y-64058432D01*
X137622692Y-64058431D01*
X137497475Y-63967455D01*
X137465297Y-63944076D01*
X137324076Y-63881202D01*
X137287571Y-63864949D01*
X137287569Y-63864948D01*
X137097274Y-63824500D01*
X136902726Y-63824500D01*
X136712430Y-63864948D01*
X136712427Y-63864949D01*
X136550434Y-63937072D01*
X136481184Y-63946356D01*
X136449566Y-63937072D01*
X136287572Y-63864949D01*
X136287569Y-63864948D01*
X136097274Y-63824500D01*
X135902726Y-63824500D01*
X135712430Y-63864948D01*
X135712427Y-63864949D01*
X135550434Y-63937072D01*
X135481184Y-63946356D01*
X135449566Y-63937072D01*
X135287572Y-63864949D01*
X135287569Y-63864948D01*
X135097274Y-63824500D01*
X134902726Y-63824500D01*
X134712429Y-63864948D01*
X134706245Y-63866958D01*
X134705349Y-63864201D01*
X134648341Y-63871511D01*
X134624527Y-63865239D01*
X134532482Y-63830908D01*
X134532483Y-63830908D01*
X134472883Y-63824501D01*
X134472881Y-63824500D01*
X134472873Y-63824500D01*
X134472864Y-63824500D01*
X133527129Y-63824500D01*
X133527123Y-63824501D01*
X133467516Y-63830908D01*
X133332671Y-63881202D01*
X133332664Y-63881206D01*
X133217455Y-63967452D01*
X133217452Y-63967455D01*
X133131206Y-64082664D01*
X133131202Y-64082671D01*
X133080908Y-64217517D01*
X133074501Y-64277116D01*
X133074500Y-64277135D01*
X133074500Y-65067227D01*
X133054815Y-65134266D01*
X133038182Y-65154907D01*
X133020620Y-65172468D01*
X133020621Y-68476151D01*
X134991827Y-68476151D01*
X134996043Y-68471934D01*
X135011512Y-68419255D01*
X135064316Y-68373500D01*
X135115827Y-68362294D01*
X135991300Y-68362294D01*
X136006158Y-68347436D01*
X136067481Y-68313951D01*
X136093839Y-68311117D01*
X136160520Y-68311117D01*
X136227559Y-68330802D01*
X136248201Y-68347436D01*
X136544669Y-68643904D01*
X136550022Y-68650007D01*
X136571718Y-68678282D01*
X136697337Y-68774674D01*
X136699032Y-68775312D01*
X136843238Y-68835044D01*
X136921619Y-68845363D01*
X136999999Y-68855682D01*
X137000000Y-68855682D01*
X137035329Y-68851030D01*
X137043428Y-68850500D01*
X154949903Y-68850500D01*
X155016942Y-68870185D01*
X155037584Y-68886819D01*
X160669298Y-74518533D01*
X160702783Y-74579856D01*
X160704837Y-74592330D01*
X160714630Y-74679249D01*
X160774210Y-74849521D01*
X160837333Y-74949980D01*
X160870184Y-75002262D01*
X160997738Y-75129816D01*
X161088080Y-75186582D01*
X161132721Y-75214632D01*
X161150478Y-75225789D01*
X161288860Y-75274211D01*
X161320745Y-75285368D01*
X161320750Y-75285369D01*
X161499996Y-75305565D01*
X161500000Y-75305565D01*
X161500004Y-75305565D01*
X161679249Y-75285369D01*
X161679251Y-75285368D01*
X161679255Y-75285368D01*
X161681264Y-75284664D01*
X161682645Y-75284594D01*
X161686047Y-75283818D01*
X161686182Y-75284413D01*
X161751041Y-75281097D01*
X161811672Y-75315820D01*
X161843904Y-75377811D01*
X161837506Y-75447387D01*
X161809909Y-75489384D01*
X161036113Y-76263181D01*
X160974790Y-76296666D01*
X160948432Y-76299500D01*
X158043428Y-76299500D01*
X158035329Y-76298969D01*
X158000000Y-76294318D01*
X157964670Y-76298969D01*
X157956572Y-76299500D01*
X156574496Y-76299500D01*
X156507457Y-76279815D01*
X156461702Y-76227011D01*
X156451758Y-76157853D01*
X156469503Y-76109527D01*
X156475788Y-76099524D01*
X156490946Y-76056206D01*
X156535368Y-75929255D01*
X156537312Y-75912003D01*
X156555565Y-75750003D01*
X156555565Y-75749996D01*
X156535369Y-75570750D01*
X156535368Y-75570745D01*
X156509821Y-75497737D01*
X156475789Y-75400478D01*
X156475174Y-75399500D01*
X156411619Y-75298352D01*
X156379816Y-75247738D01*
X156252262Y-75120184D01*
X156208394Y-75092620D01*
X156099521Y-75024210D01*
X155929249Y-74964630D01*
X155842331Y-74954837D01*
X155777917Y-74927770D01*
X155768534Y-74919298D01*
X155355637Y-74506401D01*
X154105320Y-73256085D01*
X154099979Y-73249994D01*
X154078282Y-73221718D01*
X153952841Y-73125464D01*
X153808632Y-73065730D01*
X153806985Y-73064984D01*
X153650001Y-73044318D01*
X153649999Y-73044318D01*
X153636792Y-73046056D01*
X153614670Y-73048969D01*
X153606573Y-73049500D01*
X151459809Y-73049500D01*
X151392770Y-73029815D01*
X151372128Y-73013181D01*
X151000000Y-72641053D01*
X150627872Y-73013181D01*
X150566549Y-73046666D01*
X150540191Y-73049500D01*
X150337500Y-73049500D01*
X150337500Y-73017508D01*
X150299303Y-72964935D01*
X150253338Y-72950000D01*
X150221662Y-72950000D01*
X150175697Y-72964935D01*
X150137500Y-73017508D01*
X150137500Y-73049500D01*
X149934809Y-73049500D01*
X149867770Y-73029815D01*
X149847128Y-73013181D01*
X149475000Y-72641053D01*
X149102872Y-73013181D01*
X149041549Y-73046666D01*
X149015191Y-73049500D01*
X148812500Y-73049500D01*
X148812500Y-73017508D01*
X148774303Y-72964935D01*
X148728338Y-72950000D01*
X148696662Y-72950000D01*
X148650697Y-72964935D01*
X148612500Y-73017508D01*
X148612500Y-73049500D01*
X148409809Y-73049500D01*
X148342770Y-73029815D01*
X148322128Y-73013181D01*
X147950001Y-72641053D01*
X147950000Y-72641053D01*
X147577871Y-73013181D01*
X147516548Y-73046666D01*
X147490190Y-73049500D01*
X140143427Y-73049500D01*
X140135329Y-73048969D01*
X140113207Y-73046056D01*
X140100001Y-73044318D01*
X140099997Y-73044318D01*
X139929431Y-73066772D01*
X139916524Y-73076021D01*
X139797157Y-73125464D01*
X139671719Y-73221716D01*
X139650019Y-73249994D01*
X139644668Y-73256096D01*
X135095190Y-77805573D01*
X135033867Y-77839058D01*
X134964175Y-77834074D01*
X134908242Y-77792202D01*
X134902515Y-77783864D01*
X134896945Y-77775000D01*
X134879816Y-77747738D01*
X134879814Y-77747736D01*
X134879813Y-77747734D01*
X134877550Y-77744896D01*
X134876659Y-77742715D01*
X134876111Y-77741842D01*
X134876264Y-77741745D01*
X134851144Y-77680209D01*
X134850500Y-77667587D01*
X134850500Y-74618428D01*
X134851031Y-74610326D01*
X134852076Y-74602393D01*
X134855682Y-74575000D01*
X134852287Y-74549215D01*
X134838081Y-74441305D01*
X134835044Y-74418238D01*
X134774536Y-74272159D01*
X134774535Y-74272159D01*
X134771443Y-74264694D01*
X134762072Y-74255917D01*
X134678282Y-74146718D01*
X134650005Y-74125020D01*
X134643904Y-74119669D01*
X133275500Y-72751265D01*
X132811737Y-72287502D01*
X147144938Y-72287502D01*
X147165121Y-72466638D01*
X147165122Y-72466641D01*
X147224662Y-72636798D01*
X147224667Y-72636808D01*
X147233338Y-72650608D01*
X147563955Y-72319992D01*
X147850000Y-72319992D01*
X147888197Y-72372565D01*
X147934162Y-72387500D01*
X147965838Y-72387500D01*
X148011803Y-72372565D01*
X148050000Y-72319992D01*
X148050000Y-72287500D01*
X148303553Y-72287500D01*
X148712500Y-72696447D01*
X149088955Y-72319992D01*
X149375000Y-72319992D01*
X149413197Y-72372565D01*
X149459162Y-72387500D01*
X149490838Y-72387500D01*
X149536803Y-72372565D01*
X149575000Y-72319992D01*
X149575000Y-72287500D01*
X149828553Y-72287500D01*
X150237500Y-72696447D01*
X150613955Y-72319992D01*
X150900000Y-72319992D01*
X150938197Y-72372565D01*
X150984162Y-72387500D01*
X151015838Y-72387500D01*
X151061803Y-72372565D01*
X151100000Y-72319992D01*
X151100000Y-72287500D01*
X151353553Y-72287500D01*
X151716660Y-72650607D01*
X151716661Y-72650607D01*
X151725333Y-72636807D01*
X151784878Y-72466638D01*
X151805062Y-72287502D01*
X151805062Y-72287497D01*
X151784878Y-72108361D01*
X151784877Y-72108358D01*
X151725337Y-71938201D01*
X151725335Y-71938197D01*
X151716660Y-71924391D01*
X151353553Y-72287499D01*
X151353553Y-72287500D01*
X151100000Y-72287500D01*
X151100000Y-72255008D01*
X151061803Y-72202435D01*
X151015838Y-72187500D01*
X150984162Y-72187500D01*
X150938197Y-72202435D01*
X150900000Y-72255008D01*
X150900000Y-72319992D01*
X150613955Y-72319992D01*
X150646447Y-72287500D01*
X150237500Y-71878553D01*
X149828553Y-72287500D01*
X149575000Y-72287500D01*
X149575000Y-72255008D01*
X149536803Y-72202435D01*
X149490838Y-72187500D01*
X149459162Y-72187500D01*
X149413197Y-72202435D01*
X149375000Y-72255008D01*
X149375000Y-72319992D01*
X149088955Y-72319992D01*
X149121447Y-72287500D01*
X148712500Y-71878553D01*
X148303553Y-72287500D01*
X148050000Y-72287500D01*
X148050000Y-72255008D01*
X148011803Y-72202435D01*
X147965838Y-72187500D01*
X147934162Y-72187500D01*
X147888197Y-72202435D01*
X147850000Y-72255008D01*
X147850000Y-72319992D01*
X147563955Y-72319992D01*
X147596447Y-72287500D01*
X147596447Y-72287499D01*
X147233338Y-71924390D01*
X147233338Y-71924391D01*
X147224664Y-71938196D01*
X147165122Y-72108358D01*
X147165121Y-72108361D01*
X147144938Y-72287497D01*
X147144938Y-72287502D01*
X132811737Y-72287502D01*
X132095073Y-71570838D01*
X147586890Y-71570838D01*
X147950000Y-71933946D01*
X147950001Y-71933946D01*
X148326454Y-71557492D01*
X148612500Y-71557492D01*
X148650697Y-71610065D01*
X148696662Y-71625000D01*
X148728338Y-71625000D01*
X148774303Y-71610065D01*
X148812500Y-71557492D01*
X148812500Y-71525000D01*
X149066053Y-71525000D01*
X149475000Y-71933947D01*
X149851455Y-71557492D01*
X150137500Y-71557492D01*
X150175697Y-71610065D01*
X150221662Y-71625000D01*
X150253338Y-71625000D01*
X150299303Y-71610065D01*
X150337500Y-71557492D01*
X150337500Y-71524999D01*
X150591053Y-71524999D01*
X151000000Y-71933946D01*
X151363108Y-71570838D01*
X151359508Y-71538884D01*
X151359507Y-71511119D01*
X151363107Y-71479160D01*
X151000001Y-71116053D01*
X151000000Y-71116053D01*
X150591053Y-71524998D01*
X150591053Y-71524999D01*
X150337500Y-71524999D01*
X150337500Y-71492508D01*
X150299303Y-71439935D01*
X150253338Y-71425000D01*
X150221662Y-71425000D01*
X150175697Y-71439935D01*
X150137500Y-71492508D01*
X150137500Y-71557492D01*
X149851455Y-71557492D01*
X149883947Y-71525000D01*
X149475000Y-71116053D01*
X149066053Y-71524999D01*
X149066053Y-71525000D01*
X148812500Y-71525000D01*
X148812500Y-71492508D01*
X148774303Y-71439935D01*
X148728338Y-71425000D01*
X148696662Y-71425000D01*
X148650697Y-71439935D01*
X148612500Y-71492508D01*
X148612500Y-71557492D01*
X148326454Y-71557492D01*
X148358947Y-71524999D01*
X148358947Y-71524998D01*
X147950000Y-71116053D01*
X147586890Y-71479161D01*
X147590491Y-71511123D01*
X147590491Y-71538892D01*
X147586890Y-71570838D01*
X132095073Y-71570838D01*
X131880320Y-71356085D01*
X131874979Y-71349994D01*
X131853282Y-71321718D01*
X131727841Y-71225464D01*
X131581762Y-71164956D01*
X131581760Y-71164955D01*
X131464361Y-71149500D01*
X131425000Y-71144318D01*
X131389670Y-71148969D01*
X131381572Y-71149500D01*
X129068428Y-71149500D01*
X129060329Y-71148969D01*
X129025000Y-71144318D01*
X128985639Y-71149500D01*
X128868239Y-71164955D01*
X128868237Y-71164956D01*
X128722157Y-71225464D01*
X128596719Y-71321716D01*
X128575019Y-71349994D01*
X128569668Y-71356096D01*
X127356096Y-72569668D01*
X127349993Y-72575020D01*
X127321719Y-72596716D01*
X127297550Y-72628215D01*
X127225461Y-72722162D01*
X127225461Y-72722163D01*
X127164957Y-72868234D01*
X127164955Y-72868239D01*
X127144318Y-73024998D01*
X127148968Y-73060328D01*
X127149499Y-73068428D01*
X127149499Y-85822257D01*
X127148968Y-85830356D01*
X127144318Y-85865686D01*
X127149500Y-85905046D01*
X127164955Y-86022446D01*
X127164956Y-86022448D01*
X127225464Y-86168527D01*
X127321718Y-86293968D01*
X127349995Y-86315666D01*
X127356085Y-86321006D01*
X128188182Y-87153103D01*
X128221666Y-87214424D01*
X128224500Y-87240782D01*
X128224500Y-109000500D01*
X128204815Y-109067539D01*
X128152011Y-109113294D01*
X128100500Y-109124500D01*
X126977129Y-109124500D01*
X126977123Y-109124501D01*
X126917516Y-109130908D01*
X126782671Y-109181202D01*
X126782665Y-109181206D01*
X126698809Y-109243980D01*
X126633345Y-109268397D01*
X126565072Y-109253545D01*
X126515667Y-109204140D01*
X126500499Y-109144716D01*
X126500499Y-70762502D01*
X147144938Y-70762502D01*
X147165121Y-70941638D01*
X147165122Y-70941641D01*
X147224662Y-71111798D01*
X147224667Y-71111808D01*
X147233338Y-71125608D01*
X147563955Y-70794992D01*
X147850000Y-70794992D01*
X147888197Y-70847565D01*
X147934162Y-70862500D01*
X147965838Y-70862500D01*
X148011803Y-70847565D01*
X148050000Y-70794992D01*
X148050000Y-70762500D01*
X148303553Y-70762500D01*
X148712500Y-71171447D01*
X149088955Y-70794992D01*
X149375000Y-70794992D01*
X149413197Y-70847565D01*
X149459162Y-70862500D01*
X149490838Y-70862500D01*
X149536803Y-70847565D01*
X149575000Y-70794992D01*
X149575000Y-70762500D01*
X149828553Y-70762500D01*
X150237500Y-71171447D01*
X150613955Y-70794992D01*
X150900000Y-70794992D01*
X150938197Y-70847565D01*
X150984162Y-70862500D01*
X151015838Y-70862500D01*
X151061803Y-70847565D01*
X151100000Y-70794992D01*
X151100000Y-70762500D01*
X151353553Y-70762500D01*
X151716660Y-71125607D01*
X151716661Y-71125607D01*
X151725333Y-71111807D01*
X151784878Y-70941638D01*
X151805062Y-70762502D01*
X151805062Y-70762497D01*
X151784878Y-70583361D01*
X151784877Y-70583358D01*
X151725337Y-70413201D01*
X151725335Y-70413197D01*
X151716660Y-70399391D01*
X151353553Y-70762499D01*
X151353553Y-70762500D01*
X151100000Y-70762500D01*
X151100000Y-70730008D01*
X151061803Y-70677435D01*
X151015838Y-70662500D01*
X150984162Y-70662500D01*
X150938197Y-70677435D01*
X150900000Y-70730008D01*
X150900000Y-70794992D01*
X150613955Y-70794992D01*
X150646447Y-70762500D01*
X150237500Y-70353553D01*
X149828553Y-70762500D01*
X149575000Y-70762500D01*
X149575000Y-70730008D01*
X149536803Y-70677435D01*
X149490838Y-70662500D01*
X149459162Y-70662500D01*
X149413197Y-70677435D01*
X149375000Y-70730008D01*
X149375000Y-70794992D01*
X149088955Y-70794992D01*
X149121447Y-70762500D01*
X148712500Y-70353553D01*
X148303553Y-70762500D01*
X148050000Y-70762500D01*
X148050000Y-70730008D01*
X148011803Y-70677435D01*
X147965838Y-70662500D01*
X147934162Y-70662500D01*
X147888197Y-70677435D01*
X147850000Y-70730008D01*
X147850000Y-70794992D01*
X147563955Y-70794992D01*
X147596447Y-70762500D01*
X147596447Y-70762499D01*
X147233338Y-70399390D01*
X147233338Y-70399391D01*
X147224664Y-70413196D01*
X147165122Y-70583358D01*
X147165121Y-70583361D01*
X147144938Y-70762497D01*
X147144938Y-70762502D01*
X126500499Y-70762502D01*
X126500499Y-70045839D01*
X147586890Y-70045839D01*
X147949998Y-70408947D01*
X147949999Y-70408947D01*
X148326454Y-70032492D01*
X148612500Y-70032492D01*
X148650697Y-70085065D01*
X148696662Y-70100000D01*
X148728338Y-70100000D01*
X148774303Y-70085065D01*
X148812500Y-70032492D01*
X148812500Y-70000000D01*
X149066053Y-70000000D01*
X149475000Y-70408947D01*
X149851455Y-70032492D01*
X150137500Y-70032492D01*
X150175697Y-70085065D01*
X150221662Y-70100000D01*
X150253338Y-70100000D01*
X150299303Y-70085065D01*
X150337500Y-70032492D01*
X150337500Y-70000000D01*
X150591053Y-70000000D01*
X151000000Y-70408947D01*
X151000001Y-70408947D01*
X151363108Y-70045838D01*
X151363108Y-70045837D01*
X151349308Y-70037167D01*
X151349298Y-70037162D01*
X151179141Y-69977622D01*
X151179138Y-69977621D01*
X151136515Y-69972819D01*
X151072102Y-69945752D01*
X151032547Y-69888157D01*
X151027180Y-69863482D01*
X151022377Y-69820859D01*
X150962837Y-69650701D01*
X150962835Y-69650697D01*
X150954160Y-69636891D01*
X150591053Y-69999999D01*
X150591053Y-70000000D01*
X150337500Y-70000000D01*
X150337500Y-69967508D01*
X150299303Y-69914935D01*
X150253338Y-69900000D01*
X150221662Y-69900000D01*
X150175697Y-69914935D01*
X150137500Y-69967508D01*
X150137500Y-70032492D01*
X149851455Y-70032492D01*
X149883947Y-70000000D01*
X149883947Y-69999999D01*
X149520838Y-69636890D01*
X149488892Y-69640491D01*
X149461123Y-69640491D01*
X149429161Y-69636890D01*
X149066053Y-69999999D01*
X149066053Y-70000000D01*
X148812500Y-70000000D01*
X148812500Y-69967508D01*
X148774303Y-69914935D01*
X148728338Y-69900000D01*
X148696662Y-69900000D01*
X148650697Y-69914935D01*
X148612500Y-69967508D01*
X148612500Y-70032492D01*
X148326454Y-70032492D01*
X148358946Y-70000000D01*
X148358946Y-69999999D01*
X147995838Y-69636890D01*
X147995838Y-69636891D01*
X147987165Y-69650695D01*
X147927622Y-69820859D01*
X147922819Y-69863484D01*
X147895752Y-69927898D01*
X147838156Y-69967452D01*
X147813484Y-69972819D01*
X147770859Y-69977622D01*
X147600695Y-70037165D01*
X147586891Y-70045838D01*
X147586890Y-70045839D01*
X126500499Y-70045839D01*
X126500499Y-69283338D01*
X148349390Y-69283338D01*
X148712500Y-69646447D01*
X148712501Y-69646447D01*
X149075608Y-69283338D01*
X149874390Y-69283338D01*
X150237500Y-69646447D01*
X150237501Y-69646447D01*
X150600608Y-69283338D01*
X150600608Y-69283337D01*
X150586808Y-69274667D01*
X150586798Y-69274662D01*
X150416641Y-69215122D01*
X150416638Y-69215121D01*
X150237503Y-69194938D01*
X150237497Y-69194938D01*
X150058361Y-69215121D01*
X150058358Y-69215122D01*
X149888196Y-69274664D01*
X149874391Y-69283338D01*
X149874390Y-69283338D01*
X149075608Y-69283338D01*
X149075608Y-69283337D01*
X149061808Y-69274667D01*
X149061798Y-69274662D01*
X148891641Y-69215122D01*
X148891638Y-69215121D01*
X148712503Y-69194938D01*
X148712497Y-69194938D01*
X148533361Y-69215121D01*
X148533358Y-69215122D01*
X148363196Y-69274664D01*
X148349391Y-69283338D01*
X148349390Y-69283338D01*
X126500499Y-69283338D01*
X126500499Y-66837854D01*
X126520184Y-66770816D01*
X126572988Y-66725061D01*
X126642146Y-66715117D01*
X126705702Y-66744142D01*
X126725800Y-66766343D01*
X126776279Y-66837855D01*
X126805199Y-66878826D01*
X127008736Y-67096760D01*
X127240041Y-67284940D01*
X127240045Y-67284943D01*
X127240047Y-67284944D01*
X127240048Y-67284945D01*
X127494833Y-67439884D01*
X127494835Y-67439885D01*
X127494837Y-67439886D01*
X127633255Y-67500009D01*
X127768343Y-67558686D01*
X128055482Y-67639138D01*
X128301764Y-67672989D01*
X128350901Y-67679743D01*
X128350902Y-67679743D01*
X128649099Y-67679743D01*
X128698236Y-67672989D01*
X128944518Y-67639138D01*
X129231657Y-67558686D01*
X129505167Y-67439884D01*
X129759952Y-67284945D01*
X129991267Y-67096757D01*
X130194802Y-66878824D01*
X130366766Y-66635206D01*
X130503956Y-66370441D01*
X130603816Y-66089462D01*
X130603816Y-66089457D01*
X130603819Y-66089451D01*
X130650421Y-65865185D01*
X130664486Y-65797502D01*
X130684836Y-65500000D01*
X130664486Y-65202498D01*
X130646891Y-65117828D01*
X130603819Y-64910548D01*
X130603814Y-64910532D01*
X130542937Y-64739241D01*
X130503956Y-64629559D01*
X130366766Y-64364794D01*
X130366765Y-64364792D01*
X130366761Y-64364786D01*
X130194804Y-64121178D01*
X130126956Y-64048531D01*
X129991267Y-63903243D01*
X129991265Y-63903242D01*
X129991263Y-63903239D01*
X129766877Y-63720688D01*
X129727297Y-63663111D01*
X129725128Y-63593275D01*
X129761060Y-63533353D01*
X129823684Y-63502369D01*
X129845132Y-63500500D01*
X171494589Y-63500500D01*
X171561628Y-63520185D01*
G37*
%TD.AperFunction*%
%TA.AperFunction,Conductor*%
G36*
X161669334Y-89098100D02*
G01*
X161725267Y-89139972D01*
X161749684Y-89205437D01*
X161750000Y-89214282D01*
X161750000Y-89250000D01*
X162675500Y-89250000D01*
X162742539Y-89269685D01*
X162788294Y-89322489D01*
X162799500Y-89374000D01*
X162799500Y-89626000D01*
X162779815Y-89693039D01*
X162727011Y-89738794D01*
X162675500Y-89750000D01*
X161834911Y-89750000D01*
X161767872Y-89730315D01*
X161747230Y-89713681D01*
X161436915Y-89403366D01*
X161403430Y-89342043D01*
X161408414Y-89272351D01*
X161436909Y-89228011D01*
X161538323Y-89126597D01*
X161599643Y-89093116D01*
X161669334Y-89098100D01*
G37*
%TD.AperFunction*%
%TD*%
M02*
