%TF.GenerationSoftware,KiCad,Pcbnew,7.0.6*%
%TF.CreationDate,2023-08-21T19:58:41-03:00*%
%TF.ProjectId,satelite,73617465-6c69-4746-952e-6b696361645f,rev?*%
%TF.SameCoordinates,Original*%
%TF.FileFunction,Soldermask,Bot*%
%TF.FilePolarity,Negative*%
%FSLAX46Y46*%
G04 Gerber Fmt 4.6, Leading zero omitted, Abs format (unit mm)*
G04 Created by KiCad (PCBNEW 7.0.6) date 2023-08-21 19:58:41*
%MOMM*%
%LPD*%
G01*
G04 APERTURE LIST*
G04 Aperture macros list*
%AMRoundRect*
0 Rectangle with rounded corners*
0 $1 Rounding radius*
0 $2 $3 $4 $5 $6 $7 $8 $9 X,Y pos of 4 corners*
0 Add a 4 corners polygon primitive as box body*
4,1,4,$2,$3,$4,$5,$6,$7,$8,$9,$2,$3,0*
0 Add four circle primitives for the rounded corners*
1,1,$1+$1,$2,$3*
1,1,$1+$1,$4,$5*
1,1,$1+$1,$6,$7*
1,1,$1+$1,$8,$9*
0 Add four rect primitives between the rounded corners*
20,1,$1+$1,$2,$3,$4,$5,0*
20,1,$1+$1,$4,$5,$6,$7,0*
20,1,$1+$1,$6,$7,$8,$9,0*
20,1,$1+$1,$8,$9,$2,$3,0*%
G04 Aperture macros list end*
%ADD10O,0.850000X0.850000*%
%ADD11R,0.850000X0.850000*%
%ADD12C,0.700000*%
%ADD13O,0.900000X2.400000*%
%ADD14O,0.900000X1.700000*%
%ADD15RoundRect,0.225000X0.225000X0.250000X-0.225000X0.250000X-0.225000X-0.250000X0.225000X-0.250000X0*%
%ADD16RoundRect,0.250000X0.262500X0.450000X-0.262500X0.450000X-0.262500X-0.450000X0.262500X-0.450000X0*%
%ADD17RoundRect,0.100000X0.130000X0.100000X-0.130000X0.100000X-0.130000X-0.100000X0.130000X-0.100000X0*%
%ADD18R,3.500000X3.500000*%
%ADD19RoundRect,0.750000X1.000000X-0.750000X1.000000X0.750000X-1.000000X0.750000X-1.000000X-0.750000X0*%
%ADD20RoundRect,0.875000X0.875000X-0.875000X0.875000X0.875000X-0.875000X0.875000X-0.875000X-0.875000X0*%
%ADD21RoundRect,0.250000X0.250000X0.475000X-0.250000X0.475000X-0.250000X-0.475000X0.250000X-0.475000X0*%
%ADD22RoundRect,0.250000X-0.262500X-0.450000X0.262500X-0.450000X0.262500X0.450000X-0.262500X0.450000X0*%
%ADD23R,2.000000X1.200000*%
%ADD24R,1.200000X2.000000*%
%ADD25R,2.200000X1.050000*%
%ADD26R,1.050000X1.000000*%
%ADD27RoundRect,0.175000X-0.175000X0.725000X-0.175000X-0.725000X0.175000X-0.725000X0.175000X0.725000X0*%
%ADD28RoundRect,0.200000X-0.200000X0.700000X-0.200000X-0.700000X0.200000X-0.700000X0.200000X0.700000X0*%
%ADD29R,1.750000X0.700000*%
%ADD30R,1.000000X1.450000*%
%ADD31R,1.550000X1.000000*%
%ADD32R,1.500000X0.800000*%
%ADD33R,1.500000X1.300000*%
%ADD34R,1.500000X1.500000*%
%ADD35R,1.400000X0.800000*%
G04 APERTURE END LIST*
D10*
%TO.C,REF\u002A\u002A*%
X137000000Y-64750000D03*
X136000000Y-64750000D03*
X135000000Y-64750000D03*
D11*
X134000000Y-64750000D03*
%TD*%
D12*
%TO.C,J2*%
X159025000Y-126650000D03*
X159875000Y-126650000D03*
X160725000Y-126650000D03*
X161575000Y-126650000D03*
X162425000Y-126650000D03*
X163275000Y-126650000D03*
X164125000Y-126650000D03*
X164975000Y-126650000D03*
X164975000Y-128000000D03*
X164125000Y-128000000D03*
X163275000Y-128000000D03*
X162425000Y-128000000D03*
X161575000Y-128000000D03*
X160725000Y-128000000D03*
X159875000Y-128000000D03*
X159025000Y-128000000D03*
D13*
X157675000Y-127630000D03*
D14*
X157675000Y-131010000D03*
D13*
X166325000Y-127630000D03*
D14*
X166325000Y-131010000D03*
%TD*%
D15*
%TO.C,C9*%
X172000000Y-79000000D03*
X170450000Y-79000000D03*
%TD*%
D16*
%TO.C,R8*%
X135412500Y-83000000D03*
X133587500Y-83000000D03*
%TD*%
%TO.C,R6*%
X165912500Y-67000000D03*
X164087500Y-67000000D03*
%TD*%
D17*
%TO.C,C12*%
X134975000Y-125000000D03*
X134335000Y-125000000D03*
%TD*%
D18*
%TO.C,J4*%
X146042500Y-125000000D03*
D19*
X146042500Y-131000000D03*
D20*
X150742500Y-128000000D03*
%TD*%
D21*
%TO.C,C10*%
X155000000Y-88000000D03*
X153100000Y-88000000D03*
%TD*%
D15*
%TO.C,C8*%
X172000000Y-75000000D03*
X170450000Y-75000000D03*
%TD*%
D17*
%TO.C,C14*%
X171975000Y-84750000D03*
X171335000Y-84750000D03*
%TD*%
D16*
%TO.C,R7*%
X166000000Y-71000000D03*
X164175000Y-71000000D03*
%TD*%
D22*
%TO.C,R9*%
X133587500Y-87750000D03*
X135412500Y-87750000D03*
%TD*%
D17*
%TO.C,C13*%
X171975000Y-83000000D03*
X171335000Y-83000000D03*
%TD*%
D23*
%TO.C,U5*%
X150150000Y-105500000D03*
X150150000Y-107300000D03*
X150150000Y-109100000D03*
X150150000Y-110900000D03*
X150150000Y-112700000D03*
X150150000Y-114500000D03*
D24*
X151900000Y-116750000D03*
X153700000Y-116750000D03*
X155500000Y-116750000D03*
X157300000Y-116750000D03*
X159100000Y-116750000D03*
X160900000Y-116750000D03*
X162700000Y-116750000D03*
X164500000Y-116750000D03*
X166300000Y-116750000D03*
X168100000Y-116750000D03*
X169900000Y-116750000D03*
D23*
X171650000Y-114500000D03*
X171650000Y-112700000D03*
X171650000Y-110900000D03*
X171650000Y-109100000D03*
X171650000Y-107300000D03*
X171650000Y-105500000D03*
D24*
X169900000Y-103250000D03*
X168100000Y-103250000D03*
X166300000Y-103250000D03*
X164500000Y-103250000D03*
X162700000Y-103250000D03*
X160900000Y-103250000D03*
X159100000Y-103250000D03*
X157300000Y-103250000D03*
X155500000Y-103250000D03*
X153700000Y-103250000D03*
X151900000Y-103250000D03*
%TD*%
D25*
%TO.C,J5*%
X166775000Y-75525000D03*
X166775000Y-78475000D03*
D26*
X168300000Y-77000000D03*
%TD*%
D27*
%TO.C,U3*%
X162600000Y-89500000D03*
D28*
X163700000Y-89500000D03*
X164800000Y-89500000D03*
X165900000Y-89500000D03*
X167000000Y-89500000D03*
X168100000Y-89500000D03*
X169200000Y-89500000D03*
X170300000Y-89500000D03*
D27*
X171400000Y-89500000D03*
X171400000Y-99000000D03*
D28*
X170300000Y-99000000D03*
X169200000Y-99000000D03*
X168100000Y-99000000D03*
X167000000Y-99000000D03*
X165900000Y-99000000D03*
X164800000Y-99000000D03*
X163700000Y-99000000D03*
D27*
X162600000Y-99000000D03*
%TD*%
D29*
%TO.C,J1*%
X127650000Y-112825000D03*
X127650000Y-113925000D03*
X127650000Y-115025000D03*
X127650000Y-116125000D03*
X127650000Y-117225000D03*
X127650000Y-118325000D03*
X127650000Y-119425000D03*
X127650000Y-120525000D03*
D30*
X136875000Y-121650000D03*
D31*
X138450000Y-110425000D03*
D32*
X135375000Y-121975000D03*
D33*
X127775000Y-121725000D03*
D34*
X127775000Y-110375000D03*
D35*
X136025000Y-110025000D03*
%TD*%
D26*
%TO.C,J3*%
X128700000Y-74250000D03*
D25*
X130225000Y-72775000D03*
X130225000Y-75725000D03*
%TD*%
M02*
