%TF.GenerationSoftware,KiCad,Pcbnew,7.0.6*%
%TF.CreationDate,2023-08-21T19:58:41-03:00*%
%TF.ProjectId,satelite,73617465-6c69-4746-952e-6b696361645f,rev?*%
%TF.SameCoordinates,Original*%
%TF.FileFunction,Profile,NP*%
%FSLAX46Y46*%
G04 Gerber Fmt 4.6, Leading zero omitted, Abs format (unit mm)*
G04 Created by KiCad (PCBNEW 7.0.6) date 2023-08-21 19:58:41*
%MOMM*%
%LPD*%
G01*
G04 APERTURE LIST*
%ADD10C,0.150000*%
%ADD11C,0.160000*%
%TA.AperFunction,Profile*%
%ADD12C,0.050000*%
%TD*%
G04 APERTURE END LIST*
D10*
X137405704Y-65674874D02*
X136605704Y-65941541D01*
X136605704Y-65941541D02*
X137405704Y-66208207D01*
X136605704Y-66474874D02*
X137405704Y-66474874D01*
X136605704Y-66855826D02*
X137405704Y-66855826D01*
X137405704Y-66855826D02*
X136605704Y-67312969D01*
X136605704Y-67312969D02*
X137405704Y-67312969D01*
X135643800Y-65751064D02*
X135605704Y-65865350D01*
X135605704Y-65865350D02*
X135605704Y-66055826D01*
X135605704Y-66055826D02*
X135643800Y-66132017D01*
X135643800Y-66132017D02*
X135681895Y-66170112D01*
X135681895Y-66170112D02*
X135758085Y-66208207D01*
X135758085Y-66208207D02*
X135834276Y-66208207D01*
X135834276Y-66208207D02*
X135910466Y-66170112D01*
X135910466Y-66170112D02*
X135948561Y-66132017D01*
X135948561Y-66132017D02*
X135986657Y-66055826D01*
X135986657Y-66055826D02*
X136024752Y-65903445D01*
X136024752Y-65903445D02*
X136062847Y-65827255D01*
X136062847Y-65827255D02*
X136100942Y-65789160D01*
X136100942Y-65789160D02*
X136177133Y-65751064D01*
X136177133Y-65751064D02*
X136253323Y-65751064D01*
X136253323Y-65751064D02*
X136329514Y-65789160D01*
X136329514Y-65789160D02*
X136367609Y-65827255D01*
X136367609Y-65827255D02*
X136405704Y-65903445D01*
X136405704Y-65903445D02*
X136405704Y-66093922D01*
X136405704Y-66093922D02*
X136367609Y-66208207D01*
X135681895Y-67008208D02*
X135643800Y-66970112D01*
X135643800Y-66970112D02*
X135605704Y-66855827D01*
X135605704Y-66855827D02*
X135605704Y-66779636D01*
X135605704Y-66779636D02*
X135643800Y-66665350D01*
X135643800Y-66665350D02*
X135719990Y-66589160D01*
X135719990Y-66589160D02*
X135796180Y-66551065D01*
X135796180Y-66551065D02*
X135948561Y-66512969D01*
X135948561Y-66512969D02*
X136062847Y-66512969D01*
X136062847Y-66512969D02*
X136215228Y-66551065D01*
X136215228Y-66551065D02*
X136291419Y-66589160D01*
X136291419Y-66589160D02*
X136367609Y-66665350D01*
X136367609Y-66665350D02*
X136405704Y-66779636D01*
X136405704Y-66779636D02*
X136405704Y-66855827D01*
X136405704Y-66855827D02*
X136367609Y-66970112D01*
X136367609Y-66970112D02*
X136329514Y-67008208D01*
X135605704Y-67732017D02*
X135605704Y-67351065D01*
X135605704Y-67351065D02*
X136405704Y-67351065D01*
D11*
X134644320Y-65757643D02*
X134606224Y-65871929D01*
X134606224Y-65871929D02*
X134606224Y-66062405D01*
X134606224Y-66062405D02*
X134644320Y-66138596D01*
X134644320Y-66138596D02*
X134682415Y-66176691D01*
X134682415Y-66176691D02*
X134758605Y-66214786D01*
X134758605Y-66214786D02*
X134834796Y-66214786D01*
X134834796Y-66214786D02*
X134910986Y-66176691D01*
X134910986Y-66176691D02*
X134949081Y-66138596D01*
X134949081Y-66138596D02*
X134987177Y-66062405D01*
X134987177Y-66062405D02*
X135025272Y-65910024D01*
X135025272Y-65910024D02*
X135063367Y-65833834D01*
X135063367Y-65833834D02*
X135101462Y-65795739D01*
X135101462Y-65795739D02*
X135177653Y-65757643D01*
X135177653Y-65757643D02*
X135253843Y-65757643D01*
X135253843Y-65757643D02*
X135330034Y-65795739D01*
X135330034Y-65795739D02*
X135368129Y-65833834D01*
X135368129Y-65833834D02*
X135406224Y-65910024D01*
X135406224Y-65910024D02*
X135406224Y-66100501D01*
X135406224Y-66100501D02*
X135368129Y-66214786D01*
X134606224Y-66557644D02*
X135406224Y-66557644D01*
X135406224Y-66557644D02*
X135406224Y-66748120D01*
X135406224Y-66748120D02*
X135368129Y-66862406D01*
X135368129Y-66862406D02*
X135291939Y-66938596D01*
X135291939Y-66938596D02*
X135215748Y-66976691D01*
X135215748Y-66976691D02*
X135063367Y-67014787D01*
X135063367Y-67014787D02*
X134949081Y-67014787D01*
X134949081Y-67014787D02*
X134796700Y-66976691D01*
X134796700Y-66976691D02*
X134720510Y-66938596D01*
X134720510Y-66938596D02*
X134644320Y-66862406D01*
X134644320Y-66862406D02*
X134606224Y-66748120D01*
X134606224Y-66748120D02*
X134606224Y-66557644D01*
X134834796Y-67319548D02*
X134834796Y-67700501D01*
X134606224Y-67243358D02*
X135406224Y-67510025D01*
X135406224Y-67510025D02*
X134606224Y-67776691D01*
X134368129Y-66214786D02*
X134406224Y-66138596D01*
X134406224Y-66138596D02*
X134406224Y-66024310D01*
X134406224Y-66024310D02*
X134368129Y-65910024D01*
X134368129Y-65910024D02*
X134291939Y-65833834D01*
X134291939Y-65833834D02*
X134215748Y-65795739D01*
X134215748Y-65795739D02*
X134063367Y-65757643D01*
X134063367Y-65757643D02*
X133949081Y-65757643D01*
X133949081Y-65757643D02*
X133796700Y-65795739D01*
X133796700Y-65795739D02*
X133720510Y-65833834D01*
X133720510Y-65833834D02*
X133644320Y-65910024D01*
X133644320Y-65910024D02*
X133606224Y-66024310D01*
X133606224Y-66024310D02*
X133606224Y-66100501D01*
X133606224Y-66100501D02*
X133644320Y-66214786D01*
X133644320Y-66214786D02*
X133682415Y-66252882D01*
X133682415Y-66252882D02*
X133949081Y-66252882D01*
X133949081Y-66252882D02*
X133949081Y-66100501D01*
X133606224Y-66595739D02*
X134406224Y-66595739D01*
X134406224Y-66595739D02*
X133606224Y-67052882D01*
X133606224Y-67052882D02*
X134406224Y-67052882D01*
X133606224Y-67433834D02*
X134406224Y-67433834D01*
X134406224Y-67433834D02*
X134406224Y-67624310D01*
X134406224Y-67624310D02*
X134368129Y-67738596D01*
X134368129Y-67738596D02*
X134291939Y-67814786D01*
X134291939Y-67814786D02*
X134215748Y-67852881D01*
X134215748Y-67852881D02*
X134063367Y-67890977D01*
X134063367Y-67890977D02*
X133949081Y-67890977D01*
X133949081Y-67890977D02*
X133796700Y-67852881D01*
X133796700Y-67852881D02*
X133720510Y-67814786D01*
X133720510Y-67814786D02*
X133644320Y-67738596D01*
X133644320Y-67738596D02*
X133606224Y-67624310D01*
X133606224Y-67624310D02*
X133606224Y-67433834D01*
D12*
X130179243Y-65500000D02*
G75*
G03*
X130179243Y-65500000I-1679243J0D01*
G01*
X129929243Y-130750000D02*
G75*
G03*
X129929243Y-130750000I-1679243J0D01*
G01*
X175179243Y-130750000D02*
G75*
G03*
X175179243Y-130750000I-1679243J0D01*
G01*
X174807923Y-65250000D02*
G75*
G03*
X174807923Y-65250000I-1679243J0D01*
G01*
X126000000Y-63000000D02*
X176000000Y-63000000D01*
X176000000Y-133000000D01*
X126000000Y-133000000D01*
X126000000Y-63000000D01*
M02*
