%TF.GenerationSoftware,KiCad,Pcbnew,7.0.6*%
%TF.CreationDate,2023-08-21T19:58:40-03:00*%
%TF.ProjectId,satelite,73617465-6c69-4746-952e-6b696361645f,rev?*%
%TF.SameCoordinates,Original*%
%TF.FileFunction,Copper,L1,Top*%
%TF.FilePolarity,Positive*%
%FSLAX46Y46*%
G04 Gerber Fmt 4.6, Leading zero omitted, Abs format (unit mm)*
G04 Created by KiCad (PCBNEW 7.0.6) date 2023-08-21 19:58:40*
%MOMM*%
%LPD*%
G01*
G04 APERTURE LIST*
G04 Aperture macros list*
%AMRoundRect*
0 Rectangle with rounded corners*
0 $1 Rounding radius*
0 $2 $3 $4 $5 $6 $7 $8 $9 X,Y pos of 4 corners*
0 Add a 4 corners polygon primitive as box body*
4,1,4,$2,$3,$4,$5,$6,$7,$8,$9,$2,$3,0*
0 Add four circle primitives for the rounded corners*
1,1,$1+$1,$2,$3*
1,1,$1+$1,$4,$5*
1,1,$1+$1,$6,$7*
1,1,$1+$1,$8,$9*
0 Add four rect primitives between the rounded corners*
20,1,$1+$1,$2,$3,$4,$5,0*
20,1,$1+$1,$4,$5,$6,$7,0*
20,1,$1+$1,$6,$7,$8,$9,0*
20,1,$1+$1,$8,$9,$2,$3,0*%
G04 Aperture macros list end*
%TA.AperFunction,ComponentPad*%
%ADD10O,0.850000X0.850000*%
%TD*%
%TA.AperFunction,ComponentPad*%
%ADD11R,0.850000X0.850000*%
%TD*%
%TA.AperFunction,SMDPad,CuDef*%
%ADD12RoundRect,0.250000X0.262500X0.450000X-0.262500X0.450000X-0.262500X-0.450000X0.262500X-0.450000X0*%
%TD*%
%TA.AperFunction,SMDPad,CuDef*%
%ADD13RoundRect,0.250000X-0.450000X0.262500X-0.450000X-0.262500X0.450000X-0.262500X0.450000X0.262500X0*%
%TD*%
%TA.AperFunction,ComponentPad*%
%ADD14C,0.700000*%
%TD*%
%TA.AperFunction,ComponentPad*%
%ADD15O,0.900000X2.400000*%
%TD*%
%TA.AperFunction,ComponentPad*%
%ADD16O,0.900000X1.700000*%
%TD*%
%TA.AperFunction,SMDPad,CuDef*%
%ADD17RoundRect,0.250000X-0.475000X0.250000X-0.475000X-0.250000X0.475000X-0.250000X0.475000X0.250000X0*%
%TD*%
%TA.AperFunction,SMDPad,CuDef*%
%ADD18R,1.050000X1.050000*%
%TD*%
%TA.AperFunction,HeatsinkPad*%
%ADD19C,0.600000*%
%TD*%
%TA.AperFunction,SMDPad,CuDef*%
%ADD20R,4.200000X4.200000*%
%TD*%
%TA.AperFunction,SMDPad,CuDef*%
%ADD21R,1.500000X0.900000*%
%TD*%
%TA.AperFunction,SMDPad,CuDef*%
%ADD22R,0.900000X1.500000*%
%TD*%
%TA.AperFunction,SMDPad,CuDef*%
%ADD23RoundRect,0.100000X-0.130000X-0.100000X0.130000X-0.100000X0.130000X0.100000X-0.130000X0.100000X0*%
%TD*%
%TA.AperFunction,SMDPad,CuDef*%
%ADD24R,0.350000X0.500000*%
%TD*%
%TA.AperFunction,SMDPad,CuDef*%
%ADD25RoundRect,0.250000X0.300000X-2.050000X0.300000X2.050000X-0.300000X2.050000X-0.300000X-2.050000X0*%
%TD*%
%TA.AperFunction,SMDPad,CuDef*%
%ADD26RoundRect,0.250000X2.375000X-2.025000X2.375000X2.025000X-2.375000X2.025000X-2.375000X-2.025000X0*%
%TD*%
%TA.AperFunction,SMDPad,CuDef*%
%ADD27RoundRect,0.250002X5.149998X-4.449998X5.149998X4.449998X-5.149998X4.449998X-5.149998X-4.449998X0*%
%TD*%
%TA.AperFunction,SMDPad,CuDef*%
%ADD28RoundRect,0.100000X-0.100000X0.130000X-0.100000X-0.130000X0.100000X-0.130000X0.100000X0.130000X0*%
%TD*%
%TA.AperFunction,ComponentPad*%
%ADD29R,3.500000X3.500000*%
%TD*%
%TA.AperFunction,ComponentPad*%
%ADD30RoundRect,0.750000X1.000000X-0.750000X1.000000X0.750000X-1.000000X0.750000X-1.000000X-0.750000X0*%
%TD*%
%TA.AperFunction,ComponentPad*%
%ADD31RoundRect,0.875000X0.875000X-0.875000X0.875000X0.875000X-0.875000X0.875000X-0.875000X-0.875000X0*%
%TD*%
%TA.AperFunction,SMDPad,CuDef*%
%ADD32RoundRect,0.075000X-0.350000X-0.075000X0.350000X-0.075000X0.350000X0.075000X-0.350000X0.075000X0*%
%TD*%
%TA.AperFunction,SMDPad,CuDef*%
%ADD33RoundRect,0.075000X0.075000X-0.350000X0.075000X0.350000X-0.075000X0.350000X-0.075000X-0.350000X0*%
%TD*%
%TA.AperFunction,SMDPad,CuDef*%
%ADD34RoundRect,0.250000X0.250000X0.475000X-0.250000X0.475000X-0.250000X-0.475000X0.250000X-0.475000X0*%
%TD*%
%TA.AperFunction,SMDPad,CuDef*%
%ADD35R,1.750000X0.450000*%
%TD*%
%TA.AperFunction,ViaPad*%
%ADD36C,0.600000*%
%TD*%
%TA.AperFunction,Conductor*%
%ADD37C,0.200000*%
%TD*%
G04 APERTURE END LIST*
D10*
%TO.P,REF\u002A\u002A,4*%
%TO.N,N/C*%
X137000000Y-64750000D03*
%TO.P,REF\u002A\u002A,3*%
X136000000Y-64750000D03*
%TO.P,REF\u002A\u002A,2*%
X135000000Y-64750000D03*
D11*
%TO.P,REF\u002A\u002A,1*%
X134000000Y-64750000D03*
%TD*%
D12*
%TO.P,R5,1*%
%TO.N,Net-(U2-SDO)*%
X140162500Y-91750000D03*
%TO.P,R5,2*%
%TO.N,GND*%
X138337500Y-91750000D03*
%TD*%
D13*
%TO.P,R2,1*%
%TO.N,Net-(J1-VDD)*%
X155750000Y-85087500D03*
%TO.P,R2,2*%
%TO.N,Net-(U1-SCL)*%
X155750000Y-86912500D03*
%TD*%
D14*
%TO.P,J2,A1,GND*%
%TO.N,GND*%
X159025000Y-126650000D03*
%TO.P,J2,A4,VBUS*%
%TO.N,Net-(U7-IN)*%
X159875000Y-126650000D03*
%TO.P,J2,A5,CC1*%
%TO.N,unconnected-(J2-CC1-PadA5)*%
X160725000Y-126650000D03*
%TO.P,J2,A6,D+*%
%TO.N,Net-(U6-USBD+)*%
X161575000Y-126650000D03*
%TO.P,J2,A7,D-*%
%TO.N,unconnected-(J2-D--PadA7)*%
X162425000Y-126650000D03*
%TO.P,J2,A8,SBU1*%
%TO.N,unconnected-(J2-SBU1-PadA8)*%
X163275000Y-126650000D03*
%TO.P,J2,A9,VBUS*%
%TO.N,Net-(U7-IN)*%
X164125000Y-126650000D03*
%TO.P,J2,A12,GND*%
%TO.N,GND*%
X164975000Y-126650000D03*
%TO.P,J2,B1,GND*%
X164975000Y-128000000D03*
%TO.P,J2,B4,VBUS*%
%TO.N,Net-(U7-IN)*%
X164125000Y-128000000D03*
%TO.P,J2,B5,CC2*%
%TO.N,unconnected-(J2-CC2-PadB5)*%
X163275000Y-128000000D03*
%TO.P,J2,B6,D+*%
%TO.N,unconnected-(J2-D+-PadB6)*%
X162425000Y-128000000D03*
%TO.P,J2,B7,D-*%
%TO.N,Net-(U6-USBD-)*%
X161575000Y-128000000D03*
%TO.P,J2,B8,SBU2*%
%TO.N,unconnected-(J2-SBU2-PadB8)*%
X160725000Y-128000000D03*
%TO.P,J2,B9,VBUS*%
%TO.N,Net-(U7-IN)*%
X159875000Y-128000000D03*
%TO.P,J2,B12,GND*%
%TO.N,GND*%
X159025000Y-128000000D03*
D15*
%TO.P,J2,S1,SHIELD*%
%TO.N,unconnected-(J2-SHIELD-PadS1)*%
X157675000Y-127630000D03*
D16*
X157675000Y-131010000D03*
D15*
X166325000Y-127630000D03*
D16*
X166325000Y-131010000D03*
%TD*%
D17*
%TO.P,C1,1*%
%TO.N,Net-(U6-VCC)*%
X141000000Y-117050000D03*
%TO.P,C1,2*%
%TO.N,GND*%
X141000000Y-118950000D03*
%TD*%
D13*
%TO.P,R1,1*%
%TO.N,Net-(J1-VDD)*%
X144000000Y-87837500D03*
%TO.P,R1,2*%
%TO.N,Net-(U1-AUX_DA)*%
X144000000Y-89662500D03*
%TD*%
D18*
%TO.P,U4,39,GND*%
%TO.N,GND*%
X151000000Y-73050000D03*
D19*
X151000000Y-72287500D03*
D18*
X151000000Y-71525000D03*
D19*
X151000000Y-70762500D03*
D18*
X151000000Y-70000000D03*
D19*
X150237500Y-73050000D03*
X150237500Y-71525000D03*
X150237500Y-70000000D03*
D18*
X149475000Y-73050000D03*
D19*
X149475000Y-72287500D03*
D20*
X149475000Y-71525000D03*
D18*
X149475000Y-71525000D03*
D19*
X149475000Y-70762500D03*
D18*
X149475000Y-70000000D03*
D19*
X148712500Y-73050000D03*
X148712500Y-71525000D03*
X148712500Y-70000000D03*
D18*
X147950000Y-73050000D03*
D19*
X147950000Y-72287500D03*
D18*
X147950000Y-71525000D03*
D19*
X147950000Y-70762500D03*
D18*
X147950000Y-70000000D03*
D21*
%TO.P,U4,38,GND*%
X158905000Y-64185000D03*
%TO.P,U4,37,IO23*%
%TO.N,unconnected-(U4-IO23-Pad37)*%
X158905000Y-65455000D03*
%TO.P,U4,36,IO22*%
%TO.N,Net-(U1-SCL)*%
X158905000Y-66725000D03*
%TO.P,U4,35,TXD0/IO1*%
%TO.N,Net-(U4-TXD0{slash}IO1)*%
X158905000Y-67995000D03*
%TO.P,U4,34,RXD0/IO3*%
%TO.N,Net-(U4-RXD0{slash}IO3)*%
X158905000Y-69265000D03*
%TO.P,U4,33,IO21*%
%TO.N,Net-(U1-SDA)*%
X158905000Y-70535000D03*
%TO.P,U4,32,NC*%
%TO.N,unconnected-(U4-NC-Pad32)*%
X158905000Y-71805000D03*
%TO.P,U4,31,IO19*%
%TO.N,unconnected-(U4-IO19-Pad31)*%
X158905000Y-73075000D03*
%TO.P,U4,30,IO18*%
%TO.N,unconnected-(U4-IO18-Pad30)*%
X158905000Y-74345000D03*
%TO.P,U4,29,IO5*%
%TO.N,unconnected-(U4-IO5-Pad29)*%
X158905000Y-75615000D03*
%TO.P,U4,28,IO17*%
%TO.N,Net-(U4-IO17)*%
X158905000Y-76885000D03*
%TO.P,U4,27,IO16*%
%TO.N,GND*%
X158905000Y-78155000D03*
%TO.P,U4,26,IO4*%
%TO.N,Net-(J1-DAT1)*%
X158905000Y-79425000D03*
%TO.P,U4,25,IO0*%
%TO.N,unconnected-(U4-IO0-Pad25)*%
X158905000Y-80695000D03*
D22*
%TO.P,U4,24,IO2*%
%TO.N,Net-(J1-DAT0)*%
X155875000Y-81945000D03*
%TO.P,U4,23,IO15*%
%TO.N,Net-(J1-CMD)*%
X154605000Y-81945000D03*
%TO.P,U4,22,SDI/SD1*%
%TO.N,unconnected-(U4-SDI{slash}SD1-Pad22)*%
X153335000Y-81945000D03*
%TO.P,U4,21,SDO/SD0*%
%TO.N,unconnected-(U4-SDO{slash}SD0-Pad21)*%
X152065000Y-81945000D03*
%TO.P,U4,20,SCK/CLK*%
%TO.N,unconnected-(U4-SCK{slash}CLK-Pad20)*%
X150795000Y-81945000D03*
%TO.P,U4,19,SCS/CMD*%
%TO.N,unconnected-(U4-SCS{slash}CMD-Pad19)*%
X149525000Y-81945000D03*
%TO.P,U4,18,SWP/SD3*%
%TO.N,unconnected-(U4-SWP{slash}SD3-Pad18)*%
X148255000Y-81945000D03*
%TO.P,U4,17,SHD/SD2*%
%TO.N,unconnected-(U4-SHD{slash}SD2-Pad17)*%
X146985000Y-81945000D03*
%TO.P,U4,16,IO13*%
%TO.N,Net-(J1-CD{slash}DAT3)*%
X145715000Y-81945000D03*
%TO.P,U4,15,GND*%
%TO.N,GND*%
X144445000Y-81945000D03*
D21*
%TO.P,U4,14,IO12*%
%TO.N,Net-(J1-DAT2)*%
X141405000Y-80695000D03*
%TO.P,U4,13,IO14*%
%TO.N,Net-(J1-CLK)*%
X141405000Y-79425000D03*
%TO.P,U4,12,IO27*%
%TO.N,unconnected-(U4-IO27-Pad12)*%
X141405000Y-78155000D03*
%TO.P,U4,11,IO26*%
%TO.N,unconnected-(U4-IO26-Pad11)*%
X141405000Y-76885000D03*
%TO.P,U4,10,IO25*%
%TO.N,unconnected-(U4-IO25-Pad10)*%
X141405000Y-75615000D03*
%TO.P,U4,9,IO33*%
%TO.N,unconnected-(U4-IO33-Pad9)*%
X141405000Y-74345000D03*
%TO.P,U4,8,IO32*%
%TO.N,unconnected-(U4-IO32-Pad8)*%
X141405000Y-73075000D03*
%TO.P,U4,7,IO35*%
%TO.N,unconnected-(U4-IO35-Pad7)*%
X141405000Y-71805000D03*
%TO.P,U4,6,IO34*%
%TO.N,unconnected-(U4-IO34-Pad6)*%
X141405000Y-70535000D03*
%TO.P,U4,5,SENSOR_VN*%
%TO.N,unconnected-(U4-SENSOR_VN-Pad5)*%
X141405000Y-69265000D03*
%TO.P,U4,4,SENSOR_VP*%
%TO.N,unconnected-(U4-SENSOR_VP-Pad4)*%
X141405000Y-67995000D03*
%TO.P,U4,3,EN*%
%TO.N,unconnected-(U4-EN-Pad3)*%
X141405000Y-66725000D03*
%TO.P,U4,2,VDD*%
%TO.N,Net-(J1-VDD)*%
X141405000Y-65455000D03*
%TO.P,U4,1,GND*%
%TO.N,GND*%
X141405000Y-64185000D03*
%TD*%
D23*
%TO.P,C6,1*%
%TO.N,Net-(J1-VDD)*%
X146335000Y-95500000D03*
%TO.P,C6,2*%
%TO.N,GND*%
X146975000Y-95500000D03*
%TD*%
D24*
%TO.P,U2,1,GND*%
%TO.N,GND*%
X145800000Y-91950000D03*
%TO.P,U2,2,CSB*%
%TO.N,unconnected-(U2-CSB-Pad2)*%
X146450000Y-91950000D03*
%TO.P,U2,3,SDI*%
%TO.N,Net-(U1-AUX_DA)*%
X147100000Y-91950000D03*
%TO.P,U2,4,SCK*%
%TO.N,Net-(U1-AUX_CL)*%
X147750000Y-91950000D03*
%TO.P,U2,5,SDO*%
%TO.N,Net-(U2-SDO)*%
X147750000Y-93550000D03*
%TO.P,U2,6,VDDIO*%
%TO.N,Net-(J1-VDD)*%
X147100000Y-93550000D03*
%TO.P,U2,7,GND*%
%TO.N,GND*%
X146450000Y-93550000D03*
%TO.P,U2,8,VDD*%
%TO.N,Net-(J1-VDD)*%
X145800000Y-93550000D03*
%TD*%
D25*
%TO.P,U7,1,IN*%
%TO.N,Net-(U7-IN)*%
X135920000Y-113000000D03*
D26*
%TO.P,U7,2,GND*%
%TO.N,GND*%
X135685000Y-106275000D03*
X141235000Y-106275000D03*
D27*
X138460000Y-103850000D03*
D26*
X135685000Y-101425000D03*
X141235000Y-101425000D03*
D25*
%TO.P,U7,3,OUT*%
%TO.N,Net-(U6-VCC)*%
X141000000Y-113000000D03*
%TD*%
D28*
%TO.P,C4,1*%
%TO.N,Net-(U1-CPOUT)*%
X158500000Y-93430000D03*
%TO.P,C4,2*%
%TO.N,GND*%
X158500000Y-94070000D03*
%TD*%
D29*
%TO.P,J4,1*%
%TO.N,Net-(U7-IN)*%
X146042500Y-125000000D03*
D30*
%TO.P,J4,2*%
%TO.N,GND*%
X146042500Y-131000000D03*
D31*
%TO.P,J4,3*%
X150742500Y-128000000D03*
%TD*%
D17*
%TO.P,C7,1*%
%TO.N,Net-(J1-VDD)*%
X142500000Y-95300000D03*
%TO.P,C7,2*%
%TO.N,GND*%
X142500000Y-97200000D03*
%TD*%
D13*
%TO.P,R3,1*%
%TO.N,Net-(J1-VDD)*%
X152750000Y-85087500D03*
%TO.P,R3,2*%
%TO.N,Net-(U1-SDA)*%
X152750000Y-86912500D03*
%TD*%
D32*
%TO.P,U1,1,CLKIN*%
%TO.N,GND*%
X152050000Y-91750000D03*
%TO.P,U1,2,NC*%
%TO.N,unconnected-(U1-NC-Pad2)*%
X152050000Y-92250000D03*
%TO.P,U1,3,NC*%
%TO.N,unconnected-(U1-NC-Pad3)*%
X152050000Y-92750000D03*
%TO.P,U1,4,NC*%
%TO.N,unconnected-(U1-NC-Pad4)*%
X152050000Y-93250000D03*
%TO.P,U1,5,NC*%
%TO.N,unconnected-(U1-NC-Pad5)*%
X152050000Y-93750000D03*
%TO.P,U1,6,AUX_DA*%
%TO.N,Net-(U1-AUX_DA)*%
X152050000Y-94250000D03*
D33*
%TO.P,U1,7,AUX_CL*%
%TO.N,Net-(U1-AUX_CL)*%
X152750000Y-94950000D03*
%TO.P,U1,8,VLOGIC*%
%TO.N,Net-(J1-VDD)*%
X153250000Y-94950000D03*
%TO.P,U1,9,AD0*%
%TO.N,GND*%
X153750000Y-94950000D03*
%TO.P,U1,10,REGOUT*%
%TO.N,Net-(U1-REGOUT)*%
X154250000Y-94950000D03*
%TO.P,U1,11,FSYNC*%
%TO.N,unconnected-(U1-FSYNC-Pad11)*%
X154750000Y-94950000D03*
%TO.P,U1,12,INT*%
%TO.N,unconnected-(U1-INT-Pad12)*%
X155250000Y-94950000D03*
D32*
%TO.P,U1,13,VDD*%
%TO.N,Net-(J1-VDD)*%
X155950000Y-94250000D03*
%TO.P,U1,14,NC*%
%TO.N,unconnected-(U1-NC-Pad14)*%
X155950000Y-93750000D03*
%TO.P,U1,15,NC*%
%TO.N,unconnected-(U1-NC-Pad15)*%
X155950000Y-93250000D03*
%TO.P,U1,16,NC*%
%TO.N,unconnected-(U1-NC-Pad16)*%
X155950000Y-92750000D03*
%TO.P,U1,17,NC*%
%TO.N,unconnected-(U1-NC-Pad17)*%
X155950000Y-92250000D03*
%TO.P,U1,18,GND*%
%TO.N,GND*%
X155950000Y-91750000D03*
D33*
%TO.P,U1,19,RESV*%
%TO.N,unconnected-(U1-RESV-Pad19)*%
X155250000Y-91050000D03*
%TO.P,U1,20,CPOUT*%
%TO.N,Net-(U1-CPOUT)*%
X154750000Y-91050000D03*
%TO.P,U1,21,RESV*%
%TO.N,unconnected-(U1-RESV-Pad21)*%
X154250000Y-91050000D03*
%TO.P,U1,22,RESV*%
%TO.N,unconnected-(U1-RESV-Pad22)*%
X153750000Y-91050000D03*
%TO.P,U1,23,SCL*%
%TO.N,Net-(U1-SCL)*%
X153250000Y-91050000D03*
%TO.P,U1,24,SDA*%
%TO.N,Net-(U1-SDA)*%
X152750000Y-91050000D03*
%TD*%
D34*
%TO.P,C5,1*%
%TO.N,Net-(U1-REGOUT)*%
X147950000Y-103750000D03*
%TO.P,C5,2*%
%TO.N,GND*%
X146050000Y-103750000D03*
%TD*%
D35*
%TO.P,U6,1,TXD*%
%TO.N,Net-(U4-RXD0{slash}IO3)*%
X160400000Y-103775000D03*
%TO.P,U6,2,DTR*%
%TO.N,unconnected-(U6-DTR-Pad2)*%
X160400000Y-104425000D03*
%TO.P,U6,3,RTS*%
%TO.N,unconnected-(U6-RTS-Pad3)*%
X160400000Y-105075000D03*
%TO.P,U6,4,VCCIO*%
%TO.N,Net-(J1-VDD)*%
X160400000Y-105725000D03*
%TO.P,U6,5,RXD*%
%TO.N,Net-(U4-TXD0{slash}IO1)*%
X160400000Y-106375000D03*
%TO.P,U6,6,RI*%
%TO.N,unconnected-(U6-RI-Pad6)*%
X160400000Y-107025000D03*
%TO.P,U6,7,GND*%
%TO.N,GND*%
X160400000Y-107675000D03*
%TO.P,U6,8*%
%TO.N,N/C*%
X160400000Y-108325000D03*
%TO.P,U6,9,DCR*%
%TO.N,unconnected-(U6-DCR-Pad9)*%
X160400000Y-108975000D03*
%TO.P,U6,10,DCD*%
%TO.N,unconnected-(U6-DCD-Pad10)*%
X160400000Y-109625000D03*
%TO.P,U6,11,CTS*%
%TO.N,unconnected-(U6-CTS-Pad11)*%
X160400000Y-110275000D03*
%TO.P,U6,12,CBUS4*%
%TO.N,unconnected-(U6-CBUS4-Pad12)*%
X160400000Y-110925000D03*
%TO.P,U6,13,CBUS2*%
%TO.N,unconnected-(U6-CBUS2-Pad13)*%
X160400000Y-111575000D03*
%TO.P,U6,14,CBUS3*%
%TO.N,unconnected-(U6-CBUS3-Pad14)*%
X160400000Y-112225000D03*
%TO.P,U6,15,USBD+*%
%TO.N,Net-(U6-USBD+)*%
X167600000Y-112225000D03*
%TO.P,U6,16,USBD-*%
%TO.N,Net-(U6-USBD-)*%
X167600000Y-111575000D03*
%TO.P,U6,17,3V3OUT*%
%TO.N,Net-(J1-VDD)*%
X167600000Y-110925000D03*
%TO.P,U6,18,GND*%
%TO.N,GND*%
X167600000Y-110275000D03*
%TO.P,U6,19,~{RESET}*%
%TO.N,unconnected-(U6-~{RESET}-Pad19)*%
X167600000Y-109625000D03*
%TO.P,U6,20,VCC*%
%TO.N,Net-(U6-VCC)*%
X167600000Y-108975000D03*
%TO.P,U6,21,GND*%
%TO.N,GND*%
X167600000Y-108325000D03*
%TO.P,U6,22,CBUS1*%
%TO.N,unconnected-(U6-CBUS1-Pad22)*%
X167600000Y-107675000D03*
%TO.P,U6,23,CBUS0*%
%TO.N,unconnected-(U6-CBUS0-Pad23)*%
X167600000Y-107025000D03*
%TO.P,U6,24*%
%TO.N,N/C*%
X167600000Y-106375000D03*
%TO.P,U6,25,AGND*%
%TO.N,GND*%
X167600000Y-105725000D03*
%TO.P,U6,26,TEST*%
%TO.N,unconnected-(U6-TEST-Pad26)*%
X167600000Y-105075000D03*
%TO.P,U6,27,OSCI*%
%TO.N,unconnected-(U6-OSCI-Pad27)*%
X167600000Y-104425000D03*
%TO.P,U6,28,OSCO*%
%TO.N,unconnected-(U6-OSCO-Pad28)*%
X167600000Y-103775000D03*
%TD*%
D34*
%TO.P,C3,1*%
%TO.N,Net-(J1-VDD)*%
X147950000Y-100250000D03*
%TO.P,C3,2*%
%TO.N,GND*%
X146050000Y-100250000D03*
%TD*%
D28*
%TO.P,C2,1*%
%TO.N,Net-(U7-IN)*%
X136000000Y-117680000D03*
%TO.P,C2,2*%
%TO.N,GND*%
X136000000Y-118320000D03*
%TD*%
D13*
%TO.P,R4,1*%
%TO.N,Net-(J1-VDD)*%
X146750000Y-87837500D03*
%TO.P,R4,2*%
%TO.N,Net-(U1-AUX_CL)*%
X146750000Y-89662500D03*
%TD*%
D36*
%TO.N,Net-(U1-SCL)*%
X161250000Y-67000000D03*
%TO.N,Net-(J1-VDD)*%
X144750000Y-76900000D03*
X137750000Y-124750000D03*
%TO.N,Net-(J1-DAT1)*%
X155750000Y-75750000D03*
X134000000Y-79750000D03*
X130298911Y-122451089D03*
%TO.N,Net-(J1-DAT0)*%
X152750000Y-76000000D03*
X138000000Y-79750000D03*
X131000000Y-124000000D03*
%TO.N,Net-(J1-CLK)*%
X143000000Y-79500000D03*
X139250000Y-83000000D03*
X139250000Y-83000000D03*
X132000000Y-124000000D03*
%TO.N,Net-(J1-CMD)*%
X129500000Y-88000000D03*
%TO.N,Net-(J1-CD{slash}DAT3)*%
X134250000Y-78250000D03*
%TO.N,Net-(J5-In)*%
X174000000Y-80750000D03*
X170250000Y-80750000D03*
%TO.N,Net-(U5-VCC)*%
X172000000Y-81500000D03*
X165500000Y-83000000D03*
%TO.N,Net-(U1-SDA)*%
X161500000Y-74500000D03*
%TO.N,Net-(U3-V_BCKP)*%
X167750000Y-84750000D03*
X168750000Y-83500000D03*
%TO.N,Net-(U4-IO17)*%
X156000000Y-77500000D03*
%TO.N,Net-(U1-SDA)*%
X161500000Y-78000000D03*
X150500000Y-87499502D03*
%TO.N,Net-(U1-AUX_DA)*%
X149000000Y-91000000D03*
X149000000Y-91000000D03*
X145000000Y-91000000D03*
%TD*%
D37*
%TO.N,Net-(U1-SCL)*%
X159180000Y-67000000D02*
X158905000Y-66725000D01*
X161250000Y-67000000D02*
X159180000Y-67000000D01*
%TO.N,Net-(J1-VDD)*%
X139705000Y-65455000D02*
X141405000Y-65455000D01*
X139000000Y-64750000D02*
X139705000Y-65455000D01*
X137000000Y-64750000D02*
X139000000Y-64750000D01*
%TO.N,GND*%
X140970000Y-63750000D02*
X141405000Y-64185000D01*
X134000000Y-64250000D02*
X134500000Y-63750000D01*
X134000000Y-64750000D02*
X134000000Y-64250000D01*
X134500000Y-63750000D02*
X140970000Y-63750000D01*
%TO.N,Net-(J1-VDD)*%
X141405000Y-65455000D02*
X142355000Y-65455000D01*
X142355000Y-65455000D02*
X144750000Y-67850000D01*
X144750000Y-67850000D02*
X144750000Y-76900000D01*
X132500000Y-119500000D02*
X132500000Y-96097183D01*
X132500000Y-96097183D02*
X140759683Y-87837500D01*
X140759683Y-87837500D02*
X144000000Y-87837500D01*
X137750000Y-124750000D02*
X132500000Y-119500000D01*
%TO.N,Net-(J1-DAT1)*%
X157076471Y-79425000D02*
X158905000Y-79425000D01*
X154750000Y-77098529D02*
X157076471Y-79425000D01*
X154750000Y-76750000D02*
X154750000Y-77098529D01*
X155750000Y-75750000D02*
X154750000Y-76750000D01*
X130298911Y-83451089D02*
X134000000Y-79750000D01*
X130298911Y-122451089D02*
X130298911Y-83451089D01*
%TO.N,Net-(J1-DAT0)*%
X155875000Y-79125000D02*
X155875000Y-81945000D01*
X152750000Y-76000000D02*
X155875000Y-79125000D01*
X133835785Y-77250000D02*
X134750000Y-77250000D01*
X134750000Y-77250000D02*
X135500000Y-77250000D01*
X128900000Y-121900000D02*
X128900000Y-82185785D01*
X135500000Y-77250000D02*
X138000000Y-79750000D01*
X128900000Y-82185785D02*
X133835785Y-77250000D01*
X131000000Y-124000000D02*
X128900000Y-121900000D01*
%TO.N,Net-(J1-CLK)*%
X141480000Y-79500000D02*
X141405000Y-79425000D01*
X143000000Y-79500000D02*
X141480000Y-79500000D01*
X132000000Y-90250000D02*
X139250000Y-83000000D01*
X132000000Y-124000000D02*
X132000000Y-90250000D01*
%TO.N,Net-(J1-CMD)*%
X154605000Y-80995000D02*
X154605000Y-81945000D01*
X154105000Y-80495000D02*
X154605000Y-80995000D01*
X143529315Y-80495000D02*
X154105000Y-80495000D01*
X142479314Y-81545000D02*
X143529315Y-80495000D01*
X138393529Y-81545000D02*
X142479314Y-81545000D01*
X134498529Y-77650000D02*
X138393529Y-81545000D01*
X134001471Y-77650000D02*
X134498529Y-77650000D01*
X129500000Y-82151471D02*
X134001471Y-77650000D01*
X129500000Y-88000000D02*
X129500000Y-82151471D01*
%TO.N,Net-(J1-CD{slash}DAT3)*%
X145715000Y-80995000D02*
X145715000Y-81945000D01*
X145615000Y-80895000D02*
X145715000Y-80995000D01*
X142645000Y-81945000D02*
X143695000Y-80895000D01*
X137945000Y-81945000D02*
X142645000Y-81945000D01*
X143695000Y-80895000D02*
X145615000Y-80895000D01*
X134250000Y-78250000D02*
X137945000Y-81945000D01*
%TO.N,Net-(J5-In)*%
X170250000Y-80750000D02*
X174000000Y-80750000D01*
%TO.N,Net-(U5-VCC)*%
X167000000Y-81500000D02*
X172000000Y-81500000D01*
X165500000Y-83000000D02*
X167000000Y-81500000D01*
%TO.N,Net-(U1-SDA)*%
X161500000Y-78000000D02*
X161500000Y-74500000D01*
X161500000Y-74500000D02*
X161500000Y-71560000D01*
%TO.N,Net-(U3-V_BCKP)*%
X167750000Y-84500000D02*
X167750000Y-84750000D01*
X168750000Y-83500000D02*
X167750000Y-84500000D01*
%TO.N,Net-(U4-IO17)*%
X156615000Y-76885000D02*
X158905000Y-76885000D01*
X156000000Y-77500000D02*
X156615000Y-76885000D01*
%TO.N,Net-(U1-SDA)*%
X160475000Y-70535000D02*
X158905000Y-70535000D01*
X161500000Y-71560000D02*
X160475000Y-70535000D01*
X151087002Y-86912500D02*
X150500000Y-87499502D01*
X152750000Y-86912500D02*
X151087002Y-86912500D01*
%TO.N,Net-(U1-AUX_DA)*%
X151594670Y-94250000D02*
X152050000Y-94250000D01*
X149000000Y-91000000D02*
X149000000Y-91655330D01*
X149000000Y-91655330D02*
X151594670Y-94250000D01*
X144000000Y-90000000D02*
X145000000Y-91000000D01*
X144000000Y-89662500D02*
X144000000Y-90000000D01*
%TO.N,Net-(U4-RXD0{slash}IO3)*%
X160400000Y-103775000D02*
X162175000Y-102000000D01*
X164000000Y-101000000D02*
X164000000Y-73410000D01*
X162175000Y-102000000D02*
X163000000Y-102000000D01*
X159855000Y-69265000D02*
X158905000Y-69265000D01*
X163000000Y-102000000D02*
X164000000Y-101000000D01*
X164000000Y-73410000D02*
X159855000Y-69265000D01*
%TO.N,Net-(U1-AUX_CL)*%
X150750000Y-94950000D02*
X147750000Y-91950000D01*
X152750000Y-94950000D02*
X150750000Y-94950000D01*
%TO.N,Net-(J1-VDD)*%
X152750000Y-85087500D02*
X149500000Y-85087500D01*
X149500000Y-85087500D02*
X146750000Y-87837500D01*
X152750000Y-85087500D02*
X155750000Y-85087500D01*
%TO.N,Net-(U1-SDA)*%
X152750000Y-91050000D02*
X152750000Y-86912500D01*
%TO.N,Net-(U1-SCL)*%
X153250000Y-89412500D02*
X155750000Y-86912500D01*
X153250000Y-91050000D02*
X153250000Y-89412500D01*
%TO.N,Net-(U1-CPOUT)*%
X154750000Y-90494670D02*
X154750000Y-91050000D01*
X154994670Y-90250000D02*
X154750000Y-90494670D01*
X155475685Y-90250000D02*
X154994670Y-90250000D01*
X158000000Y-93000000D02*
X158000000Y-92774315D01*
X158000000Y-92774315D02*
X155475685Y-90250000D01*
X158430000Y-93430000D02*
X158000000Y-93000000D01*
X158500000Y-93430000D02*
X158430000Y-93430000D01*
%TO.N,GND*%
X146927817Y-106275000D02*
X141235000Y-106275000D01*
X158500000Y-94702817D02*
X146927817Y-106275000D01*
X158500000Y-94070000D02*
X158500000Y-94702817D01*
X148277817Y-101425000D02*
X141235000Y-101425000D01*
X153750000Y-95952817D02*
X148277817Y-101425000D01*
X153750000Y-94950000D02*
X153750000Y-95952817D01*
X138460000Y-91790000D02*
X138460000Y-103850000D01*
%TO.N,Net-(J1-VDD)*%
X147100000Y-94000000D02*
X147100000Y-93550000D01*
X147950000Y-94850000D02*
X147100000Y-94000000D01*
X147950000Y-100250000D02*
X147950000Y-94850000D01*
%TO.N,GND*%
X145430685Y-97200000D02*
X142500000Y-97200000D01*
X146975000Y-95655685D02*
X145430685Y-97200000D01*
X146975000Y-95500000D02*
X146975000Y-95655685D01*
%TO.N,Net-(J1-VDD)*%
X144000000Y-87837500D02*
X146750000Y-87837500D01*
X142500000Y-95300000D02*
X142500000Y-89337500D01*
X142500000Y-89337500D02*
X144000000Y-87837500D01*
%TO.N,Net-(U1-AUX_CL)*%
X147750000Y-90662500D02*
X147750000Y-91950000D01*
X146750000Y-89662500D02*
X147750000Y-90662500D01*
%TO.N,Net-(U1-AUX_DA)*%
X147100000Y-91575000D02*
X147100000Y-91950000D01*
X144000000Y-89662500D02*
X145187500Y-89662500D01*
X145187500Y-89662500D02*
X147100000Y-91575000D01*
%TO.N,Net-(J1-VDD)*%
X153250000Y-95505330D02*
X153250000Y-94950000D01*
X148505330Y-100250000D02*
X153250000Y-95505330D01*
X147950000Y-100250000D02*
X148505330Y-100250000D01*
%TO.N,Net-(U1-REGOUT)*%
X154250000Y-97450000D02*
X154250000Y-94950000D01*
X147950000Y-103750000D02*
X154250000Y-97450000D01*
%TO.N,GND*%
X141235000Y-106275000D02*
X143760000Y-103750000D01*
X143760000Y-103750000D02*
X146050000Y-103750000D01*
X142410000Y-100250000D02*
X141235000Y-101425000D01*
X146050000Y-100250000D02*
X142410000Y-100250000D01*
X146975000Y-94450000D02*
X146450000Y-93925000D01*
X146975000Y-95500000D02*
X146975000Y-94450000D01*
X146450000Y-93925000D02*
X146450000Y-93550000D01*
%TO.N,Net-(J1-VDD)*%
X146335000Y-95500000D02*
X145800000Y-94965000D01*
X145800000Y-94965000D02*
X145800000Y-93550000D01*
%TO.N,GND*%
X141235000Y-101425000D02*
X141235000Y-100685000D01*
X141235000Y-101425000D02*
X141235000Y-98465000D01*
X141235000Y-98465000D02*
X142500000Y-97200000D01*
%TO.N,Net-(U4-TXD0{slash}IO1)*%
X159855000Y-67995000D02*
X158905000Y-67995000D01*
X164400000Y-103450000D02*
X164400000Y-72540000D01*
X161475000Y-106375000D02*
X164400000Y-103450000D01*
X164400000Y-72540000D02*
X159855000Y-67995000D01*
X160400000Y-106375000D02*
X161475000Y-106375000D01*
%TO.N,Net-(U6-VCC)*%
X166525000Y-108975000D02*
X167600000Y-108975000D01*
X162500000Y-113000000D02*
X166525000Y-108975000D01*
X141000000Y-113000000D02*
X162500000Y-113000000D01*
%TO.N,Net-(U7-IN)*%
X157694340Y-129530000D02*
X158414239Y-129530000D01*
X156000000Y-131224340D02*
X157694340Y-129530000D01*
X156000000Y-132000000D02*
X156000000Y-131224340D01*
X151092500Y-132000000D02*
X156000000Y-132000000D01*
X146042500Y-126950000D02*
X151092500Y-132000000D01*
X146042500Y-126950000D02*
X146042500Y-125000000D01*
X159875000Y-126650000D02*
X159875000Y-128069239D01*
X159875000Y-128069239D02*
X158414239Y-129530000D01*
X159875000Y-127144974D02*
X159875000Y-126650000D01*
X160080026Y-127350000D02*
X159875000Y-127144974D01*
X163969974Y-127350000D02*
X160080026Y-127350000D01*
X164125000Y-127505026D02*
X163969974Y-127350000D01*
X164125000Y-128000000D02*
X164125000Y-127505026D01*
%TO.N,Net-(U6-USBD-)*%
X168775000Y-127225000D02*
X168775000Y-111675000D01*
X166470000Y-129530000D02*
X168775000Y-127225000D01*
X162610026Y-129530000D02*
X166470000Y-129530000D01*
X168775000Y-111675000D02*
X168675000Y-111575000D01*
X168675000Y-111575000D02*
X167600000Y-111575000D01*
X161575000Y-128494974D02*
X162610026Y-129530000D01*
X161575000Y-128000000D02*
X161575000Y-128494974D01*
%TO.N,Net-(U6-USBD+)*%
X161575000Y-118250000D02*
X167600000Y-112225000D01*
X161575000Y-126650000D02*
X161575000Y-118250000D01*
%TO.N,GND*%
X151872500Y-129130000D02*
X150742500Y-128000000D01*
X157985660Y-129130000D02*
X151872500Y-129130000D01*
X159025000Y-128090660D02*
X157985660Y-129130000D01*
X159025000Y-126650000D02*
X159025000Y-128090660D01*
%TO.N,Net-(U6-VCC)*%
X141000000Y-117050000D02*
X141000000Y-113000000D01*
%TO.N,Net-(U7-IN)*%
X136000000Y-113080000D02*
X135920000Y-113000000D01*
X136000000Y-117680000D02*
X136000000Y-113080000D01*
X135500000Y-118024315D02*
X135844315Y-117680000D01*
X135844315Y-117680000D02*
X136000000Y-117680000D01*
X141884315Y-125000000D02*
X135500000Y-118615685D01*
X146042500Y-125000000D02*
X141884315Y-125000000D01*
X135500000Y-118615685D02*
X135500000Y-118024315D01*
%TO.N,GND*%
X150742500Y-125600000D02*
X150742500Y-128000000D01*
X141000000Y-118950000D02*
X144092500Y-118950000D01*
X144092500Y-118950000D02*
X150742500Y-125600000D01*
X136000000Y-118320000D02*
X136630000Y-118950000D01*
X136630000Y-118950000D02*
X141000000Y-118950000D01*
%TD*%
%TA.AperFunction,Conductor*%
%TO.N,GND*%
G36*
X140104062Y-63520185D02*
G01*
X140149817Y-63572989D01*
X140160312Y-63637755D01*
X140155001Y-63687153D01*
X140155000Y-63687172D01*
X140155000Y-63935000D01*
X142655000Y-63935000D01*
X142655000Y-63687172D01*
X142654998Y-63687153D01*
X142649688Y-63637755D01*
X142662093Y-63568996D01*
X142709703Y-63517858D01*
X142772977Y-63500500D01*
X157537023Y-63500500D01*
X157604062Y-63520185D01*
X157649817Y-63572989D01*
X157660312Y-63637755D01*
X157655001Y-63687153D01*
X157655000Y-63687172D01*
X157655000Y-63935000D01*
X160155000Y-63935000D01*
X160155000Y-63687172D01*
X160154998Y-63687153D01*
X160149688Y-63637755D01*
X160162093Y-63568996D01*
X160209703Y-63517858D01*
X160272977Y-63500500D01*
X171494589Y-63500500D01*
X171561628Y-63520185D01*
X171607383Y-63572989D01*
X171617327Y-63642147D01*
X171588302Y-63705703D01*
X171585212Y-63709137D01*
X171433875Y-63871178D01*
X171261918Y-64114786D01*
X171261914Y-64114792D01*
X171124723Y-64379560D01*
X171024865Y-64660532D01*
X171024860Y-64660548D01*
X170964194Y-64952495D01*
X170964193Y-64952497D01*
X170943844Y-65250000D01*
X170964193Y-65547502D01*
X170964194Y-65547504D01*
X171024860Y-65839451D01*
X171024865Y-65839467D01*
X171124723Y-66120439D01*
X171261914Y-66385207D01*
X171261918Y-66385213D01*
X171433875Y-66628821D01*
X171637416Y-66846760D01*
X171868721Y-67034940D01*
X171868725Y-67034943D01*
X171868727Y-67034944D01*
X171868728Y-67034945D01*
X172123513Y-67189884D01*
X172123515Y-67189885D01*
X172123517Y-67189886D01*
X172199454Y-67222870D01*
X172397023Y-67308686D01*
X172684162Y-67389138D01*
X172943882Y-67424836D01*
X172979581Y-67429743D01*
X172979582Y-67429743D01*
X173277779Y-67429743D01*
X173309628Y-67425365D01*
X173573198Y-67389138D01*
X173860337Y-67308686D01*
X174133847Y-67189884D01*
X174388632Y-67034945D01*
X174619947Y-66846757D01*
X174823482Y-66628824D01*
X174995446Y-66385206D01*
X175132636Y-66120441D01*
X175232496Y-65839462D01*
X175232496Y-65839457D01*
X175232499Y-65839451D01*
X175254094Y-65735530D01*
X175287006Y-65673897D01*
X175348014Y-65639843D01*
X175417749Y-65644178D01*
X175474071Y-65685526D01*
X175499096Y-65750760D01*
X175499500Y-65760758D01*
X175499500Y-129412142D01*
X175479815Y-129479181D01*
X175427011Y-129524936D01*
X175357853Y-129534880D01*
X175294297Y-129505855D01*
X175274196Y-129483650D01*
X175194804Y-129371178D01*
X175115775Y-129286559D01*
X174991267Y-129153243D01*
X174991265Y-129153242D01*
X174991263Y-129153239D01*
X174759958Y-128965059D01*
X174759954Y-128965056D01*
X174515231Y-128816236D01*
X174505167Y-128810116D01*
X174505166Y-128810115D01*
X174505162Y-128810113D01*
X174231658Y-128691314D01*
X173944524Y-128610863D01*
X173944519Y-128610862D01*
X173944518Y-128610862D01*
X173796808Y-128590559D01*
X173649099Y-128570257D01*
X173649098Y-128570257D01*
X173350902Y-128570257D01*
X173350901Y-128570257D01*
X173055482Y-128610862D01*
X173055475Y-128610863D01*
X172768341Y-128691314D01*
X172494837Y-128810113D01*
X172240045Y-128965056D01*
X172240041Y-128965059D01*
X172008736Y-129153239D01*
X171805195Y-129371178D01*
X171633238Y-129614786D01*
X171633234Y-129614792D01*
X171496043Y-129879560D01*
X171396185Y-130160532D01*
X171396180Y-130160548D01*
X171335514Y-130452495D01*
X171335513Y-130452497D01*
X171315164Y-130750000D01*
X171335513Y-131047502D01*
X171335514Y-131047504D01*
X171396180Y-131339451D01*
X171396185Y-131339467D01*
X171496043Y-131620439D01*
X171633234Y-131885207D01*
X171633238Y-131885213D01*
X171805195Y-132128821D01*
X171805198Y-132128824D01*
X171937297Y-132270268D01*
X171956532Y-132290863D01*
X171987904Y-132353294D01*
X171980544Y-132422775D01*
X171936787Y-132477246D01*
X171870527Y-132499414D01*
X171865909Y-132499500D01*
X166807327Y-132499500D01*
X166740288Y-132479815D01*
X166694533Y-132427011D01*
X166684589Y-132357853D01*
X166713614Y-132294297D01*
X166741736Y-132270268D01*
X166909803Y-132165512D01*
X166909803Y-132165511D01*
X166909807Y-132165509D01*
X167049919Y-132032323D01*
X167160353Y-131873658D01*
X167236587Y-131696012D01*
X167275500Y-131506656D01*
X167275500Y-130561794D01*
X167272614Y-130533407D01*
X167260845Y-130417677D01*
X167202977Y-130233240D01*
X167202975Y-130233236D01*
X167202974Y-130233232D01*
X167109159Y-130064209D01*
X167034285Y-129976991D01*
X167005554Y-129913305D01*
X167015816Y-129844193D01*
X167040688Y-129808545D01*
X169168922Y-127680311D01*
X169174999Y-127674983D01*
X169203282Y-127653282D01*
X169299536Y-127527841D01*
X169360044Y-127381762D01*
X169375500Y-127264361D01*
X169380682Y-127225000D01*
X169376030Y-127189669D01*
X169375500Y-127181571D01*
X169375500Y-111718428D01*
X169376031Y-111710326D01*
X169380682Y-111674999D01*
X169380682Y-111674998D01*
X169360044Y-111518239D01*
X169360042Y-111518234D01*
X169299538Y-111372163D01*
X169299538Y-111372162D01*
X169245799Y-111302128D01*
X169203283Y-111246718D01*
X169175007Y-111225022D01*
X169168904Y-111219669D01*
X169130320Y-111181085D01*
X169124980Y-111174995D01*
X169103282Y-111146718D01*
X169078226Y-111127492D01*
X169024012Y-111085891D01*
X168982809Y-111029463D01*
X168975499Y-110987516D01*
X168975499Y-110652129D01*
X168975499Y-110652128D01*
X168971067Y-110610898D01*
X168971068Y-110584393D01*
X168974999Y-110547833D01*
X168975000Y-110547819D01*
X168975000Y-110499999D01*
X168959388Y-110484388D01*
X168945516Y-110480315D01*
X168913289Y-110450312D01*
X168843651Y-110357289D01*
X168837678Y-110349309D01*
X168813261Y-110283848D01*
X168828112Y-110215575D01*
X168837673Y-110200696D01*
X168913287Y-110099688D01*
X168961105Y-110063894D01*
X168975000Y-110050000D01*
X168975000Y-110002181D01*
X168974999Y-110002164D01*
X168971068Y-109965602D01*
X168971068Y-109939094D01*
X168975500Y-109897873D01*
X168975499Y-109352128D01*
X168975499Y-109352127D01*
X168975498Y-109352111D01*
X168971320Y-109313253D01*
X168971320Y-109286745D01*
X168975500Y-109247873D01*
X168975499Y-108702128D01*
X168971067Y-108660898D01*
X168971068Y-108634393D01*
X168974999Y-108597833D01*
X168975000Y-108597819D01*
X168975000Y-108550000D01*
X168959388Y-108534388D01*
X168945516Y-108530315D01*
X168913289Y-108500312D01*
X168875972Y-108450464D01*
X168837678Y-108399309D01*
X168813261Y-108333848D01*
X168828112Y-108265575D01*
X168837673Y-108250696D01*
X168913287Y-108149688D01*
X168961105Y-108113894D01*
X168975000Y-108099999D01*
X168975000Y-108052181D01*
X168974999Y-108052164D01*
X168971068Y-108015602D01*
X168971068Y-107989093D01*
X168975500Y-107947873D01*
X168975499Y-107402128D01*
X168975499Y-107402127D01*
X168975498Y-107402111D01*
X168971320Y-107363253D01*
X168971320Y-107336745D01*
X168975500Y-107297873D01*
X168975499Y-106752128D01*
X168975499Y-106752127D01*
X168975498Y-106752111D01*
X168971320Y-106713253D01*
X168971320Y-106686745D01*
X168975500Y-106647873D01*
X168975499Y-106102128D01*
X168971067Y-106060898D01*
X168971068Y-106034393D01*
X168974999Y-105997833D01*
X168975000Y-105997819D01*
X168975000Y-105949999D01*
X168959388Y-105934388D01*
X168945516Y-105930315D01*
X168913289Y-105900312D01*
X168887991Y-105866519D01*
X168837678Y-105799309D01*
X168813261Y-105733848D01*
X168828112Y-105665575D01*
X168837673Y-105650696D01*
X168913287Y-105549688D01*
X168961105Y-105513894D01*
X168975000Y-105500000D01*
X168975000Y-105452181D01*
X168974999Y-105452164D01*
X168971068Y-105415602D01*
X168971068Y-105389093D01*
X168975500Y-105347873D01*
X168975499Y-104802128D01*
X168975499Y-104802127D01*
X168975498Y-104802111D01*
X168971320Y-104763253D01*
X168971320Y-104736745D01*
X168975500Y-104697873D01*
X168975499Y-104152128D01*
X168975499Y-104152127D01*
X168975498Y-104152111D01*
X168971320Y-104113253D01*
X168971320Y-104086745D01*
X168975500Y-104047873D01*
X168975499Y-103502128D01*
X168969091Y-103442517D01*
X168955684Y-103406572D01*
X168918797Y-103307671D01*
X168918793Y-103307664D01*
X168832547Y-103192455D01*
X168832544Y-103192452D01*
X168717335Y-103106206D01*
X168717328Y-103106202D01*
X168582482Y-103055908D01*
X168582483Y-103055908D01*
X168522883Y-103049501D01*
X168522881Y-103049500D01*
X168522873Y-103049500D01*
X168522864Y-103049500D01*
X166677129Y-103049500D01*
X166677123Y-103049501D01*
X166617516Y-103055908D01*
X166482671Y-103106202D01*
X166482664Y-103106206D01*
X166367455Y-103192452D01*
X166367452Y-103192455D01*
X166281206Y-103307664D01*
X166281202Y-103307671D01*
X166241293Y-103414675D01*
X166230909Y-103442517D01*
X166224500Y-103502127D01*
X166224500Y-103502134D01*
X166224500Y-103502135D01*
X166224500Y-104047869D01*
X166224501Y-104047878D01*
X166228679Y-104086745D01*
X166228679Y-104113250D01*
X166224500Y-104152122D01*
X166224500Y-104697869D01*
X166224501Y-104697878D01*
X166228679Y-104736745D01*
X166228679Y-104763250D01*
X166224500Y-104802122D01*
X166224500Y-105347869D01*
X166224501Y-105347880D01*
X166228931Y-105389093D01*
X166228931Y-105415596D01*
X166225000Y-105452165D01*
X166225000Y-105500000D01*
X166240611Y-105515611D01*
X166254484Y-105519685D01*
X166286711Y-105549689D01*
X166362320Y-105650689D01*
X166386738Y-105716153D01*
X166371887Y-105784426D01*
X166362320Y-105799311D01*
X166286711Y-105900311D01*
X166238892Y-105936107D01*
X166225000Y-105949999D01*
X166225000Y-105997832D01*
X166228931Y-106034399D01*
X166228931Y-106060905D01*
X166224500Y-106102122D01*
X166224500Y-106647869D01*
X166224501Y-106647878D01*
X166228679Y-106686745D01*
X166228679Y-106713250D01*
X166224500Y-106752122D01*
X166224500Y-107297869D01*
X166224501Y-107297878D01*
X166228679Y-107336745D01*
X166228679Y-107363250D01*
X166224500Y-107402122D01*
X166224500Y-107947869D01*
X166224501Y-107947880D01*
X166228931Y-107989093D01*
X166228931Y-108015596D01*
X166225000Y-108052165D01*
X166225000Y-108100000D01*
X166240611Y-108115611D01*
X166254484Y-108119685D01*
X166286711Y-108149688D01*
X166347639Y-108231076D01*
X166372057Y-108296540D01*
X166357206Y-108364813D01*
X166307801Y-108414219D01*
X166295827Y-108419948D01*
X166222160Y-108450462D01*
X166222159Y-108450463D01*
X166096719Y-108546716D01*
X166075019Y-108574994D01*
X166069667Y-108581096D01*
X164166377Y-110484388D01*
X162287584Y-112363181D01*
X162226261Y-112396666D01*
X162199903Y-112399500D01*
X161899500Y-112399500D01*
X161832461Y-112379815D01*
X161786706Y-112327011D01*
X161775500Y-112275500D01*
X161775499Y-111952128D01*
X161775498Y-111952111D01*
X161771320Y-111913253D01*
X161771320Y-111886745D01*
X161775500Y-111847873D01*
X161775499Y-111302128D01*
X161775499Y-111302127D01*
X161775498Y-111302111D01*
X161771320Y-111263253D01*
X161771320Y-111236745D01*
X161775500Y-111197873D01*
X161775499Y-110652128D01*
X161775499Y-110652127D01*
X161775498Y-110652111D01*
X161771320Y-110613253D01*
X161771320Y-110586745D01*
X161775500Y-110547873D01*
X161775499Y-110002128D01*
X161775499Y-110002127D01*
X161775498Y-110002111D01*
X161771320Y-109963253D01*
X161771320Y-109936745D01*
X161775500Y-109897873D01*
X161775499Y-109352128D01*
X161775499Y-109352127D01*
X161775498Y-109352111D01*
X161771320Y-109313253D01*
X161771320Y-109286745D01*
X161775500Y-109247873D01*
X161775499Y-108702128D01*
X161775499Y-108702127D01*
X161775498Y-108702111D01*
X161771320Y-108663253D01*
X161771320Y-108636745D01*
X161775500Y-108597873D01*
X161775499Y-108052128D01*
X161771067Y-108010898D01*
X161771068Y-107984393D01*
X161774999Y-107947833D01*
X161775000Y-107947819D01*
X161775000Y-107899999D01*
X161759388Y-107884388D01*
X161745516Y-107880315D01*
X161713289Y-107850312D01*
X161687991Y-107816519D01*
X161637678Y-107749309D01*
X161613261Y-107683848D01*
X161628112Y-107615575D01*
X161637673Y-107600696D01*
X161713287Y-107499688D01*
X161761105Y-107463894D01*
X161775000Y-107450000D01*
X161775000Y-107402181D01*
X161774999Y-107402164D01*
X161771068Y-107365602D01*
X161771068Y-107339093D01*
X161775500Y-107297873D01*
X161775499Y-106962481D01*
X161795183Y-106895443D01*
X161824013Y-106864106D01*
X161852392Y-106842331D01*
X161903282Y-106803282D01*
X161924983Y-106774999D01*
X161930311Y-106768922D01*
X164793922Y-103905311D01*
X164799999Y-103899983D01*
X164828282Y-103878282D01*
X164924536Y-103752841D01*
X164985044Y-103606762D01*
X165000500Y-103489361D01*
X165005682Y-103450000D01*
X165001028Y-103414652D01*
X165000500Y-103406587D01*
X165000500Y-84750003D01*
X166944435Y-84750003D01*
X166964630Y-84929249D01*
X166964631Y-84929254D01*
X167024211Y-85099523D01*
X167120183Y-85252262D01*
X167120184Y-85252262D01*
X167247738Y-85379816D01*
X167400478Y-85475789D01*
X167570744Y-85535367D01*
X167570745Y-85535368D01*
X167570750Y-85535369D01*
X167749996Y-85555565D01*
X167750000Y-85555565D01*
X167750004Y-85555565D01*
X167929249Y-85535369D01*
X167929252Y-85535368D01*
X167929255Y-85535368D01*
X168099522Y-85475789D01*
X168252262Y-85379816D01*
X168379816Y-85252262D01*
X168475789Y-85099522D01*
X168535368Y-84929255D01*
X168535369Y-84929249D01*
X168555565Y-84750003D01*
X168555565Y-84749997D01*
X168541357Y-84623902D01*
X168553411Y-84555080D01*
X168576893Y-84522340D01*
X168768535Y-84330698D01*
X168829856Y-84297215D01*
X168842311Y-84295163D01*
X168929255Y-84285368D01*
X169099522Y-84225789D01*
X169252262Y-84129816D01*
X169379816Y-84002262D01*
X169475789Y-83849522D01*
X169535368Y-83679255D01*
X169540743Y-83631551D01*
X169555565Y-83500003D01*
X169555565Y-83499996D01*
X169535369Y-83320750D01*
X169535368Y-83320745D01*
X169491543Y-83195500D01*
X169475789Y-83150478D01*
X169468449Y-83138797D01*
X169414030Y-83052190D01*
X169379816Y-82997738D01*
X169252262Y-82870184D01*
X169252262Y-82870183D01*
X169099523Y-82774211D01*
X168929254Y-82714631D01*
X168929249Y-82714630D01*
X168750004Y-82694435D01*
X168749996Y-82694435D01*
X168570750Y-82714630D01*
X168570745Y-82714631D01*
X168400476Y-82774211D01*
X168247737Y-82870184D01*
X168120184Y-82997737D01*
X168024210Y-83150478D01*
X167964630Y-83320750D01*
X167954837Y-83407668D01*
X167927770Y-83472082D01*
X167919298Y-83481465D01*
X167356096Y-84044668D01*
X167349994Y-84050019D01*
X167315278Y-84076660D01*
X167314933Y-84076210D01*
X167304564Y-84084476D01*
X167247742Y-84120181D01*
X167247735Y-84120186D01*
X167120184Y-84247737D01*
X167024211Y-84400476D01*
X166964631Y-84570745D01*
X166964630Y-84570750D01*
X166944435Y-84749996D01*
X166944435Y-84750003D01*
X165000500Y-84750003D01*
X165000500Y-83848067D01*
X165020184Y-83781032D01*
X165072988Y-83735277D01*
X165142146Y-83725333D01*
X165165454Y-83731030D01*
X165320737Y-83785366D01*
X165320743Y-83785367D01*
X165320745Y-83785368D01*
X165320746Y-83785368D01*
X165320750Y-83785369D01*
X165499996Y-83805565D01*
X165500000Y-83805565D01*
X165500004Y-83805565D01*
X165679249Y-83785369D01*
X165679252Y-83785368D01*
X165679255Y-83785368D01*
X165849522Y-83725789D01*
X166002262Y-83629816D01*
X166129816Y-83502262D01*
X166225789Y-83349522D01*
X166285368Y-83179255D01*
X166295161Y-83092329D01*
X166322226Y-83027918D01*
X166330690Y-83018543D01*
X167212415Y-82136819D01*
X167273739Y-82103334D01*
X167300097Y-82100500D01*
X171417588Y-82100500D01*
X171484627Y-82120185D01*
X171494903Y-82127555D01*
X171497736Y-82129814D01*
X171497738Y-82129816D01*
X171586812Y-82185785D01*
X171649454Y-82225146D01*
X171650478Y-82225789D01*
X171773882Y-82268970D01*
X171820745Y-82285368D01*
X171820750Y-82285369D01*
X171999996Y-82305565D01*
X172000000Y-82305565D01*
X172000004Y-82305565D01*
X172179249Y-82285369D01*
X172179252Y-82285368D01*
X172179255Y-82285368D01*
X172349522Y-82225789D01*
X172502262Y-82129816D01*
X172629816Y-82002262D01*
X172725789Y-81849522D01*
X172785368Y-81679255D01*
X172785369Y-81679249D01*
X172805565Y-81500003D01*
X172805565Y-81500001D01*
X172804256Y-81488386D01*
X172816309Y-81419564D01*
X172863657Y-81368184D01*
X172927476Y-81350500D01*
X173417588Y-81350500D01*
X173484627Y-81370185D01*
X173494903Y-81377555D01*
X173497736Y-81379814D01*
X173497738Y-81379816D01*
X173650478Y-81475789D01*
X173726948Y-81502547D01*
X173820745Y-81535368D01*
X173820750Y-81535369D01*
X173999996Y-81555565D01*
X174000000Y-81555565D01*
X174000004Y-81555565D01*
X174179249Y-81535369D01*
X174179252Y-81535368D01*
X174179255Y-81535368D01*
X174349522Y-81475789D01*
X174502262Y-81379816D01*
X174629816Y-81252262D01*
X174725789Y-81099522D01*
X174785368Y-80929255D01*
X174785369Y-80929249D01*
X174805565Y-80750003D01*
X174805565Y-80749996D01*
X174785369Y-80570750D01*
X174785368Y-80570745D01*
X174725788Y-80400476D01*
X174657848Y-80292351D01*
X174629816Y-80247738D01*
X174502262Y-80120184D01*
X174475441Y-80103331D01*
X174349523Y-80024211D01*
X174179254Y-79964631D01*
X174179249Y-79964630D01*
X174000004Y-79944435D01*
X173999996Y-79944435D01*
X173820750Y-79964630D01*
X173820745Y-79964631D01*
X173650476Y-80024211D01*
X173497736Y-80120185D01*
X173494903Y-80122445D01*
X173492724Y-80123334D01*
X173491842Y-80123889D01*
X173491744Y-80123734D01*
X173430217Y-80148855D01*
X173417588Y-80149500D01*
X170832412Y-80149500D01*
X170765373Y-80129815D01*
X170755097Y-80122445D01*
X170752263Y-80120185D01*
X170752263Y-80120184D01*
X170752262Y-80120184D01*
X170667173Y-80066719D01*
X170599523Y-80024211D01*
X170429254Y-79964631D01*
X170429249Y-79964630D01*
X170250004Y-79944435D01*
X170249996Y-79944435D01*
X170070750Y-79964630D01*
X170070745Y-79964631D01*
X169900476Y-80024211D01*
X169747737Y-80120184D01*
X169620184Y-80247737D01*
X169524211Y-80400476D01*
X169464631Y-80570745D01*
X169464630Y-80570750D01*
X169444435Y-80749996D01*
X169444435Y-80750000D01*
X169444435Y-80750003D01*
X169445744Y-80761614D01*
X169433691Y-80830436D01*
X169386343Y-80881816D01*
X169322524Y-80899500D01*
X167043428Y-80899500D01*
X167035329Y-80898969D01*
X167000000Y-80894318D01*
X166960639Y-80899500D01*
X166843239Y-80914955D01*
X166843237Y-80914956D01*
X166697157Y-80975464D01*
X166571719Y-81071716D01*
X166550019Y-81099994D01*
X166544668Y-81106096D01*
X165481465Y-82169298D01*
X165420142Y-82202783D01*
X165407668Y-82204837D01*
X165320750Y-82214630D01*
X165165454Y-82268970D01*
X165095675Y-82272531D01*
X165035048Y-82237802D01*
X165002821Y-82175808D01*
X165000500Y-82151928D01*
X165000500Y-72583427D01*
X165001031Y-72575326D01*
X165005682Y-72540000D01*
X165005682Y-72539998D01*
X164986812Y-72396666D01*
X164985044Y-72383238D01*
X164924536Y-72237159D01*
X164869690Y-72165682D01*
X164828282Y-72111718D01*
X164800005Y-72090020D01*
X164793904Y-72084669D01*
X160521416Y-67812181D01*
X160487931Y-67750858D01*
X160492915Y-67681166D01*
X160534787Y-67625233D01*
X160600251Y-67600816D01*
X160609097Y-67600500D01*
X160667588Y-67600500D01*
X160734627Y-67620185D01*
X160744903Y-67627555D01*
X160747736Y-67629814D01*
X160747738Y-67629816D01*
X160900478Y-67725789D01*
X161070744Y-67785368D01*
X161070745Y-67785368D01*
X161070750Y-67785369D01*
X161249996Y-67805565D01*
X161250000Y-67805565D01*
X161250004Y-67805565D01*
X161429249Y-67785369D01*
X161429252Y-67785368D01*
X161429255Y-67785368D01*
X161599522Y-67725789D01*
X161752262Y-67629816D01*
X161879816Y-67502262D01*
X161975789Y-67349522D01*
X162035368Y-67179255D01*
X162044663Y-67096760D01*
X162055565Y-67000003D01*
X162055565Y-66999996D01*
X162035369Y-66820750D01*
X162035368Y-66820745D01*
X161975788Y-66650476D01*
X161879815Y-66497737D01*
X161752262Y-66370184D01*
X161599523Y-66274211D01*
X161429254Y-66214631D01*
X161429249Y-66214630D01*
X161250004Y-66194435D01*
X161249996Y-66194435D01*
X161070750Y-66214630D01*
X161070745Y-66214631D01*
X160900476Y-66274211D01*
X160747736Y-66370185D01*
X160744903Y-66372445D01*
X160742724Y-66373334D01*
X160741842Y-66373889D01*
X160741744Y-66373734D01*
X160680217Y-66398855D01*
X160667588Y-66399500D01*
X160279499Y-66399500D01*
X160212460Y-66379815D01*
X160166705Y-66327011D01*
X160155499Y-66275500D01*
X160155499Y-66227129D01*
X160155498Y-66227123D01*
X160155497Y-66227116D01*
X160149091Y-66167517D01*
X160136340Y-66133332D01*
X160131357Y-66063642D01*
X160136340Y-66046669D01*
X160149091Y-66012483D01*
X160155500Y-65952873D01*
X160155499Y-64957128D01*
X160149091Y-64897517D01*
X160136073Y-64862616D01*
X160131090Y-64792926D01*
X160136075Y-64775949D01*
X160148597Y-64742375D01*
X160148598Y-64742372D01*
X160154999Y-64682844D01*
X160155000Y-64682827D01*
X160155000Y-64435000D01*
X157655000Y-64435000D01*
X157655000Y-64682844D01*
X157661401Y-64742372D01*
X157661403Y-64742379D01*
X157673925Y-64775952D01*
X157678909Y-64845643D01*
X157673925Y-64862617D01*
X157660909Y-64897514D01*
X157660908Y-64897516D01*
X157654627Y-64955946D01*
X157654501Y-64957123D01*
X157654500Y-64957135D01*
X157654500Y-65952870D01*
X157654501Y-65952876D01*
X157660908Y-66012481D01*
X157673659Y-66046669D01*
X157678642Y-66116361D01*
X157673659Y-66133331D01*
X157660908Y-66167518D01*
X157655843Y-66214632D01*
X157654501Y-66227123D01*
X157654500Y-66227135D01*
X157654500Y-67222870D01*
X157654501Y-67222876D01*
X157660908Y-67282481D01*
X157673659Y-67316669D01*
X157678642Y-67386361D01*
X157673659Y-67403331D01*
X157660908Y-67437518D01*
X157659221Y-67453214D01*
X157654501Y-67497123D01*
X157654500Y-67497135D01*
X157654500Y-68492870D01*
X157654501Y-68492876D01*
X157660908Y-68552481D01*
X157673659Y-68586669D01*
X157678642Y-68656361D01*
X157673659Y-68673331D01*
X157660908Y-68707518D01*
X157654501Y-68767116D01*
X157654501Y-68767123D01*
X157654500Y-68767135D01*
X157654500Y-69762870D01*
X157654501Y-69762876D01*
X157660908Y-69822483D01*
X157673658Y-69856667D01*
X157678642Y-69926359D01*
X157673659Y-69943329D01*
X157660909Y-69977516D01*
X157660908Y-69977517D01*
X157654998Y-70032492D01*
X157654501Y-70037123D01*
X157654500Y-70037135D01*
X157654500Y-71032870D01*
X157654501Y-71032876D01*
X157660908Y-71092483D01*
X157673658Y-71126667D01*
X157678642Y-71196359D01*
X157673659Y-71213329D01*
X157660909Y-71247516D01*
X157660908Y-71247517D01*
X157654501Y-71307116D01*
X157654501Y-71307123D01*
X157654500Y-71307135D01*
X157654500Y-72302870D01*
X157654501Y-72302876D01*
X157660908Y-72362481D01*
X157673659Y-72396669D01*
X157678642Y-72466361D01*
X157673659Y-72483331D01*
X157660908Y-72517518D01*
X157654501Y-72577116D01*
X157654501Y-72577123D01*
X157654500Y-72577135D01*
X157654500Y-73572870D01*
X157654501Y-73572876D01*
X157660908Y-73632483D01*
X157673658Y-73666667D01*
X157678642Y-73736359D01*
X157673659Y-73753329D01*
X157660909Y-73787516D01*
X157660908Y-73787517D01*
X157654501Y-73847116D01*
X157654501Y-73847123D01*
X157654500Y-73847135D01*
X157654500Y-74842870D01*
X157654501Y-74842876D01*
X157660908Y-74902481D01*
X157673659Y-74936669D01*
X157678642Y-75006361D01*
X157673659Y-75023331D01*
X157660908Y-75057518D01*
X157658232Y-75082412D01*
X157654501Y-75117123D01*
X157654500Y-75117135D01*
X157654500Y-76112870D01*
X157654501Y-76112876D01*
X157658196Y-76147247D01*
X157645789Y-76216006D01*
X157598178Y-76267143D01*
X157534906Y-76284500D01*
X156658428Y-76284500D01*
X156650329Y-76283969D01*
X156615000Y-76279318D01*
X156614999Y-76279318D01*
X156601353Y-76281114D01*
X156532319Y-76270345D01*
X156480065Y-76223963D01*
X156461182Y-76156694D01*
X156473457Y-76104365D01*
X156475787Y-76099527D01*
X156510613Y-76000000D01*
X156535368Y-75929255D01*
X156536395Y-75920142D01*
X156555565Y-75750003D01*
X156555565Y-75749996D01*
X156535369Y-75570750D01*
X156535368Y-75570745D01*
X156475788Y-75400476D01*
X156379815Y-75247737D01*
X156252262Y-75120184D01*
X156099523Y-75024211D01*
X155929254Y-74964631D01*
X155929249Y-74964630D01*
X155750004Y-74944435D01*
X155749996Y-74944435D01*
X155570750Y-74964630D01*
X155570745Y-74964631D01*
X155400476Y-75024211D01*
X155247737Y-75120184D01*
X155120184Y-75247737D01*
X155024210Y-75400478D01*
X154964630Y-75570750D01*
X154954837Y-75657668D01*
X154927770Y-75722082D01*
X154919298Y-75731465D01*
X154356096Y-76294668D01*
X154349994Y-76300019D01*
X154321720Y-76321715D01*
X154305452Y-76342915D01*
X154264117Y-76396785D01*
X154263386Y-76397738D01*
X154233792Y-76436306D01*
X154177364Y-76477508D01*
X154107617Y-76481663D01*
X154047735Y-76448500D01*
X153580700Y-75981465D01*
X153547215Y-75920142D01*
X153545163Y-75907686D01*
X153535368Y-75820745D01*
X153475789Y-75650478D01*
X153379816Y-75497738D01*
X153252262Y-75370184D01*
X153099523Y-75274211D01*
X152929254Y-75214631D01*
X152929249Y-75214630D01*
X152750004Y-75194435D01*
X152749996Y-75194435D01*
X152570750Y-75214630D01*
X152570745Y-75214631D01*
X152400476Y-75274211D01*
X152247737Y-75370184D01*
X152120184Y-75497737D01*
X152024211Y-75650476D01*
X151964631Y-75820745D01*
X151964630Y-75820750D01*
X151944435Y-75999996D01*
X151944435Y-76000003D01*
X151964630Y-76179249D01*
X151964631Y-76179254D01*
X152024211Y-76349523D01*
X152054507Y-76397738D01*
X152120184Y-76502262D01*
X152247738Y-76629816D01*
X152400478Y-76725789D01*
X152570745Y-76785368D01*
X152657669Y-76795161D01*
X152722080Y-76822226D01*
X152731465Y-76830700D01*
X155238181Y-79337416D01*
X155271666Y-79398739D01*
X155274500Y-79425097D01*
X155274500Y-80515787D01*
X155254815Y-80582826D01*
X155202011Y-80628581D01*
X155132853Y-80638525D01*
X155069297Y-80609500D01*
X155052124Y-80591273D01*
X155033282Y-80566718D01*
X155005009Y-80545023D01*
X154998912Y-80539677D01*
X154560320Y-80101085D01*
X154554980Y-80094995D01*
X154533282Y-80066718D01*
X154407841Y-79970464D01*
X154393761Y-79964632D01*
X154261762Y-79909956D01*
X154261760Y-79909955D01*
X154144361Y-79894500D01*
X154105000Y-79889318D01*
X154069670Y-79893969D01*
X154061572Y-79894500D01*
X143884812Y-79894500D01*
X143817773Y-79874815D01*
X143772018Y-79822011D01*
X143762074Y-79752853D01*
X143767771Y-79729544D01*
X143785367Y-79679259D01*
X143785369Y-79679249D01*
X143805565Y-79500003D01*
X143805565Y-79499996D01*
X143785369Y-79320750D01*
X143785368Y-79320745D01*
X143725788Y-79150476D01*
X143629815Y-78997737D01*
X143502262Y-78870184D01*
X143349523Y-78774211D01*
X143179254Y-78714631D01*
X143179249Y-78714630D01*
X143000004Y-78694435D01*
X142999996Y-78694435D01*
X142820750Y-78714630D01*
X142820734Y-78714634D01*
X142820441Y-78714737D01*
X142820239Y-78714747D01*
X142813953Y-78716182D01*
X142813701Y-78715080D01*
X142750662Y-78718291D01*
X142690038Y-78683556D01*
X142657818Y-78621559D01*
X142655499Y-78597700D01*
X142655499Y-77657128D01*
X142649091Y-77597517D01*
X142636340Y-77563332D01*
X142631357Y-77493642D01*
X142636340Y-77476669D01*
X142649091Y-77442483D01*
X142655500Y-77382873D01*
X142655499Y-76387128D01*
X142649091Y-76327517D01*
X142645387Y-76317587D01*
X142636341Y-76293332D01*
X142631357Y-76223640D01*
X142636340Y-76206667D01*
X142649091Y-76172483D01*
X142655500Y-76112873D01*
X142655499Y-75117128D01*
X142649091Y-75057517D01*
X142636340Y-75023332D01*
X142631357Y-74953642D01*
X142636340Y-74936669D01*
X142649091Y-74902483D01*
X142655500Y-74842873D01*
X142655499Y-73847128D01*
X142649091Y-73787517D01*
X142636340Y-73753332D01*
X142631357Y-73683642D01*
X142636341Y-73666667D01*
X142649091Y-73632483D01*
X142655500Y-73572873D01*
X142655499Y-72577128D01*
X142649091Y-72517517D01*
X142636341Y-72483332D01*
X142631357Y-72413640D01*
X142636340Y-72396667D01*
X142649091Y-72362483D01*
X142655500Y-72302873D01*
X142655499Y-71307128D01*
X142649091Y-71247517D01*
X142636340Y-71213332D01*
X142631357Y-71143642D01*
X142636341Y-71126667D01*
X142649091Y-71092483D01*
X142655500Y-71032873D01*
X142655499Y-70037128D01*
X142649091Y-69977517D01*
X142636341Y-69943332D01*
X142631357Y-69873640D01*
X142636342Y-69856664D01*
X142649091Y-69822483D01*
X142650760Y-69806961D01*
X142655500Y-69762873D01*
X142655499Y-68767128D01*
X142649091Y-68707517D01*
X142636340Y-68673332D01*
X142631357Y-68603642D01*
X142636341Y-68586667D01*
X142649091Y-68552483D01*
X142655500Y-68492873D01*
X142655499Y-67497128D01*
X142649091Y-67437517D01*
X142636340Y-67403332D01*
X142631357Y-67333642D01*
X142636340Y-67316669D01*
X142649091Y-67282483D01*
X142655500Y-67222873D01*
X142655499Y-66904094D01*
X142675183Y-66837057D01*
X142727987Y-66791302D01*
X142797146Y-66781358D01*
X142860701Y-66810383D01*
X142867180Y-66816415D01*
X144113181Y-68062416D01*
X144146666Y-68123739D01*
X144149500Y-68150097D01*
X144149500Y-76317587D01*
X144129815Y-76384626D01*
X144122450Y-76394896D01*
X144120186Y-76397734D01*
X144024211Y-76550476D01*
X143964631Y-76720745D01*
X143964630Y-76720750D01*
X143944435Y-76899996D01*
X143944435Y-76900003D01*
X143964630Y-77079249D01*
X143964631Y-77079254D01*
X144024211Y-77249523D01*
X144107995Y-77382864D01*
X144120184Y-77402262D01*
X144247738Y-77529816D01*
X144292575Y-77557989D01*
X144355650Y-77597622D01*
X144400478Y-77625789D01*
X144553275Y-77679255D01*
X144570745Y-77685368D01*
X144570750Y-77685369D01*
X144749996Y-77705565D01*
X144750000Y-77705565D01*
X144750004Y-77705565D01*
X144929249Y-77685369D01*
X144929252Y-77685368D01*
X144929255Y-77685368D01*
X145099522Y-77625789D01*
X145252262Y-77529816D01*
X145379816Y-77402262D01*
X145475789Y-77249522D01*
X145535368Y-77079255D01*
X145535369Y-77079249D01*
X145555565Y-76900003D01*
X145555565Y-76899996D01*
X145535369Y-76720750D01*
X145535368Y-76720745D01*
X145528102Y-76699980D01*
X145475789Y-76550478D01*
X145379816Y-76397738D01*
X145379814Y-76397736D01*
X145379813Y-76397734D01*
X145377550Y-76394896D01*
X145376659Y-76392715D01*
X145376111Y-76391842D01*
X145376264Y-76391745D01*
X145351144Y-76330209D01*
X145350500Y-76317587D01*
X145350500Y-71775000D01*
X146875000Y-71775000D01*
X146875000Y-73672844D01*
X146881401Y-73732372D01*
X146881403Y-73732379D01*
X146931645Y-73867086D01*
X146931649Y-73867093D01*
X147017809Y-73982187D01*
X147017812Y-73982190D01*
X147132906Y-74068350D01*
X147132913Y-74068354D01*
X147267620Y-74118596D01*
X147267627Y-74118598D01*
X147327155Y-74124999D01*
X147327172Y-74125000D01*
X149225000Y-74125000D01*
X149725000Y-74125000D01*
X151622828Y-74125000D01*
X151622844Y-74124999D01*
X151682372Y-74118598D01*
X151682379Y-74118596D01*
X151817086Y-74068354D01*
X151817093Y-74068350D01*
X151932187Y-73982190D01*
X151932190Y-73982187D01*
X152018350Y-73867093D01*
X152018354Y-73867086D01*
X152068596Y-73732379D01*
X152068598Y-73732372D01*
X152074999Y-73672844D01*
X152075000Y-73672827D01*
X152075000Y-71775000D01*
X151250000Y-71775000D01*
X151250000Y-72183947D01*
X151265871Y-72199818D01*
X151299356Y-72261141D01*
X151294372Y-72330833D01*
X151265871Y-72375180D01*
X151250000Y-72391051D01*
X151250000Y-73176000D01*
X151230315Y-73243039D01*
X151177511Y-73288794D01*
X151126000Y-73300000D01*
X150341052Y-73300000D01*
X150325178Y-73315874D01*
X150263853Y-73349357D01*
X150194162Y-73344370D01*
X150149818Y-73315871D01*
X150133947Y-73300000D01*
X149725000Y-73300000D01*
X149725000Y-74125000D01*
X149225000Y-74125000D01*
X149225000Y-73300000D01*
X148816053Y-73300000D01*
X148800180Y-73315873D01*
X148738856Y-73349357D01*
X148669165Y-73344371D01*
X148624820Y-73315873D01*
X148608946Y-73300000D01*
X147824000Y-73300000D01*
X147756961Y-73280315D01*
X147711206Y-73227511D01*
X147700000Y-73176000D01*
X147700000Y-73082492D01*
X148612500Y-73082492D01*
X148650697Y-73135065D01*
X148696662Y-73150000D01*
X148728338Y-73150000D01*
X148774303Y-73135065D01*
X148812500Y-73082492D01*
X150137500Y-73082492D01*
X150175697Y-73135065D01*
X150221662Y-73150000D01*
X150253338Y-73150000D01*
X150299303Y-73135065D01*
X150337500Y-73082492D01*
X150337500Y-73017508D01*
X150299303Y-72964935D01*
X150253338Y-72950000D01*
X150221662Y-72950000D01*
X150175697Y-72964935D01*
X150137500Y-73017508D01*
X150137500Y-73082492D01*
X148812500Y-73082492D01*
X148812500Y-73017508D01*
X148774303Y-72964935D01*
X148728338Y-72950000D01*
X148696662Y-72950000D01*
X148650697Y-72964935D01*
X148612500Y-73017508D01*
X148612500Y-73082492D01*
X147700000Y-73082492D01*
X147700000Y-72391053D01*
X147684127Y-72375180D01*
X147653992Y-72319992D01*
X147850000Y-72319992D01*
X147888197Y-72372565D01*
X147934162Y-72387500D01*
X147965838Y-72387500D01*
X148011803Y-72372565D01*
X148050000Y-72319992D01*
X148050000Y-72287500D01*
X148303553Y-72287500D01*
X148712500Y-72696447D01*
X149088955Y-72319992D01*
X149375000Y-72319992D01*
X149413197Y-72372565D01*
X149459162Y-72387500D01*
X149490838Y-72387500D01*
X149536803Y-72372565D01*
X149575000Y-72319992D01*
X149575000Y-72287500D01*
X149828553Y-72287500D01*
X150237500Y-72696447D01*
X150613955Y-72319992D01*
X150900000Y-72319992D01*
X150938197Y-72372565D01*
X150984162Y-72387500D01*
X151015838Y-72387500D01*
X151061803Y-72372565D01*
X151100000Y-72319992D01*
X151100000Y-72255008D01*
X151061803Y-72202435D01*
X151015838Y-72187500D01*
X150984162Y-72187500D01*
X150938197Y-72202435D01*
X150900000Y-72255008D01*
X150900000Y-72319992D01*
X150613955Y-72319992D01*
X150646447Y-72287500D01*
X150237500Y-71878553D01*
X149828553Y-72287500D01*
X149575000Y-72287500D01*
X149575000Y-72255008D01*
X149536803Y-72202435D01*
X149490838Y-72187500D01*
X149459162Y-72187500D01*
X149413197Y-72202435D01*
X149375000Y-72255008D01*
X149375000Y-72319992D01*
X149088955Y-72319992D01*
X149121447Y-72287500D01*
X148712500Y-71878553D01*
X148303553Y-72287500D01*
X148050000Y-72287500D01*
X148050000Y-72255008D01*
X148011803Y-72202435D01*
X147965838Y-72187500D01*
X147934162Y-72187500D01*
X147888197Y-72202435D01*
X147850000Y-72255008D01*
X147850000Y-72319992D01*
X147653992Y-72319992D01*
X147650642Y-72313857D01*
X147655626Y-72244165D01*
X147684128Y-72199816D01*
X147700000Y-72183944D01*
X147700000Y-71775000D01*
X146875000Y-71775000D01*
X145350500Y-71775000D01*
X145350500Y-71557492D01*
X148612500Y-71557492D01*
X148650697Y-71610065D01*
X148696662Y-71625000D01*
X148728338Y-71625000D01*
X148774303Y-71610065D01*
X148812500Y-71557492D01*
X150137500Y-71557492D01*
X150175697Y-71610065D01*
X150221662Y-71625000D01*
X150253338Y-71625000D01*
X150299303Y-71610065D01*
X150337500Y-71557492D01*
X150337500Y-71492508D01*
X150299303Y-71439935D01*
X150253338Y-71425000D01*
X150221662Y-71425000D01*
X150175697Y-71439935D01*
X150137500Y-71492508D01*
X150137500Y-71557492D01*
X148812500Y-71557492D01*
X148812500Y-71492508D01*
X148774303Y-71439935D01*
X148728338Y-71425000D01*
X148696662Y-71425000D01*
X148650697Y-71439935D01*
X148612500Y-71492508D01*
X148612500Y-71557492D01*
X145350500Y-71557492D01*
X145350500Y-71275000D01*
X146875000Y-71275000D01*
X147700000Y-71275000D01*
X147700000Y-70866053D01*
X147684127Y-70850180D01*
X147653992Y-70794992D01*
X147850000Y-70794992D01*
X147888197Y-70847565D01*
X147934162Y-70862500D01*
X147965838Y-70862500D01*
X148011803Y-70847565D01*
X148050000Y-70794992D01*
X148050000Y-70762500D01*
X148303553Y-70762500D01*
X148712500Y-71171447D01*
X149088955Y-70794992D01*
X149375000Y-70794992D01*
X149413197Y-70847565D01*
X149459162Y-70862500D01*
X149490838Y-70862500D01*
X149536803Y-70847565D01*
X149575000Y-70794992D01*
X149575000Y-70762500D01*
X149828553Y-70762500D01*
X150237500Y-71171447D01*
X150613955Y-70794992D01*
X150900000Y-70794992D01*
X150938197Y-70847565D01*
X150984162Y-70862500D01*
X151015838Y-70862500D01*
X151061803Y-70847565D01*
X151100000Y-70794992D01*
X151100000Y-70730008D01*
X151061803Y-70677435D01*
X151015838Y-70662500D01*
X150984162Y-70662500D01*
X150938197Y-70677435D01*
X150900000Y-70730008D01*
X150900000Y-70794992D01*
X150613955Y-70794992D01*
X150646447Y-70762500D01*
X150237500Y-70353553D01*
X149828553Y-70762500D01*
X149575000Y-70762500D01*
X149575000Y-70730008D01*
X149536803Y-70677435D01*
X149490838Y-70662500D01*
X149459162Y-70662500D01*
X149413197Y-70677435D01*
X149375000Y-70730008D01*
X149375000Y-70794992D01*
X149088955Y-70794992D01*
X149121447Y-70762500D01*
X148712500Y-70353553D01*
X148303553Y-70762500D01*
X148050000Y-70762500D01*
X148050000Y-70730008D01*
X148011803Y-70677435D01*
X147965838Y-70662500D01*
X147934162Y-70662500D01*
X147888197Y-70677435D01*
X147850000Y-70730008D01*
X147850000Y-70794992D01*
X147653992Y-70794992D01*
X147650642Y-70788857D01*
X147655626Y-70719165D01*
X147684128Y-70674816D01*
X147700000Y-70658944D01*
X147700000Y-70032492D01*
X148612500Y-70032492D01*
X148650697Y-70085065D01*
X148696662Y-70100000D01*
X148728338Y-70100000D01*
X148774303Y-70085065D01*
X148812500Y-70032492D01*
X150137500Y-70032492D01*
X150175697Y-70085065D01*
X150221662Y-70100000D01*
X150253338Y-70100000D01*
X150299303Y-70085065D01*
X150337500Y-70032492D01*
X150337500Y-69967508D01*
X150299303Y-69914935D01*
X150253338Y-69900000D01*
X150221662Y-69900000D01*
X150175697Y-69914935D01*
X150137500Y-69967508D01*
X150137500Y-70032492D01*
X148812500Y-70032492D01*
X148812500Y-69967508D01*
X148774303Y-69914935D01*
X148728338Y-69900000D01*
X148696662Y-69900000D01*
X148650697Y-69914935D01*
X148612500Y-69967508D01*
X148612500Y-70032492D01*
X147700000Y-70032492D01*
X147700000Y-69874000D01*
X147719685Y-69806961D01*
X147772489Y-69761206D01*
X147824000Y-69750000D01*
X148608947Y-69750000D01*
X148608947Y-69749999D01*
X148624819Y-69734128D01*
X148686142Y-69700643D01*
X148755834Y-69705627D01*
X148800181Y-69734128D01*
X148816053Y-69750000D01*
X149225000Y-69750000D01*
X149225000Y-68925000D01*
X149725000Y-68925000D01*
X149725000Y-69750000D01*
X150133947Y-69750000D01*
X150133947Y-69749999D01*
X150149819Y-69734128D01*
X150211142Y-69700643D01*
X150280834Y-69705627D01*
X150325181Y-69734128D01*
X150341053Y-69750000D01*
X151126000Y-69750000D01*
X151193039Y-69769685D01*
X151238794Y-69822489D01*
X151250000Y-69874000D01*
X151250000Y-70658945D01*
X151265871Y-70674816D01*
X151299357Y-70736139D01*
X151294373Y-70805831D01*
X151265874Y-70850179D01*
X151250000Y-70866053D01*
X151250000Y-71275000D01*
X152075000Y-71275000D01*
X152075000Y-69377172D01*
X152074999Y-69377155D01*
X152068598Y-69317627D01*
X152068596Y-69317620D01*
X152018354Y-69182913D01*
X152018350Y-69182906D01*
X151932190Y-69067812D01*
X151932187Y-69067809D01*
X151817093Y-68981649D01*
X151817086Y-68981645D01*
X151682379Y-68931403D01*
X151682372Y-68931401D01*
X151622844Y-68925000D01*
X149725000Y-68925000D01*
X149225000Y-68925000D01*
X147327155Y-68925000D01*
X147267627Y-68931401D01*
X147267620Y-68931403D01*
X147132913Y-68981645D01*
X147132906Y-68981649D01*
X147017812Y-69067809D01*
X147017809Y-69067812D01*
X146931649Y-69182906D01*
X146931645Y-69182913D01*
X146881403Y-69317620D01*
X146881401Y-69317627D01*
X146875000Y-69377155D01*
X146875000Y-71275000D01*
X145350500Y-71275000D01*
X145350500Y-67893428D01*
X145351031Y-67885326D01*
X145355682Y-67849999D01*
X145355682Y-67849998D01*
X145335044Y-67693239D01*
X145335044Y-67693238D01*
X145274536Y-67547159D01*
X145274535Y-67547158D01*
X145274535Y-67547157D01*
X145201463Y-67451927D01*
X145201448Y-67451909D01*
X145178282Y-67421718D01*
X145154320Y-67403331D01*
X145150013Y-67400026D01*
X145143917Y-67394681D01*
X142810327Y-65061092D01*
X142804974Y-65054988D01*
X142783284Y-65026720D01*
X142783282Y-65026719D01*
X142783282Y-65026718D01*
X142691047Y-64955944D01*
X142650353Y-64900902D01*
X142649090Y-64897516D01*
X142636073Y-64862616D01*
X142631090Y-64792925D01*
X142636075Y-64775951D01*
X142648597Y-64742378D01*
X142648598Y-64742372D01*
X142654999Y-64682844D01*
X142655000Y-64682827D01*
X142655000Y-64435000D01*
X140155000Y-64435000D01*
X140155000Y-64682839D01*
X140158700Y-64717242D01*
X140146296Y-64786002D01*
X140098687Y-64837140D01*
X140035411Y-64854500D01*
X140005097Y-64854500D01*
X139938058Y-64834815D01*
X139917416Y-64818181D01*
X139720194Y-64620959D01*
X139455320Y-64356085D01*
X139449980Y-64349995D01*
X139428282Y-64321718D01*
X139302841Y-64225464D01*
X139283655Y-64217517D01*
X139156762Y-64164956D01*
X139156760Y-64164955D01*
X139039361Y-64149500D01*
X139000000Y-64144318D01*
X138964670Y-64148969D01*
X138956572Y-64149500D01*
X137759900Y-64149500D01*
X137692861Y-64129815D01*
X137667750Y-64108472D01*
X137622697Y-64058435D01*
X137622694Y-64058433D01*
X137622693Y-64058432D01*
X137622692Y-64058431D01*
X137497475Y-63967455D01*
X137465297Y-63944076D01*
X137324076Y-63881202D01*
X137287571Y-63864949D01*
X137287569Y-63864948D01*
X137097274Y-63824500D01*
X136902726Y-63824500D01*
X136712430Y-63864948D01*
X136712427Y-63864949D01*
X136550434Y-63937072D01*
X136481184Y-63946356D01*
X136449566Y-63937072D01*
X136287572Y-63864949D01*
X136287569Y-63864948D01*
X136097274Y-63824500D01*
X135902726Y-63824500D01*
X135712430Y-63864948D01*
X135712427Y-63864949D01*
X135550434Y-63937072D01*
X135481184Y-63946356D01*
X135449566Y-63937072D01*
X135287572Y-63864949D01*
X135287569Y-63864948D01*
X135097274Y-63824500D01*
X134902726Y-63824500D01*
X134712429Y-63864948D01*
X134706245Y-63866958D01*
X134705349Y-63864201D01*
X134648341Y-63871511D01*
X134624527Y-63865239D01*
X134532482Y-63830908D01*
X134532483Y-63830908D01*
X134472883Y-63824501D01*
X134472881Y-63824500D01*
X134472873Y-63824500D01*
X134472864Y-63824500D01*
X133527129Y-63824500D01*
X133527123Y-63824501D01*
X133467516Y-63830908D01*
X133332671Y-63881202D01*
X133332664Y-63881206D01*
X133217455Y-63967452D01*
X133217452Y-63967455D01*
X133131206Y-64082664D01*
X133131202Y-64082671D01*
X133080908Y-64217517D01*
X133074501Y-64277116D01*
X133074500Y-64277135D01*
X133074500Y-65067227D01*
X133054815Y-65134266D01*
X133038182Y-65154907D01*
X133020620Y-65172468D01*
X133020621Y-68476151D01*
X134991827Y-68476151D01*
X134996043Y-68471934D01*
X135011512Y-68419255D01*
X135064316Y-68373500D01*
X135115827Y-68362294D01*
X135991300Y-68362294D01*
X136006158Y-68347436D01*
X136067481Y-68313951D01*
X136093839Y-68311117D01*
X136985988Y-68311117D01*
X136985988Y-68016131D01*
X137005673Y-67949092D01*
X137058477Y-67903337D01*
X137109988Y-67892131D01*
X137985153Y-67892131D01*
X137985153Y-65474500D01*
X138004838Y-65407461D01*
X138057642Y-65361706D01*
X138109153Y-65350500D01*
X138699903Y-65350500D01*
X138766942Y-65370185D01*
X138787584Y-65386819D01*
X139249669Y-65848904D01*
X139255020Y-65855005D01*
X139276718Y-65883282D01*
X139321252Y-65917454D01*
X139402159Y-65979536D01*
X139481695Y-66012481D01*
X139548238Y-66040044D01*
X139704999Y-66060683D01*
X139705000Y-66060683D01*
X139740334Y-66056030D01*
X139748434Y-66055500D01*
X140034906Y-66055500D01*
X140101945Y-66075185D01*
X140147700Y-66127989D01*
X140158195Y-66192752D01*
X140154500Y-66227127D01*
X140154500Y-66227128D01*
X140154500Y-66227132D01*
X140154500Y-67222870D01*
X140154501Y-67222876D01*
X140160908Y-67282481D01*
X140173659Y-67316669D01*
X140178642Y-67386361D01*
X140173659Y-67403331D01*
X140160908Y-67437518D01*
X140159221Y-67453214D01*
X140154501Y-67497123D01*
X140154500Y-67497135D01*
X140154500Y-68492870D01*
X140154501Y-68492876D01*
X140160908Y-68552483D01*
X140173658Y-68586667D01*
X140178642Y-68656359D01*
X140173659Y-68673329D01*
X140160909Y-68707516D01*
X140160908Y-68707517D01*
X140154501Y-68767116D01*
X140154501Y-68767123D01*
X140154500Y-68767135D01*
X140154500Y-69762870D01*
X140154501Y-69762876D01*
X140160908Y-69822481D01*
X140173659Y-69856669D01*
X140178642Y-69926361D01*
X140173659Y-69943331D01*
X140160908Y-69977518D01*
X140154998Y-70032492D01*
X140154501Y-70037123D01*
X140154500Y-70037135D01*
X140154500Y-71032870D01*
X140154501Y-71032876D01*
X140160908Y-71092481D01*
X140173659Y-71126669D01*
X140178642Y-71196361D01*
X140173659Y-71213331D01*
X140160908Y-71247518D01*
X140154501Y-71307116D01*
X140154501Y-71307123D01*
X140154500Y-71307135D01*
X140154500Y-72302870D01*
X140154501Y-72302876D01*
X140160908Y-72362483D01*
X140173658Y-72396667D01*
X140178642Y-72466359D01*
X140173659Y-72483329D01*
X140160909Y-72517516D01*
X140160908Y-72517517D01*
X140154501Y-72577116D01*
X140154501Y-72577123D01*
X140154500Y-72577135D01*
X140154500Y-73572870D01*
X140154501Y-73572876D01*
X140160908Y-73632481D01*
X140173659Y-73666669D01*
X140178642Y-73736361D01*
X140173659Y-73753331D01*
X140160908Y-73787518D01*
X140154501Y-73847116D01*
X140154501Y-73847123D01*
X140154500Y-73847135D01*
X140154500Y-74842870D01*
X140154501Y-74842876D01*
X140160908Y-74902481D01*
X140173659Y-74936669D01*
X140178642Y-75006361D01*
X140173659Y-75023331D01*
X140160908Y-75057518D01*
X140158232Y-75082412D01*
X140154501Y-75117123D01*
X140154500Y-75117135D01*
X140154500Y-76112870D01*
X140154501Y-76112876D01*
X140160908Y-76172483D01*
X140173658Y-76206667D01*
X140178642Y-76276359D01*
X140173659Y-76293329D01*
X140160909Y-76327516D01*
X140160908Y-76327517D01*
X140156511Y-76368422D01*
X140154501Y-76387123D01*
X140154500Y-76387135D01*
X140154500Y-77382870D01*
X140154501Y-77382876D01*
X140160908Y-77442481D01*
X140173659Y-77476669D01*
X140178642Y-77546361D01*
X140173659Y-77563331D01*
X140160908Y-77597518D01*
X140158195Y-77622758D01*
X140154501Y-77657123D01*
X140154500Y-77657135D01*
X140154500Y-78652870D01*
X140154501Y-78652876D01*
X140160908Y-78712483D01*
X140173658Y-78746667D01*
X140178642Y-78816359D01*
X140173659Y-78833329D01*
X140160909Y-78867516D01*
X140160908Y-78867517D01*
X140154501Y-78927116D01*
X140154501Y-78927123D01*
X140154500Y-78927135D01*
X140154500Y-79922870D01*
X140154501Y-79922873D01*
X140160908Y-79982481D01*
X140173659Y-80016669D01*
X140178642Y-80086361D01*
X140173659Y-80103331D01*
X140160908Y-80137518D01*
X140154501Y-80197117D01*
X140154500Y-80197127D01*
X140154500Y-80570750D01*
X140154501Y-80820500D01*
X140134817Y-80887539D01*
X140082013Y-80933294D01*
X140030501Y-80944500D01*
X138693626Y-80944500D01*
X138626587Y-80924815D01*
X138605945Y-80908181D01*
X138351404Y-80653640D01*
X138317919Y-80592317D01*
X138322903Y-80522625D01*
X138364775Y-80466692D01*
X138373099Y-80460974D01*
X138502262Y-80379816D01*
X138629816Y-80252262D01*
X138725789Y-80099522D01*
X138785368Y-79929255D01*
X138786087Y-79922873D01*
X138805565Y-79750003D01*
X138805565Y-79749996D01*
X138785369Y-79570750D01*
X138785368Y-79570745D01*
X138765468Y-79513875D01*
X138725789Y-79400478D01*
X138724696Y-79398739D01*
X138686164Y-79337416D01*
X138629816Y-79247738D01*
X138502262Y-79120184D01*
X138349521Y-79024210D01*
X138179249Y-78964630D01*
X138092330Y-78954837D01*
X138027916Y-78927770D01*
X138018533Y-78919298D01*
X137004235Y-77905000D01*
X135955320Y-76856085D01*
X135949979Y-76849994D01*
X135928282Y-76821718D01*
X135802841Y-76725464D01*
X135791460Y-76720750D01*
X135656762Y-76664956D01*
X135656760Y-76664955D01*
X135539361Y-76649500D01*
X135500000Y-76644318D01*
X135464670Y-76648969D01*
X135456572Y-76649500D01*
X133879213Y-76649500D01*
X133871114Y-76648969D01*
X133835785Y-76644318D01*
X133796424Y-76649500D01*
X133679024Y-76664955D01*
X133679022Y-76664956D01*
X133532942Y-76725464D01*
X133407504Y-76821716D01*
X133385804Y-76849994D01*
X133380453Y-76856096D01*
X128506096Y-81730453D01*
X128499994Y-81735804D01*
X128471716Y-81757503D01*
X128401794Y-81848630D01*
X128375463Y-81882945D01*
X128375462Y-81882947D01*
X128314956Y-82029022D01*
X128314955Y-82029024D01*
X128294318Y-82185783D01*
X128294318Y-82185784D01*
X128298969Y-82221111D01*
X128299500Y-82229213D01*
X128299500Y-121856571D01*
X128298969Y-121864673D01*
X128294318Y-121899999D01*
X128294318Y-121900000D01*
X128299500Y-121939360D01*
X128314955Y-122056760D01*
X128314956Y-122056762D01*
X128375464Y-122202841D01*
X128471718Y-122328282D01*
X128499995Y-122349980D01*
X128506085Y-122355320D01*
X129801240Y-123650476D01*
X130169298Y-124018534D01*
X130202783Y-124079857D01*
X130204837Y-124092331D01*
X130214630Y-124179249D01*
X130274210Y-124349521D01*
X130306229Y-124400478D01*
X130370184Y-124502262D01*
X130497738Y-124629816D01*
X130650478Y-124725789D01*
X130820745Y-124785368D01*
X130820750Y-124785369D01*
X130999996Y-124805565D01*
X131000000Y-124805565D01*
X131000004Y-124805565D01*
X131179249Y-124785369D01*
X131179252Y-124785368D01*
X131179255Y-124785368D01*
X131349522Y-124725789D01*
X131434026Y-124672691D01*
X131501264Y-124653690D01*
X131565973Y-124672691D01*
X131650475Y-124725788D01*
X131820745Y-124785368D01*
X131820750Y-124785369D01*
X131999996Y-124805565D01*
X132000000Y-124805565D01*
X132000004Y-124805565D01*
X132179249Y-124785369D01*
X132179252Y-124785368D01*
X132179255Y-124785368D01*
X132349522Y-124725789D01*
X132502262Y-124629816D01*
X132629816Y-124502262D01*
X132725789Y-124349522D01*
X132785368Y-124179255D01*
X132795162Y-124092331D01*
X132805565Y-124000003D01*
X132805565Y-123999996D01*
X132785369Y-123820750D01*
X132785368Y-123820745D01*
X132725788Y-123650476D01*
X132629813Y-123497734D01*
X132627550Y-123494896D01*
X132626659Y-123492715D01*
X132626111Y-123491842D01*
X132626264Y-123491745D01*
X132601144Y-123430209D01*
X132600500Y-123417587D01*
X132600500Y-120749097D01*
X132620185Y-120682058D01*
X132672989Y-120636303D01*
X132742147Y-120626359D01*
X132805703Y-120655384D01*
X132812181Y-120661416D01*
X136919298Y-124768533D01*
X136952783Y-124829856D01*
X136954837Y-124842330D01*
X136964630Y-124929249D01*
X137024210Y-125099521D01*
X137120183Y-125252262D01*
X137120184Y-125252262D01*
X137247738Y-125379816D01*
X137400478Y-125475789D01*
X137532710Y-125522059D01*
X137570745Y-125535368D01*
X137570750Y-125535369D01*
X137749996Y-125555565D01*
X137750000Y-125555565D01*
X137750004Y-125555565D01*
X137929249Y-125535369D01*
X137929252Y-125535368D01*
X137929255Y-125535368D01*
X138099522Y-125475789D01*
X138252262Y-125379816D01*
X138379816Y-125252262D01*
X138475789Y-125099522D01*
X138535368Y-124929255D01*
X138545162Y-124842330D01*
X138555565Y-124750003D01*
X138555565Y-124749996D01*
X138535369Y-124570750D01*
X138535368Y-124570745D01*
X138475788Y-124400476D01*
X138379815Y-124247737D01*
X138252262Y-124120184D01*
X138099521Y-124024210D01*
X137929249Y-123964630D01*
X137842330Y-123954837D01*
X137777916Y-123927770D01*
X137768533Y-123919298D01*
X133136819Y-119287584D01*
X133103334Y-119226261D01*
X133100500Y-119199903D01*
X133100500Y-115100001D01*
X133100499Y-109171012D01*
X133120184Y-109103977D01*
X133172988Y-109058222D01*
X133237107Y-109047659D01*
X133241960Y-109048155D01*
X133249265Y-109049999D01*
X133256855Y-109049999D01*
X133263166Y-109050320D01*
X133273464Y-109051372D01*
X133281420Y-109049999D01*
X135434999Y-109049999D01*
X135435000Y-109049998D01*
X135435000Y-106525000D01*
X135935000Y-106525000D01*
X135935000Y-109049999D01*
X138210000Y-109049999D01*
X138210000Y-106525000D01*
X138710000Y-106525000D01*
X138710000Y-109049999D01*
X140984999Y-109049999D01*
X140985000Y-109049998D01*
X140985000Y-106525000D01*
X141485000Y-106525000D01*
X141485000Y-109049999D01*
X143659972Y-109049999D01*
X143659986Y-109049998D01*
X143762697Y-109039505D01*
X143929119Y-108984358D01*
X143929124Y-108984356D01*
X144078345Y-108892315D01*
X144202315Y-108768345D01*
X144294356Y-108619124D01*
X144294358Y-108619119D01*
X144349505Y-108452697D01*
X144349506Y-108452690D01*
X144359999Y-108349986D01*
X144360000Y-108349973D01*
X144360000Y-106525000D01*
X141485000Y-106525000D01*
X140985000Y-106525000D01*
X138710000Y-106525000D01*
X138210000Y-106525000D01*
X135935000Y-106525000D01*
X135435000Y-106525000D01*
X135435000Y-101675000D01*
X135935000Y-101675000D01*
X135935000Y-106025000D01*
X138210000Y-106025000D01*
X138210000Y-104100000D01*
X138710000Y-104100000D01*
X138710000Y-106025000D01*
X140985000Y-106025000D01*
X140985000Y-104100000D01*
X141485000Y-104100000D01*
X141485000Y-106025000D01*
X144359999Y-106025000D01*
X144359999Y-104100000D01*
X141485000Y-104100000D01*
X140985000Y-104100000D01*
X138710000Y-104100000D01*
X138210000Y-104100000D01*
X138210000Y-104000000D01*
X145050001Y-104000000D01*
X145050001Y-104274986D01*
X145060494Y-104377697D01*
X145115641Y-104544119D01*
X145115643Y-104544124D01*
X145207684Y-104693345D01*
X145331654Y-104817315D01*
X145480875Y-104909356D01*
X145480880Y-104909358D01*
X145647302Y-104964505D01*
X145647309Y-104964506D01*
X145750019Y-104974999D01*
X145799999Y-104974998D01*
X145800000Y-104974998D01*
X145800000Y-104000000D01*
X145050001Y-104000000D01*
X138210000Y-104000000D01*
X138210000Y-101675000D01*
X138710000Y-101675000D01*
X138710000Y-103600000D01*
X140985000Y-103600000D01*
X140985000Y-101675000D01*
X141485000Y-101675000D01*
X141485000Y-103600000D01*
X144359999Y-103600000D01*
X144359999Y-103503023D01*
X144360000Y-103503002D01*
X144360000Y-103500000D01*
X145050000Y-103500000D01*
X145800000Y-103500000D01*
X145800000Y-102525000D01*
X145799999Y-102524999D01*
X145750029Y-102525000D01*
X145750011Y-102525001D01*
X145647302Y-102535494D01*
X145480880Y-102590641D01*
X145480875Y-102590643D01*
X145331654Y-102682684D01*
X145207684Y-102806654D01*
X145115643Y-102955875D01*
X145115641Y-102955880D01*
X145060494Y-103122302D01*
X145060493Y-103122309D01*
X145050000Y-103225013D01*
X145050000Y-103500000D01*
X144360000Y-103500000D01*
X144360000Y-101675000D01*
X141485000Y-101675000D01*
X140985000Y-101675000D01*
X138710000Y-101675000D01*
X138210000Y-101675000D01*
X135935000Y-101675000D01*
X135435000Y-101675000D01*
X135435000Y-98650000D01*
X135935000Y-98650000D01*
X135935000Y-101175000D01*
X138210000Y-101175000D01*
X138210000Y-98650000D01*
X138710000Y-98650000D01*
X138710000Y-101175000D01*
X140985000Y-101175000D01*
X140985000Y-98650000D01*
X141485000Y-98650000D01*
X141485000Y-101175000D01*
X144359999Y-101175000D01*
X144359999Y-100500000D01*
X145050001Y-100500000D01*
X145050001Y-100774986D01*
X145060494Y-100877697D01*
X145115641Y-101044119D01*
X145115643Y-101044124D01*
X145207684Y-101193345D01*
X145331654Y-101317315D01*
X145480875Y-101409356D01*
X145480880Y-101409358D01*
X145647302Y-101464505D01*
X145647309Y-101464506D01*
X145750019Y-101474999D01*
X145799999Y-101474998D01*
X145800000Y-101474998D01*
X145800000Y-100500000D01*
X145050001Y-100500000D01*
X144359999Y-100500000D01*
X144359999Y-100000000D01*
X145050000Y-100000000D01*
X145800000Y-100000000D01*
X145800000Y-99025000D01*
X145799999Y-99024999D01*
X145750029Y-99025000D01*
X145750011Y-99025001D01*
X145647302Y-99035494D01*
X145480880Y-99090641D01*
X145480875Y-99090643D01*
X145331654Y-99182684D01*
X145207684Y-99306654D01*
X145115643Y-99455875D01*
X145115641Y-99455880D01*
X145060494Y-99622302D01*
X145060493Y-99622309D01*
X145050000Y-99725013D01*
X145050000Y-100000000D01*
X144359999Y-100000000D01*
X144359999Y-99350028D01*
X144359998Y-99350013D01*
X144349505Y-99247302D01*
X144294358Y-99080880D01*
X144294356Y-99080875D01*
X144202315Y-98931654D01*
X144078345Y-98807684D01*
X143929124Y-98715643D01*
X143929119Y-98715641D01*
X143762697Y-98660494D01*
X143762690Y-98660493D01*
X143659986Y-98650000D01*
X141485000Y-98650000D01*
X140985000Y-98650000D01*
X138710000Y-98650000D01*
X138210000Y-98650000D01*
X135935000Y-98650000D01*
X135435000Y-98650000D01*
X133260028Y-98650000D01*
X133260008Y-98650002D01*
X133237100Y-98652342D01*
X133168408Y-98639572D01*
X133117524Y-98591691D01*
X133100500Y-98528984D01*
X133100500Y-97489360D01*
X133100500Y-97450000D01*
X141275001Y-97450000D01*
X141275001Y-97499986D01*
X141285494Y-97602697D01*
X141340641Y-97769119D01*
X141340643Y-97769124D01*
X141432684Y-97918345D01*
X141556654Y-98042315D01*
X141705875Y-98134356D01*
X141705880Y-98134358D01*
X141872302Y-98189505D01*
X141872309Y-98189506D01*
X141975019Y-98199999D01*
X142249999Y-98199999D01*
X142250000Y-98199998D01*
X142250000Y-97450000D01*
X142750000Y-97450000D01*
X142750000Y-98199999D01*
X143024972Y-98199999D01*
X143024986Y-98199998D01*
X143127697Y-98189505D01*
X143294119Y-98134358D01*
X143294124Y-98134356D01*
X143443345Y-98042315D01*
X143567315Y-97918345D01*
X143659356Y-97769124D01*
X143659358Y-97769119D01*
X143714505Y-97602697D01*
X143714506Y-97602690D01*
X143724999Y-97499986D01*
X143725000Y-97499973D01*
X143725000Y-97450000D01*
X142750000Y-97450000D01*
X142250000Y-97450000D01*
X141275001Y-97450000D01*
X133100500Y-97450000D01*
X133100499Y-96397275D01*
X133120184Y-96330240D01*
X133136809Y-96309608D01*
X137133169Y-92313248D01*
X137194488Y-92279766D01*
X137264180Y-92284750D01*
X137320113Y-92326622D01*
X137338552Y-92361927D01*
X137390642Y-92519121D01*
X137390643Y-92519124D01*
X137482684Y-92668345D01*
X137606654Y-92792315D01*
X137755875Y-92884356D01*
X137755880Y-92884358D01*
X137922302Y-92939505D01*
X137922309Y-92939506D01*
X138025019Y-92949999D01*
X138087499Y-92949998D01*
X138087500Y-92949998D01*
X138087500Y-91624000D01*
X138107185Y-91556961D01*
X138159989Y-91511206D01*
X138211500Y-91500000D01*
X138463500Y-91500000D01*
X138530539Y-91519685D01*
X138576294Y-91572489D01*
X138587500Y-91624000D01*
X138587500Y-92949999D01*
X138649972Y-92949999D01*
X138649986Y-92949998D01*
X138752697Y-92939505D01*
X138919119Y-92884358D01*
X138919124Y-92884356D01*
X139068342Y-92792317D01*
X139161964Y-92698695D01*
X139223287Y-92665210D01*
X139292979Y-92670194D01*
X139337327Y-92698695D01*
X139431344Y-92792712D01*
X139580666Y-92884814D01*
X139747203Y-92939999D01*
X139849991Y-92950500D01*
X140475008Y-92950499D01*
X140475016Y-92950498D01*
X140475019Y-92950498D01*
X140553754Y-92942455D01*
X140577797Y-92939999D01*
X140744334Y-92884814D01*
X140893656Y-92792712D01*
X141017712Y-92668656D01*
X141109814Y-92519334D01*
X141164999Y-92352797D01*
X141175500Y-92250009D01*
X141175499Y-91249992D01*
X141164999Y-91147203D01*
X141109814Y-90980666D01*
X141017712Y-90831344D01*
X140893656Y-90707288D01*
X140753266Y-90620695D01*
X140744336Y-90615187D01*
X140744331Y-90615185D01*
X140728122Y-90609814D01*
X140577797Y-90560001D01*
X140577795Y-90560000D01*
X140475010Y-90549500D01*
X139849998Y-90549500D01*
X139849980Y-90549501D01*
X139747203Y-90560000D01*
X139747200Y-90560001D01*
X139580668Y-90615185D01*
X139580663Y-90615187D01*
X139431345Y-90707287D01*
X139337327Y-90801305D01*
X139276003Y-90834789D01*
X139206312Y-90829805D01*
X139161965Y-90801304D01*
X139068344Y-90707683D01*
X139068340Y-90707680D01*
X138997954Y-90664265D01*
X138951229Y-90612317D01*
X138940008Y-90543355D01*
X138967851Y-90479273D01*
X138975348Y-90471069D01*
X140972099Y-88474319D01*
X141033422Y-88440834D01*
X141059780Y-88438000D01*
X142250903Y-88438000D01*
X142317942Y-88457685D01*
X142363697Y-88510489D01*
X142373641Y-88579647D01*
X142344616Y-88643203D01*
X142338603Y-88649660D01*
X142211908Y-88776356D01*
X142106095Y-88882168D01*
X142099993Y-88887520D01*
X142071719Y-88909216D01*
X142047550Y-88940715D01*
X141975461Y-89034662D01*
X141975461Y-89034663D01*
X141914957Y-89180734D01*
X141914955Y-89180739D01*
X141894318Y-89337498D01*
X141894318Y-89337500D01*
X141898969Y-89372826D01*
X141899500Y-89380927D01*
X141899500Y-94211414D01*
X141879815Y-94278453D01*
X141827011Y-94324208D01*
X141814505Y-94329120D01*
X141705666Y-94365186D01*
X141705663Y-94365187D01*
X141556342Y-94457289D01*
X141432289Y-94581342D01*
X141340187Y-94730663D01*
X141340185Y-94730668D01*
X141319858Y-94792011D01*
X141285001Y-94897203D01*
X141285001Y-94897204D01*
X141285000Y-94897204D01*
X141274500Y-94999983D01*
X141274500Y-95600001D01*
X141274501Y-95600019D01*
X141285000Y-95702796D01*
X141285001Y-95702799D01*
X141340185Y-95869331D01*
X141340187Y-95869336D01*
X141343989Y-95875500D01*
X141432288Y-96018656D01*
X141556344Y-96142712D01*
X141559628Y-96144737D01*
X141559653Y-96144753D01*
X141561445Y-96146746D01*
X141562011Y-96147193D01*
X141561934Y-96147289D01*
X141606379Y-96196699D01*
X141617603Y-96265661D01*
X141589761Y-96329744D01*
X141559665Y-96355826D01*
X141556660Y-96357679D01*
X141556655Y-96357683D01*
X141432684Y-96481654D01*
X141340643Y-96630875D01*
X141340641Y-96630880D01*
X141285494Y-96797302D01*
X141285493Y-96797309D01*
X141275000Y-96900013D01*
X141275000Y-96950000D01*
X143724999Y-96950000D01*
X143724999Y-96900028D01*
X143724998Y-96900013D01*
X143714505Y-96797302D01*
X143659358Y-96630880D01*
X143659356Y-96630875D01*
X143567315Y-96481654D01*
X143443344Y-96357683D01*
X143443341Y-96357681D01*
X143440339Y-96355829D01*
X143438713Y-96354021D01*
X143437677Y-96353202D01*
X143437817Y-96353024D01*
X143393617Y-96303880D01*
X143382397Y-96234917D01*
X143410243Y-96170836D01*
X143440344Y-96144754D01*
X143443656Y-96142712D01*
X143567712Y-96018656D01*
X143659814Y-95869334D01*
X143714999Y-95702797D01*
X143725500Y-95600009D01*
X143725499Y-94999992D01*
X143721924Y-94964999D01*
X143714999Y-94897203D01*
X143714998Y-94897200D01*
X143698723Y-94848086D01*
X143659814Y-94730666D01*
X143567712Y-94581344D01*
X143443656Y-94457288D01*
X143294334Y-94365186D01*
X143233301Y-94344961D01*
X143185495Y-94329120D01*
X143128050Y-94289347D01*
X143101228Y-94224831D01*
X143100500Y-94211414D01*
X143100500Y-90738401D01*
X143120185Y-90671362D01*
X143172989Y-90625607D01*
X143242147Y-90615663D01*
X143263499Y-90620693D01*
X143397203Y-90664999D01*
X143499991Y-90675500D01*
X143774902Y-90675499D01*
X143841941Y-90695183D01*
X143862583Y-90711818D01*
X144169298Y-91018533D01*
X144202783Y-91079856D01*
X144204837Y-91092330D01*
X144214630Y-91179249D01*
X144274210Y-91349521D01*
X144342164Y-91457669D01*
X144370184Y-91502262D01*
X144497738Y-91629816D01*
X144650478Y-91725789D01*
X144695798Y-91741647D01*
X144820745Y-91785368D01*
X144820750Y-91785369D01*
X144999996Y-91805565D01*
X145000000Y-91805565D01*
X145000004Y-91805565D01*
X145179246Y-91785369D01*
X145179245Y-91785369D01*
X145179255Y-91785368D01*
X145189003Y-91781956D01*
X145229954Y-91775000D01*
X145650500Y-91775000D01*
X145717539Y-91794685D01*
X145763294Y-91847489D01*
X145774500Y-91898999D01*
X145774501Y-92000999D01*
X145754817Y-92068038D01*
X145702014Y-92113794D01*
X145650501Y-92125000D01*
X145125000Y-92125000D01*
X145125000Y-92247844D01*
X145131401Y-92307372D01*
X145131403Y-92307379D01*
X145181645Y-92442086D01*
X145181649Y-92442093D01*
X145267809Y-92557187D01*
X145267812Y-92557190D01*
X145390011Y-92648669D01*
X145388365Y-92650866D01*
X145427782Y-92690276D01*
X145442640Y-92758547D01*
X145418229Y-92824014D01*
X145388766Y-92849548D01*
X145389769Y-92850888D01*
X145267455Y-92942452D01*
X145267452Y-92942455D01*
X145181206Y-93057664D01*
X145181202Y-93057671D01*
X145130910Y-93192513D01*
X145130909Y-93192517D01*
X145124500Y-93252127D01*
X145124500Y-93252134D01*
X145124500Y-93252135D01*
X145124500Y-93847870D01*
X145124501Y-93847876D01*
X145130908Y-93907483D01*
X145181203Y-94042330D01*
X145184329Y-94048054D01*
X145199500Y-94107486D01*
X145199500Y-94921571D01*
X145198969Y-94929673D01*
X145194318Y-94964999D01*
X145194318Y-94965000D01*
X145199500Y-95004360D01*
X145214955Y-95121760D01*
X145214956Y-95121762D01*
X145225595Y-95147448D01*
X145275464Y-95267841D01*
X145371718Y-95393282D01*
X145399995Y-95414980D01*
X145406085Y-95420320D01*
X145520808Y-95535043D01*
X145571609Y-95585844D01*
X145605094Y-95647167D01*
X145606867Y-95657341D01*
X145619954Y-95756753D01*
X145619956Y-95756762D01*
X145669138Y-95875499D01*
X145680464Y-95902841D01*
X145776718Y-96028282D01*
X145902159Y-96124536D01*
X146048238Y-96185044D01*
X146165639Y-96200500D01*
X146504360Y-96200499D01*
X146504361Y-96200499D01*
X146538832Y-96195961D01*
X146621762Y-96185044D01*
X146621771Y-96185040D01*
X146623879Y-96184476D01*
X146626076Y-96184476D01*
X146629821Y-96183983D01*
X146629886Y-96184476D01*
X146680183Y-96184476D01*
X146680312Y-96183495D01*
X146687763Y-96184476D01*
X146688072Y-96184476D01*
X146688370Y-96184555D01*
X146775000Y-96195961D01*
X146775000Y-96180192D01*
X146794685Y-96113153D01*
X146823511Y-96081818D01*
X146893282Y-96028282D01*
X146952625Y-95950943D01*
X147009052Y-95909742D01*
X147078798Y-95905587D01*
X147139718Y-95939799D01*
X147172471Y-96001516D01*
X147175000Y-96026431D01*
X147175000Y-96195959D01*
X147175001Y-96195960D01*
X147209316Y-96191443D01*
X147278352Y-96202209D01*
X147330607Y-96248590D01*
X147349500Y-96314382D01*
X147349500Y-99040201D01*
X147329815Y-99107240D01*
X147290598Y-99145739D01*
X147231344Y-99182287D01*
X147107288Y-99306343D01*
X147107283Y-99306349D01*
X147105241Y-99309661D01*
X147103247Y-99311453D01*
X147102807Y-99312011D01*
X147102711Y-99311935D01*
X147053291Y-99356383D01*
X146984328Y-99367602D01*
X146920247Y-99339755D01*
X146894168Y-99309656D01*
X146892319Y-99306659D01*
X146892316Y-99306655D01*
X146768345Y-99182684D01*
X146619124Y-99090643D01*
X146619119Y-99090641D01*
X146452697Y-99035494D01*
X146452690Y-99035493D01*
X146349986Y-99025000D01*
X146300000Y-99025000D01*
X146300000Y-101474999D01*
X146349972Y-101474999D01*
X146349986Y-101474998D01*
X146452697Y-101464505D01*
X146619119Y-101409358D01*
X146619124Y-101409356D01*
X146768345Y-101317315D01*
X146892318Y-101193342D01*
X146894165Y-101190348D01*
X146895969Y-101188724D01*
X146896798Y-101187677D01*
X146896976Y-101187818D01*
X146946110Y-101143621D01*
X147015073Y-101132396D01*
X147079156Y-101160236D01*
X147105243Y-101190341D01*
X147107288Y-101193656D01*
X147231344Y-101317712D01*
X147380666Y-101409814D01*
X147547203Y-101464999D01*
X147649991Y-101475500D01*
X148250008Y-101475499D01*
X148250016Y-101475498D01*
X148250019Y-101475498D01*
X148306302Y-101469748D01*
X148352797Y-101464999D01*
X148519334Y-101409814D01*
X148668656Y-101317712D01*
X148792712Y-101193656D01*
X148884814Y-101044334D01*
X148939999Y-100877797D01*
X148950500Y-100775009D01*
X148950499Y-100705426D01*
X148970183Y-100638388D01*
X148986813Y-100617750D01*
X153437821Y-96166742D01*
X153499142Y-96133259D01*
X153568834Y-96138243D01*
X153624767Y-96180115D01*
X153649184Y-96245579D01*
X153649500Y-96254425D01*
X153649500Y-97149902D01*
X153629815Y-97216941D01*
X153613181Y-97237583D01*
X148360861Y-102489902D01*
X148299538Y-102523387D01*
X148260582Y-102525579D01*
X148250028Y-102524501D01*
X148250012Y-102524500D01*
X148250009Y-102524500D01*
X148250004Y-102524500D01*
X147649998Y-102524500D01*
X147649980Y-102524501D01*
X147547203Y-102535000D01*
X147547200Y-102535001D01*
X147380668Y-102590185D01*
X147380663Y-102590187D01*
X147231342Y-102682289D01*
X147107288Y-102806343D01*
X147107283Y-102806349D01*
X147105241Y-102809661D01*
X147103247Y-102811453D01*
X147102807Y-102812011D01*
X147102711Y-102811935D01*
X147053291Y-102856383D01*
X146984328Y-102867602D01*
X146920247Y-102839755D01*
X146894168Y-102809656D01*
X146892319Y-102806659D01*
X146892316Y-102806655D01*
X146768345Y-102682684D01*
X146619124Y-102590643D01*
X146619119Y-102590641D01*
X146452697Y-102535494D01*
X146452690Y-102535493D01*
X146349986Y-102525000D01*
X146300000Y-102525000D01*
X146300000Y-104974999D01*
X146349972Y-104974999D01*
X146349986Y-104974998D01*
X146452697Y-104964505D01*
X146619119Y-104909358D01*
X146619124Y-104909356D01*
X146768345Y-104817315D01*
X146892318Y-104693342D01*
X146894165Y-104690348D01*
X146895969Y-104688724D01*
X146896798Y-104687677D01*
X146896976Y-104687818D01*
X146946110Y-104643621D01*
X147015073Y-104632396D01*
X147079156Y-104660236D01*
X147105243Y-104690341D01*
X147107288Y-104693656D01*
X147231344Y-104817712D01*
X147380666Y-104909814D01*
X147547203Y-104964999D01*
X147649991Y-104975500D01*
X148250008Y-104975499D01*
X148250016Y-104975498D01*
X148250019Y-104975498D01*
X148306302Y-104969748D01*
X148352797Y-104964999D01*
X148519334Y-104909814D01*
X148668656Y-104817712D01*
X148792712Y-104693656D01*
X148884814Y-104544334D01*
X148939999Y-104377797D01*
X148950500Y-104275009D01*
X148950499Y-103650095D01*
X148970183Y-103583057D01*
X148986813Y-103562420D01*
X154643916Y-97905318D01*
X154650006Y-97899977D01*
X154678282Y-97878282D01*
X154774536Y-97752841D01*
X154835044Y-97606762D01*
X154850500Y-97489361D01*
X154855682Y-97450000D01*
X154851030Y-97414669D01*
X154850500Y-97406571D01*
X154850500Y-95985853D01*
X154870185Y-95918814D01*
X154922989Y-95873059D01*
X154958309Y-95862915D01*
X154975236Y-95860687D01*
X154975238Y-95860685D01*
X154983298Y-95859625D01*
X154983700Y-95862685D01*
X155016305Y-95862676D01*
X155016707Y-95859626D01*
X155024763Y-95860686D01*
X155024764Y-95860687D01*
X155137280Y-95875500D01*
X155137287Y-95875500D01*
X155362713Y-95875500D01*
X155362720Y-95875500D01*
X155475236Y-95860687D01*
X155615233Y-95802698D01*
X155735451Y-95710451D01*
X155827698Y-95590233D01*
X155885687Y-95450236D01*
X155900500Y-95337720D01*
X155900500Y-95024499D01*
X155920185Y-94957461D01*
X155972989Y-94911706D01*
X156024500Y-94900500D01*
X156337713Y-94900500D01*
X156337720Y-94900500D01*
X156450236Y-94885687D01*
X156590233Y-94827698D01*
X156710451Y-94735451D01*
X156802698Y-94615233D01*
X156860687Y-94475236D01*
X156875500Y-94362720D01*
X156875500Y-94137280D01*
X156860687Y-94024764D01*
X156860686Y-94024763D01*
X156859626Y-94016707D01*
X156862676Y-94016305D01*
X156862685Y-93983697D01*
X156859626Y-93983295D01*
X156862868Y-93958668D01*
X156875500Y-93862720D01*
X156875500Y-93637280D01*
X156860687Y-93524764D01*
X156860686Y-93524763D01*
X156859626Y-93516705D01*
X156862688Y-93516301D01*
X156862688Y-93483698D01*
X156859626Y-93483295D01*
X156863308Y-93455328D01*
X156875500Y-93362720D01*
X156875500Y-93137280D01*
X156860687Y-93024764D01*
X156860686Y-93024763D01*
X156859626Y-93016707D01*
X156862676Y-93016305D01*
X156862685Y-92983697D01*
X156859626Y-92983295D01*
X156860687Y-92975236D01*
X156875500Y-92862720D01*
X156875500Y-92798412D01*
X156895185Y-92731373D01*
X156947989Y-92685618D01*
X157017147Y-92675674D01*
X157080703Y-92704699D01*
X157087181Y-92710731D01*
X157367262Y-92990812D01*
X157400747Y-93052135D01*
X157402520Y-93062307D01*
X157412071Y-93134851D01*
X157413175Y-93143237D01*
X157414956Y-93156760D01*
X157414956Y-93156762D01*
X157454457Y-93252127D01*
X157475464Y-93302841D01*
X157571718Y-93428282D01*
X157599995Y-93449980D01*
X157606085Y-93455320D01*
X157750126Y-93599361D01*
X157777221Y-93626456D01*
X157810706Y-93687779D01*
X157812479Y-93697952D01*
X157814954Y-93716757D01*
X157815525Y-93718886D01*
X157815525Y-93721089D01*
X157816016Y-93724819D01*
X157815525Y-93724883D01*
X157815526Y-93775184D01*
X157816505Y-93775313D01*
X157815526Y-93782741D01*
X157815527Y-93783060D01*
X157815444Y-93783367D01*
X157804038Y-93870000D01*
X157819807Y-93870000D01*
X157886846Y-93889685D01*
X157918181Y-93918511D01*
X157971718Y-93988282D01*
X158049056Y-94047625D01*
X158090257Y-94104052D01*
X158094412Y-94173798D01*
X158060199Y-94234719D01*
X157998482Y-94267471D01*
X157973568Y-94270000D01*
X157804041Y-94270000D01*
X157804039Y-94270001D01*
X157815442Y-94356627D01*
X157815444Y-94356633D01*
X157875899Y-94502585D01*
X157972075Y-94627924D01*
X158097414Y-94724100D01*
X158243366Y-94784555D01*
X158243372Y-94784557D01*
X158299998Y-94792011D01*
X158300000Y-94792010D01*
X158300000Y-94284499D01*
X158319685Y-94217460D01*
X158372489Y-94171705D01*
X158423996Y-94160499D01*
X158576000Y-94160499D01*
X158643039Y-94180184D01*
X158688794Y-94232988D01*
X158700000Y-94284499D01*
X158700000Y-94792010D01*
X158700001Y-94792011D01*
X158756627Y-94784557D01*
X158756633Y-94784555D01*
X158902585Y-94724100D01*
X159027924Y-94627924D01*
X159124100Y-94502586D01*
X159184554Y-94356634D01*
X159184555Y-94356630D01*
X159195961Y-94270000D01*
X159026432Y-94270000D01*
X158959393Y-94250315D01*
X158913638Y-94197511D01*
X158903694Y-94128353D01*
X158932719Y-94064797D01*
X158950941Y-94047627D01*
X159028282Y-93988282D01*
X159081818Y-93918512D01*
X159138245Y-93877311D01*
X159180193Y-93870000D01*
X159195959Y-93870000D01*
X159195960Y-93869998D01*
X159184557Y-93783375D01*
X159184478Y-93783078D01*
X159184477Y-93782769D01*
X159183496Y-93775310D01*
X159184477Y-93775180D01*
X159184477Y-93724885D01*
X159183983Y-93724820D01*
X159184477Y-93721067D01*
X159184477Y-93718875D01*
X159185040Y-93716771D01*
X159185044Y-93716762D01*
X159200500Y-93599361D01*
X159200499Y-93260640D01*
X159200499Y-93260636D01*
X159185046Y-93143246D01*
X159185044Y-93143241D01*
X159185044Y-93143238D01*
X159124536Y-92997159D01*
X159028282Y-92871718D01*
X158902841Y-92775464D01*
X158756762Y-92714956D01*
X158724670Y-92710731D01*
X158687962Y-92705898D01*
X158624065Y-92677631D01*
X158589125Y-92624658D01*
X158588154Y-92625061D01*
X158586066Y-92620020D01*
X158585595Y-92619306D01*
X158585198Y-92617925D01*
X158524538Y-92471478D01*
X158524537Y-92471477D01*
X158524536Y-92471474D01*
X158465332Y-92394318D01*
X158428282Y-92346033D01*
X158400005Y-92324335D01*
X158393904Y-92318984D01*
X155931013Y-89856093D01*
X155925659Y-89849988D01*
X155903971Y-89821722D01*
X155903968Y-89821720D01*
X155903967Y-89821718D01*
X155778526Y-89725464D01*
X155632447Y-89664956D01*
X155632445Y-89664955D01*
X155515046Y-89649500D01*
X155475685Y-89644318D01*
X155440355Y-89648969D01*
X155432257Y-89649500D01*
X155038098Y-89649500D01*
X155029999Y-89648969D01*
X154994670Y-89644318D01*
X154955309Y-89649500D01*
X154837909Y-89664955D01*
X154837907Y-89664956D01*
X154691830Y-89725463D01*
X154566384Y-89821721D01*
X154544694Y-89849990D01*
X154539340Y-89856094D01*
X154356096Y-90039338D01*
X154349994Y-90044689D01*
X154321718Y-90066387D01*
X154321716Y-90066389D01*
X154314351Y-90075988D01*
X154257923Y-90117190D01*
X154215977Y-90124500D01*
X154137272Y-90124500D01*
X154050393Y-90135938D01*
X154024764Y-90139313D01*
X154024762Y-90139313D01*
X154016708Y-90140374D01*
X154016315Y-90137395D01*
X153983685Y-90137386D01*
X153983292Y-90140374D01*
X153975236Y-90139313D01*
X153958313Y-90137085D01*
X153894416Y-90108817D01*
X153855946Y-90050492D01*
X153850500Y-90014146D01*
X153850500Y-89712596D01*
X153870185Y-89645557D01*
X153886814Y-89624920D01*
X155549916Y-87961817D01*
X155611239Y-87928333D01*
X155637597Y-87925499D01*
X156250002Y-87925499D01*
X156250008Y-87925499D01*
X156352797Y-87914999D01*
X156519334Y-87859814D01*
X156668656Y-87767712D01*
X156792712Y-87643656D01*
X156884814Y-87494334D01*
X156939999Y-87327797D01*
X156950500Y-87225009D01*
X156950499Y-86599992D01*
X156939999Y-86497203D01*
X156884814Y-86330666D01*
X156792712Y-86181344D01*
X156699049Y-86087681D01*
X156665564Y-86026358D01*
X156670548Y-85956666D01*
X156699049Y-85912319D01*
X156699049Y-85912318D01*
X156792712Y-85818656D01*
X156884814Y-85669334D01*
X156939999Y-85502797D01*
X156950500Y-85400009D01*
X156950499Y-84774992D01*
X156947946Y-84750003D01*
X156939999Y-84672203D01*
X156939998Y-84672200D01*
X156935696Y-84659218D01*
X156884814Y-84505666D01*
X156792712Y-84356344D01*
X156668656Y-84232288D01*
X156519334Y-84140186D01*
X156352797Y-84085001D01*
X156352795Y-84085000D01*
X156250010Y-84074500D01*
X155249998Y-84074500D01*
X155249980Y-84074501D01*
X155147203Y-84085000D01*
X155147200Y-84085001D01*
X154980668Y-84140185D01*
X154980663Y-84140187D01*
X154831342Y-84232289D01*
X154707289Y-84356342D01*
X154663031Y-84428097D01*
X154611083Y-84474821D01*
X154557492Y-84487000D01*
X153942508Y-84487000D01*
X153875469Y-84467315D01*
X153836969Y-84428097D01*
X153792712Y-84356344D01*
X153668656Y-84232288D01*
X153519334Y-84140186D01*
X153352797Y-84085001D01*
X153352795Y-84085000D01*
X153250010Y-84074500D01*
X152249998Y-84074500D01*
X152249980Y-84074501D01*
X152147203Y-84085000D01*
X152147200Y-84085001D01*
X151980668Y-84140185D01*
X151980663Y-84140187D01*
X151831342Y-84232289D01*
X151707289Y-84356342D01*
X151663031Y-84428097D01*
X151611083Y-84474821D01*
X151557492Y-84487000D01*
X149543428Y-84487000D01*
X149535329Y-84486469D01*
X149500000Y-84481818D01*
X149460639Y-84487000D01*
X149343239Y-84502455D01*
X149343237Y-84502456D01*
X149197157Y-84562964D01*
X149071719Y-84659216D01*
X149050019Y-84687494D01*
X149044668Y-84693596D01*
X146950082Y-86788181D01*
X146888759Y-86821666D01*
X146862401Y-86824500D01*
X146249998Y-86824500D01*
X146249980Y-86824501D01*
X146147203Y-86835000D01*
X146147200Y-86835001D01*
X145980668Y-86890185D01*
X145980663Y-86890187D01*
X145831342Y-86982289D01*
X145707289Y-87106342D01*
X145707287Y-87106344D01*
X145707288Y-87106344D01*
X145680375Y-87149978D01*
X145663031Y-87178097D01*
X145611083Y-87224821D01*
X145557492Y-87237000D01*
X145192508Y-87237000D01*
X145125469Y-87217315D01*
X145086969Y-87178097D01*
X145042712Y-87106344D01*
X144918656Y-86982288D01*
X144769334Y-86890186D01*
X144602797Y-86835001D01*
X144602795Y-86835000D01*
X144500010Y-86824500D01*
X143499998Y-86824500D01*
X143499980Y-86824501D01*
X143397203Y-86835000D01*
X143397200Y-86835001D01*
X143230668Y-86890185D01*
X143230663Y-86890187D01*
X143081342Y-86982289D01*
X142957289Y-87106342D01*
X142957287Y-87106344D01*
X142957288Y-87106344D01*
X142930375Y-87149978D01*
X142913031Y-87178097D01*
X142861083Y-87224821D01*
X142807492Y-87237000D01*
X140803111Y-87237000D01*
X140795012Y-87236469D01*
X140759683Y-87231818D01*
X140720322Y-87237000D01*
X140602922Y-87252455D01*
X140602920Y-87252456D01*
X140456843Y-87312963D01*
X140331397Y-87409221D01*
X140309707Y-87437490D01*
X140304354Y-87443594D01*
X132812180Y-94935767D01*
X132750857Y-94969252D01*
X132681165Y-94964268D01*
X132625232Y-94922396D01*
X132600815Y-94856932D01*
X132600500Y-94848113D01*
X132600500Y-90550096D01*
X132620185Y-90483057D01*
X132636814Y-90462420D01*
X139268535Y-83830698D01*
X139329856Y-83797215D01*
X139342311Y-83795163D01*
X139429255Y-83785368D01*
X139599522Y-83725789D01*
X139752262Y-83629816D01*
X139879816Y-83502262D01*
X139975789Y-83349522D01*
X140035368Y-83179255D01*
X140035369Y-83179249D01*
X140055565Y-83000003D01*
X140055565Y-82999996D01*
X140035369Y-82820750D01*
X140035367Y-82820742D01*
X139996776Y-82710454D01*
X139993215Y-82640676D01*
X140027944Y-82580048D01*
X140089937Y-82547821D01*
X140113818Y-82545500D01*
X142601572Y-82545500D01*
X142609670Y-82546030D01*
X142645000Y-82550682D01*
X142645001Y-82550682D01*
X142697253Y-82543802D01*
X142801762Y-82530044D01*
X142947841Y-82469536D01*
X143018971Y-82414956D01*
X143073282Y-82373282D01*
X143094983Y-82344999D01*
X143100319Y-82338914D01*
X143283319Y-82155914D01*
X143344642Y-82122430D01*
X143414334Y-82127414D01*
X143470267Y-82169286D01*
X143494684Y-82234750D01*
X143495000Y-82243596D01*
X143495000Y-82742844D01*
X143501401Y-82802372D01*
X143501403Y-82802379D01*
X143551645Y-82937086D01*
X143551649Y-82937093D01*
X143637809Y-83052187D01*
X143637812Y-83052190D01*
X143752906Y-83138350D01*
X143752913Y-83138354D01*
X143887620Y-83188596D01*
X143887627Y-83188598D01*
X143947155Y-83194999D01*
X143947172Y-83195000D01*
X144195000Y-83195000D01*
X144195000Y-81819000D01*
X144214685Y-81751961D01*
X144267489Y-81706206D01*
X144319000Y-81695000D01*
X144571000Y-81695000D01*
X144638039Y-81714685D01*
X144683794Y-81767489D01*
X144695000Y-81819000D01*
X144695000Y-83195000D01*
X144942828Y-83195000D01*
X144942844Y-83194999D01*
X145002372Y-83188598D01*
X145002375Y-83188597D01*
X145035949Y-83176075D01*
X145105640Y-83171089D01*
X145122619Y-83176075D01*
X145157511Y-83189089D01*
X145157512Y-83189089D01*
X145157517Y-83189091D01*
X145217127Y-83195500D01*
X146212872Y-83195499D01*
X146272483Y-83189091D01*
X146306667Y-83176340D01*
X146376358Y-83171357D01*
X146393327Y-83176338D01*
X146427517Y-83189091D01*
X146487127Y-83195500D01*
X147482872Y-83195499D01*
X147542483Y-83189091D01*
X147576667Y-83176340D01*
X147646358Y-83171357D01*
X147663327Y-83176338D01*
X147697517Y-83189091D01*
X147757127Y-83195500D01*
X148752872Y-83195499D01*
X148812483Y-83189091D01*
X148846667Y-83176340D01*
X148916358Y-83171357D01*
X148933327Y-83176338D01*
X148967517Y-83189091D01*
X149027127Y-83195500D01*
X150022872Y-83195499D01*
X150082483Y-83189091D01*
X150116667Y-83176340D01*
X150186358Y-83171357D01*
X150203327Y-83176338D01*
X150237517Y-83189091D01*
X150297127Y-83195500D01*
X151292872Y-83195499D01*
X151352483Y-83189091D01*
X151386667Y-83176340D01*
X151456358Y-83171357D01*
X151473327Y-83176338D01*
X151507517Y-83189091D01*
X151567127Y-83195500D01*
X152562872Y-83195499D01*
X152622483Y-83189091D01*
X152656667Y-83176340D01*
X152726358Y-83171357D01*
X152743327Y-83176338D01*
X152777517Y-83189091D01*
X152837127Y-83195500D01*
X153832872Y-83195499D01*
X153892483Y-83189091D01*
X153926667Y-83176340D01*
X153996358Y-83171357D01*
X154013327Y-83176338D01*
X154047517Y-83189091D01*
X154107127Y-83195500D01*
X155102872Y-83195499D01*
X155162483Y-83189091D01*
X155196667Y-83176340D01*
X155266358Y-83171357D01*
X155283327Y-83176338D01*
X155317517Y-83189091D01*
X155377127Y-83195500D01*
X156372872Y-83195499D01*
X156432483Y-83189091D01*
X156567331Y-83138796D01*
X156682546Y-83052546D01*
X156768796Y-82937331D01*
X156819091Y-82802483D01*
X156825500Y-82742873D01*
X156825499Y-81147128D01*
X156819091Y-81087517D01*
X156813198Y-81071718D01*
X156768797Y-80952671D01*
X156768793Y-80952664D01*
X156682547Y-80837455D01*
X156682544Y-80837452D01*
X156567335Y-80751206D01*
X156567332Y-80751205D01*
X156567331Y-80751204D01*
X156556161Y-80747038D01*
X156500231Y-80705166D01*
X156475816Y-80639701D01*
X156475500Y-80630858D01*
X156475500Y-79972219D01*
X156495185Y-79905180D01*
X156547989Y-79859425D01*
X156617147Y-79849481D01*
X156674984Y-79873843D01*
X156701214Y-79893969D01*
X156738870Y-79922864D01*
X156738881Y-79922872D01*
X156773630Y-79949536D01*
X156773633Y-79949537D01*
X156773634Y-79949538D01*
X156846669Y-79979789D01*
X156919709Y-80010044D01*
X156970031Y-80016669D01*
X157076470Y-80030682D01*
X157076471Y-80030682D01*
X157111800Y-80026030D01*
X157119899Y-80025500D01*
X157534906Y-80025500D01*
X157601945Y-80045185D01*
X157647700Y-80097989D01*
X157658195Y-80162752D01*
X157654500Y-80197127D01*
X157654500Y-80197128D01*
X157654500Y-80197132D01*
X157654500Y-81192870D01*
X157654501Y-81192876D01*
X157660908Y-81252483D01*
X157711202Y-81387328D01*
X157711206Y-81387335D01*
X157797452Y-81502544D01*
X157797455Y-81502547D01*
X157912664Y-81588793D01*
X157912671Y-81588797D01*
X158047517Y-81639091D01*
X158047516Y-81639091D01*
X158054444Y-81639835D01*
X158107127Y-81645500D01*
X159702872Y-81645499D01*
X159762483Y-81639091D01*
X159897331Y-81588796D01*
X160012546Y-81502546D01*
X160098796Y-81387331D01*
X160149091Y-81252483D01*
X160155500Y-81192873D01*
X160155499Y-80197128D01*
X160149091Y-80137517D01*
X160146218Y-80129815D01*
X160136341Y-80103332D01*
X160131357Y-80033640D01*
X160136342Y-80016664D01*
X160149091Y-79982483D01*
X160155500Y-79922873D01*
X160155500Y-79922870D01*
X160155499Y-78927128D01*
X160149091Y-78867517D01*
X160136073Y-78832616D01*
X160131090Y-78762926D01*
X160136075Y-78745949D01*
X160148597Y-78712375D01*
X160148598Y-78712372D01*
X160154999Y-78652844D01*
X160155000Y-78652827D01*
X160155000Y-78405000D01*
X157655000Y-78405000D01*
X157655000Y-78652839D01*
X157658700Y-78687242D01*
X157646296Y-78756002D01*
X157598687Y-78807140D01*
X157535411Y-78824500D01*
X157376568Y-78824500D01*
X157309529Y-78804815D01*
X157288887Y-78788181D01*
X156650792Y-78150085D01*
X156617307Y-78088762D01*
X156622291Y-78019070D01*
X156633479Y-77996432D01*
X156725789Y-77849522D01*
X156785368Y-77679255D01*
X156794791Y-77595614D01*
X156821856Y-77531204D01*
X156879451Y-77491648D01*
X156918011Y-77485500D01*
X157535411Y-77485500D01*
X157602450Y-77505185D01*
X157648205Y-77557989D01*
X157658700Y-77622758D01*
X157655000Y-77657160D01*
X157655000Y-77905000D01*
X160155000Y-77905000D01*
X160155000Y-77657172D01*
X160154999Y-77657155D01*
X160148597Y-77597622D01*
X160148597Y-77597620D01*
X160136075Y-77564048D01*
X160131089Y-77494356D01*
X160136071Y-77477390D01*
X160149091Y-77442483D01*
X160155500Y-77382873D01*
X160155499Y-76387128D01*
X160149091Y-76327517D01*
X160136340Y-76293332D01*
X160131357Y-76223642D01*
X160136341Y-76206667D01*
X160149091Y-76172483D01*
X160155500Y-76112873D01*
X160155499Y-75117128D01*
X160149091Y-75057517D01*
X160136340Y-75023332D01*
X160131357Y-74953642D01*
X160136340Y-74936669D01*
X160149091Y-74902483D01*
X160155500Y-74842873D01*
X160155499Y-73847128D01*
X160149091Y-73787517D01*
X160136341Y-73753332D01*
X160131357Y-73683640D01*
X160136340Y-73666667D01*
X160149091Y-73632483D01*
X160155500Y-73572873D01*
X160155499Y-72577128D01*
X160149091Y-72517517D01*
X160136340Y-72483332D01*
X160131357Y-72413642D01*
X160136341Y-72396667D01*
X160149091Y-72362483D01*
X160155500Y-72302873D01*
X160155499Y-71364095D01*
X160175183Y-71297057D01*
X160227987Y-71251302D01*
X160297146Y-71241358D01*
X160360702Y-71270383D01*
X160367180Y-71276415D01*
X160863181Y-71772416D01*
X160896666Y-71833739D01*
X160899500Y-71860097D01*
X160899500Y-73917587D01*
X160879815Y-73984626D01*
X160872450Y-73994896D01*
X160870186Y-73997734D01*
X160774211Y-74150476D01*
X160714631Y-74320745D01*
X160714630Y-74320750D01*
X160694435Y-74499996D01*
X160694435Y-74500003D01*
X160714630Y-74679249D01*
X160714631Y-74679254D01*
X160774211Y-74849523D01*
X160828967Y-74936666D01*
X160846539Y-74964632D01*
X160870185Y-75002263D01*
X160872445Y-75005097D01*
X160873334Y-75007275D01*
X160873889Y-75008158D01*
X160873734Y-75008255D01*
X160898855Y-75069783D01*
X160899500Y-75082412D01*
X160899500Y-77417587D01*
X160879815Y-77484626D01*
X160872450Y-77494896D01*
X160870186Y-77497734D01*
X160774211Y-77650476D01*
X160714631Y-77820745D01*
X160714630Y-77820750D01*
X160694435Y-77999996D01*
X160694435Y-78000003D01*
X160714630Y-78179249D01*
X160714631Y-78179254D01*
X160774211Y-78349523D01*
X160856767Y-78480909D01*
X160870184Y-78502262D01*
X160997738Y-78629816D01*
X161034433Y-78652873D01*
X161135188Y-78716182D01*
X161150478Y-78725789D01*
X161288860Y-78774211D01*
X161320745Y-78785368D01*
X161320750Y-78785369D01*
X161499996Y-78805565D01*
X161500000Y-78805565D01*
X161500004Y-78805565D01*
X161679249Y-78785369D01*
X161679252Y-78785368D01*
X161679255Y-78785368D01*
X161849522Y-78725789D01*
X162002262Y-78629816D01*
X162129816Y-78502262D01*
X162225789Y-78349522D01*
X162285368Y-78179255D01*
X162298164Y-78065685D01*
X162305565Y-78000003D01*
X162305565Y-77999996D01*
X162285369Y-77820750D01*
X162285368Y-77820745D01*
X162237998Y-77685369D01*
X162225789Y-77650478D01*
X162129816Y-77497738D01*
X162129814Y-77497736D01*
X162129813Y-77497734D01*
X162127550Y-77494896D01*
X162126659Y-77492715D01*
X162126111Y-77491842D01*
X162126264Y-77491745D01*
X162101144Y-77430209D01*
X162100500Y-77417587D01*
X162100500Y-75082412D01*
X162120185Y-75015373D01*
X162127555Y-75005097D01*
X162129810Y-75002267D01*
X162129816Y-75002262D01*
X162225789Y-74849522D01*
X162285368Y-74679255D01*
X162305565Y-74500000D01*
X162285368Y-74320745D01*
X162225789Y-74150478D01*
X162209779Y-74124999D01*
X162174187Y-74068354D01*
X162129816Y-73997738D01*
X162129814Y-73997736D01*
X162129813Y-73997734D01*
X162127550Y-73994896D01*
X162126659Y-73992715D01*
X162126111Y-73991842D01*
X162126264Y-73991745D01*
X162101144Y-73930209D01*
X162100500Y-73917587D01*
X162100500Y-72659096D01*
X162120185Y-72592057D01*
X162172989Y-72546302D01*
X162242147Y-72536358D01*
X162305703Y-72565383D01*
X162312166Y-72571401D01*
X162875830Y-73135065D01*
X163363181Y-73622416D01*
X163396666Y-73683739D01*
X163399500Y-73710097D01*
X163399500Y-100699903D01*
X163379815Y-100766942D01*
X163363181Y-100787584D01*
X162787584Y-101363181D01*
X162726261Y-101396666D01*
X162699903Y-101399500D01*
X162218428Y-101399500D01*
X162210329Y-101398969D01*
X162175000Y-101394318D01*
X162135639Y-101399500D01*
X162018239Y-101414955D01*
X162018237Y-101414956D01*
X161872160Y-101475463D01*
X161746714Y-101571721D01*
X161725024Y-101599990D01*
X161719671Y-101606094D01*
X160312582Y-103013181D01*
X160251259Y-103046666D01*
X160224901Y-103049500D01*
X159477129Y-103049500D01*
X159477123Y-103049501D01*
X159417516Y-103055908D01*
X159282671Y-103106202D01*
X159282664Y-103106206D01*
X159167455Y-103192452D01*
X159167452Y-103192455D01*
X159081206Y-103307664D01*
X159081202Y-103307671D01*
X159041293Y-103414675D01*
X159030909Y-103442517D01*
X159024500Y-103502127D01*
X159024500Y-103502134D01*
X159024500Y-103502135D01*
X159024500Y-104047869D01*
X159024501Y-104047878D01*
X159028679Y-104086745D01*
X159028679Y-104113250D01*
X159024500Y-104152122D01*
X159024500Y-104697869D01*
X159024501Y-104697878D01*
X159028679Y-104736745D01*
X159028679Y-104763250D01*
X159024500Y-104802122D01*
X159024500Y-105347869D01*
X159024501Y-105347878D01*
X159028679Y-105386745D01*
X159028679Y-105413250D01*
X159024500Y-105452122D01*
X159024500Y-105997869D01*
X159024501Y-105997878D01*
X159028679Y-106036745D01*
X159028679Y-106063250D01*
X159024500Y-106102122D01*
X159024500Y-106647869D01*
X159024501Y-106647878D01*
X159028679Y-106686745D01*
X159028679Y-106713250D01*
X159024500Y-106752122D01*
X159024500Y-107297869D01*
X159024501Y-107297880D01*
X159028931Y-107339093D01*
X159028931Y-107365596D01*
X159025000Y-107402165D01*
X159025000Y-107450000D01*
X159040611Y-107465611D01*
X159054484Y-107469685D01*
X159086711Y-107499689D01*
X159162320Y-107600689D01*
X159186738Y-107666153D01*
X159171887Y-107734426D01*
X159162320Y-107749311D01*
X159086711Y-107850311D01*
X159038892Y-107886107D01*
X159025000Y-107899999D01*
X159025000Y-107947832D01*
X159028931Y-107984399D01*
X159028931Y-108010905D01*
X159024500Y-108052122D01*
X159024500Y-108597869D01*
X159024501Y-108597878D01*
X159028679Y-108636745D01*
X159028679Y-108663250D01*
X159024500Y-108702122D01*
X159024500Y-109247869D01*
X159024501Y-109247878D01*
X159028679Y-109286745D01*
X159028679Y-109313250D01*
X159024500Y-109352122D01*
X159024500Y-109897869D01*
X159024501Y-109897878D01*
X159028679Y-109936745D01*
X159028679Y-109963250D01*
X159024500Y-110002122D01*
X159024500Y-110547869D01*
X159024501Y-110547878D01*
X159028679Y-110586745D01*
X159028679Y-110613250D01*
X159024500Y-110652122D01*
X159024500Y-111197869D01*
X159024501Y-111197878D01*
X159028679Y-111236745D01*
X159028679Y-111263250D01*
X159024500Y-111302122D01*
X159024500Y-111847869D01*
X159024501Y-111847878D01*
X159028679Y-111886745D01*
X159028679Y-111913250D01*
X159024500Y-111952122D01*
X159024500Y-111952128D01*
X159024501Y-112275500D01*
X159004817Y-112342539D01*
X158952013Y-112388294D01*
X158900501Y-112399500D01*
X142174499Y-112399500D01*
X142107460Y-112379815D01*
X142061705Y-112327011D01*
X142050499Y-112275500D01*
X142050499Y-110899998D01*
X142050498Y-110899981D01*
X142039999Y-110797203D01*
X142039998Y-110797200D01*
X141991926Y-110652129D01*
X141984814Y-110630666D01*
X141892712Y-110481344D01*
X141768656Y-110357288D01*
X141619334Y-110265186D01*
X141452797Y-110210001D01*
X141452795Y-110210000D01*
X141350010Y-110199500D01*
X140649998Y-110199500D01*
X140649980Y-110199501D01*
X140547203Y-110210000D01*
X140547200Y-110210001D01*
X140380668Y-110265185D01*
X140380663Y-110265187D01*
X140231342Y-110357289D01*
X140107289Y-110481342D01*
X140015187Y-110630663D01*
X140015185Y-110630668D01*
X140008074Y-110652128D01*
X139960001Y-110797203D01*
X139960001Y-110797204D01*
X139960000Y-110797204D01*
X139949500Y-110899983D01*
X139949500Y-115100001D01*
X139949501Y-115100018D01*
X139960000Y-115202796D01*
X139960001Y-115202799D01*
X140015185Y-115369331D01*
X140015186Y-115369334D01*
X140107288Y-115518656D01*
X140231344Y-115642712D01*
X140340597Y-115710099D01*
X140387321Y-115762047D01*
X140399500Y-115815638D01*
X140399500Y-115961414D01*
X140379815Y-116028453D01*
X140327011Y-116074208D01*
X140314505Y-116079120D01*
X140205666Y-116115186D01*
X140205663Y-116115187D01*
X140056342Y-116207289D01*
X139932289Y-116331342D01*
X139840187Y-116480663D01*
X139840185Y-116480666D01*
X139840186Y-116480666D01*
X139785001Y-116647203D01*
X139785001Y-116647204D01*
X139785000Y-116647204D01*
X139774500Y-116749983D01*
X139774500Y-117350001D01*
X139774501Y-117350019D01*
X139785000Y-117452796D01*
X139785001Y-117452799D01*
X139825275Y-117574335D01*
X139840186Y-117619334D01*
X139932288Y-117768656D01*
X140056344Y-117892712D01*
X140059628Y-117894737D01*
X140059653Y-117894753D01*
X140061445Y-117896746D01*
X140062011Y-117897193D01*
X140061934Y-117897289D01*
X140106379Y-117946699D01*
X140117603Y-118015661D01*
X140089761Y-118079744D01*
X140059665Y-118105826D01*
X140056660Y-118107679D01*
X140056655Y-118107683D01*
X139932684Y-118231654D01*
X139840643Y-118380875D01*
X139840641Y-118380880D01*
X139785494Y-118547302D01*
X139785493Y-118547309D01*
X139775000Y-118650013D01*
X139775000Y-118700000D01*
X142224999Y-118700000D01*
X142224999Y-118650028D01*
X142224998Y-118650013D01*
X142214505Y-118547302D01*
X142159358Y-118380880D01*
X142159356Y-118380875D01*
X142067315Y-118231654D01*
X141943344Y-118107683D01*
X141943341Y-118107681D01*
X141940339Y-118105829D01*
X141938713Y-118104021D01*
X141937677Y-118103202D01*
X141937817Y-118103024D01*
X141893617Y-118053880D01*
X141882397Y-117984917D01*
X141910243Y-117920836D01*
X141940344Y-117894754D01*
X141943656Y-117892712D01*
X142067712Y-117768656D01*
X142159814Y-117619334D01*
X142214999Y-117452797D01*
X142225500Y-117350009D01*
X142225499Y-116749992D01*
X142214999Y-116647203D01*
X142159814Y-116480666D01*
X142067712Y-116331344D01*
X141943656Y-116207288D01*
X141794334Y-116115186D01*
X141733301Y-116094961D01*
X141685495Y-116079120D01*
X141628050Y-116039347D01*
X141601228Y-115974831D01*
X141600500Y-115961414D01*
X141600500Y-115815638D01*
X141620185Y-115748599D01*
X141659401Y-115710100D01*
X141768656Y-115642712D01*
X141892712Y-115518656D01*
X141984814Y-115369334D01*
X142039999Y-115202797D01*
X142050500Y-115100009D01*
X142050500Y-113724500D01*
X142070185Y-113657461D01*
X142122989Y-113611706D01*
X142174500Y-113600500D01*
X162456572Y-113600500D01*
X162464670Y-113601030D01*
X162500000Y-113605682D01*
X162500001Y-113605682D01*
X162552254Y-113598802D01*
X162656762Y-113585044D01*
X162802841Y-113524536D01*
X162824024Y-113508282D01*
X162928282Y-113428282D01*
X162949983Y-113399999D01*
X162955311Y-113393922D01*
X166013319Y-110335915D01*
X166074642Y-110302430D01*
X166144334Y-110307414D01*
X166200267Y-110349286D01*
X166224684Y-110414750D01*
X166225000Y-110423596D01*
X166225000Y-110547832D01*
X166228931Y-110584399D01*
X166228931Y-110610905D01*
X166224500Y-110652122D01*
X166224500Y-111197869D01*
X166224501Y-111197878D01*
X166228679Y-111236745D01*
X166228679Y-111263250D01*
X166224500Y-111302122D01*
X166224500Y-111847869D01*
X166224501Y-111847878D01*
X166228679Y-111886745D01*
X166228679Y-111913250D01*
X166224500Y-111952122D01*
X166224500Y-112497870D01*
X166224501Y-112497876D01*
X166230908Y-112557483D01*
X166253961Y-112619289D01*
X166258945Y-112688981D01*
X166225460Y-112750303D01*
X161181096Y-117794668D01*
X161174993Y-117800020D01*
X161146719Y-117821716D01*
X161122550Y-117853215D01*
X161050461Y-117947162D01*
X161050461Y-117947163D01*
X160989957Y-118093234D01*
X160989955Y-118093239D01*
X160969318Y-118249998D01*
X160969318Y-118250000D01*
X160973969Y-118285326D01*
X160974500Y-118293427D01*
X160974500Y-125680405D01*
X160954815Y-125747444D01*
X160902011Y-125793199D01*
X160832853Y-125803143D01*
X160824722Y-125801696D01*
X160814391Y-125799500D01*
X160635609Y-125799500D01*
X160598439Y-125807400D01*
X160460734Y-125836670D01*
X160460729Y-125836672D01*
X160350434Y-125885778D01*
X160281184Y-125895062D01*
X160249566Y-125885778D01*
X160139270Y-125836672D01*
X160139265Y-125836670D01*
X160011594Y-125809533D01*
X159964391Y-125799500D01*
X159785609Y-125799500D01*
X159748438Y-125807400D01*
X159610734Y-125836670D01*
X159610729Y-125836672D01*
X159499818Y-125886052D01*
X159430568Y-125895336D01*
X159398949Y-125886052D01*
X159289110Y-125837148D01*
X159114339Y-125800000D01*
X158935661Y-125800000D01*
X158760890Y-125837148D01*
X158760889Y-125837148D01*
X158625832Y-125897279D01*
X159024561Y-126296007D01*
X159058046Y-126357330D01*
X159054811Y-126422005D01*
X159045715Y-126450000D01*
X159002468Y-126450000D01*
X158935992Y-126465173D01*
X158864613Y-126522095D01*
X158825000Y-126604351D01*
X158825000Y-126695649D01*
X158864613Y-126777905D01*
X158919801Y-126821916D01*
X158896085Y-126827909D01*
X158829844Y-126805686D01*
X158813126Y-126791680D01*
X158587431Y-126565985D01*
X158556799Y-126515423D01*
X158552974Y-126503232D01*
X158535744Y-126472190D01*
X158459160Y-126334211D01*
X158459157Y-126334206D01*
X158333241Y-126187533D01*
X158333240Y-126187531D01*
X158180375Y-126069205D01*
X158180371Y-126069203D01*
X158173396Y-126065781D01*
X158006816Y-125984070D01*
X158006814Y-125984069D01*
X158006811Y-125984068D01*
X158006813Y-125984068D01*
X157819682Y-125935616D01*
X157819676Y-125935615D01*
X157690964Y-125929087D01*
X157626610Y-125925824D01*
X157626609Y-125925824D01*
X157626607Y-125925824D01*
X157435533Y-125955095D01*
X157435521Y-125955098D01*
X157254251Y-126022234D01*
X157254242Y-126022238D01*
X157090196Y-126124488D01*
X156950080Y-126257677D01*
X156839646Y-126416342D01*
X156763413Y-126593987D01*
X156724500Y-126783343D01*
X156724500Y-128428207D01*
X156739154Y-128572322D01*
X156797022Y-128756759D01*
X156797029Y-128756774D01*
X156890839Y-128925788D01*
X156890842Y-128925793D01*
X157016758Y-129072466D01*
X157016760Y-129072468D01*
X157066566Y-129111021D01*
X157107530Y-129167620D01*
X157111391Y-129237383D01*
X157078346Y-129296757D01*
X155606096Y-130769008D01*
X155599993Y-130774360D01*
X155571719Y-130796056D01*
X155547550Y-130827555D01*
X155475461Y-130921502D01*
X155475461Y-130921503D01*
X155414957Y-131067574D01*
X155414955Y-131067579D01*
X155394318Y-131224338D01*
X155394318Y-131224339D01*
X155398969Y-131259666D01*
X155399500Y-131267768D01*
X155399500Y-131275500D01*
X155379815Y-131342539D01*
X155327011Y-131388294D01*
X155275500Y-131399500D01*
X151392598Y-131399500D01*
X151325559Y-131379815D01*
X151304917Y-131363181D01*
X150403416Y-130461680D01*
X150369931Y-130400357D01*
X150374915Y-130330665D01*
X150416787Y-130274732D01*
X150482251Y-130250315D01*
X150491097Y-130249999D01*
X150492500Y-130249999D01*
X150492500Y-129433686D01*
X150532656Y-129459493D01*
X150670611Y-129500000D01*
X150814389Y-129500000D01*
X150952344Y-129459493D01*
X150992500Y-129433686D01*
X150992500Y-130249999D01*
X151711091Y-130249999D01*
X151763690Y-130247205D01*
X151993487Y-130202762D01*
X152212475Y-130120120D01*
X152414341Y-130001660D01*
X152414348Y-130001655D01*
X152593286Y-129850788D01*
X152593288Y-129850786D01*
X152744155Y-129671848D01*
X152744160Y-129671841D01*
X152862620Y-129469975D01*
X152945262Y-129250987D01*
X152989705Y-129021191D01*
X152989705Y-129021190D01*
X152992500Y-128968591D01*
X152992500Y-128250000D01*
X151242500Y-128250000D01*
X151242500Y-127750000D01*
X152992499Y-127750000D01*
X152992499Y-127031409D01*
X152989705Y-126978809D01*
X152945262Y-126749012D01*
X152862620Y-126530024D01*
X152744160Y-126328158D01*
X152744155Y-126328151D01*
X152593288Y-126149213D01*
X152593286Y-126149211D01*
X152414348Y-125998344D01*
X152414341Y-125998339D01*
X152212475Y-125879879D01*
X151993487Y-125797237D01*
X151763691Y-125752794D01*
X151711091Y-125750000D01*
X150992500Y-125750000D01*
X150992500Y-126566313D01*
X150952344Y-126540507D01*
X150814389Y-126500000D01*
X150670611Y-126500000D01*
X150532656Y-126540507D01*
X150492500Y-126566313D01*
X150492500Y-125750000D01*
X150492499Y-125750000D01*
X149773909Y-125750001D01*
X149721309Y-125752794D01*
X149491512Y-125797237D01*
X149272524Y-125879879D01*
X149070658Y-125998339D01*
X149070651Y-125998344D01*
X148891713Y-126149211D01*
X148891711Y-126149213D01*
X148740844Y-126328151D01*
X148740839Y-126328158D01*
X148622379Y-126530024D01*
X148539736Y-126749014D01*
X148538741Y-126754161D01*
X148506679Y-126816240D01*
X148446144Y-126851130D01*
X148376356Y-126847754D01*
X148319472Y-126807184D01*
X148293552Y-126742300D01*
X148292999Y-126730624D01*
X148292999Y-123202128D01*
X148286591Y-123142517D01*
X148277050Y-123116937D01*
X148236297Y-123007671D01*
X148236293Y-123007664D01*
X148150047Y-122892455D01*
X148150044Y-122892452D01*
X148034835Y-122806206D01*
X148034828Y-122806202D01*
X147899982Y-122755908D01*
X147899983Y-122755908D01*
X147840383Y-122749501D01*
X147840381Y-122749500D01*
X147840373Y-122749500D01*
X147840364Y-122749500D01*
X144244629Y-122749500D01*
X144244623Y-122749501D01*
X144185016Y-122755908D01*
X144050171Y-122806202D01*
X144050164Y-122806206D01*
X143934955Y-122892452D01*
X143934952Y-122892455D01*
X143848706Y-123007664D01*
X143848702Y-123007671D01*
X143798408Y-123142517D01*
X143792231Y-123199980D01*
X143792001Y-123202123D01*
X143792000Y-123202135D01*
X143792000Y-124275500D01*
X143772315Y-124342539D01*
X143719511Y-124388294D01*
X143668000Y-124399500D01*
X142184412Y-124399500D01*
X142117373Y-124379815D01*
X142096731Y-124363181D01*
X136933550Y-119200000D01*
X139775001Y-119200000D01*
X139775001Y-119249986D01*
X139785494Y-119352697D01*
X139840641Y-119519119D01*
X139840643Y-119519124D01*
X139932684Y-119668345D01*
X140056654Y-119792315D01*
X140205875Y-119884356D01*
X140205880Y-119884358D01*
X140372302Y-119939505D01*
X140372309Y-119939506D01*
X140475019Y-119949999D01*
X140749999Y-119949999D01*
X140750000Y-119949998D01*
X140750000Y-119200000D01*
X141250000Y-119200000D01*
X141250000Y-119949999D01*
X141524972Y-119949999D01*
X141524986Y-119949998D01*
X141627697Y-119939505D01*
X141794119Y-119884358D01*
X141794124Y-119884356D01*
X141943345Y-119792315D01*
X142067315Y-119668345D01*
X142159356Y-119519124D01*
X142159358Y-119519119D01*
X142214505Y-119352697D01*
X142214506Y-119352690D01*
X142224999Y-119249986D01*
X142225000Y-119249973D01*
X142225000Y-119200000D01*
X141250000Y-119200000D01*
X140750000Y-119200000D01*
X139775001Y-119200000D01*
X136933550Y-119200000D01*
X136640882Y-118907332D01*
X136607397Y-118846009D01*
X136612381Y-118776317D01*
X136621178Y-118757648D01*
X136624099Y-118752587D01*
X136684554Y-118606634D01*
X136684555Y-118606630D01*
X136695961Y-118520000D01*
X136526432Y-118520000D01*
X136459393Y-118500315D01*
X136413638Y-118447511D01*
X136403694Y-118378353D01*
X136432719Y-118314797D01*
X136450941Y-118297627D01*
X136528282Y-118238282D01*
X136581818Y-118168512D01*
X136638245Y-118127311D01*
X136680193Y-118120000D01*
X136695959Y-118120000D01*
X136695960Y-118119998D01*
X136684557Y-118033375D01*
X136684478Y-118033078D01*
X136684477Y-118032769D01*
X136683496Y-118025310D01*
X136684477Y-118025180D01*
X136684477Y-117974885D01*
X136683983Y-117974820D01*
X136684477Y-117971067D01*
X136684477Y-117968875D01*
X136685040Y-117966771D01*
X136685044Y-117966762D01*
X136700500Y-117849361D01*
X136700499Y-117510640D01*
X136700499Y-117510636D01*
X136685046Y-117393246D01*
X136685044Y-117393241D01*
X136685044Y-117393238D01*
X136624536Y-117247159D01*
X136624534Y-117247156D01*
X136620472Y-117240119D01*
X136622213Y-117239113D01*
X136600930Y-117184057D01*
X136600500Y-117173742D01*
X136600500Y-115766293D01*
X136620185Y-115699254D01*
X136659406Y-115660753D01*
X136688654Y-115642713D01*
X136688653Y-115642713D01*
X136688656Y-115642712D01*
X136812712Y-115518656D01*
X136904814Y-115369334D01*
X136959999Y-115202797D01*
X136970500Y-115100009D01*
X136970499Y-110899992D01*
X136959999Y-110797203D01*
X136904814Y-110630666D01*
X136812712Y-110481344D01*
X136688656Y-110357288D01*
X136539334Y-110265186D01*
X136372797Y-110210001D01*
X136372795Y-110210000D01*
X136270010Y-110199500D01*
X135569998Y-110199500D01*
X135569980Y-110199501D01*
X135467203Y-110210000D01*
X135467200Y-110210001D01*
X135300668Y-110265185D01*
X135300663Y-110265187D01*
X135151342Y-110357289D01*
X135027289Y-110481342D01*
X134935187Y-110630663D01*
X134935185Y-110630668D01*
X134928074Y-110652128D01*
X134880001Y-110797203D01*
X134880001Y-110797204D01*
X134880000Y-110797204D01*
X134869500Y-110899983D01*
X134869500Y-115100001D01*
X134869501Y-115100018D01*
X134880000Y-115202796D01*
X134880001Y-115202799D01*
X134935185Y-115369331D01*
X134935186Y-115369334D01*
X135027288Y-115518656D01*
X135151344Y-115642712D01*
X135300666Y-115734814D01*
X135314505Y-115739399D01*
X135371949Y-115779172D01*
X135398772Y-115843687D01*
X135399500Y-115857105D01*
X135399500Y-117173742D01*
X135379815Y-117240781D01*
X135376070Y-117246107D01*
X135375466Y-117247153D01*
X135347809Y-117313922D01*
X135320929Y-117354149D01*
X135106096Y-117568983D01*
X135099993Y-117574335D01*
X135071719Y-117596031D01*
X135047550Y-117627530D01*
X134975461Y-117721477D01*
X134975461Y-117721478D01*
X134914957Y-117867549D01*
X134914955Y-117867554D01*
X134895457Y-118015661D01*
X134894318Y-118024315D01*
X134898210Y-118053880D01*
X134898969Y-118059641D01*
X134899500Y-118067743D01*
X134899500Y-118572256D01*
X134898969Y-118580354D01*
X134894318Y-118615685D01*
X134898837Y-118650013D01*
X134899500Y-118655045D01*
X134914955Y-118772445D01*
X134914956Y-118772447D01*
X134975464Y-118918526D01*
X135071718Y-119043967D01*
X135099995Y-119065665D01*
X135106085Y-119071005D01*
X138306914Y-122271834D01*
X141428984Y-125393904D01*
X141434335Y-125400005D01*
X141456033Y-125428282D01*
X141578252Y-125522063D01*
X141579781Y-125523405D01*
X141581473Y-125524535D01*
X141581474Y-125524536D01*
X141727553Y-125585044D01*
X141805934Y-125595363D01*
X141884314Y-125605682D01*
X141884315Y-125605682D01*
X141919644Y-125601030D01*
X141927743Y-125600500D01*
X143668001Y-125600500D01*
X143735040Y-125620185D01*
X143780795Y-125672989D01*
X143792001Y-125724500D01*
X143792001Y-126797876D01*
X143798408Y-126857483D01*
X143848702Y-126992328D01*
X143848706Y-126992335D01*
X143934952Y-127107544D01*
X143934955Y-127107547D01*
X144050164Y-127193793D01*
X144050171Y-127193797D01*
X144185017Y-127244091D01*
X144185016Y-127244091D01*
X144191944Y-127244835D01*
X144244627Y-127250500D01*
X145455016Y-127250499D01*
X145522055Y-127270184D01*
X145553391Y-127299012D01*
X145591184Y-127348264D01*
X145614218Y-127378282D01*
X145642495Y-127399980D01*
X145648585Y-127405320D01*
X146043265Y-127800000D01*
X147031583Y-128788319D01*
X147065068Y-128849642D01*
X147060084Y-128919334D01*
X147018212Y-128975267D01*
X146952748Y-128999684D01*
X146943902Y-129000000D01*
X146292500Y-129000000D01*
X146292500Y-130500000D01*
X145792500Y-130500000D01*
X145792500Y-129000000D01*
X145792499Y-129000000D01*
X144978308Y-129000001D01*
X144846167Y-129010400D01*
X144627980Y-129065377D01*
X144423125Y-129158428D01*
X144423119Y-129158431D01*
X144238176Y-129286559D01*
X144238164Y-129286569D01*
X144079069Y-129445664D01*
X144079059Y-129445676D01*
X143950931Y-129630619D01*
X143950928Y-129630625D01*
X143857877Y-129835480D01*
X143802900Y-130053667D01*
X143792500Y-130185806D01*
X143792500Y-130750000D01*
X144608814Y-130750000D01*
X144583007Y-130790156D01*
X144542500Y-130928111D01*
X144542500Y-131071889D01*
X144583007Y-131209844D01*
X144608814Y-131250000D01*
X143792501Y-131250000D01*
X143792501Y-131814192D01*
X143802900Y-131946332D01*
X143857877Y-132164519D01*
X143930417Y-132324219D01*
X143940220Y-132393397D01*
X143911065Y-132456894D01*
X143852210Y-132494548D01*
X143817518Y-132499500D01*
X129884091Y-132499500D01*
X129817052Y-132479815D01*
X129771297Y-132427011D01*
X129761353Y-132357853D01*
X129790378Y-132294297D01*
X129793468Y-132290863D01*
X129796311Y-132287819D01*
X129944802Y-132128824D01*
X130116766Y-131885206D01*
X130253956Y-131620441D01*
X130353816Y-131339462D01*
X130353816Y-131339457D01*
X130353819Y-131339451D01*
X130409418Y-131071889D01*
X130414486Y-131047502D01*
X130434836Y-130750000D01*
X130414486Y-130452498D01*
X130387823Y-130324189D01*
X130353819Y-130160548D01*
X130353814Y-130160532D01*
X130281933Y-129958279D01*
X130253956Y-129879559D01*
X130116766Y-129614794D01*
X130116765Y-129614792D01*
X130116761Y-129614786D01*
X129944804Y-129371178D01*
X129865775Y-129286559D01*
X129741267Y-129153243D01*
X129741265Y-129153242D01*
X129741263Y-129153239D01*
X129509958Y-128965059D01*
X129509954Y-128965056D01*
X129265231Y-128816236D01*
X129255167Y-128810116D01*
X129255166Y-128810115D01*
X129255162Y-128810113D01*
X128981658Y-128691314D01*
X128694524Y-128610863D01*
X128694519Y-128610862D01*
X128694518Y-128610862D01*
X128546808Y-128590559D01*
X128399099Y-128570257D01*
X128399098Y-128570257D01*
X128100902Y-128570257D01*
X128100901Y-128570257D01*
X127805482Y-128610862D01*
X127805475Y-128610863D01*
X127518341Y-128691314D01*
X127244837Y-128810113D01*
X126990045Y-128965056D01*
X126990041Y-128965059D01*
X126758735Y-129153240D01*
X126715121Y-129199939D01*
X126654977Y-129235497D01*
X126585156Y-129232894D01*
X126527826Y-129192956D01*
X126501189Y-129128363D01*
X126500499Y-129115319D01*
X126500499Y-66837854D01*
X126520184Y-66770816D01*
X126572988Y-66725061D01*
X126642146Y-66715117D01*
X126705702Y-66744142D01*
X126725800Y-66766343D01*
X126764205Y-66820750D01*
X126805199Y-66878826D01*
X127008736Y-67096760D01*
X127240041Y-67284940D01*
X127240045Y-67284943D01*
X127240047Y-67284944D01*
X127240048Y-67284945D01*
X127494833Y-67439884D01*
X127494835Y-67439885D01*
X127494837Y-67439886D01*
X127626620Y-67497127D01*
X127768343Y-67558686D01*
X128055482Y-67639138D01*
X128315202Y-67674836D01*
X128350901Y-67679743D01*
X128350902Y-67679743D01*
X128649099Y-67679743D01*
X128680948Y-67675365D01*
X128944518Y-67639138D01*
X129231657Y-67558686D01*
X129505167Y-67439884D01*
X129759952Y-67284945D01*
X129991267Y-67096757D01*
X130194802Y-66878824D01*
X130366766Y-66635206D01*
X130503956Y-66370441D01*
X130603816Y-66089462D01*
X130603816Y-66089457D01*
X130603819Y-66089451D01*
X130653206Y-65851783D01*
X130664486Y-65797502D01*
X130684836Y-65500000D01*
X130664486Y-65202498D01*
X130637823Y-65074189D01*
X130603819Y-64910548D01*
X130603814Y-64910532D01*
X130542937Y-64739241D01*
X130503956Y-64629559D01*
X130366766Y-64364794D01*
X130366765Y-64364792D01*
X130366761Y-64364786D01*
X130194804Y-64121178D01*
X130126956Y-64048531D01*
X129991267Y-63903243D01*
X129991265Y-63903242D01*
X129991263Y-63903239D01*
X129766877Y-63720688D01*
X129727297Y-63663111D01*
X129725128Y-63593275D01*
X129761060Y-63533353D01*
X129823684Y-63502369D01*
X129845132Y-63500500D01*
X140037023Y-63500500D01*
X140104062Y-63520185D01*
G37*
%TD.AperFunction*%
%TA.AperFunction,Conductor*%
G36*
X148497702Y-130254884D02*
G01*
X148504180Y-130260916D01*
X150531083Y-132287819D01*
X150564568Y-132349142D01*
X150559584Y-132418834D01*
X150517712Y-132474767D01*
X150452248Y-132499184D01*
X150443402Y-132499500D01*
X148267482Y-132499500D01*
X148200443Y-132479815D01*
X148154688Y-132427011D01*
X148144744Y-132357853D01*
X148154583Y-132324219D01*
X148227122Y-132164519D01*
X148282099Y-131946332D01*
X148292500Y-131814194D01*
X148292500Y-131250000D01*
X147476186Y-131250000D01*
X147501993Y-131209844D01*
X147542500Y-131071889D01*
X147542500Y-130928111D01*
X147501993Y-130790156D01*
X147476186Y-130750000D01*
X148292499Y-130750000D01*
X148292499Y-130348597D01*
X148312184Y-130281558D01*
X148364988Y-130235803D01*
X148434146Y-130225859D01*
X148497702Y-130254884D01*
G37*
%TD.AperFunction*%
%TA.AperFunction,Conductor*%
G36*
X148430117Y-126877991D02*
G01*
X148479524Y-126927396D01*
X148494518Y-126993401D01*
X148492500Y-127031407D01*
X148492500Y-127750000D01*
X150242500Y-127750000D01*
X150242500Y-128250000D01*
X148492502Y-128250000D01*
X148492500Y-128250001D01*
X148492500Y-128251405D01*
X148472814Y-128318444D01*
X148420009Y-128364198D01*
X148350851Y-128374141D01*
X148287295Y-128345114D01*
X148280819Y-128339084D01*
X147403915Y-127462180D01*
X147370430Y-127400857D01*
X147375414Y-127331165D01*
X147417286Y-127275232D01*
X147482750Y-127250815D01*
X147491596Y-127250499D01*
X147840371Y-127250499D01*
X147840372Y-127250499D01*
X147899983Y-127244091D01*
X148034831Y-127193796D01*
X148150046Y-127107546D01*
X148236296Y-126992331D01*
X148254512Y-126943491D01*
X148296380Y-126887560D01*
X148361844Y-126863141D01*
X148430117Y-126877991D01*
G37*
%TD.AperFunction*%
%TA.AperFunction,Conductor*%
G36*
X168117539Y-112970184D02*
G01*
X168163294Y-113022988D01*
X168174500Y-113074499D01*
X168174500Y-126924902D01*
X168154815Y-126991941D01*
X168138181Y-127012583D01*
X167487181Y-127663583D01*
X167425858Y-127697068D01*
X167356166Y-127692084D01*
X167300233Y-127650212D01*
X167275816Y-127584748D01*
X167275500Y-127575902D01*
X167275500Y-126831792D01*
X167260845Y-126687677D01*
X167202977Y-126503240D01*
X167202975Y-126503236D01*
X167202974Y-126503232D01*
X167109159Y-126334209D01*
X167109158Y-126334208D01*
X167109157Y-126334206D01*
X166983241Y-126187533D01*
X166983240Y-126187531D01*
X166830375Y-126069205D01*
X166830371Y-126069203D01*
X166823396Y-126065781D01*
X166656816Y-125984070D01*
X166656814Y-125984069D01*
X166656811Y-125984068D01*
X166656813Y-125984068D01*
X166469682Y-125935616D01*
X166469676Y-125935615D01*
X166340964Y-125929087D01*
X166276610Y-125925824D01*
X166276609Y-125925824D01*
X166276607Y-125925824D01*
X166085533Y-125955095D01*
X166085521Y-125955098D01*
X165904251Y-126022234D01*
X165904242Y-126022238D01*
X165740196Y-126124488D01*
X165600080Y-126257677D01*
X165489645Y-126416344D01*
X165489644Y-126416345D01*
X165444501Y-126521540D01*
X165418232Y-126560320D01*
X165186873Y-126791679D01*
X165125550Y-126825164D01*
X165080192Y-126821920D01*
X165135387Y-126777905D01*
X165175000Y-126695649D01*
X165175000Y-126604351D01*
X165135387Y-126522095D01*
X165064008Y-126465173D01*
X164997532Y-126450000D01*
X164954285Y-126450000D01*
X164945187Y-126422003D01*
X164943192Y-126352165D01*
X164975438Y-126296006D01*
X165374166Y-125897279D01*
X165374166Y-125897278D01*
X165239108Y-125837148D01*
X165239109Y-125837148D01*
X165064339Y-125800000D01*
X164885661Y-125800000D01*
X164710890Y-125837148D01*
X164710887Y-125837149D01*
X164601048Y-125886052D01*
X164531798Y-125895336D01*
X164500179Y-125886052D01*
X164389265Y-125836670D01*
X164261594Y-125809533D01*
X164214391Y-125799500D01*
X164035609Y-125799500D01*
X163998438Y-125807400D01*
X163860734Y-125836670D01*
X163860729Y-125836672D01*
X163750433Y-125885778D01*
X163681183Y-125895062D01*
X163649565Y-125885778D01*
X163540341Y-125837149D01*
X163539265Y-125836670D01*
X163411594Y-125809533D01*
X163364391Y-125799500D01*
X163185609Y-125799500D01*
X163148439Y-125807400D01*
X163010734Y-125836670D01*
X163010729Y-125836672D01*
X162900433Y-125885778D01*
X162831183Y-125895062D01*
X162799565Y-125885778D01*
X162690341Y-125837149D01*
X162689265Y-125836670D01*
X162561594Y-125809533D01*
X162514391Y-125799500D01*
X162335609Y-125799500D01*
X162325278Y-125801696D01*
X162255611Y-125796378D01*
X162199878Y-125754239D01*
X162175775Y-125688659D01*
X162175500Y-125680405D01*
X162175500Y-118550095D01*
X162195185Y-118483056D01*
X162211814Y-118462419D01*
X167687416Y-112986818D01*
X167748739Y-112953333D01*
X167775097Y-112950499D01*
X168050500Y-112950499D01*
X168117539Y-112970184D01*
G37*
%TD.AperFunction*%
%TA.AperFunction,Conductor*%
G36*
X146605703Y-94346402D02*
G01*
X146622873Y-94364625D01*
X146671718Y-94428282D01*
X146699995Y-94449980D01*
X146706085Y-94455320D01*
X146797923Y-94547158D01*
X146844453Y-94593688D01*
X146877938Y-94655011D01*
X146872954Y-94724703D01*
X146831082Y-94780636D01*
X146772956Y-94804308D01*
X146688371Y-94815442D01*
X146688069Y-94815524D01*
X146687755Y-94815524D01*
X146680311Y-94816504D01*
X146680182Y-94815524D01*
X146629883Y-94815525D01*
X146629819Y-94816017D01*
X146626089Y-94815525D01*
X146623891Y-94815526D01*
X146621765Y-94814956D01*
X146522338Y-94801866D01*
X146458441Y-94773599D01*
X146450843Y-94766608D01*
X146436819Y-94752584D01*
X146403334Y-94691261D01*
X146400500Y-94664903D01*
X146400500Y-94440115D01*
X146420185Y-94373076D01*
X146472989Y-94327321D01*
X146542147Y-94317377D01*
X146605703Y-94346402D01*
G37*
%TD.AperFunction*%
%TD*%
M02*
