%TF.GenerationSoftware,KiCad,Pcbnew,7.0.6*%
%TF.CreationDate,2023-08-21T19:58:41-03:00*%
%TF.ProjectId,satelite,73617465-6c69-4746-952e-6b696361645f,rev?*%
%TF.SameCoordinates,Original*%
%TF.FileFunction,Legend,Bot*%
%TF.FilePolarity,Positive*%
%FSLAX46Y46*%
G04 Gerber Fmt 4.6, Leading zero omitted, Abs format (unit mm)*
G04 Created by KiCad (PCBNEW 7.0.6) date 2023-08-21 19:58:41*
%MOMM*%
%LPD*%
G01*
G04 APERTURE LIST*
%ADD10C,0.150000*%
%ADD11C,0.120000*%
G04 APERTURE END LIST*
D10*
X171391666Y-77929580D02*
X171439285Y-77977200D01*
X171439285Y-77977200D02*
X171582142Y-78024819D01*
X171582142Y-78024819D02*
X171677380Y-78024819D01*
X171677380Y-78024819D02*
X171820237Y-77977200D01*
X171820237Y-77977200D02*
X171915475Y-77881961D01*
X171915475Y-77881961D02*
X171963094Y-77786723D01*
X171963094Y-77786723D02*
X172010713Y-77596247D01*
X172010713Y-77596247D02*
X172010713Y-77453390D01*
X172010713Y-77453390D02*
X171963094Y-77262914D01*
X171963094Y-77262914D02*
X171915475Y-77167676D01*
X171915475Y-77167676D02*
X171820237Y-77072438D01*
X171820237Y-77072438D02*
X171677380Y-77024819D01*
X171677380Y-77024819D02*
X171582142Y-77024819D01*
X171582142Y-77024819D02*
X171439285Y-77072438D01*
X171439285Y-77072438D02*
X171391666Y-77120057D01*
X170915475Y-78024819D02*
X170724999Y-78024819D01*
X170724999Y-78024819D02*
X170629761Y-77977200D01*
X170629761Y-77977200D02*
X170582142Y-77929580D01*
X170582142Y-77929580D02*
X170486904Y-77786723D01*
X170486904Y-77786723D02*
X170439285Y-77596247D01*
X170439285Y-77596247D02*
X170439285Y-77215295D01*
X170439285Y-77215295D02*
X170486904Y-77120057D01*
X170486904Y-77120057D02*
X170534523Y-77072438D01*
X170534523Y-77072438D02*
X170629761Y-77024819D01*
X170629761Y-77024819D02*
X170820237Y-77024819D01*
X170820237Y-77024819D02*
X170915475Y-77072438D01*
X170915475Y-77072438D02*
X170963094Y-77120057D01*
X170963094Y-77120057D02*
X171010713Y-77215295D01*
X171010713Y-77215295D02*
X171010713Y-77453390D01*
X171010713Y-77453390D02*
X170963094Y-77548628D01*
X170963094Y-77548628D02*
X170915475Y-77596247D01*
X170915475Y-77596247D02*
X170820237Y-77643866D01*
X170820237Y-77643866D02*
X170629761Y-77643866D01*
X170629761Y-77643866D02*
X170534523Y-77596247D01*
X170534523Y-77596247D02*
X170486904Y-77548628D01*
X170486904Y-77548628D02*
X170439285Y-77453390D01*
X134666666Y-81804819D02*
X134999999Y-81328628D01*
X135238094Y-81804819D02*
X135238094Y-80804819D01*
X135238094Y-80804819D02*
X134857142Y-80804819D01*
X134857142Y-80804819D02*
X134761904Y-80852438D01*
X134761904Y-80852438D02*
X134714285Y-80900057D01*
X134714285Y-80900057D02*
X134666666Y-80995295D01*
X134666666Y-80995295D02*
X134666666Y-81138152D01*
X134666666Y-81138152D02*
X134714285Y-81233390D01*
X134714285Y-81233390D02*
X134761904Y-81281009D01*
X134761904Y-81281009D02*
X134857142Y-81328628D01*
X134857142Y-81328628D02*
X135238094Y-81328628D01*
X134095237Y-81233390D02*
X134190475Y-81185771D01*
X134190475Y-81185771D02*
X134238094Y-81138152D01*
X134238094Y-81138152D02*
X134285713Y-81042914D01*
X134285713Y-81042914D02*
X134285713Y-80995295D01*
X134285713Y-80995295D02*
X134238094Y-80900057D01*
X134238094Y-80900057D02*
X134190475Y-80852438D01*
X134190475Y-80852438D02*
X134095237Y-80804819D01*
X134095237Y-80804819D02*
X133904761Y-80804819D01*
X133904761Y-80804819D02*
X133809523Y-80852438D01*
X133809523Y-80852438D02*
X133761904Y-80900057D01*
X133761904Y-80900057D02*
X133714285Y-80995295D01*
X133714285Y-80995295D02*
X133714285Y-81042914D01*
X133714285Y-81042914D02*
X133761904Y-81138152D01*
X133761904Y-81138152D02*
X133809523Y-81185771D01*
X133809523Y-81185771D02*
X133904761Y-81233390D01*
X133904761Y-81233390D02*
X134095237Y-81233390D01*
X134095237Y-81233390D02*
X134190475Y-81281009D01*
X134190475Y-81281009D02*
X134238094Y-81328628D01*
X134238094Y-81328628D02*
X134285713Y-81423866D01*
X134285713Y-81423866D02*
X134285713Y-81614342D01*
X134285713Y-81614342D02*
X134238094Y-81709580D01*
X134238094Y-81709580D02*
X134190475Y-81757200D01*
X134190475Y-81757200D02*
X134095237Y-81804819D01*
X134095237Y-81804819D02*
X133904761Y-81804819D01*
X133904761Y-81804819D02*
X133809523Y-81757200D01*
X133809523Y-81757200D02*
X133761904Y-81709580D01*
X133761904Y-81709580D02*
X133714285Y-81614342D01*
X133714285Y-81614342D02*
X133714285Y-81423866D01*
X133714285Y-81423866D02*
X133761904Y-81328628D01*
X133761904Y-81328628D02*
X133809523Y-81281009D01*
X133809523Y-81281009D02*
X133904761Y-81233390D01*
X165166666Y-65804819D02*
X165499999Y-65328628D01*
X165738094Y-65804819D02*
X165738094Y-64804819D01*
X165738094Y-64804819D02*
X165357142Y-64804819D01*
X165357142Y-64804819D02*
X165261904Y-64852438D01*
X165261904Y-64852438D02*
X165214285Y-64900057D01*
X165214285Y-64900057D02*
X165166666Y-64995295D01*
X165166666Y-64995295D02*
X165166666Y-65138152D01*
X165166666Y-65138152D02*
X165214285Y-65233390D01*
X165214285Y-65233390D02*
X165261904Y-65281009D01*
X165261904Y-65281009D02*
X165357142Y-65328628D01*
X165357142Y-65328628D02*
X165738094Y-65328628D01*
X164309523Y-64804819D02*
X164499999Y-64804819D01*
X164499999Y-64804819D02*
X164595237Y-64852438D01*
X164595237Y-64852438D02*
X164642856Y-64900057D01*
X164642856Y-64900057D02*
X164738094Y-65042914D01*
X164738094Y-65042914D02*
X164785713Y-65233390D01*
X164785713Y-65233390D02*
X164785713Y-65614342D01*
X164785713Y-65614342D02*
X164738094Y-65709580D01*
X164738094Y-65709580D02*
X164690475Y-65757200D01*
X164690475Y-65757200D02*
X164595237Y-65804819D01*
X164595237Y-65804819D02*
X164404761Y-65804819D01*
X164404761Y-65804819D02*
X164309523Y-65757200D01*
X164309523Y-65757200D02*
X164261904Y-65709580D01*
X164261904Y-65709580D02*
X164214285Y-65614342D01*
X164214285Y-65614342D02*
X164214285Y-65376247D01*
X164214285Y-65376247D02*
X164261904Y-65281009D01*
X164261904Y-65281009D02*
X164309523Y-65233390D01*
X164309523Y-65233390D02*
X164404761Y-65185771D01*
X164404761Y-65185771D02*
X164595237Y-65185771D01*
X164595237Y-65185771D02*
X164690475Y-65233390D01*
X164690475Y-65233390D02*
X164738094Y-65281009D01*
X164738094Y-65281009D02*
X164785713Y-65376247D01*
X135297857Y-124309580D02*
X135345476Y-124357200D01*
X135345476Y-124357200D02*
X135488333Y-124404819D01*
X135488333Y-124404819D02*
X135583571Y-124404819D01*
X135583571Y-124404819D02*
X135726428Y-124357200D01*
X135726428Y-124357200D02*
X135821666Y-124261961D01*
X135821666Y-124261961D02*
X135869285Y-124166723D01*
X135869285Y-124166723D02*
X135916904Y-123976247D01*
X135916904Y-123976247D02*
X135916904Y-123833390D01*
X135916904Y-123833390D02*
X135869285Y-123642914D01*
X135869285Y-123642914D02*
X135821666Y-123547676D01*
X135821666Y-123547676D02*
X135726428Y-123452438D01*
X135726428Y-123452438D02*
X135583571Y-123404819D01*
X135583571Y-123404819D02*
X135488333Y-123404819D01*
X135488333Y-123404819D02*
X135345476Y-123452438D01*
X135345476Y-123452438D02*
X135297857Y-123500057D01*
X134345476Y-124404819D02*
X134916904Y-124404819D01*
X134631190Y-124404819D02*
X134631190Y-123404819D01*
X134631190Y-123404819D02*
X134726428Y-123547676D01*
X134726428Y-123547676D02*
X134821666Y-123642914D01*
X134821666Y-123642914D02*
X134916904Y-123690533D01*
X133964523Y-123500057D02*
X133916904Y-123452438D01*
X133916904Y-123452438D02*
X133821666Y-123404819D01*
X133821666Y-123404819D02*
X133583571Y-123404819D01*
X133583571Y-123404819D02*
X133488333Y-123452438D01*
X133488333Y-123452438D02*
X133440714Y-123500057D01*
X133440714Y-123500057D02*
X133393095Y-123595295D01*
X133393095Y-123595295D02*
X133393095Y-123690533D01*
X133393095Y-123690533D02*
X133440714Y-123833390D01*
X133440714Y-123833390D02*
X134012142Y-124404819D01*
X134012142Y-124404819D02*
X133393095Y-124404819D01*
X154692857Y-86679580D02*
X154740476Y-86727200D01*
X154740476Y-86727200D02*
X154883333Y-86774819D01*
X154883333Y-86774819D02*
X154978571Y-86774819D01*
X154978571Y-86774819D02*
X155121428Y-86727200D01*
X155121428Y-86727200D02*
X155216666Y-86631961D01*
X155216666Y-86631961D02*
X155264285Y-86536723D01*
X155264285Y-86536723D02*
X155311904Y-86346247D01*
X155311904Y-86346247D02*
X155311904Y-86203390D01*
X155311904Y-86203390D02*
X155264285Y-86012914D01*
X155264285Y-86012914D02*
X155216666Y-85917676D01*
X155216666Y-85917676D02*
X155121428Y-85822438D01*
X155121428Y-85822438D02*
X154978571Y-85774819D01*
X154978571Y-85774819D02*
X154883333Y-85774819D01*
X154883333Y-85774819D02*
X154740476Y-85822438D01*
X154740476Y-85822438D02*
X154692857Y-85870057D01*
X153740476Y-86774819D02*
X154311904Y-86774819D01*
X154026190Y-86774819D02*
X154026190Y-85774819D01*
X154026190Y-85774819D02*
X154121428Y-85917676D01*
X154121428Y-85917676D02*
X154216666Y-86012914D01*
X154216666Y-86012914D02*
X154311904Y-86060533D01*
X153121428Y-85774819D02*
X153026190Y-85774819D01*
X153026190Y-85774819D02*
X152930952Y-85822438D01*
X152930952Y-85822438D02*
X152883333Y-85870057D01*
X152883333Y-85870057D02*
X152835714Y-85965295D01*
X152835714Y-85965295D02*
X152788095Y-86155771D01*
X152788095Y-86155771D02*
X152788095Y-86393866D01*
X152788095Y-86393866D02*
X152835714Y-86584342D01*
X152835714Y-86584342D02*
X152883333Y-86679580D01*
X152883333Y-86679580D02*
X152930952Y-86727200D01*
X152930952Y-86727200D02*
X153026190Y-86774819D01*
X153026190Y-86774819D02*
X153121428Y-86774819D01*
X153121428Y-86774819D02*
X153216666Y-86727200D01*
X153216666Y-86727200D02*
X153264285Y-86679580D01*
X153264285Y-86679580D02*
X153311904Y-86584342D01*
X153311904Y-86584342D02*
X153359523Y-86393866D01*
X153359523Y-86393866D02*
X153359523Y-86155771D01*
X153359523Y-86155771D02*
X153311904Y-85965295D01*
X153311904Y-85965295D02*
X153264285Y-85870057D01*
X153264285Y-85870057D02*
X153216666Y-85822438D01*
X153216666Y-85822438D02*
X153121428Y-85774819D01*
X171391666Y-73929580D02*
X171439285Y-73977200D01*
X171439285Y-73977200D02*
X171582142Y-74024819D01*
X171582142Y-74024819D02*
X171677380Y-74024819D01*
X171677380Y-74024819D02*
X171820237Y-73977200D01*
X171820237Y-73977200D02*
X171915475Y-73881961D01*
X171915475Y-73881961D02*
X171963094Y-73786723D01*
X171963094Y-73786723D02*
X172010713Y-73596247D01*
X172010713Y-73596247D02*
X172010713Y-73453390D01*
X172010713Y-73453390D02*
X171963094Y-73262914D01*
X171963094Y-73262914D02*
X171915475Y-73167676D01*
X171915475Y-73167676D02*
X171820237Y-73072438D01*
X171820237Y-73072438D02*
X171677380Y-73024819D01*
X171677380Y-73024819D02*
X171582142Y-73024819D01*
X171582142Y-73024819D02*
X171439285Y-73072438D01*
X171439285Y-73072438D02*
X171391666Y-73120057D01*
X170820237Y-73453390D02*
X170915475Y-73405771D01*
X170915475Y-73405771D02*
X170963094Y-73358152D01*
X170963094Y-73358152D02*
X171010713Y-73262914D01*
X171010713Y-73262914D02*
X171010713Y-73215295D01*
X171010713Y-73215295D02*
X170963094Y-73120057D01*
X170963094Y-73120057D02*
X170915475Y-73072438D01*
X170915475Y-73072438D02*
X170820237Y-73024819D01*
X170820237Y-73024819D02*
X170629761Y-73024819D01*
X170629761Y-73024819D02*
X170534523Y-73072438D01*
X170534523Y-73072438D02*
X170486904Y-73120057D01*
X170486904Y-73120057D02*
X170439285Y-73215295D01*
X170439285Y-73215295D02*
X170439285Y-73262914D01*
X170439285Y-73262914D02*
X170486904Y-73358152D01*
X170486904Y-73358152D02*
X170534523Y-73405771D01*
X170534523Y-73405771D02*
X170629761Y-73453390D01*
X170629761Y-73453390D02*
X170820237Y-73453390D01*
X170820237Y-73453390D02*
X170915475Y-73501009D01*
X170915475Y-73501009D02*
X170963094Y-73548628D01*
X170963094Y-73548628D02*
X171010713Y-73643866D01*
X171010713Y-73643866D02*
X171010713Y-73834342D01*
X171010713Y-73834342D02*
X170963094Y-73929580D01*
X170963094Y-73929580D02*
X170915475Y-73977200D01*
X170915475Y-73977200D02*
X170820237Y-74024819D01*
X170820237Y-74024819D02*
X170629761Y-74024819D01*
X170629761Y-74024819D02*
X170534523Y-73977200D01*
X170534523Y-73977200D02*
X170486904Y-73929580D01*
X170486904Y-73929580D02*
X170439285Y-73834342D01*
X170439285Y-73834342D02*
X170439285Y-73643866D01*
X170439285Y-73643866D02*
X170486904Y-73548628D01*
X170486904Y-73548628D02*
X170534523Y-73501009D01*
X170534523Y-73501009D02*
X170629761Y-73453390D01*
X172297857Y-84059580D02*
X172345476Y-84107200D01*
X172345476Y-84107200D02*
X172488333Y-84154819D01*
X172488333Y-84154819D02*
X172583571Y-84154819D01*
X172583571Y-84154819D02*
X172726428Y-84107200D01*
X172726428Y-84107200D02*
X172821666Y-84011961D01*
X172821666Y-84011961D02*
X172869285Y-83916723D01*
X172869285Y-83916723D02*
X172916904Y-83726247D01*
X172916904Y-83726247D02*
X172916904Y-83583390D01*
X172916904Y-83583390D02*
X172869285Y-83392914D01*
X172869285Y-83392914D02*
X172821666Y-83297676D01*
X172821666Y-83297676D02*
X172726428Y-83202438D01*
X172726428Y-83202438D02*
X172583571Y-83154819D01*
X172583571Y-83154819D02*
X172488333Y-83154819D01*
X172488333Y-83154819D02*
X172345476Y-83202438D01*
X172345476Y-83202438D02*
X172297857Y-83250057D01*
X171345476Y-84154819D02*
X171916904Y-84154819D01*
X171631190Y-84154819D02*
X171631190Y-83154819D01*
X171631190Y-83154819D02*
X171726428Y-83297676D01*
X171726428Y-83297676D02*
X171821666Y-83392914D01*
X171821666Y-83392914D02*
X171916904Y-83440533D01*
X170488333Y-83488152D02*
X170488333Y-84154819D01*
X170726428Y-83107200D02*
X170964523Y-83821485D01*
X170964523Y-83821485D02*
X170345476Y-83821485D01*
X165254166Y-69804819D02*
X165587499Y-69328628D01*
X165825594Y-69804819D02*
X165825594Y-68804819D01*
X165825594Y-68804819D02*
X165444642Y-68804819D01*
X165444642Y-68804819D02*
X165349404Y-68852438D01*
X165349404Y-68852438D02*
X165301785Y-68900057D01*
X165301785Y-68900057D02*
X165254166Y-68995295D01*
X165254166Y-68995295D02*
X165254166Y-69138152D01*
X165254166Y-69138152D02*
X165301785Y-69233390D01*
X165301785Y-69233390D02*
X165349404Y-69281009D01*
X165349404Y-69281009D02*
X165444642Y-69328628D01*
X165444642Y-69328628D02*
X165825594Y-69328628D01*
X164920832Y-68804819D02*
X164254166Y-68804819D01*
X164254166Y-68804819D02*
X164682737Y-69804819D01*
X134666666Y-89854819D02*
X134999999Y-89378628D01*
X135238094Y-89854819D02*
X135238094Y-88854819D01*
X135238094Y-88854819D02*
X134857142Y-88854819D01*
X134857142Y-88854819D02*
X134761904Y-88902438D01*
X134761904Y-88902438D02*
X134714285Y-88950057D01*
X134714285Y-88950057D02*
X134666666Y-89045295D01*
X134666666Y-89045295D02*
X134666666Y-89188152D01*
X134666666Y-89188152D02*
X134714285Y-89283390D01*
X134714285Y-89283390D02*
X134761904Y-89331009D01*
X134761904Y-89331009D02*
X134857142Y-89378628D01*
X134857142Y-89378628D02*
X135238094Y-89378628D01*
X134190475Y-89854819D02*
X133999999Y-89854819D01*
X133999999Y-89854819D02*
X133904761Y-89807200D01*
X133904761Y-89807200D02*
X133857142Y-89759580D01*
X133857142Y-89759580D02*
X133761904Y-89616723D01*
X133761904Y-89616723D02*
X133714285Y-89426247D01*
X133714285Y-89426247D02*
X133714285Y-89045295D01*
X133714285Y-89045295D02*
X133761904Y-88950057D01*
X133761904Y-88950057D02*
X133809523Y-88902438D01*
X133809523Y-88902438D02*
X133904761Y-88854819D01*
X133904761Y-88854819D02*
X134095237Y-88854819D01*
X134095237Y-88854819D02*
X134190475Y-88902438D01*
X134190475Y-88902438D02*
X134238094Y-88950057D01*
X134238094Y-88950057D02*
X134285713Y-89045295D01*
X134285713Y-89045295D02*
X134285713Y-89283390D01*
X134285713Y-89283390D02*
X134238094Y-89378628D01*
X134238094Y-89378628D02*
X134190475Y-89426247D01*
X134190475Y-89426247D02*
X134095237Y-89473866D01*
X134095237Y-89473866D02*
X133904761Y-89473866D01*
X133904761Y-89473866D02*
X133809523Y-89426247D01*
X133809523Y-89426247D02*
X133761904Y-89378628D01*
X133761904Y-89378628D02*
X133714285Y-89283390D01*
X172297857Y-82309580D02*
X172345476Y-82357200D01*
X172345476Y-82357200D02*
X172488333Y-82404819D01*
X172488333Y-82404819D02*
X172583571Y-82404819D01*
X172583571Y-82404819D02*
X172726428Y-82357200D01*
X172726428Y-82357200D02*
X172821666Y-82261961D01*
X172821666Y-82261961D02*
X172869285Y-82166723D01*
X172869285Y-82166723D02*
X172916904Y-81976247D01*
X172916904Y-81976247D02*
X172916904Y-81833390D01*
X172916904Y-81833390D02*
X172869285Y-81642914D01*
X172869285Y-81642914D02*
X172821666Y-81547676D01*
X172821666Y-81547676D02*
X172726428Y-81452438D01*
X172726428Y-81452438D02*
X172583571Y-81404819D01*
X172583571Y-81404819D02*
X172488333Y-81404819D01*
X172488333Y-81404819D02*
X172345476Y-81452438D01*
X172345476Y-81452438D02*
X172297857Y-81500057D01*
X171345476Y-82404819D02*
X171916904Y-82404819D01*
X171631190Y-82404819D02*
X171631190Y-81404819D01*
X171631190Y-81404819D02*
X171726428Y-81547676D01*
X171726428Y-81547676D02*
X171821666Y-81642914D01*
X171821666Y-81642914D02*
X171916904Y-81690533D01*
X171012142Y-81404819D02*
X170393095Y-81404819D01*
X170393095Y-81404819D02*
X170726428Y-81785771D01*
X170726428Y-81785771D02*
X170583571Y-81785771D01*
X170583571Y-81785771D02*
X170488333Y-81833390D01*
X170488333Y-81833390D02*
X170440714Y-81881009D01*
X170440714Y-81881009D02*
X170393095Y-81976247D01*
X170393095Y-81976247D02*
X170393095Y-82214342D01*
X170393095Y-82214342D02*
X170440714Y-82309580D01*
X170440714Y-82309580D02*
X170488333Y-82357200D01*
X170488333Y-82357200D02*
X170583571Y-82404819D01*
X170583571Y-82404819D02*
X170869285Y-82404819D01*
X170869285Y-82404819D02*
X170964523Y-82357200D01*
X170964523Y-82357200D02*
X171012142Y-82309580D01*
X147654819Y-102888095D02*
X148464342Y-102888095D01*
X148464342Y-102888095D02*
X148559580Y-102935714D01*
X148559580Y-102935714D02*
X148607200Y-102983333D01*
X148607200Y-102983333D02*
X148654819Y-103078571D01*
X148654819Y-103078571D02*
X148654819Y-103269047D01*
X148654819Y-103269047D02*
X148607200Y-103364285D01*
X148607200Y-103364285D02*
X148559580Y-103411904D01*
X148559580Y-103411904D02*
X148464342Y-103459523D01*
X148464342Y-103459523D02*
X147654819Y-103459523D01*
X147654819Y-104411904D02*
X147654819Y-103935714D01*
X147654819Y-103935714D02*
X148131009Y-103888095D01*
X148131009Y-103888095D02*
X148083390Y-103935714D01*
X148083390Y-103935714D02*
X148035771Y-104030952D01*
X148035771Y-104030952D02*
X148035771Y-104269047D01*
X148035771Y-104269047D02*
X148083390Y-104364285D01*
X148083390Y-104364285D02*
X148131009Y-104411904D01*
X148131009Y-104411904D02*
X148226247Y-104459523D01*
X148226247Y-104459523D02*
X148464342Y-104459523D01*
X148464342Y-104459523D02*
X148559580Y-104411904D01*
X148559580Y-104411904D02*
X148607200Y-104364285D01*
X148607200Y-104364285D02*
X148654819Y-104269047D01*
X148654819Y-104269047D02*
X148654819Y-104030952D01*
X148654819Y-104030952D02*
X148607200Y-103935714D01*
X148607200Y-103935714D02*
X148559580Y-103888095D01*
X167108333Y-73254819D02*
X167108333Y-73969104D01*
X167108333Y-73969104D02*
X167155952Y-74111961D01*
X167155952Y-74111961D02*
X167251190Y-74207200D01*
X167251190Y-74207200D02*
X167394047Y-74254819D01*
X167394047Y-74254819D02*
X167489285Y-74254819D01*
X166155952Y-73254819D02*
X166632142Y-73254819D01*
X166632142Y-73254819D02*
X166679761Y-73731009D01*
X166679761Y-73731009D02*
X166632142Y-73683390D01*
X166632142Y-73683390D02*
X166536904Y-73635771D01*
X166536904Y-73635771D02*
X166298809Y-73635771D01*
X166298809Y-73635771D02*
X166203571Y-73683390D01*
X166203571Y-73683390D02*
X166155952Y-73731009D01*
X166155952Y-73731009D02*
X166108333Y-73826247D01*
X166108333Y-73826247D02*
X166108333Y-74064342D01*
X166108333Y-74064342D02*
X166155952Y-74159580D01*
X166155952Y-74159580D02*
X166203571Y-74207200D01*
X166203571Y-74207200D02*
X166298809Y-74254819D01*
X166298809Y-74254819D02*
X166536904Y-74254819D01*
X166536904Y-74254819D02*
X166632142Y-74207200D01*
X166632142Y-74207200D02*
X166679761Y-74159580D01*
X160454819Y-93488095D02*
X161264342Y-93488095D01*
X161264342Y-93488095D02*
X161359580Y-93535714D01*
X161359580Y-93535714D02*
X161407200Y-93583333D01*
X161407200Y-93583333D02*
X161454819Y-93678571D01*
X161454819Y-93678571D02*
X161454819Y-93869047D01*
X161454819Y-93869047D02*
X161407200Y-93964285D01*
X161407200Y-93964285D02*
X161359580Y-94011904D01*
X161359580Y-94011904D02*
X161264342Y-94059523D01*
X161264342Y-94059523D02*
X160454819Y-94059523D01*
X160454819Y-94440476D02*
X160454819Y-95059523D01*
X160454819Y-95059523D02*
X160835771Y-94726190D01*
X160835771Y-94726190D02*
X160835771Y-94869047D01*
X160835771Y-94869047D02*
X160883390Y-94964285D01*
X160883390Y-94964285D02*
X160931009Y-95011904D01*
X160931009Y-95011904D02*
X161026247Y-95059523D01*
X161026247Y-95059523D02*
X161264342Y-95059523D01*
X161264342Y-95059523D02*
X161359580Y-95011904D01*
X161359580Y-95011904D02*
X161407200Y-94964285D01*
X161407200Y-94964285D02*
X161454819Y-94869047D01*
X161454819Y-94869047D02*
X161454819Y-94583333D01*
X161454819Y-94583333D02*
X161407200Y-94488095D01*
X161407200Y-94488095D02*
X161359580Y-94440476D01*
X140079819Y-115691666D02*
X140794104Y-115691666D01*
X140794104Y-115691666D02*
X140936961Y-115644047D01*
X140936961Y-115644047D02*
X141032200Y-115548809D01*
X141032200Y-115548809D02*
X141079819Y-115405952D01*
X141079819Y-115405952D02*
X141079819Y-115310714D01*
X141079819Y-116691666D02*
X141079819Y-116120238D01*
X141079819Y-116405952D02*
X140079819Y-116405952D01*
X140079819Y-116405952D02*
X140222676Y-116310714D01*
X140222676Y-116310714D02*
X140317914Y-116215476D01*
X140317914Y-116215476D02*
X140365533Y-116120238D01*
X130558333Y-76904819D02*
X130558333Y-77619104D01*
X130558333Y-77619104D02*
X130605952Y-77761961D01*
X130605952Y-77761961D02*
X130701190Y-77857200D01*
X130701190Y-77857200D02*
X130844047Y-77904819D01*
X130844047Y-77904819D02*
X130939285Y-77904819D01*
X130177380Y-76904819D02*
X129558333Y-76904819D01*
X129558333Y-76904819D02*
X129891666Y-77285771D01*
X129891666Y-77285771D02*
X129748809Y-77285771D01*
X129748809Y-77285771D02*
X129653571Y-77333390D01*
X129653571Y-77333390D02*
X129605952Y-77381009D01*
X129605952Y-77381009D02*
X129558333Y-77476247D01*
X129558333Y-77476247D02*
X129558333Y-77714342D01*
X129558333Y-77714342D02*
X129605952Y-77809580D01*
X129605952Y-77809580D02*
X129653571Y-77857200D01*
X129653571Y-77857200D02*
X129748809Y-77904819D01*
X129748809Y-77904819D02*
X130034523Y-77904819D01*
X130034523Y-77904819D02*
X130129761Y-77857200D01*
X130129761Y-77857200D02*
X130177380Y-77809580D01*
D11*
%TO.C,C9*%
X171365580Y-78490000D02*
X171084420Y-78490000D01*
X171365580Y-79510000D02*
X171084420Y-79510000D01*
%TO.C,R8*%
X134727064Y-82265000D02*
X134272936Y-82265000D01*
X134727064Y-83735000D02*
X134272936Y-83735000D01*
%TO.C,R6*%
X165227064Y-66265000D02*
X164772936Y-66265000D01*
X165227064Y-67735000D02*
X164772936Y-67735000D01*
%TO.C,C10*%
X154311252Y-87265000D02*
X153788748Y-87265000D01*
X154311252Y-88735000D02*
X153788748Y-88735000D01*
%TO.C,C8*%
X171365580Y-74490000D02*
X171084420Y-74490000D01*
X171365580Y-75510000D02*
X171084420Y-75510000D01*
%TO.C,R7*%
X165314564Y-70265000D02*
X164860436Y-70265000D01*
X165314564Y-71735000D02*
X164860436Y-71735000D01*
%TO.C,R9*%
X134272936Y-88485000D02*
X134727064Y-88485000D01*
X134272936Y-87015000D02*
X134727064Y-87015000D01*
%TO.C,U5*%
X149780000Y-117120000D02*
X151000000Y-117120000D01*
X170800000Y-117120000D02*
X172020000Y-117120000D01*
X149780000Y-115400000D02*
X149780000Y-117120000D01*
X172020000Y-115400000D02*
X172020000Y-117120000D01*
X172020000Y-104600000D02*
X172020000Y-102880000D01*
X149780000Y-102880000D02*
X149780000Y-104600000D01*
X172020000Y-102880000D02*
X170800000Y-102880000D01*
%TO.C,J5*%
X165415000Y-75650000D02*
X165415000Y-78350000D01*
X168135000Y-75600000D02*
X168135000Y-76240000D01*
X168135000Y-76240000D02*
X168765000Y-76240000D01*
X168135000Y-78400000D02*
X168135000Y-77760000D01*
%TO.C,U3*%
X161990000Y-88600000D02*
X161990000Y-89290000D01*
X172160000Y-89290000D02*
X172160000Y-99210000D01*
X172010000Y-89290000D02*
X172160000Y-89290000D01*
X161840000Y-89290000D02*
X161990000Y-89290000D01*
X161840000Y-89290000D02*
X161840000Y-99210000D01*
X172010000Y-99210000D02*
X172160000Y-99210000D01*
X161840000Y-99210000D02*
X161990000Y-99210000D01*
%TO.C,J1*%
X134375000Y-122435000D02*
X128775000Y-122435000D01*
X137625000Y-122435000D02*
X138785000Y-122435000D01*
X138785000Y-122435000D02*
X138785000Y-111175000D01*
X138785000Y-109675000D02*
X138785000Y-109565000D01*
X135075000Y-109565000D02*
X128775000Y-109565000D01*
X138785000Y-109565000D02*
X136975000Y-109565000D01*
%TO.C,J3*%
X128865000Y-72850000D02*
X128865000Y-73490000D01*
X128865000Y-75010000D02*
X128235000Y-75010000D01*
X128865000Y-75650000D02*
X128865000Y-75010000D01*
X131585000Y-75600000D02*
X131585000Y-72900000D01*
%TD*%
M02*
