%TF.GenerationSoftware,KiCad,Pcbnew,7.0.6*%
%TF.CreationDate,2023-08-21T19:58:41-03:00*%
%TF.ProjectId,satelite,73617465-6c69-4746-952e-6b696361645f,rev?*%
%TF.SameCoordinates,Original*%
%TF.FileFunction,Paste,Bot*%
%TF.FilePolarity,Positive*%
%FSLAX46Y46*%
G04 Gerber Fmt 4.6, Leading zero omitted, Abs format (unit mm)*
G04 Created by KiCad (PCBNEW 7.0.6) date 2023-08-21 19:58:41*
%MOMM*%
%LPD*%
G01*
G04 APERTURE LIST*
G04 Aperture macros list*
%AMRoundRect*
0 Rectangle with rounded corners*
0 $1 Rounding radius*
0 $2 $3 $4 $5 $6 $7 $8 $9 X,Y pos of 4 corners*
0 Add a 4 corners polygon primitive as box body*
4,1,4,$2,$3,$4,$5,$6,$7,$8,$9,$2,$3,0*
0 Add four circle primitives for the rounded corners*
1,1,$1+$1,$2,$3*
1,1,$1+$1,$4,$5*
1,1,$1+$1,$6,$7*
1,1,$1+$1,$8,$9*
0 Add four rect primitives between the rounded corners*
20,1,$1+$1,$2,$3,$4,$5,0*
20,1,$1+$1,$4,$5,$6,$7,0*
20,1,$1+$1,$6,$7,$8,$9,0*
20,1,$1+$1,$8,$9,$2,$3,0*%
G04 Aperture macros list end*
%ADD10RoundRect,0.225000X0.225000X0.250000X-0.225000X0.250000X-0.225000X-0.250000X0.225000X-0.250000X0*%
%ADD11RoundRect,0.250000X0.262500X0.450000X-0.262500X0.450000X-0.262500X-0.450000X0.262500X-0.450000X0*%
%ADD12RoundRect,0.079500X0.079500X0.100500X-0.079500X0.100500X-0.079500X-0.100500X0.079500X-0.100500X0*%
%ADD13RoundRect,0.250000X0.250000X0.475000X-0.250000X0.475000X-0.250000X-0.475000X0.250000X-0.475000X0*%
%ADD14RoundRect,0.250000X-0.262500X-0.450000X0.262500X-0.450000X0.262500X0.450000X-0.262500X0.450000X0*%
%ADD15R,2.000000X1.200000*%
%ADD16R,1.200000X2.000000*%
%ADD17R,2.200000X1.050000*%
%ADD18R,1.050000X1.000000*%
%ADD19RoundRect,0.175000X-0.175000X0.725000X-0.175000X-0.725000X0.175000X-0.725000X0.175000X0.725000X0*%
%ADD20RoundRect,0.200000X-0.200000X0.700000X-0.200000X-0.700000X0.200000X-0.700000X0.200000X0.700000X0*%
%ADD21R,1.750000X0.700000*%
%ADD22R,1.000000X1.450000*%
%ADD23R,1.550000X1.000000*%
%ADD24R,1.500000X0.800000*%
%ADD25R,1.500000X1.300000*%
%ADD26R,1.500000X1.500000*%
%ADD27R,1.400000X0.800000*%
G04 APERTURE END LIST*
D10*
%TO.C,C9*%
X172000000Y-79000000D03*
X170450000Y-79000000D03*
%TD*%
D11*
%TO.C,R8*%
X135412500Y-83000000D03*
X133587500Y-83000000D03*
%TD*%
%TO.C,R6*%
X165912500Y-67000000D03*
X164087500Y-67000000D03*
%TD*%
D12*
%TO.C,C12*%
X135000000Y-125000000D03*
X134310000Y-125000000D03*
%TD*%
D13*
%TO.C,C10*%
X155000000Y-88000000D03*
X153100000Y-88000000D03*
%TD*%
D10*
%TO.C,C8*%
X172000000Y-75000000D03*
X170450000Y-75000000D03*
%TD*%
D12*
%TO.C,C14*%
X172000000Y-84750000D03*
X171310000Y-84750000D03*
%TD*%
D11*
%TO.C,R7*%
X166000000Y-71000000D03*
X164175000Y-71000000D03*
%TD*%
D14*
%TO.C,R9*%
X133587500Y-87750000D03*
X135412500Y-87750000D03*
%TD*%
D12*
%TO.C,C13*%
X172000000Y-83000000D03*
X171310000Y-83000000D03*
%TD*%
D15*
%TO.C,U5*%
X150150000Y-105500000D03*
X150150000Y-107300000D03*
X150150000Y-109100000D03*
X150150000Y-110900000D03*
X150150000Y-112700000D03*
X150150000Y-114500000D03*
D16*
X151900000Y-116750000D03*
X153700000Y-116750000D03*
X155500000Y-116750000D03*
X157300000Y-116750000D03*
X159100000Y-116750000D03*
X160900000Y-116750000D03*
X162700000Y-116750000D03*
X164500000Y-116750000D03*
X166300000Y-116750000D03*
X168100000Y-116750000D03*
X169900000Y-116750000D03*
D15*
X171650000Y-114500000D03*
X171650000Y-112700000D03*
X171650000Y-110900000D03*
X171650000Y-109100000D03*
X171650000Y-107300000D03*
X171650000Y-105500000D03*
D16*
X169900000Y-103250000D03*
X168100000Y-103250000D03*
X166300000Y-103250000D03*
X164500000Y-103250000D03*
X162700000Y-103250000D03*
X160900000Y-103250000D03*
X159100000Y-103250000D03*
X157300000Y-103250000D03*
X155500000Y-103250000D03*
X153700000Y-103250000D03*
X151900000Y-103250000D03*
%TD*%
D17*
%TO.C,J5*%
X166775000Y-75525000D03*
X166775000Y-78475000D03*
D18*
X168300000Y-77000000D03*
%TD*%
D19*
%TO.C,U3*%
X162600000Y-89500000D03*
D20*
X163700000Y-89500000D03*
X164800000Y-89500000D03*
X165900000Y-89500000D03*
X167000000Y-89500000D03*
X168100000Y-89500000D03*
X169200000Y-89500000D03*
X170300000Y-89500000D03*
D19*
X171400000Y-89500000D03*
X171400000Y-99000000D03*
D20*
X170300000Y-99000000D03*
X169200000Y-99000000D03*
X168100000Y-99000000D03*
X167000000Y-99000000D03*
X165900000Y-99000000D03*
X164800000Y-99000000D03*
X163700000Y-99000000D03*
D19*
X162600000Y-99000000D03*
%TD*%
D21*
%TO.C,J1*%
X127650000Y-112825000D03*
X127650000Y-113925000D03*
X127650000Y-115025000D03*
X127650000Y-116125000D03*
X127650000Y-117225000D03*
X127650000Y-118325000D03*
X127650000Y-119425000D03*
X127650000Y-120525000D03*
D22*
X136875000Y-121650000D03*
D23*
X138450000Y-110425000D03*
D24*
X135375000Y-121975000D03*
D25*
X127775000Y-121725000D03*
D26*
X127775000Y-110375000D03*
D27*
X136025000Y-110025000D03*
%TD*%
D18*
%TO.C,J3*%
X128700000Y-74250000D03*
D17*
X130225000Y-72775000D03*
X130225000Y-75725000D03*
%TD*%
M02*
