%TF.GenerationSoftware,KiCad,Pcbnew,7.0.6*%
%TF.CreationDate,2023-08-21T19:58:41-03:00*%
%TF.ProjectId,satelite,73617465-6c69-4746-952e-6b696361645f,rev?*%
%TF.SameCoordinates,Original*%
%TF.FileFunction,Soldermask,Top*%
%TF.FilePolarity,Negative*%
%FSLAX46Y46*%
G04 Gerber Fmt 4.6, Leading zero omitted, Abs format (unit mm)*
G04 Created by KiCad (PCBNEW 7.0.6) date 2023-08-21 19:58:41*
%MOMM*%
%LPD*%
G01*
G04 APERTURE LIST*
G04 Aperture macros list*
%AMRoundRect*
0 Rectangle with rounded corners*
0 $1 Rounding radius*
0 $2 $3 $4 $5 $6 $7 $8 $9 X,Y pos of 4 corners*
0 Add a 4 corners polygon primitive as box body*
4,1,4,$2,$3,$4,$5,$6,$7,$8,$9,$2,$3,0*
0 Add four circle primitives for the rounded corners*
1,1,$1+$1,$2,$3*
1,1,$1+$1,$4,$5*
1,1,$1+$1,$6,$7*
1,1,$1+$1,$8,$9*
0 Add four rect primitives between the rounded corners*
20,1,$1+$1,$2,$3,$4,$5,0*
20,1,$1+$1,$4,$5,$6,$7,0*
20,1,$1+$1,$6,$7,$8,$9,0*
20,1,$1+$1,$8,$9,$2,$3,0*%
G04 Aperture macros list end*
%ADD10O,0.850000X0.850000*%
%ADD11R,0.850000X0.850000*%
%ADD12RoundRect,0.250000X0.262500X0.450000X-0.262500X0.450000X-0.262500X-0.450000X0.262500X-0.450000X0*%
%ADD13RoundRect,0.250000X-0.450000X0.262500X-0.450000X-0.262500X0.450000X-0.262500X0.450000X0.262500X0*%
%ADD14C,0.700000*%
%ADD15O,0.900000X2.400000*%
%ADD16O,0.900000X1.700000*%
%ADD17RoundRect,0.250000X-0.475000X0.250000X-0.475000X-0.250000X0.475000X-0.250000X0.475000X0.250000X0*%
%ADD18C,0.600000*%
%ADD19R,4.200000X4.200000*%
%ADD20R,1.500000X0.900000*%
%ADD21R,0.900000X1.500000*%
%ADD22RoundRect,0.100000X-0.130000X-0.100000X0.130000X-0.100000X0.130000X0.100000X-0.130000X0.100000X0*%
%ADD23R,0.350000X0.500000*%
%ADD24RoundRect,0.250000X0.300000X-2.050000X0.300000X2.050000X-0.300000X2.050000X-0.300000X-2.050000X0*%
%ADD25RoundRect,0.250002X5.149998X-4.449998X5.149998X4.449998X-5.149998X4.449998X-5.149998X-4.449998X0*%
%ADD26RoundRect,0.100000X-0.100000X0.130000X-0.100000X-0.130000X0.100000X-0.130000X0.100000X0.130000X0*%
%ADD27R,3.500000X3.500000*%
%ADD28RoundRect,0.750000X1.000000X-0.750000X1.000000X0.750000X-1.000000X0.750000X-1.000000X-0.750000X0*%
%ADD29RoundRect,0.875000X0.875000X-0.875000X0.875000X0.875000X-0.875000X0.875000X-0.875000X-0.875000X0*%
%ADD30RoundRect,0.075000X-0.350000X-0.075000X0.350000X-0.075000X0.350000X0.075000X-0.350000X0.075000X0*%
%ADD31RoundRect,0.075000X0.075000X-0.350000X0.075000X0.350000X-0.075000X0.350000X-0.075000X-0.350000X0*%
%ADD32RoundRect,0.250000X0.250000X0.475000X-0.250000X0.475000X-0.250000X-0.475000X0.250000X-0.475000X0*%
%ADD33R,1.750000X0.450000*%
G04 APERTURE END LIST*
D10*
%TO.C,REF\u002A\u002A*%
X137000000Y-64750000D03*
X136000000Y-64750000D03*
X135000000Y-64750000D03*
D11*
X134000000Y-64750000D03*
%TD*%
D12*
%TO.C,R5*%
X140162500Y-91750000D03*
X138337500Y-91750000D03*
%TD*%
D13*
%TO.C,R2*%
X155750000Y-85087500D03*
X155750000Y-86912500D03*
%TD*%
D14*
%TO.C,J2*%
X159025000Y-126650000D03*
X159875000Y-126650000D03*
X160725000Y-126650000D03*
X161575000Y-126650000D03*
X162425000Y-126650000D03*
X163275000Y-126650000D03*
X164125000Y-126650000D03*
X164975000Y-126650000D03*
X164975000Y-128000000D03*
X164125000Y-128000000D03*
X163275000Y-128000000D03*
X162425000Y-128000000D03*
X161575000Y-128000000D03*
X160725000Y-128000000D03*
X159875000Y-128000000D03*
X159025000Y-128000000D03*
D15*
X157675000Y-127630000D03*
D16*
X157675000Y-131010000D03*
D15*
X166325000Y-127630000D03*
D16*
X166325000Y-131010000D03*
%TD*%
D17*
%TO.C,C1*%
X141000000Y-117050000D03*
X141000000Y-118950000D03*
%TD*%
D13*
%TO.C,R1*%
X144000000Y-87837500D03*
X144000000Y-89662500D03*
%TD*%
D18*
%TO.C,U4*%
X151000000Y-72287500D03*
X151000000Y-70762500D03*
X150237500Y-73050000D03*
X150237500Y-71525000D03*
X150237500Y-70000000D03*
X149475000Y-72287500D03*
D19*
X149475000Y-71525000D03*
D18*
X149475000Y-70762500D03*
X148712500Y-73050000D03*
X148712500Y-71525000D03*
X148712500Y-70000000D03*
X147950000Y-72287500D03*
X147950000Y-70762500D03*
D20*
X158905000Y-64185000D03*
X158905000Y-65455000D03*
X158905000Y-66725000D03*
X158905000Y-67995000D03*
X158905000Y-69265000D03*
X158905000Y-70535000D03*
X158905000Y-71805000D03*
X158905000Y-73075000D03*
X158905000Y-74345000D03*
X158905000Y-75615000D03*
X158905000Y-76885000D03*
X158905000Y-78155000D03*
X158905000Y-79425000D03*
X158905000Y-80695000D03*
D21*
X155875000Y-81945000D03*
X154605000Y-81945000D03*
X153335000Y-81945000D03*
X152065000Y-81945000D03*
X150795000Y-81945000D03*
X149525000Y-81945000D03*
X148255000Y-81945000D03*
X146985000Y-81945000D03*
X145715000Y-81945000D03*
X144445000Y-81945000D03*
D20*
X141405000Y-80695000D03*
X141405000Y-79425000D03*
X141405000Y-78155000D03*
X141405000Y-76885000D03*
X141405000Y-75615000D03*
X141405000Y-74345000D03*
X141405000Y-73075000D03*
X141405000Y-71805000D03*
X141405000Y-70535000D03*
X141405000Y-69265000D03*
X141405000Y-67995000D03*
X141405000Y-66725000D03*
X141405000Y-65455000D03*
X141405000Y-64185000D03*
%TD*%
D22*
%TO.C,C6*%
X146335000Y-95500000D03*
X146975000Y-95500000D03*
%TD*%
D23*
%TO.C,U2*%
X145800000Y-91950000D03*
X146450000Y-91950000D03*
X147100000Y-91950000D03*
X147750000Y-91950000D03*
X147750000Y-93550000D03*
X147100000Y-93550000D03*
X146450000Y-93550000D03*
X145800000Y-93550000D03*
%TD*%
D24*
%TO.C,U7*%
X135920000Y-113000000D03*
D25*
X138460000Y-103850000D03*
D24*
X141000000Y-113000000D03*
%TD*%
D26*
%TO.C,C4*%
X158500000Y-93430000D03*
X158500000Y-94070000D03*
%TD*%
D27*
%TO.C,J4*%
X146042500Y-125000000D03*
D28*
X146042500Y-131000000D03*
D29*
X150742500Y-128000000D03*
%TD*%
D17*
%TO.C,C7*%
X142500000Y-95300000D03*
X142500000Y-97200000D03*
%TD*%
D13*
%TO.C,R3*%
X152750000Y-85087500D03*
X152750000Y-86912500D03*
%TD*%
D30*
%TO.C,U1*%
X152050000Y-91750000D03*
X152050000Y-92250000D03*
X152050000Y-92750000D03*
X152050000Y-93250000D03*
X152050000Y-93750000D03*
X152050000Y-94250000D03*
D31*
X152750000Y-94950000D03*
X153250000Y-94950000D03*
X153750000Y-94950000D03*
X154250000Y-94950000D03*
X154750000Y-94950000D03*
X155250000Y-94950000D03*
D30*
X155950000Y-94250000D03*
X155950000Y-93750000D03*
X155950000Y-93250000D03*
X155950000Y-92750000D03*
X155950000Y-92250000D03*
X155950000Y-91750000D03*
D31*
X155250000Y-91050000D03*
X154750000Y-91050000D03*
X154250000Y-91050000D03*
X153750000Y-91050000D03*
X153250000Y-91050000D03*
X152750000Y-91050000D03*
%TD*%
D32*
%TO.C,C5*%
X147950000Y-103750000D03*
X146050000Y-103750000D03*
%TD*%
D33*
%TO.C,U6*%
X160400000Y-103775000D03*
X160400000Y-104425000D03*
X160400000Y-105075000D03*
X160400000Y-105725000D03*
X160400000Y-106375000D03*
X160400000Y-107025000D03*
X160400000Y-107675000D03*
X160400000Y-108325000D03*
X160400000Y-108975000D03*
X160400000Y-109625000D03*
X160400000Y-110275000D03*
X160400000Y-110925000D03*
X160400000Y-111575000D03*
X160400000Y-112225000D03*
X167600000Y-112225000D03*
X167600000Y-111575000D03*
X167600000Y-110925000D03*
X167600000Y-110275000D03*
X167600000Y-109625000D03*
X167600000Y-108975000D03*
X167600000Y-108325000D03*
X167600000Y-107675000D03*
X167600000Y-107025000D03*
X167600000Y-106375000D03*
X167600000Y-105725000D03*
X167600000Y-105075000D03*
X167600000Y-104425000D03*
X167600000Y-103775000D03*
%TD*%
D32*
%TO.C,C3*%
X147950000Y-100250000D03*
X146050000Y-100250000D03*
%TD*%
D26*
%TO.C,C2*%
X136000000Y-117680000D03*
X136000000Y-118320000D03*
%TD*%
D13*
%TO.C,R4*%
X146750000Y-87837500D03*
X146750000Y-89662500D03*
%TD*%
M02*
